999
FreeCAD v1.1 44987 (Git)
  0
SECTION
  2
HEADER
  9
$ACADVER
  1
AC1014
  9
$ACADMAINTVER
 70
     9
  9
$DWGCODEPAGE
  3
ANSI_1252
  9
$TEXTSTYLE
  7
STANDARD
  9
$DIMSTYLE
  2
STANDARD
  9
$DIMTXSTY
  7
STANDARD
  9
$CMLSTYLE
  2
STANDARD
  9
$LUNITS
 70
2
  9
$INSUNITS
 70
4
  9
$PEXTMAX
 10
50
 20
50
 30
50
  9
$PEXTMIN
 10
0
 20
0
 30
0
  9
$HANDSEED
  5
FFFF
  0
ENDSEC
  0
SECTION
  2
CLASSES
  0
CLASS
  1
ACDBDICTIONARYWDFLT
  2
AcDbDictionaryWithDefault
  3
ObjectDBX Classes
 90
        0
280
     0
281
     0
  0
CLASS
  1
XRECORD
  2
AcDbXrecord
  3
ObjectDBX Classes
 90
        0
280
     0
281
     0
  0
CLASS
  1
LWPOLYLINE
  2
AcDbPolyline
  3
ObjectDBX Classes
 90
        0
280
     0
281
     1
  0
ENDSEC
  0
SECTION
  2
TABLES
  0
TABLE
  2
VPORT
  5
20
330
0
100
AcDbSymbolTable
 70
     1
  0
VPORT
  5
21
330
20
100
AcDbSymbolTableRecord
100
AcDbViewportTableRecord
  2
*ACTIVE
 70
     0
  0
ENDTAB
  0
TABLE
  2
LTYPE
  5
22
330
0
100
AcDbSymbolTable
 70
     1
  0
LTYPE
  5
23
330
21
100
AcDbSymbolTableRecord
100
AcDbLinetypeTableRecord
  2
BYBLOCK
 70
     0
  3

 72
    65
 73
     0
 40
0.0
  0
LTYPE
  5
24
330
21
100
AcDbSymbolTableRecord
100
AcDbLinetypeTableRecord
  2
BYLAYER
 70
     0
  3

 72
    65
 73
     0
 40
0.0
  0
LTYPE
  5
25
330
21
100
AcDbSymbolTableRecord
100
AcDbLinetypeTableRecord
  2
CONTINUOUS
 70
     0
  3
Solid line
 72
    65
 73
     0
 40
0.0
  0
ENDTAB
  0
TABLE
  2
LAYER
  5
B59
330
0
100
AcDbSymbolTable
 70
6
  0
LAYER
  5
B5A
330
B59
100
AcDbSymbolTableRecord
100
AcDbLayerTableRecord
  2
0
 70
   0
 62
   7
  6
CONTINUOUS
  0
LAYER
  5
B5B
330
B59
100
AcDbSymbolTableRecord
100
AcDbLayerTableRecord
  2
none
 70
    0
 62
    7
  6
CONTINUOUS
  0
LAYER
  5
B5C
330
B59
100
AcDbSymbolTableRecord
100
AcDbLayerTableRecord
  2
PLATE_OUTLINE
 70
    0
 62
    7
  6
CONTINUOUS
  0
LAYER
  5
B5D
330
B59
100
AcDbSymbolTableRecord
100
AcDbLayerTableRecord
  2
ANNO_40P_BODY
 70
    0
 62
    7
  6
CONTINUOUS
  0
LAYER
  5
B5E
330
B59
100
AcDbSymbolTableRecord
100
AcDbLayerTableRecord
  2
ANNO_40P_PIN1
 70
    0
 62
    7
  6
CONTINUOUS
  0
LAYER
  5
B5F
330
B59
100
AcDbSymbolTableRecord
100
AcDbLayerTableRecord
  2
ShapeString
 70
    0
 62
    7
  6
CONTINUOUS
  0
ENDTAB
  0
TABLE
  2
STYLE
  5
70
330
0
100
AcDbSymbolTable
 70
     2
  0
STYLE
  5
71
330
70
100
AcDbSymbolTableRecord
100
AcDbTextStyleTableRecord
  2
STANDARD
 70
     0
 40
0.0
 41
1.0
 50
0.0
 71
     0
 42
2.5
  3
arial.ttf
  4

  0
STYLE
  5
72
330
70
100
AcDbSymbolTableRecord
100
AcDbTextStyleTableRecord
  2
ANNOTATIVE
 70
     0
 40
0.0
 41
1.0
 50
0.0
 71
     0
 42
2.5
  3
arial.ttf
  4

  0
ENDTAB
  0
TABLE
  2
VIEW
  5
73
330
0
100
AcDbSymbolTable
 70
     0
  0
ENDTAB
  0
TABLE
  2
UCS
  5
74
330
0
100
AcDbSymbolTable
 70
     0
  0
ENDTAB
  0
TABLE
  2
APPID
  5
75
330
0
100
AcDbSymbolTable
 70
     2
  0
APPID
  5
76
330
75
100
AcDbSymbolTableRecord
100
AcDbRegAppTableRecord
  2
ACAD
 70
     0
  0
APPID
  5
77
330
75
100
AcDbSymbolTableRecord
100
AcDbRegAppTableRecord
  2
ACADANNOTATIVE
 70
     0
  0
ENDTAB
  0
TABLE
  2
DIMSTYLE
  5
78
330
0
100
AcDbSymbolTable
 70
     2
  0
DIMSTYLE
105
79
330
78
100
AcDbSymbolTableRecord
100
AcDbDimStyleTableRecord
  2
STANDARD
 70
     0
  3

  4

  5

  6

  7

 40
0.0
 41
2.5
 42
0.625
 43
3.75
 44
1.25
 45
0.0
 46
0.0
 47
0.0
 48
0.0
140
2.5
141
2.5
142
0.0
143
0.03937007874016
144
1.0
145
0.0
146
1.0
147
0.625
 71
     0
 72
     0
 73
     0
 74
     0
 75
     0
 76
     0
 77
     1
 78
     8
170
     0
171
     3
172
     1
173
     0
174
     0
175
     0
176
     0
177
     0
178
     0
270
     2
271
     2
272
     2
273
     2
274
     3
340
71
275
     0
280
     0
281
     0
282
     0
283
     0
284
     8
285
     0
286
     0
287
     3
288
     0
  0
ENDTAB
  0
TABLE
  2
BLOCK_RECORD
  5
A01
330
0
100
AcDbSymbolTable
  70
5
  0
BLOCK_RECORD
  5
A02
330
A01
100
AcDbSymbolTableRecord
100
AcDbBlockTableRecord
  2
*MODEL_SPACE
  0
BLOCK_RECORD
  5
A03
330
A01
100
AcDbSymbolTableRecord
100
AcDbBlockTableRecord
  2
*PAPER_SPACE
  0
ENDTAB
  0
ENDSEC
  0
SECTION
  2
BLOCKS
  0
BLOCK
  5
A04
330
A02
100
AcDbEntity
  8
0
100
AcDbBlockBegin
  2
*MODEL_SPACE
 70
   0
 10
0
 20
0
 30
0
  3
*MODEL_SPACE
  1
 
  0
ENDBLK
  5
A05
330
A02
100
AcDbEntity
  8
0
100
AcDbBlockEnd
  0
BLOCK
  5
A06
330
A03
100
AcDbEntity
 67
1
  8
0
100
AcDbBlockBegin
  2
*PAPER_SPACE
 70
   0
 10
0
 20
0
 30
0
  3
*PAPER_SPACE
  1
 
  0
ENDBLK
  5
A07
330
A03
100
AcDbEntity
 67
    1
  8
0
100
AcDbBlockEnd
  0
ENDSEC
  0
SECTION
  2
ENTITIES
  0
LINE
  5
A08
330
A02
100
AcDbEntity
  8
PLATE_OUTLINE
100
AcDbLine
 10
18.400000000
 20
-0.000000000
 30
1.600000000
 11
18.400000000
 21
51.100000000
 31
1.600000000
  0
LINE
  5
A09
330
A02
100
AcDbEntity
  8
PLATE_OUTLINE
100
AcDbLine
 10
18.400000000
 20
0.000000000
 30
1.600000000
 11
83.500000000
 21
0.000000000
 31
1.600000000
  0
LINE
  5
A0A
330
A02
100
AcDbEntity
  8
PLATE_OUTLINE
100
AcDbLine
 10
18.500000000
 20
51.000000000
 30
1.600000000
 11
18.400000000
 21
51.100000000
 31
1.600000000
  0
ARC
  5
A0B
330
A02
100
AcDbEntity
  8
PLATE_OUTLINE
100
AcDbCircle
 10
83.500000000
 20
1.500000000
 30
1.600000000
 40
1.500000000
100
AcDbArc
 50
-90.000000000
 51
0.000000000
  0
LINE
  5
A0C
330
A02
100
AcDbEntity
  8
PLATE_OUTLINE
100
AcDbLine
 10
20.000000000
 20
52.500000000
 30
1.600000000
 11
18.500000000
 21
51.000000000
 31
1.600000000
  0
LINE
  5
A0D
330
A02
100
AcDbEntity
  8
PLATE_OUTLINE
100
AcDbLine
 10
85.000000000
 20
1.500000000
 30
1.600000000
 11
85.000000000
 21
54.500000000
 31
1.600000000
  0
LINE
  5
A0E
330
A02
100
AcDbEntity
  8
PLATE_OUTLINE
100
AcDbLine
 10
20.000000000
 20
55.000000000
 30
1.600000000
 11
20.000000000
 21
52.500000000
 31
1.600000000
  0
ARC
  5
A0F
330
A02
100
AcDbEntity
  8
PLATE_OUTLINE
100
AcDbCircle
 10
83.500000000
 20
54.500000000
 30
1.600000000
 40
1.500000000
100
AcDbArc
 50
0.000000000
 51
90.000000000
  0
LINE
  5
A10
330
A02
100
AcDbEntity
  8
PLATE_OUTLINE
100
AcDbLine
 10
21.000000000
 20
56.000000000
 30
1.600000000
 11
20.000000000
 21
55.000000000
 31
1.600000000
  0
LINE
  5
A11
330
A02
100
AcDbEntity
  8
PLATE_OUTLINE
100
AcDbLine
 10
21.000000000
 20
56.000000000
 30
1.600000000
 11
83.500000000
 21
56.000000000
 31
1.600000000
  0
CIRCLE
  5
A12
330
A02
100
AcDbEntity
  8
PLATE_OUTLINE
100
AcDbCircle
 10
23.500000000
 20
3.500000000
 30
1.600000000
 40
1.350000000
  0
CIRCLE
  5
A13
330
A02
100
AcDbEntity
  8
PLATE_OUTLINE
100
AcDbCircle
 10
51.000000000
 20
24.700000000
 30
1.600000000
 40
0.900000000
  0
CIRCLE
  5
A14
330
A02
100
AcDbEntity
  8
PLATE_OUTLINE
100
AcDbCircle
 10
81.500000000
 20
3.500000000
 30
1.600000000
 40
1.350000000
  0
LINE
  5
A15
330
A02
100
AcDbEntity
  8
PLATE_OUTLINE
100
AcDbLine
 10
84.000000000
 20
8.000000000
 30
1.600000000
 11
68.000000000
 21
8.000000000
 31
1.600000000
  0
LINE
  5
A16
330
A02
100
AcDbEntity
  8
PLATE_OUTLINE
100
AcDbLine
 10
84.000000000
 20
8.000000000
 30
1.600000000
 11
84.000000000
 21
20.000000000
 31
1.600000000
  0
LINE
  5
A17
330
A02
100
AcDbEntity
  8
PLATE_OUTLINE
100
AcDbLine
 10
68.000000000
 20
8.000000000
 30
1.600000000
 11
68.000000000
 21
20.000000000
 31
1.600000000
  0
LINE
  5
A18
330
A02
100
AcDbEntity
  8
PLATE_OUTLINE
100
AcDbLine
 10
84.000000000
 20
20.000000000
 30
1.600000000
 11
68.000000000
 21
20.000000000
 31
1.600000000
  0
CIRCLE
  5
A19
330
A02
100
AcDbEntity
  8
PLATE_OUTLINE
100
AcDbCircle
 10
66.000000000
 20
24.700000000
 30
1.600000000
 40
0.900000000
  0
CIRCLE
  5
A1A
330
A02
100
AcDbEntity
  8
PLATE_OUTLINE
100
AcDbCircle
 10
51.000000000
 20
39.700000000
 30
1.600000000
 40
0.900000000
  0
CIRCLE
  5
A1B
330
A02
100
AcDbEntity
  8
PLATE_OUTLINE
100
AcDbCircle
 10
23.500000000
 20
52.500000000
 30
1.600000000
 40
1.350000000
  0
CIRCLE
  5
A1C
330
A02
100
AcDbEntity
  8
PLATE_OUTLINE
100
AcDbCircle
 10
34.600000000
 20
48.800000000
 30
1.600000000
 40
1.100000000
  0
CIRCLE
  5
A1D
330
A02
100
AcDbEntity
  8
PLATE_OUTLINE
100
AcDbCircle
 10
44.400000000
 20
48.800000000
 30
1.600000000
 40
1.100000000
  0
CIRCLE
  5
A1E
330
A02
100
AcDbEntity
  8
PLATE_OUTLINE
100
AcDbCircle
 10
58.500000000
 20
32.200000000
 30
1.600000000
 40
8.000000000
  0
CIRCLE
  5
A1F
330
A02
100
AcDbEntity
  8
PLATE_OUTLINE
100
AcDbCircle
 10
66.000000000
 20
39.700000000
 30
1.600000000
 40
0.900000000
  0
CIRCLE
  5
A20
330
A02
100
AcDbEntity
  8
PLATE_OUTLINE
100
AcDbCircle
 10
81.500000000
 20
52.500000000
 30
1.600000000
 40
1.350000000
  0
LINE
  5
A21
330
A02
100
AcDbEntity
  8
ANNO_40P_BODY
100
AcDbLine
 10
25.980000000
 20
0.510000000
 30
0.000000000
 11
79.320000000
 21
0.510000000
 31
0.000000000
  0
LINE
  5
A22
330
A02
100
AcDbEntity
  8
ANNO_40P_BODY
100
AcDbLine
 10
79.320000000
 20
0.510000000
 30
0.000000000
 11
79.320000000
 21
5.590000000
 31
0.000000000
  0
LINE
  5
A23
330
A02
100
AcDbEntity
  8
ANNO_40P_BODY
100
AcDbLine
 10
79.320000000
 20
5.590000000
 30
0.000000000
 11
25.980000000
 21
5.590000000
 31
0.000000000
  0
LINE
  5
A24
330
A02
100
AcDbEntity
  8
ANNO_40P_BODY
100
AcDbLine
 10
25.980000000
 20
5.590000000
 30
0.000000000
 11
25.980000000
 21
0.510000000
 31
0.000000000
  0
CIRCLE
  5
A25
330
A02
100
AcDbEntity
  8
ANNO_40P_PIN1
100
AcDbCircle
 10
28.520000000
 20
1.780000000
 30
0.000000000
 40
0.800000000
  0
LINE
  5
A26
330
A02
100
AcDbEntity
  8
ShapeString
100
AcDbLine
 10
26.811696429
 20
9.090000000
 30
0.000000000
 11
27.151875000
 21
9.090000000
 31
0.000000000
  0
LINE
  5
A27
330
A02
100
AcDbEntity
  8
ShapeString
100
AcDbLine
 10
25.980000000
 20
7.825000000
 30
0.000000000
 11
26.811696429
 21
9.090000000
 31
0.000000000
  0
LINE
  5
A28
330
A02
100
AcDbEntity
  8
ShapeString
100
AcDbLine
 10
25.980000000
 20
7.564285714
 30
0.000000000
 11
25.980000000
 21
7.825000000
 31
0.000000000
  0
LINE
  5
A29
330
A02
100
AcDbEntity
  8
ShapeString
100
AcDbLine
 10
26.882678571
 20
7.564285714
 30
0.000000000
 11
25.980000000
 21
7.564285714
 31
0.000000000
  0
LINE
  5
A2A
330
A02
100
AcDbEntity
  8
ShapeString
100
AcDbLine
 10
26.882678571
 20
7.090000000
 30
0.000000000
 11
26.882678571
 21
7.564285714
 31
0.000000000
  0
LINE
  5
A2B
330
A02
100
AcDbEntity
  8
ShapeString
100
AcDbLine
 10
27.151875000
 20
7.090000000
 30
0.000000000
 11
26.882678571
 21
7.090000000
 31
0.000000000
  0
LINE
  5
A2C
330
A02
100
AcDbEntity
  8
ShapeString
100
AcDbLine
 10
27.151875000
 20
7.564285714
 30
0.000000000
 11
27.151875000
 21
7.090000000
 31
0.000000000
  0
LINE
  5
A2D
330
A02
100
AcDbEntity
  8
ShapeString
100
AcDbLine
 10
27.437142857
 20
7.564285714
 30
0.000000000
 11
27.151875000
 21
7.564285714
 31
0.000000000
  0
LINE
  5
A2E
330
A02
100
AcDbEntity
  8
ShapeString
100
AcDbLine
 10
27.437142857
 20
7.787142857
 30
0.000000000
 11
27.437142857
 21
7.564285714
 31
0.000000000
  0
LINE
  5
A2F
330
A02
100
AcDbEntity
  8
ShapeString
100
AcDbLine
 10
27.151875000
 20
7.787142857
 30
0.000000000
 11
27.437142857
 21
7.787142857
 31
0.000000000
  0
LINE
  5
A30
330
A02
100
AcDbEntity
  8
ShapeString
100
AcDbLine
 10
27.151875000
 20
9.090000000
 30
0.000000000
 11
27.151875000
 21
7.787142857
 31
0.000000000
  0
LINE
  5
A31
330
A02
100
AcDbEntity
  8
ShapeString
100
AcDbLine
 10
26.882678571
 20
8.854375000
 30
0.000000000
 11
26.199642857
 21
7.787142857
 31
0.000000000
  0
LINE
  5
A32
330
A02
100
AcDbEntity
  8
ShapeString
100
AcDbLine
 10
26.882678571
 20
7.787142857
 30
0.000000000
 11
26.882678571
 21
8.854375000
 31
0.000000000
  0
LINE
  5
A33
330
A02
100
AcDbEntity
  8
ShapeString
100
AcDbLine
 10
26.199642857
 20
7.787142857
 30
0.000000000
 11
26.882678571
 21
7.787142857
 31
0.000000000
  0
SPLINE
  5
A34
330
A02
100
AcDbEntity
  8
ShapeString
100
AcDbSpline
210
0
220
0
230
1
 70
8
 71
2
 72
6
 73
3
 74
0
 40
0.000000000
 40
0.000000000
 40
0.000000000
 40
1.000000000
 40
1.000000000
 40
1.000000000
 10
28.460803571
 20
9.124285714
 30
0.000000000
 10
28.796964286
 20
9.124285714
 30
0.000000000
 10
28.974375000
 20
8.858482143
 30
0.000000000
  0
SPLINE
  5
A35
330
A02
100
AcDbEntity
  8
ShapeString
100
AcDbSpline
210
0
220
0
230
1
 70
8
 71
2
 72
6
 73
3
 74
0
 40
0.000000000
 40
0.000000000
 40
0.000000000
 40
1.000000000
 40
1.000000000
 40
1.000000000
 10
27.947142857
 20
8.858482143
 30
0.000000000
 10
28.124642857
 20
9.124285714
 30
0.000000000
 10
28.460803571
 20
9.124285714
 30
0.000000000
  0
SPLINE
  5
A36
330
A02
100
AcDbEntity
  8
ShapeString
100
AcDbSpline
210
0
220
0
230
1
 70
8
 71
2
 72
6
 73
3
 74
0
 40
0.000000000
 40
0.000000000
 40
0.000000000
 40
1.000000000
 40
1.000000000
 40
1.000000000
 10
27.769732143
 20
8.086517857
 30
0.000000000
 10
27.769732143
 20
8.592678571
 30
0.000000000
 10
27.947142857
 20
8.858482143
 30
0.000000000
  0
SPLINE
  5
A37
330
A02
100
AcDbEntity
  8
ShapeString
100
AcDbSpline
210
0
220
0
230
1
 70
8
 71
2
 72
6
 73
3
 74
0
 40
0.000000000
 40
0.000000000
 40
0.000000000
 40
1.000000000
 40
1.000000000
 40
1.000000000
 10
27.947142857
 20
7.315803571
 30
0.000000000
 10
27.769732143
 20
7.581607143
 30
0.000000000
 10
27.769732143
 20
8.086517857
 30
0.000000000
  0
SPLINE
  5
A38
330
A02
100
AcDbEntity
  8
ShapeString
100
AcDbSpline
210
0
220
0
230
1
 70
8
 71
2
 72
6
 73
3
 74
0
 40
0.000000000
 40
0.000000000
 40
0.000000000
 40
1.000000000
 40
1.000000000
 40
1.000000000
 10
28.460803571
 20
7.050000000
 30
0.000000000
 10
28.124642857
 20
7.050000000
 30
0.000000000
 10
27.947142857
 20
7.315803571
 30
0.000000000
  0
SPLINE
  5
A39
330
A02
100
AcDbEntity
  8
ShapeString
100
AcDbSpline
210
0
220
0
230
1
 70
8
 71
2
 72
6
 73
3
 74
0
 40
0.000000000
 40
0.000000000
 40
0.000000000
 40
1.000000000
 40
1.000000000
 40
1.000000000
 10
28.974375000
 20
7.315803571
 30
0.000000000
 10
28.796964286
 20
7.050000000
 30
0.000000000
 10
28.460803571
 20
7.050000000
 30
0.000000000
  0
SPLINE
  5
A3A
330
A02
100
AcDbEntity
  8
ShapeString
100
AcDbSpline
210
0
220
0
230
1
 70
8
 71
2
 72
6
 73
3
 74
0
 40
0.000000000
 40
0.000000000
 40
0.000000000
 40
1.000000000
 40
1.000000000
 40
1.000000000
 10
29.151875000
 20
8.086517857
 30
0.000000000
 10
29.151875000
 20
7.581607143
 30
0.000000000
 10
28.974375000
 20
7.315803571
 30
0.000000000
  0
SPLINE
  5
A3B
330
A02
100
AcDbEntity
  8
ShapeString
100
AcDbSpline
210
0
220
0
230
1
 70
8
 71
2
 72
6
 73
3
 74
0
 40
0.000000000
 40
0.000000000
 40
0.000000000
 40
1.000000000
 40
1.000000000
 40
1.000000000
 10
28.974375000
 20
8.858482143
 30
0.000000000
 10
29.151875000
 20
8.592678571
 30
0.000000000
 10
29.151875000
 20
8.086517857
 30
0.000000000
  0
SPLINE
  5
A3C
330
A02
100
AcDbEntity
  8
ShapeString
100
AcDbSpline
210
0
220
0
230
1
 70
8
 71
2
 72
6
 73
3
 74
0
 40
0.000000000
 40
0.000000000
 40
0.000000000
 40
1.000000000
 40
1.000000000
 40
1.000000000
 10
28.460803571
 20
8.907142857
 30
0.000000000
 10
28.251875000
 20
8.907142857
 30
0.000000000
 10
28.146696429
 20
8.702321429
 30
0.000000000
  0
SPLINE
  5
A3D
330
A02
100
AcDbEntity
  8
ShapeString
100
AcDbSpline
210
0
220
0
230
1
 70
8
 71
2
 72
6
 73
3
 74
0
 40
0.000000000
 40
0.000000000
 40
0.000000000
 40
1.000000000
 40
1.000000000
 40
1.000000000
 10
28.776160714
 20
8.702321429
 30
0.000000000
 10
28.671071429
 20
8.907142857
 30
0.000000000
 10
28.460803571
 20
8.907142857
 30
0.000000000
  0
SPLINE
  5
A3E
330
A02
100
AcDbEntity
  8
ShapeString
100
AcDbSpline
210
0
220
0
230
1
 70
8
 71
2
 72
6
 73
3
 74
0
 40
0.000000000
 40
0.000000000
 40
0.000000000
 40
1.000000000
 40
1.000000000
 40
1.000000000
 10
28.881339286
 20
8.086517857
 30
0.000000000
 10
28.881339286
 20
8.497500000
 30
0.000000000
 10
28.776160714
 20
8.702321429
 30
0.000000000
  0
SPLINE
  5
A3F
330
A02
100
AcDbEntity
  8
ShapeString
100
AcDbSpline
210
0
220
0
230
1
 70
8
 71
2
 72
6
 73
3
 74
0
 40
0.000000000
 40
0.000000000
 40
0.000000000
 40
1.000000000
 40
1.000000000
 40
1.000000000
 10
28.776160714
 20
7.471964286
 30
0.000000000
 10
28.881339286
 20
7.676785714
 30
0.000000000
 10
28.881339286
 20
8.086517857
 30
0.000000000
  0
SPLINE
  5
A40
330
A02
100
AcDbEntity
  8
ShapeString
100
AcDbSpline
210
0
220
0
230
1
 70
8
 71
2
 72
6
 73
3
 74
0
 40
0.000000000
 40
0.000000000
 40
0.000000000
 40
1.000000000
 40
1.000000000
 40
1.000000000
 10
28.460803571
 20
7.267142857
 30
0.000000000
 10
28.671071429
 20
7.267142857
 30
0.000000000
 10
28.776160714
 20
7.471964286
 30
0.000000000
  0
SPLINE
  5
A41
330
A02
100
AcDbEntity
  8
ShapeString
100
AcDbSpline
210
0
220
0
230
1
 70
8
 71
2
 72
6
 73
3
 74
0
 40
0.000000000
 40
0.000000000
 40
0.000000000
 40
1.000000000
 40
1.000000000
 40
1.000000000
 10
28.146696429
 20
7.471964286
 30
0.000000000
 10
28.251875000
 20
7.267142857
 30
0.000000000
 10
28.460803571
 20
7.267142857
 30
0.000000000
  0
SPLINE
  5
A42
330
A02
100
AcDbEntity
  8
ShapeString
100
AcDbSpline
210
0
220
0
230
1
 70
8
 71
2
 72
6
 73
3
 74
0
 40
0.000000000
 40
0.000000000
 40
0.000000000
 40
1.000000000
 40
1.000000000
 40
1.000000000
 10
28.041607143
 20
8.086517857
 30
0.000000000
 10
28.041607143
 20
7.676785714
 30
0.000000000
 10
28.146696429
 20
7.471964286
 30
0.000000000
  0
SPLINE
  5
A43
330
A02
100
AcDbEntity
  8
ShapeString
100
AcDbSpline
210
0
220
0
230
1
 70
8
 71
2
 72
6
 73
3
 74
0
 40
0.000000000
 40
0.000000000
 40
0.000000000
 40
1.000000000
 40
1.000000000
 40
1.000000000
 10
28.146696429
 20
8.702321429
 30
0.000000000
 10
28.041607143
 20
8.497500000
 30
0.000000000
 10
28.041607143
 20
8.086517857
 30
0.000000000
  0
LINE
  5
A44
330
A02
100
AcDbEntity
  8
ShapeString
100
AcDbLine
 10
29.600982143
 20
9.090000000
 30
0.000000000
 11
30.211696429
 21
9.090000000
 31
0.000000000
  0
LINE
  5
A45
330
A02
100
AcDbEntity
  8
ShapeString
100
AcDbLine
 10
29.600982143
 20
7.090000000
 30
0.000000000
 11
29.600982143
 21
9.090000000
 31
0.000000000
  0
LINE
  5
A46
330
A02
100
AcDbEntity
  8
ShapeString
100
AcDbLine
 10
29.871517857
 20
7.090000000
 30
0.000000000
 11
29.600982143
 21
7.090000000
 31
0.000000000
  0
LINE
  5
A47
330
A02
100
AcDbEntity
  8
ShapeString
100
AcDbLine
 10
29.871517857
 20
7.895714286
 30
0.000000000
 11
29.871517857
 21
7.090000000
 31
0.000000000
  0
LINE
  5
A48
330
A02
100
AcDbEntity
  8
ShapeString
100
AcDbLine
 10
30.211696429
 20
7.895714286
 30
0.000000000
 11
29.871517857
 21
7.895714286
 31
0.000000000
  0
SPLINE
  5
A49
330
A02
100
AcDbEntity
  8
ShapeString
100
AcDbSpline
210
0
220
0
230
1
 70
8
 71
2
 72
6
 73
3
 74
0
 40
0.000000000
 40
0.000000000
 40
0.000000000
 40
1.000000000
 40
1.000000000
 40
1.000000000
 10
30.719910714
 20
8.046785714
 30
0.000000000
 10
30.547857143
 20
7.895714286
 30
0.000000000
 10
30.211696429
 20
7.895714286
 30
0.000000000
  0
SPLINE
  5
A4A
330
A02
100
AcDbEntity
  8
ShapeString
100
AcDbSpline
210
0
220
0
230
1
 70
8
 71
2
 72
6
 73
3
 74
0
 40
0.000000000
 40
0.000000000
 40
0.000000000
 40
1.000000000
 40
1.000000000
 40
1.000000000
 10
30.892053571
 20
8.493482143
 30
0.000000000
 10
30.892053571
 20
8.197946429
 30
0.000000000
 10
30.719910714
 20
8.046785714
 30
0.000000000
  0
SPLINE
  5
A4B
330
A02
100
AcDbEntity
  8
ShapeString
100
AcDbSpline
210
0
220
0
230
1
 70
8
 71
2
 72
6
 73
3
 74
0
 40
0.000000000
 40
0.000000000
 40
0.000000000
 40
1.000000000
 40
1.000000000
 40
1.000000000
 10
30.719910714
 20
8.938214286
 30
0.000000000
 10
30.892053571
 20
8.786428571
 30
0.000000000
 10
30.892053571
 20
8.493482143
 30
0.000000000
  0
SPLINE
  5
A4C
330
A02
100
AcDbEntity
  8
ShapeString
100
AcDbSpline
210
0
220
0
230
1
 70
8
 71
2
 72
6
 73
3
 74
0
 40
0.000000000
 40
0.000000000
 40
0.000000000
 40
1.000000000
 40
1.000000000
 40
1.000000000
 10
30.211696429
 20
9.090000000
 30
0.000000000
 10
30.547857143
 20
9.090000000
 30
0.000000000
 10
30.719910714
 20
8.938214286
 30
0.000000000
  0
LINE
  5
A4D
330
A02
100
AcDbEntity
  8
ShapeString
100
AcDbLine
 10
29.871517857
 20
8.867142857
 30
0.000000000
 11
29.871517857
 21
8.118571429
 31
0.000000000
  0
LINE
  5
A4E
330
A02
100
AcDbEntity
  8
ShapeString
100
AcDbLine
 10
30.211696429
 20
8.867142857
 30
0.000000000
 11
29.871517857
 21
8.867142857
 31
0.000000000
  0
SPLINE
  5
A4F
330
A02
100
AcDbEntity
  8
ShapeString
100
AcDbSpline
210
0
220
0
230
1
 70
8
 71
2
 72
6
 73
3
 74
0
 40
0.000000000
 40
0.000000000
 40
0.000000000
 40
1.000000000
 40
1.000000000
 40
1.000000000
 10
30.503660714
 20
8.769732143
 30
0.000000000
 10
30.400535714
 20
8.867142857
 30
0.000000000
 10
30.211696429
 20
8.867142857
 30
0.000000000
  0
SPLINE
  5
A50
330
A02
100
AcDbEntity
  8
ShapeString
100
AcDbSpline
210
0
220
0
230
1
 70
8
 71
2
 72
6
 73
3
 74
0
 40
0.000000000
 40
0.000000000
 40
0.000000000
 40
1.000000000
 40
1.000000000
 40
1.000000000
 10
30.606785714
 20
8.493482143
 30
0.000000000
 10
30.606785714
 20
8.672321429
 30
0.000000000
 10
30.503660714
 20
8.769732143
 30
0.000000000
  0
SPLINE
  5
A51
330
A02
100
AcDbEntity
  8
ShapeString
100
AcDbSpline
210
0
220
0
230
1
 70
8
 71
2
 72
6
 73
3
 74
0
 40
0.000000000
 40
0.000000000
 40
0.000000000
 40
1.000000000
 40
1.000000000
 40
1.000000000
 10
30.503660714
 20
8.215982143
 30
0.000000000
 10
30.606785714
 20
8.313392857
 30
0.000000000
 10
30.606785714
 20
8.493482143
 30
0.000000000
  0
SPLINE
  5
A52
330
A02
100
AcDbEntity
  8
ShapeString
100
AcDbSpline
210
0
220
0
230
1
 70
8
 71
2
 72
6
 73
3
 74
0
 40
0.000000000
 40
0.000000000
 40
0.000000000
 40
1.000000000
 40
1.000000000
 40
1.000000000
 10
30.211696429
 20
8.118571429
 30
0.000000000
 10
30.400535714
 20
8.118571429
 30
0.000000000
 10
30.503660714
 20
8.215982143
 30
0.000000000
  0
LINE
  5
A53
330
A02
100
AcDbEntity
  8
ShapeString
100
AcDbLine
 10
29.871517857
 20
8.118571429
 30
0.000000000
 11
30.211696429
 21
8.118571429
 31
0.000000000
  0
LINE
  5
A54
330
A02
100
AcDbEntity
  8
ShapeString
100
AcDbLine
 10
32.383839286
 20
7.318571429
 30
0.000000000
 11
33.328035714
 21
7.318571429
 31
0.000000000
  0
SPLINE
  5
A55
330
A02
100
AcDbEntity
  8
ShapeString
100
AcDbSpline
210
0
220
0
230
1
 70
8
 71
2
 72
6
 73
3
 74
0
 40
0.000000000
 40
0.000000000
 40
0.000000000
 40
1.000000000
 40
1.000000000
 40
1.000000000
 10
32.890089286
 20
7.836875000
 30
0.000000000
 10
32.710625000
 20
7.651607143
 30
0.000000000
 10
32.383839286
 20
7.318571429
 30
0.000000000
  0
SPLINE
  5
A56
330
A02
100
AcDbEntity
  8
ShapeString
100
AcDbSpline
210
0
220
0
230
1
 70
8
 71
2
 72
6
 73
3
 74
0
 40
0.000000000
 40
0.000000000
 40
0.000000000
 40
1.000000000
 40
1.000000000
 40
1.000000000
 10
33.103035714
 20
8.060892857
 30
0.000000000
 10
33.069553571
 20
8.022142857
 30
0.000000000
 10
32.890089286
 20
7.836875000
 30
0.000000000
  0
SPLINE
  5
A57
330
A02
100
AcDbEntity
  8
ShapeString
100
AcDbSpline
210
0
220
0
230
1
 70
8
 71
2
 72
6
 73
3
 74
0
 40
0.000000000
 40
0.000000000
 40
0.000000000
 40
1.000000000
 40
1.000000000
 40
1.000000000
 10
33.271071429
 20
8.321071429
 30
0.000000000
 10
33.224910714
 20
8.210714286
 30
0.000000000
 10
33.103035714
 20
8.060892857
 30
0.000000000
  0
SPLINE
  5
A58
330
A02
100
AcDbEntity
  8
ShapeString
100
AcDbSpline
210
0
220
0
230
1
 70
8
 71
2
 72
6
 73
3
 74
0
 40
0.000000000
 40
0.000000000
 40
0.000000000
 40
1.000000000
 40
1.000000000
 40
1.000000000
 10
33.317321429
 20
8.554464286
 30
0.000000000
 10
33.317321429
 20
8.431428571
 30
0.000000000
 10
33.271071429
 20
8.321071429
 30
0.000000000
  0
SPLINE
  5
A59
330
A02
100
AcDbEntity
  8
ShapeString
100
AcDbSpline
210
0
220
0
230
1
 70
8
 71
2
 72
6
 73
3
 74
0
 40
0.000000000
 40
0.000000000
 40
0.000000000
 40
1.000000000
 40
1.000000000
 40
1.000000000
 10
33.132500000
 20
8.969107143
 30
0.000000000
 10
33.317321429
 20
8.813928571
 30
0.000000000
 10
33.317321429
 20
8.554464286
 30
0.000000000
  0
SPLINE
  5
A5A
330
A02
100
AcDbEntity
  8
ShapeString
100
AcDbSpline
210
0
220
0
230
1
 70
8
 71
2
 72
6
 73
3
 74
0
 40
0.000000000
 40
0.000000000
 40
0.000000000
 40
1.000000000
 40
1.000000000
 40
1.000000000
 10
32.636964286
 20
9.124285714
 30
0.000000000
 10
32.947678571
 20
9.124285714
 30
0.000000000
 10
33.132500000
 20
8.969107143
 30
0.000000000
  0
SPLINE
  5
A5B
330
A02
100
AcDbEntity
  8
ShapeString
100
AcDbSpline
210
0
220
0
230
1
 70
8
 71
2
 72
6
 73
3
 74
0
 40
0.000000000
 40
0.000000000
 40
0.000000000
 40
1.000000000
 40
1.000000000
 40
1.000000000
 10
32.377142857
 20
9.091071429
 30
0.000000000
 10
32.519107143
 20
9.124285714
 30
0.000000000
 10
32.636964286
 20
9.124285714
 30
0.000000000
  0
SPLINE
  5
A5C
330
A02
100
AcDbEntity
  8
ShapeString
100
AcDbSpline
210
0
220
0
230
1
 70
8
 71
2
 72
6
 73
3
 74
0
 40
0.000000000
 40
0.000000000
 40
0.000000000
 40
1.000000000
 40
1.000000000
 40
1.000000000
 10
32.071785714
 20
8.992857143
 30
0.000000000
 10
32.235178571
 20
9.057946429
 30
0.000000000
 10
32.377142857
 20
9.091071429
 30
0.000000000
  0
LINE
  5
A5D
330
A02
100
AcDbEntity
  8
ShapeString
100
AcDbLine
 10
32.071785714
 20
8.718571429
 30
0.000000000
 11
32.071785714
 21
8.992857143
 31
0.000000000
  0
SPLINE
  5
A5E
330
A02
100
AcDbEntity
  8
ShapeString
100
AcDbSpline
210
0
220
0
230
1
 70
8
 71
2
 72
6
 73
3
 74
0
 40
0.000000000
 40
0.000000000
 40
0.000000000
 40
1.000000000
 40
1.000000000
 40
1.000000000
 10
32.373750000
 20
8.851696429
 30
0.000000000
 10
32.232500000
 20
8.807767857
 30
0.000000000
 10
32.071785714
 20
8.718571429
 30
0.000000000
  0
SPLINE
  5
A5F
330
A02
100
AcDbEntity
  8
ShapeString
100
AcDbSpline
210
0
220
0
230
1
 70
8
 71
2
 72
6
 73
3
 74
0
 40
0.000000000
 40
0.000000000
 40
0.000000000
 40
1.000000000
 40
1.000000000
 40
1.000000000
 10
32.642321429
 20
8.895714286
 30
0.000000000
 10
32.515089286
 20
8.895714286
 30
0.000000000
 10
32.373750000
 20
8.851696429
 30
0.000000000
  0
SPLINE
  5
A60
330
A02
100
AcDbEntity
  8
ShapeString
100
AcDbSpline
210
0
220
0
230
1
 70
8
 71
2
 72
6
 73
3
 74
0
 40
0.000000000
 40
0.000000000
 40
0.000000000
 40
1.000000000
 40
1.000000000
 40
1.000000000
 10
32.933571429
 20
8.795446429
 30
0.000000000
 10
32.821785714
 20
8.895714286
 30
0.000000000
 10
32.642321429
 20
8.895714286
 30
0.000000000
  0
SPLINE
  5
A61
330
A02
100
AcDbEntity
  8
ShapeString
100
AcDbSpline
210
0
220
0
230
1
 70
8
 71
2
 72
6
 73
3
 74
0
 40
0.000000000
 40
0.000000000
 40
0.000000000
 40
1.000000000
 40
1.000000000
 40
1.000000000
 10
33.045446429
 20
8.536160714
 30
0.000000000
 10
33.045446429
 20
8.695267857
 30
0.000000000
 10
32.933571429
 20
8.795446429
 30
0.000000000
  0
SPLINE
  5
A62
330
A02
100
AcDbEntity
  8
ShapeString
100
AcDbSpline
210
0
220
0
230
1
 70
8
 71
2
 72
6
 73
3
 74
0
 40
0.000000000
 40
0.000000000
 40
0.000000000
 40
1.000000000
 40
1.000000000
 40
1.000000000
 10
32.993839286
 20
8.337678571
 30
0.000000000
 10
33.045446429
 20
8.438571429
 30
0.000000000
 10
33.045446429
 20
8.536160714
 30
0.000000000
  0
SPLINE
  5
A63
330
A02
100
AcDbEntity
  8
ShapeString
100
AcDbSpline
210
0
220
0
230
1
 70
8
 71
2
 72
6
 73
3
 74
0
 40
0.000000000
 40
0.000000000
 40
0.000000000
 40
1.000000000
 40
1.000000000
 40
1.000000000
 10
32.812410714
 20
8.091071429
 30
0.000000000
 10
32.942321429
 20
8.236785714
 30
0.000000000
 10
32.993839286
 20
8.337678571
 30
0.000000000
  0
SPLINE
  5
A64
330
A02
100
AcDbEntity
  8
ShapeString
100
AcDbSpline
210
0
220
0
230
1
 70
8
 71
2
 72
6
 73
3
 74
0
 40
0.000000000
 40
0.000000000
 40
0.000000000
 40
1.000000000
 40
1.000000000
 40
1.000000000
 10
32.478214286
 20
7.745535714
 30
0.000000000
 10
32.744107143
 20
8.013571429
 30
0.000000000
 10
32.812410714
 20
8.091071429
 30
0.000000000
  0
SPLINE
  5
A65
330
A02
100
AcDbEntity
  8
ShapeString
100
AcDbSpline
210
0
220
0
230
1
 70
8
 71
2
 72
6
 73
3
 74
0
 40
0.000000000
 40
0.000000000
 40
0.000000000
 40
1.000000000
 40
1.000000000
 40
1.000000000
 10
32.058392857
 20
7.318571429
 30
0.000000000
 10
32.212410714
 20
7.477589286
 30
0.000000000
 10
32.478214286
 20
7.745535714
 30
0.000000000
  0
LINE
  5
A66
330
A02
100
AcDbEntity
  8
ShapeString
100
AcDbLine
 10
32.058392857
 20
7.090000000
 30
0.000000000
 11
32.058392857
 21
7.318571429
 31
0.000000000
  0
LINE
  5
A67
330
A02
100
AcDbEntity
  8
ShapeString
100
AcDbLine
 10
33.328035714
 20
7.090000000
 30
0.000000000
 11
32.058392857
 21
7.090000000
 31
0.000000000
  0
LINE
  5
A68
330
A02
100
AcDbEntity
  8
ShapeString
100
AcDbLine
 10
33.328035714
 20
7.318571429
 30
0.000000000
 11
33.328035714
 21
7.090000000
 31
0.000000000
  0
LINE
  5
A69
330
A02
100
AcDbEntity
  8
ShapeString
100
AcDbLine
 10
35.105714286
 20
8.592857143
 30
0.000000000
 11
34.563303571
 21
7.861517857
 31
0.000000000
  0
LINE
  5
A6A
330
A02
100
AcDbEntity
  8
ShapeString
100
AcDbLine
 10
34.815089286
 20
8.592857143
 30
0.000000000
 11
35.105714286
 21
8.592857143
 31
0.000000000
  0
LINE
  5
A6B
330
A02
100
AcDbEntity
  8
ShapeString
100
AcDbLine
 10
34.417321429
 20
8.057500000
 30
0.000000000
 11
34.815089286
 21
8.592857143
 31
0.000000000
  0
LINE
  5
A6C
330
A02
100
AcDbEntity
  8
ShapeString
100
AcDbLine
 10
34.019553571
 20
8.592857143
 30
0.000000000
 11
34.417321429
 21
8.057500000
 31
0.000000000
  0
LINE
  5
A6D
330
A02
100
AcDbEntity
  8
ShapeString
100
AcDbLine
 10
33.728928571
 20
8.592857143
 30
0.000000000
 11
34.019553571
 21
8.592857143
 31
0.000000000
  0
LINE
  5
A6E
330
A02
100
AcDbEntity
  8
ShapeString
100
AcDbLine
 10
34.261964286
 20
7.876339286
 30
0.000000000
 11
33.728928571
 21
8.592857143
 31
0.000000000
  0
LINE
  5
A6F
330
A02
100
AcDbEntity
  8
ShapeString
100
AcDbLine
 10
33.679375000
 20
7.090000000
 30
0.000000000
 11
34.261964286
 21
7.876339286
 31
0.000000000
  0
LINE
  5
A70
330
A02
100
AcDbEntity
  8
ShapeString
100
AcDbLine
 10
33.970000000
 20
7.090000000
 30
0.000000000
 11
33.679375000
 21
7.090000000
 31
0.000000000
  0
LINE
  5
A71
330
A02
100
AcDbEntity
  8
ShapeString
100
AcDbLine
 10
34.406607143
 20
7.680446429
 30
0.000000000
 11
33.970000000
 21
7.090000000
 31
0.000000000
  0
LINE
  5
A72
330
A02
100
AcDbEntity
  8
ShapeString
100
AcDbLine
 10
34.843214286
 20
7.090000000
 30
0.000000000
 11
34.406607143
 21
7.680446429
 31
0.000000000
  0
LINE
  5
A73
330
A02
100
AcDbEntity
  8
ShapeString
100
AcDbLine
 10
35.133839286
 20
7.090000000
 30
0.000000000
 11
34.843214286
 21
7.090000000
 31
0.000000000
  0
LINE
  5
A74
330
A02
100
AcDbEntity
  8
ShapeString
100
AcDbLine
 10
34.563303571
 20
7.861517857
 30
0.000000000
 11
35.133839286
 21
7.090000000
 31
0.000000000
  0
LINE
  5
A75
330
A02
100
AcDbEntity
  8
ShapeString
100
AcDbLine
 10
35.749553571
 20
7.318571429
 30
0.000000000
 11
36.693750000
 21
7.318571429
 31
0.000000000
  0
SPLINE
  5
A76
330
A02
100
AcDbEntity
  8
ShapeString
100
AcDbSpline
210
0
220
0
230
1
 70
8
 71
2
 72
6
 73
3
 74
0
 40
0.000000000
 40
0.000000000
 40
0.000000000
 40
1.000000000
 40
1.000000000
 40
1.000000000
 10
36.255803571
 20
7.836875000
 30
0.000000000
 10
36.076339286
 20
7.651607143
 30
0.000000000
 10
35.749553571
 20
7.318571429
 30
0.000000000
  0
SPLINE
  5
A77
330
A02
100
AcDbEntity
  8
ShapeString
100
AcDbSpline
210
0
220
0
230
1
 70
8
 71
2
 72
6
 73
3
 74
0
 40
0.000000000
 40
0.000000000
 40
0.000000000
 40
1.000000000
 40
1.000000000
 40
1.000000000
 10
36.468750000
 20
8.060892857
 30
0.000000000
 10
36.435267857
 20
8.022142857
 30
0.000000000
 10
36.255803571
 20
7.836875000
 30
0.000000000
  0
SPLINE
  5
A78
330
A02
100
AcDbEntity
  8
ShapeString
100
AcDbSpline
210
0
220
0
230
1
 70
8
 71
2
 72
6
 73
3
 74
0
 40
0.000000000
 40
0.000000000
 40
0.000000000
 40
1.000000000
 40
1.000000000
 40
1.000000000
 10
36.636785714
 20
8.321071429
 30
0.000000000
 10
36.590625000
 20
8.210714286
 30
0.000000000
 10
36.468750000
 20
8.060892857
 30
0.000000000
  0
SPLINE
  5
A79
330
A02
100
AcDbEntity
  8
ShapeString
100
AcDbSpline
210
0
220
0
230
1
 70
8
 71
2
 72
6
 73
3
 74
0
 40
0.000000000
 40
0.000000000
 40
0.000000000
 40
1.000000000
 40
1.000000000
 40
1.000000000
 10
36.683035714
 20
8.554464286
 30
0.000000000
 10
36.683035714
 20
8.431428571
 30
0.000000000
 10
36.636785714
 20
8.321071429
 30
0.000000000
  0
SPLINE
  5
A7A
330
A02
100
AcDbEntity
  8
ShapeString
100
AcDbSpline
210
0
220
0
230
1
 70
8
 71
2
 72
6
 73
3
 74
0
 40
0.000000000
 40
0.000000000
 40
0.000000000
 40
1.000000000
 40
1.000000000
 40
1.000000000
 10
36.498214286
 20
8.969107143
 30
0.000000000
 10
36.683035714
 20
8.813928571
 30
0.000000000
 10
36.683035714
 20
8.554464286
 30
0.000000000
  0
SPLINE
  5
A7B
330
A02
100
AcDbEntity
  8
ShapeString
100
AcDbSpline
210
0
220
0
230
1
 70
8
 71
2
 72
6
 73
3
 74
0
 40
0.000000000
 40
0.000000000
 40
0.000000000
 40
1.000000000
 40
1.000000000
 40
1.000000000
 10
36.002678571
 20
9.124285714
 30
0.000000000
 10
36.313392857
 20
9.124285714
 30
0.000000000
 10
36.498214286
 20
8.969107143
 30
0.000000000
  0
SPLINE
  5
A7C
330
A02
100
AcDbEntity
  8
ShapeString
100
AcDbSpline
210
0
220
0
230
1
 70
8
 71
2
 72
6
 73
3
 74
0
 40
0.000000000
 40
0.000000000
 40
0.000000000
 40
1.000000000
 40
1.000000000
 40
1.000000000
 10
35.742857143
 20
9.091071429
 30
0.000000000
 10
35.884821429
 20
9.124285714
 30
0.000000000
 10
36.002678571
 20
9.124285714
 30
0.000000000
  0
SPLINE
  5
A7D
330
A02
100
AcDbEntity
  8
ShapeString
100
AcDbSpline
210
0
220
0
230
1
 70
8
 71
2
 72
6
 73
3
 74
0
 40
0.000000000
 40
0.000000000
 40
0.000000000
 40
1.000000000
 40
1.000000000
 40
1.000000000
 10
35.437500000
 20
8.992857143
 30
0.000000000
 10
35.600892857
 20
9.057946429
 30
0.000000000
 10
35.742857143
 20
9.091071429
 30
0.000000000
  0
LINE
  5
A7E
330
A02
100
AcDbEntity
  8
ShapeString
100
AcDbLine
 10
35.437500000
 20
8.718571429
 30
0.000000000
 11
35.437500000
 21
8.992857143
 31
0.000000000
  0
SPLINE
  5
A7F
330
A02
100
AcDbEntity
  8
ShapeString
100
AcDbSpline
210
0
220
0
230
1
 70
8
 71
2
 72
6
 73
3
 74
0
 40
0.000000000
 40
0.000000000
 40
0.000000000
 40
1.000000000
 40
1.000000000
 40
1.000000000
 10
35.739464286
 20
8.851696429
 30
0.000000000
 10
35.598214286
 20
8.807767857
 30
0.000000000
 10
35.437500000
 20
8.718571429
 30
0.000000000
  0
SPLINE
  5
A80
330
A02
100
AcDbEntity
  8
ShapeString
100
AcDbSpline
210
0
220
0
230
1
 70
8
 71
2
 72
6
 73
3
 74
0
 40
0.000000000
 40
0.000000000
 40
0.000000000
 40
1.000000000
 40
1.000000000
 40
1.000000000
 10
36.008035714
 20
8.895714286
 30
0.000000000
 10
35.880803571
 20
8.895714286
 30
0.000000000
 10
35.739464286
 20
8.851696429
 30
0.000000000
  0
SPLINE
  5
A81
330
A02
100
AcDbEntity
  8
ShapeString
100
AcDbSpline
210
0
220
0
230
1
 70
8
 71
2
 72
6
 73
3
 74
0
 40
0.000000000
 40
0.000000000
 40
0.000000000
 40
1.000000000
 40
1.000000000
 40
1.000000000
 10
36.299285714
 20
8.795446429
 30
0.000000000
 10
36.187500000
 20
8.895714286
 30
0.000000000
 10
36.008035714
 20
8.895714286
 30
0.000000000
  0
SPLINE
  5
A82
330
A02
100
AcDbEntity
  8
ShapeString
100
AcDbSpline
210
0
220
0
230
1
 70
8
 71
2
 72
6
 73
3
 74
0
 40
0.000000000
 40
0.000000000
 40
0.000000000
 40
1.000000000
 40
1.000000000
 40
1.000000000
 10
36.411160714
 20
8.536160714
 30
0.000000000
 10
36.411160714
 20
8.695267857
 30
0.000000000
 10
36.299285714
 20
8.795446429
 30
0.000000000
  0
SPLINE
  5
A83
330
A02
100
AcDbEntity
  8
ShapeString
100
AcDbSpline
210
0
220
0
230
1
 70
8
 71
2
 72
6
 73
3
 74
0
 40
0.000000000
 40
0.000000000
 40
0.000000000
 40
1.000000000
 40
1.000000000
 40
1.000000000
 10
36.359553571
 20
8.337678571
 30
0.000000000
 10
36.411160714
 20
8.438571429
 30
0.000000000
 10
36.411160714
 20
8.536160714
 30
0.000000000
  0
SPLINE
  5
A84
330
A02
100
AcDbEntity
  8
ShapeString
100
AcDbSpline
210
0
220
0
230
1
 70
8
 71
2
 72
6
 73
3
 74
0
 40
0.000000000
 40
0.000000000
 40
0.000000000
 40
1.000000000
 40
1.000000000
 40
1.000000000
 10
36.178125000
 20
8.091071429
 30
0.000000000
 10
36.308035714
 20
8.236785714
 30
0.000000000
 10
36.359553571
 20
8.337678571
 30
0.000000000
  0
SPLINE
  5
A85
330
A02
100
AcDbEntity
  8
ShapeString
100
AcDbSpline
210
0
220
0
230
1
 70
8
 71
2
 72
6
 73
3
 74
0
 40
0.000000000
 40
0.000000000
 40
0.000000000
 40
1.000000000
 40
1.000000000
 40
1.000000000
 10
35.843928571
 20
7.745535714
 30
0.000000000
 10
36.109821429
 20
8.013571429
 30
0.000000000
 10
36.178125000
 20
8.091071429
 30
0.000000000
  0
SPLINE
  5
A86
330
A02
100
AcDbEntity
  8
ShapeString
100
AcDbSpline
210
0
220
0
230
1
 70
8
 71
2
 72
6
 73
3
 74
0
 40
0.000000000
 40
0.000000000
 40
0.000000000
 40
1.000000000
 40
1.000000000
 40
1.000000000
 10
35.424107143
 20
7.318571429
 30
0.000000000
 10
35.578125000
 20
7.477589286
 30
0.000000000
 10
35.843928571
 20
7.745535714
 30
0.000000000
  0
LINE
  5
A87
330
A02
100
AcDbEntity
  8
ShapeString
100
AcDbLine
 10
35.424107143
 20
7.090000000
 30
0.000000000
 11
35.424107143
 21
7.318571429
 31
0.000000000
  0
LINE
  5
A88
330
A02
100
AcDbEntity
  8
ShapeString
100
AcDbLine
 10
36.693750000
 20
7.090000000
 30
0.000000000
 11
35.424107143
 21
7.090000000
 31
0.000000000
  0
LINE
  5
A89
330
A02
100
AcDbEntity
  8
ShapeString
100
AcDbLine
 10
36.693750000
 20
7.318571429
 30
0.000000000
 11
36.693750000
 21
7.090000000
 31
0.000000000
  0
SPLINE
  5
A8A
330
A02
100
AcDbEntity
  8
ShapeString
100
AcDbSpline
210
0
220
0
230
1
 70
8
 71
2
 72
6
 73
3
 74
0
 40
0.000000000
 40
0.000000000
 40
0.000000000
 40
1.000000000
 40
1.000000000
 40
1.000000000
 10
37.837946429
 20
9.124285714
 30
0.000000000
 10
38.174107143
 20
9.124285714
 30
0.000000000
 10
38.351517857
 20
8.858482143
 30
0.000000000
  0
SPLINE
  5
A8B
330
A02
100
AcDbEntity
  8
ShapeString
100
AcDbSpline
210
0
220
0
230
1
 70
8
 71
2
 72
6
 73
3
 74
0
 40
0.000000000
 40
0.000000000
 40
0.000000000
 40
1.000000000
 40
1.000000000
 40
1.000000000
 10
37.324285714
 20
8.858482143
 30
0.000000000
 10
37.501785714
 20
9.124285714
 30
0.000000000
 10
37.837946429
 20
9.124285714
 30
0.000000000
  0
SPLINE
  5
A8C
330
A02
100
AcDbEntity
  8
ShapeString
100
AcDbSpline
210
0
220
0
230
1
 70
8
 71
2
 72
6
 73
3
 74
0
 40
0.000000000
 40
0.000000000
 40
0.000000000
 40
1.000000000
 40
1.000000000
 40
1.000000000
 10
37.146875000
 20
8.086517857
 30
0.000000000
 10
37.146875000
 20
8.592678571
 30
0.000000000
 10
37.324285714
 20
8.858482143
 30
0.000000000
  0
SPLINE
  5
A8D
330
A02
100
AcDbEntity
  8
ShapeString
100
AcDbSpline
210
0
220
0
230
1
 70
8
 71
2
 72
6
 73
3
 74
0
 40
0.000000000
 40
0.000000000
 40
0.000000000
 40
1.000000000
 40
1.000000000
 40
1.000000000
 10
37.324285714
 20
7.315803571
 30
0.000000000
 10
37.146875000
 20
7.581607143
 30
0.000000000
 10
37.146875000
 20
8.086517857
 30
0.000000000
  0
SPLINE
  5
A8E
330
A02
100
AcDbEntity
  8
ShapeString
100
AcDbSpline
210
0
220
0
230
1
 70
8
 71
2
 72
6
 73
3
 74
0
 40
0.000000000
 40
0.000000000
 40
0.000000000
 40
1.000000000
 40
1.000000000
 40
1.000000000
 10
37.837946429
 20
7.050000000
 30
0.000000000
 10
37.501785714
 20
7.050000000
 30
0.000000000
 10
37.324285714
 20
7.315803571
 30
0.000000000
  0
SPLINE
  5
A8F
330
A02
100
AcDbEntity
  8
ShapeString
100
AcDbSpline
210
0
220
0
230
1
 70
8
 71
2
 72
6
 73
3
 74
0
 40
0.000000000
 40
0.000000000
 40
0.000000000
 40
1.000000000
 40
1.000000000
 40
1.000000000
 10
38.351517857
 20
7.315803571
 30
0.000000000
 10
38.174107143
 20
7.050000000
 30
0.000000000
 10
37.837946429
 20
7.050000000
 30
0.000000000
  0
SPLINE
  5
A90
330
A02
100
AcDbEntity
  8
ShapeString
100
AcDbSpline
210
0
220
0
230
1
 70
8
 71
2
 72
6
 73
3
 74
0
 40
0.000000000
 40
0.000000000
 40
0.000000000
 40
1.000000000
 40
1.000000000
 40
1.000000000
 10
38.529017857
 20
8.086517857
 30
0.000000000
 10
38.529017857
 20
7.581607143
 30
0.000000000
 10
38.351517857
 20
7.315803571
 30
0.000000000
  0
SPLINE
  5
A91
330
A02
100
AcDbEntity
  8
ShapeString
100
AcDbSpline
210
0
220
0
230
1
 70
8
 71
2
 72
6
 73
3
 74
0
 40
0.000000000
 40
0.000000000
 40
0.000000000
 40
1.000000000
 40
1.000000000
 40
1.000000000
 10
38.351517857
 20
8.858482143
 30
0.000000000
 10
38.529017857
 20
8.592678571
 30
0.000000000
 10
38.529017857
 20
8.086517857
 30
0.000000000
  0
SPLINE
  5
A92
330
A02
100
AcDbEntity
  8
ShapeString
100
AcDbSpline
210
0
220
0
230
1
 70
8
 71
2
 72
6
 73
3
 74
0
 40
0.000000000
 40
0.000000000
 40
0.000000000
 40
1.000000000
 40
1.000000000
 40
1.000000000
 10
37.837946429
 20
8.907142857
 30
0.000000000
 10
37.629017857
 20
8.907142857
 30
0.000000000
 10
37.523839286
 20
8.702321429
 30
0.000000000
  0
SPLINE
  5
A93
330
A02
100
AcDbEntity
  8
ShapeString
100
AcDbSpline
210
0
220
0
230
1
 70
8
 71
2
 72
6
 73
3
 74
0
 40
0.000000000
 40
0.000000000
 40
0.000000000
 40
1.000000000
 40
1.000000000
 40
1.000000000
 10
38.153303571
 20
8.702321429
 30
0.000000000
 10
38.048214286
 20
8.907142857
 30
0.000000000
 10
37.837946429
 20
8.907142857
 30
0.000000000
  0
SPLINE
  5
A94
330
A02
100
AcDbEntity
  8
ShapeString
100
AcDbSpline
210
0
220
0
230
1
 70
8
 71
2
 72
6
 73
3
 74
0
 40
0.000000000
 40
0.000000000
 40
0.000000000
 40
1.000000000
 40
1.000000000
 40
1.000000000
 10
38.258482143
 20
8.086517857
 30
0.000000000
 10
38.258482143
 20
8.497500000
 30
0.000000000
 10
38.153303571
 20
8.702321429
 30
0.000000000
  0
SPLINE
  5
A95
330
A02
100
AcDbEntity
  8
ShapeString
100
AcDbSpline
210
0
220
0
230
1
 70
8
 71
2
 72
6
 73
3
 74
0
 40
0.000000000
 40
0.000000000
 40
0.000000000
 40
1.000000000
 40
1.000000000
 40
1.000000000
 10
38.153303571
 20
7.471964286
 30
0.000000000
 10
38.258482143
 20
7.676785714
 30
0.000000000
 10
38.258482143
 20
8.086517857
 30
0.000000000
  0
SPLINE
  5
A96
330
A02
100
AcDbEntity
  8
ShapeString
100
AcDbSpline
210
0
220
0
230
1
 70
8
 71
2
 72
6
 73
3
 74
0
 40
0.000000000
 40
0.000000000
 40
0.000000000
 40
1.000000000
 40
1.000000000
 40
1.000000000
 10
37.837946429
 20
7.267142857
 30
0.000000000
 10
38.048214286
 20
7.267142857
 30
0.000000000
 10
38.153303571
 20
7.471964286
 30
0.000000000
  0
SPLINE
  5
A97
330
A02
100
AcDbEntity
  8
ShapeString
100
AcDbSpline
210
0
220
0
230
1
 70
8
 71
2
 72
6
 73
3
 74
0
 40
0.000000000
 40
0.000000000
 40
0.000000000
 40
1.000000000
 40
1.000000000
 40
1.000000000
 10
37.523839286
 20
7.471964286
 30
0.000000000
 10
37.629017857
 20
7.267142857
 30
0.000000000
 10
37.837946429
 20
7.267142857
 30
0.000000000
  0
SPLINE
  5
A98
330
A02
100
AcDbEntity
  8
ShapeString
100
AcDbSpline
210
0
220
0
230
1
 70
8
 71
2
 72
6
 73
3
 74
0
 40
0.000000000
 40
0.000000000
 40
0.000000000
 40
1.000000000
 40
1.000000000
 40
1.000000000
 10
37.418750000
 20
8.086517857
 30
0.000000000
 10
37.418750000
 20
7.676785714
 30
0.000000000
 10
37.523839286
 20
7.471964286
 30
0.000000000
  0
SPLINE
  5
A99
330
A02
100
AcDbEntity
  8
ShapeString
100
AcDbSpline
210
0
220
0
230
1
 70
8
 71
2
 72
6
 73
3
 74
0
 40
0.000000000
 40
0.000000000
 40
0.000000000
 40
1.000000000
 40
1.000000000
 40
1.000000000
 10
37.523839286
 20
8.702321429
 30
0.000000000
 10
37.418750000
 20
8.497500000
 30
0.000000000
 10
37.418750000
 20
8.086517857
 30
0.000000000
  0
LINE
  5
A9A
330
A02
100
AcDbEntity
  8
ShapeString
100
AcDbLine
 10
40.109553571
 20
7.318571429
 30
0.000000000
 11
41.053750000
 21
7.318571429
 31
0.000000000
  0
SPLINE
  5
A9B
330
A02
100
AcDbEntity
  8
ShapeString
100
AcDbSpline
210
0
220
0
230
1
 70
8
 71
2
 72
6
 73
3
 74
0
 40
0.000000000
 40
0.000000000
 40
0.000000000
 40
1.000000000
 40
1.000000000
 40
1.000000000
 10
40.615803571
 20
7.836875000
 30
0.000000000
 10
40.436339286
 20
7.651607143
 30
0.000000000
 10
40.109553571
 20
7.318571429
 30
0.000000000
  0
SPLINE
  5
A9C
330
A02
100
AcDbEntity
  8
ShapeString
100
AcDbSpline
210
0
220
0
230
1
 70
8
 71
2
 72
6
 73
3
 74
0
 40
0.000000000
 40
0.000000000
 40
0.000000000
 40
1.000000000
 40
1.000000000
 40
1.000000000
 10
40.828750000
 20
8.060892857
 30
0.000000000
 10
40.795267857
 20
8.022142857
 30
0.000000000
 10
40.615803571
 20
7.836875000
 30
0.000000000
  0
SPLINE
  5
A9D
330
A02
100
AcDbEntity
  8
ShapeString
100
AcDbSpline
210
0
220
0
230
1
 70
8
 71
2
 72
6
 73
3
 74
0
 40
0.000000000
 40
0.000000000
 40
0.000000000
 40
1.000000000
 40
1.000000000
 40
1.000000000
 10
40.996785714
 20
8.321071429
 30
0.000000000
 10
40.950625000
 20
8.210714286
 30
0.000000000
 10
40.828750000
 20
8.060892857
 30
0.000000000
  0
SPLINE
  5
A9E
330
A02
100
AcDbEntity
  8
ShapeString
100
AcDbSpline
210
0
220
0
230
1
 70
8
 71
2
 72
6
 73
3
 74
0
 40
0.000000000
 40
0.000000000
 40
0.000000000
 40
1.000000000
 40
1.000000000
 40
1.000000000
 10
41.043035714
 20
8.554464286
 30
0.000000000
 10
41.043035714
 20
8.431428571
 30
0.000000000
 10
40.996785714
 20
8.321071429
 30
0.000000000
  0
SPLINE
  5
A9F
330
A02
100
AcDbEntity
  8
ShapeString
100
AcDbSpline
210
0
220
0
230
1
 70
8
 71
2
 72
6
 73
3
 74
0
 40
0.000000000
 40
0.000000000
 40
0.000000000
 40
1.000000000
 40
1.000000000
 40
1.000000000
 10
40.858214286
 20
8.969107143
 30
0.000000000
 10
41.043035714
 20
8.813928571
 30
0.000000000
 10
41.043035714
 20
8.554464286
 30
0.000000000
  0
SPLINE
  5
AA0
330
A02
100
AcDbEntity
  8
ShapeString
100
AcDbSpline
210
0
220
0
230
1
 70
8
 71
2
 72
6
 73
3
 74
0
 40
0.000000000
 40
0.000000000
 40
0.000000000
 40
1.000000000
 40
1.000000000
 40
1.000000000
 10
40.362678571
 20
9.124285714
 30
0.000000000
 10
40.673392857
 20
9.124285714
 30
0.000000000
 10
40.858214286
 20
8.969107143
 30
0.000000000
  0
SPLINE
  5
AA1
330
A02
100
AcDbEntity
  8
ShapeString
100
AcDbSpline
210
0
220
0
230
1
 70
8
 71
2
 72
6
 73
3
 74
0
 40
0.000000000
 40
0.000000000
 40
0.000000000
 40
1.000000000
 40
1.000000000
 40
1.000000000
 10
40.102857143
 20
9.091071429
 30
0.000000000
 10
40.244821429
 20
9.124285714
 30
0.000000000
 10
40.362678571
 20
9.124285714
 30
0.000000000
  0
SPLINE
  5
AA2
330
A02
100
AcDbEntity
  8
ShapeString
100
AcDbSpline
210
0
220
0
230
1
 70
8
 71
2
 72
6
 73
3
 74
0
 40
0.000000000
 40
0.000000000
 40
0.000000000
 40
1.000000000
 40
1.000000000
 40
1.000000000
 10
39.797500000
 20
8.992857143
 30
0.000000000
 10
39.960892857
 20
9.057946429
 30
0.000000000
 10
40.102857143
 20
9.091071429
 30
0.000000000
  0
LINE
  5
AA3
330
A02
100
AcDbEntity
  8
ShapeString
100
AcDbLine
 10
39.797500000
 20
8.718571429
 30
0.000000000
 11
39.797500000
 21
8.992857143
 31
0.000000000
  0
SPLINE
  5
AA4
330
A02
100
AcDbEntity
  8
ShapeString
100
AcDbSpline
210
0
220
0
230
1
 70
8
 71
2
 72
6
 73
3
 74
0
 40
0.000000000
 40
0.000000000
 40
0.000000000
 40
1.000000000
 40
1.000000000
 40
1.000000000
 10
40.099464286
 20
8.851696429
 30
0.000000000
 10
39.958214286
 20
8.807767857
 30
0.000000000
 10
39.797500000
 20
8.718571429
 30
0.000000000
  0
SPLINE
  5
AA5
330
A02
100
AcDbEntity
  8
ShapeString
100
AcDbSpline
210
0
220
0
230
1
 70
8
 71
2
 72
6
 73
3
 74
0
 40
0.000000000
 40
0.000000000
 40
0.000000000
 40
1.000000000
 40
1.000000000
 40
1.000000000
 10
40.368035714
 20
8.895714286
 30
0.000000000
 10
40.240803571
 20
8.895714286
 30
0.000000000
 10
40.099464286
 20
8.851696429
 30
0.000000000
  0
SPLINE
  5
AA6
330
A02
100
AcDbEntity
  8
ShapeString
100
AcDbSpline
210
0
220
0
230
1
 70
8
 71
2
 72
6
 73
3
 74
0
 40
0.000000000
 40
0.000000000
 40
0.000000000
 40
1.000000000
 40
1.000000000
 40
1.000000000
 10
40.659285714
 20
8.795446429
 30
0.000000000
 10
40.547500000
 20
8.895714286
 30
0.000000000
 10
40.368035714
 20
8.895714286
 30
0.000000000
  0
SPLINE
  5
AA7
330
A02
100
AcDbEntity
  8
ShapeString
100
AcDbSpline
210
0
220
0
230
1
 70
8
 71
2
 72
6
 73
3
 74
0
 40
0.000000000
 40
0.000000000
 40
0.000000000
 40
1.000000000
 40
1.000000000
 40
1.000000000
 10
40.771160714
 20
8.536160714
 30
0.000000000
 10
40.771160714
 20
8.695267857
 30
0.000000000
 10
40.659285714
 20
8.795446429
 30
0.000000000
  0
SPLINE
  5
AA8
330
A02
100
AcDbEntity
  8
ShapeString
100
AcDbSpline
210
0
220
0
230
1
 70
8
 71
2
 72
6
 73
3
 74
0
 40
0.000000000
 40
0.000000000
 40
0.000000000
 40
1.000000000
 40
1.000000000
 40
1.000000000
 10
40.719553571
 20
8.337678571
 30
0.000000000
 10
40.771160714
 20
8.438571429
 30
0.000000000
 10
40.771160714
 20
8.536160714
 30
0.000000000
  0
SPLINE
  5
AA9
330
A02
100
AcDbEntity
  8
ShapeString
100
AcDbSpline
210
0
220
0
230
1
 70
8
 71
2
 72
6
 73
3
 74
0
 40
0.000000000
 40
0.000000000
 40
0.000000000
 40
1.000000000
 40
1.000000000
 40
1.000000000
 10
40.538125000
 20
8.091071429
 30
0.000000000
 10
40.668035714
 20
8.236785714
 30
0.000000000
 10
40.719553571
 20
8.337678571
 30
0.000000000
  0
SPLINE
  5
AAA
330
A02
100
AcDbEntity
  8
ShapeString
100
AcDbSpline
210
0
220
0
230
1
 70
8
 71
2
 72
6
 73
3
 74
0
 40
0.000000000
 40
0.000000000
 40
0.000000000
 40
1.000000000
 40
1.000000000
 40
1.000000000
 10
40.203928571
 20
7.745535714
 30
0.000000000
 10
40.469821429
 20
8.013571429
 30
0.000000000
 10
40.538125000
 20
8.091071429
 30
0.000000000
  0
SPLINE
  5
AAB
330
A02
100
AcDbEntity
  8
ShapeString
100
AcDbSpline
210
0
220
0
230
1
 70
8
 71
2
 72
6
 73
3
 74
0
 40
0.000000000
 40
0.000000000
 40
0.000000000
 40
1.000000000
 40
1.000000000
 40
1.000000000
 10
39.784107143
 20
7.318571429
 30
0.000000000
 10
39.938125000
 20
7.477589286
 30
0.000000000
 10
40.203928571
 20
7.745535714
 30
0.000000000
  0
LINE
  5
AAC
330
A02
100
AcDbEntity
  8
ShapeString
100
AcDbLine
 10
39.784107143
 20
7.090000000
 30
0.000000000
 11
39.784107143
 21
7.318571429
 31
0.000000000
  0
LINE
  5
AAD
330
A02
100
AcDbEntity
  8
ShapeString
100
AcDbLine
 10
41.053750000
 20
7.090000000
 30
0.000000000
 11
39.784107143
 21
7.090000000
 31
0.000000000
  0
LINE
  5
AAE
330
A02
100
AcDbEntity
  8
ShapeString
100
AcDbLine
 10
41.053750000
 20
7.318571429
 30
0.000000000
 11
41.053750000
 21
7.090000000
 31
0.000000000
  0
LINE
  5
AAF
330
A02
100
AcDbEntity
  8
ShapeString
100
AcDbLine
 10
41.619375000
 20
7.432857143
 30
0.000000000
 11
41.901964286
 21
7.432857143
 31
0.000000000
  0
LINE
  5
AB0
330
A02
100
AcDbEntity
  8
ShapeString
100
AcDbLine
 10
41.619375000
 20
7.090000000
 30
0.000000000
 11
41.619375000
 21
7.432857143
 31
0.000000000
  0
LINE
  5
AB1
330
A02
100
AcDbEntity
  8
ShapeString
100
AcDbLine
 10
41.901964286
 20
7.090000000
 30
0.000000000
 11
41.619375000
 21
7.090000000
 31
0.000000000
  0
LINE
  5
AB2
330
A02
100
AcDbEntity
  8
ShapeString
100
AcDbLine
 10
41.901964286
 20
7.432857143
 30
0.000000000
 11
41.901964286
 21
7.090000000
 31
0.000000000
  0
LINE
  5
AB3
330
A02
100
AcDbEntity
  8
ShapeString
100
AcDbLine
 10
42.496339286
 20
9.090000000
 30
0.000000000
 11
43.558392857
 21
9.090000000
 31
0.000000000
  0
LINE
  5
AB4
330
A02
100
AcDbEntity
  8
ShapeString
100
AcDbLine
 10
42.496339286
 20
8.084285714
 30
0.000000000
 11
42.496339286
 21
9.090000000
 31
0.000000000
  0
SPLINE
  5
AB5
330
A02
100
AcDbEntity
  8
ShapeString
100
AcDbSpline
210
0
220
0
230
1
 70
8
 71
2
 72
6
 73
3
 74
0
 40
0.000000000
 40
0.000000000
 40
0.000000000
 40
1.000000000
 40
1.000000000
 40
1.000000000
 10
42.716607143
 20
8.157767857
 30
0.000000000
 10
42.608839286
 20
8.134196429
 30
0.000000000
 10
42.496339286
 20
8.084285714
 30
0.000000000
  0
SPLINE
  5
AB6
330
A02
100
AcDbEntity
  8
ShapeString
100
AcDbSpline
210
0
220
0
230
1
 70
8
 71
2
 72
6
 73
3
 74
0
 40
0.000000000
 40
0.000000000
 40
0.000000000
 40
1.000000000
 40
1.000000000
 40
1.000000000
 10
42.932946429
 20
8.181428571
 30
0.000000000
 10
42.824464286
 20
8.181428571
 30
0.000000000
 10
42.716607143
 20
8.157767857
 30
0.000000000
  0
SPLINE
  5
AB7
330
A02
100
AcDbEntity
  8
ShapeString
100
AcDbSpline
210
0
220
0
230
1
 70
8
 71
2
 72
6
 73
3
 74
0
 40
0.000000000
 40
0.000000000
 40
0.000000000
 40
1.000000000
 40
1.000000000
 40
1.000000000
 10
43.299910714
 20
8.059910714
 30
0.000000000
 10
43.164642857
 20
8.181428571
 30
0.000000000
 10
42.932946429
 20
8.181428571
 30
0.000000000
  0
SPLINE
  5
AB8
330
A02
100
AcDbEntity
  8
ShapeString
100
AcDbSpline
210
0
220
0
230
1
 70
8
 71
2
 72
6
 73
3
 74
0
 40
0.000000000
 40
0.000000000
 40
0.000000000
 40
1.000000000
 40
1.000000000
 40
1.000000000
 10
43.435178571
 20
7.730000000
 30
0.000000000
 10
43.435178571
 20
7.938392857
 30
0.000000000
 10
43.299910714
 20
8.059910714
 30
0.000000000
  0
SPLINE
  5
AB9
330
A02
100
AcDbEntity
  8
ShapeString
100
AcDbSpline
210
0
220
0
230
1
 70
8
 71
2
 72
6
 73
3
 74
0
 40
0.000000000
 40
0.000000000
 40
0.000000000
 40
1.000000000
 40
1.000000000
 40
1.000000000
 10
43.299910714
 20
7.400089286
 30
0.000000000
 10
43.435178571
 20
7.521607143
 30
0.000000000
 10
43.435178571
 20
7.730000000
 30
0.000000000
  0
SPLINE
  5
ABA
330
A02
100
AcDbEntity
  8
ShapeString
100
AcDbSpline
210
0
220
0
230
1
 70
8
 71
2
 72
6
 73
3
 74
0
 40
0.000000000
 40
0.000000000
 40
0.000000000
 40
1.000000000
 40
1.000000000
 40
1.000000000
 10
42.932946429
 20
7.278571429
 30
0.000000000
 10
43.164642857
 20
7.278571429
 30
0.000000000
 10
43.299910714
 20
7.400089286
 30
0.000000000
  0
SPLINE
  5
ABB
330
A02
100
AcDbEntity
  8
ShapeString
100
AcDbSpline
210
0
220
0
230
1
 70
8
 71
2
 72
6
 73
3
 74
0
 40
0.000000000
 40
0.000000000
 40
0.000000000
 40
1.000000000
 40
1.000000000
 40
1.000000000
 10
42.661071429
 20
7.311071429
 30
0.000000000
 10
42.789642857
 20
7.278571429
 30
0.000000000
 10
42.932946429
 20
7.278571429
 30
0.000000000
  0
SPLINE
  5
ABC
330
A02
100
AcDbEntity
  8
ShapeString
100
AcDbSpline
210
0
220
0
230
1
 70
8
 71
2
 72
6
 73
3
 74
0
 40
0.000000000
 40
0.000000000
 40
0.000000000
 40
1.000000000
 40
1.000000000
 40
1.000000000
 10
42.411964286
 20
7.410000000
 30
0.000000000
 10
42.532500000
 20
7.343571429
 30
0.000000000
 10
42.661071429
 20
7.311071429
 30
0.000000000
  0
LINE
  5
ABD
330
A02
100
AcDbEntity
  8
ShapeString
100
AcDbLine
 10
42.411964286
 20
7.135714286
 30
0.000000000
 11
42.411964286
 21
7.410000000
 31
0.000000000
  0
SPLINE
  5
ABE
330
A02
100
AcDbEntity
  8
ShapeString
100
AcDbSpline
210
0
220
0
230
1
 70
8
 71
2
 72
6
 73
3
 74
0
 40
0.000000000
 40
0.000000000
 40
0.000000000
 40
1.000000000
 40
1.000000000
 40
1.000000000
 10
42.681785714
 20
7.071428571
 30
0.000000000
 10
42.551250000
 20
7.092857143
 30
0.000000000
 10
42.411964286
 20
7.135714286
 30
0.000000000
  0
SPLINE
  5
ABF
330
A02
100
AcDbEntity
  8
ShapeString
100
AcDbSpline
210
0
220
0
230
1
 70
8
 71
2
 72
6
 73
3
 74
0
 40
0.000000000
 40
0.000000000
 40
0.000000000
 40
1.000000000
 40
1.000000000
 40
1.000000000
 10
42.938303571
 20
7.050000000
 30
0.000000000
 10
42.812410714
 20
7.050000000
 30
0.000000000
 10
42.681785714
 20
7.071428571
 30
0.000000000
  0
SPLINE
  5
AC0
330
A02
100
AcDbEntity
  8
ShapeString
100
AcDbSpline
210
0
220
0
230
1
 70
8
 71
2
 72
6
 73
3
 74
0
 40
0.000000000
 40
0.000000000
 40
0.000000000
 40
1.000000000
 40
1.000000000
 40
1.000000000
 10
43.504821429
 20
7.228660714
 30
0.000000000
 10
43.303928571
 20
7.050000000
 30
0.000000000
 10
42.938303571
 20
7.050000000
 30
0.000000000
  0
SPLINE
  5
AC1
330
A02
100
AcDbEntity
  8
ShapeString
100
AcDbSpline
210
0
220
0
230
1
 70
8
 71
2
 72
6
 73
3
 74
0
 40
0.000000000
 40
0.000000000
 40
0.000000000
 40
1.000000000
 40
1.000000000
 40
1.000000000
 10
43.705714286
 20
7.730000000
 30
0.000000000
 10
43.705714286
 20
7.407410714
 30
0.000000000
 10
43.504821429
 20
7.228660714
 30
0.000000000
  0
SPLINE
  5
AC2
330
A02
100
AcDbEntity
  8
ShapeString
100
AcDbSpline
210
0
220
0
230
1
 70
8
 71
2
 72
6
 73
3
 74
0
 40
0.000000000
 40
0.000000000
 40
0.000000000
 40
1.000000000
 40
1.000000000
 40
1.000000000
 10
43.510178571
 20
8.226607143
 30
0.000000000
 10
43.705714286
 20
8.043214286
 30
0.000000000
 10
43.705714286
 20
7.730000000
 30
0.000000000
  0
SPLINE
  5
AC3
330
A02
100
AcDbEntity
  8
ShapeString
100
AcDbSpline
210
0
220
0
230
1
 70
8
 71
2
 72
6
 73
3
 74
0
 40
0.000000000
 40
0.000000000
 40
0.000000000
 40
1.000000000
 40
1.000000000
 40
1.000000000
 10
42.979821429
 20
8.410000000
 30
0.000000000
 10
43.314642857
 20
8.410000000
 30
0.000000000
 10
43.510178571
 20
8.226607143
 30
0.000000000
  0
SPLINE
  5
AC4
330
A02
100
AcDbEntity
  8
ShapeString
100
AcDbSpline
210
0
220
0
230
1
 70
8
 71
2
 72
6
 73
3
 74
0
 40
0.000000000
 40
0.000000000
 40
0.000000000
 40
1.000000000
 40
1.000000000
 40
1.000000000
 10
42.861964286
 20
8.399910714
 30
0.000000000
 10
42.920892857
 20
8.410000000
 30
0.000000000
 10
42.979821429
 20
8.410000000
 30
0.000000000
  0
SPLINE
  5
AC5
330
A02
100
AcDbEntity
  8
ShapeString
100
AcDbSpline
210
0
220
0
230
1
 70
8
 71
2
 72
6
 73
3
 74
0
 40
0.000000000
 40
0.000000000
 40
0.000000000
 40
1.000000000
 40
1.000000000
 40
1.000000000
 10
42.744107143
 20
8.369642857
 30
0.000000000
 10
42.803035714
 20
8.389821429
 30
0.000000000
 10
42.861964286
 20
8.399910714
 30
0.000000000
  0
LINE
  5
AC6
330
A02
100
AcDbEntity
  8
ShapeString
100
AcDbLine
 10
42.744107143
 20
8.861428571
 30
0.000000000
 11
42.744107143
 21
8.369642857
 31
0.000000000
  0
LINE
  5
AC7
330
A02
100
AcDbEntity
  8
ShapeString
100
AcDbLine
 10
43.558392857
 20
8.861428571
 30
0.000000000
 11
42.744107143
 21
8.861428571
 31
0.000000000
  0
LINE
  5
AC8
330
A02
100
AcDbEntity
  8
ShapeString
100
AcDbLine
 10
43.558392857
 20
9.090000000
 30
0.000000000
 11
43.558392857
 21
8.861428571
 31
0.000000000
  0
LINE
  5
AC9
330
A02
100
AcDbEntity
  8
ShapeString
100
AcDbLine
 10
44.908839286
 20
9.090000000
 30
0.000000000
 11
45.249017857
 21
9.090000000
 31
0.000000000
  0
LINE
  5
ACA
330
A02
100
AcDbEntity
  8
ShapeString
100
AcDbLine
 10
44.077142857
 20
7.825000000
 30
0.000000000
 11
44.908839286
 21
9.090000000
 31
0.000000000
  0
LINE
  5
ACB
330
A02
100
AcDbEntity
  8
ShapeString
100
AcDbLine
 10
44.077142857
 20
7.564285714
 30
0.000000000
 11
44.077142857
 21
7.825000000
 31
0.000000000
  0
LINE
  5
ACC
330
A02
100
AcDbEntity
  8
ShapeString
100
AcDbLine
 10
44.979821429
 20
7.564285714
 30
0.000000000
 11
44.077142857
 21
7.564285714
 31
0.000000000
  0
LINE
  5
ACD
330
A02
100
AcDbEntity
  8
ShapeString
100
AcDbLine
 10
44.979821429
 20
7.090000000
 30
0.000000000
 11
44.979821429
 21
7.564285714
 31
0.000000000
  0
LINE
  5
ACE
330
A02
100
AcDbEntity
  8
ShapeString
100
AcDbLine
 10
45.249017857
 20
7.090000000
 30
0.000000000
 11
44.979821429
 21
7.090000000
 31
0.000000000
  0
LINE
  5
ACF
330
A02
100
AcDbEntity
  8
ShapeString
100
AcDbLine
 10
45.249017857
 20
7.564285714
 30
0.000000000
 11
45.249017857
 21
7.090000000
 31
0.000000000
  0
LINE
  5
AD0
330
A02
100
AcDbEntity
  8
ShapeString
100
AcDbLine
 10
45.534285714
 20
7.564285714
 30
0.000000000
 11
45.249017857
 21
7.564285714
 31
0.000000000
  0
LINE
  5
AD1
330
A02
100
AcDbEntity
  8
ShapeString
100
AcDbLine
 10
45.534285714
 20
7.787142857
 30
0.000000000
 11
45.534285714
 21
7.564285714
 31
0.000000000
  0
LINE
  5
AD2
330
A02
100
AcDbEntity
  8
ShapeString
100
AcDbLine
 10
45.249017857
 20
7.787142857
 30
0.000000000
 11
45.534285714
 21
7.787142857
 31
0.000000000
  0
LINE
  5
AD3
330
A02
100
AcDbEntity
  8
ShapeString
100
AcDbLine
 10
45.249017857
 20
9.090000000
 30
0.000000000
 11
45.249017857
 21
7.787142857
 31
0.000000000
  0
LINE
  5
AD4
330
A02
100
AcDbEntity
  8
ShapeString
100
AcDbLine
 10
44.979821429
 20
8.854375000
 30
0.000000000
 11
44.296785714
 21
7.787142857
 31
0.000000000
  0
LINE
  5
AD5
330
A02
100
AcDbEntity
  8
ShapeString
100
AcDbLine
 10
44.979821429
 20
7.787142857
 30
0.000000000
 11
44.979821429
 21
8.854375000
 31
0.000000000
  0
LINE
  5
AD6
330
A02
100
AcDbEntity
  8
ShapeString
100
AcDbLine
 10
44.296785714
 20
7.787142857
 30
0.000000000
 11
44.979821429
 21
7.787142857
 31
0.000000000
  0
SPLINE
  5
AD7
330
A02
100
AcDbEntity
  8
ShapeString
100
AcDbSpline
210
0
220
0
230
1
 70
8
 71
2
 72
6
 73
3
 74
0
 40
0.000000000
 40
0.000000000
 40
0.000000000
 40
1.000000000
 40
1.000000000
 40
1.000000000
 10
47.112410714
 20
8.303571429
 30
0.000000000
 10
47.204821429
 20
8.469375000
 30
0.000000000
 10
47.333392857
 20
8.548214286
 30
0.000000000
  0
SPLINE
  5
AD8
330
A02
100
AcDbEntity
  8
ShapeString
100
AcDbSpline
210
0
220
0
230
1
 70
8
 71
2
 72
6
 73
3
 74
0
 40
0.000000000
 40
0.000000000
 40
0.000000000
 40
1.000000000
 40
1.000000000
 40
1.000000000
 10
46.942946429
 20
8.544196429
 30
0.000000000
 10
47.057500000
 20
8.461339286
 30
0.000000000
 10
47.112410714
 20
8.303571429
 30
0.000000000
  0
SPLINE
  5
AD9
330
A02
100
AcDbEntity
  8
ShapeString
100
AcDbSpline
210
0
220
0
230
1
 70
8
 71
2
 72
6
 73
3
 74
0
 40
0.000000000
 40
0.000000000
 40
0.000000000
 40
1.000000000
 40
1.000000000
 40
1.000000000
 10
46.665089286
 20
8.627142857
 30
0.000000000
 10
46.828482143
 20
8.627142857
 30
0.000000000
 10
46.942946429
 20
8.544196429
 30
0.000000000
  0
SPLINE
  5
ADA
330
A02
100
AcDbEntity
  8
ShapeString
100
AcDbSpline
210
0
220
0
230
1
 70
8
 71
2
 72
6
 73
3
 74
0
 40
0.000000000
 40
0.000000000
 40
0.000000000
 40
1.000000000
 40
1.000000000
 40
1.000000000
 10
46.385178571
 20
8.561607143
 30
0.000000000
 10
46.503035714
 20
8.627142857
 30
0.000000000
 10
46.665089286
 20
8.627142857
 30
0.000000000
  0
SPLINE
  5
ADB
330
A02
100
AcDbEntity
  8
ShapeString
100
AcDbSpline
210
0
220
0
230
1
 70
8
 71
2
 72
6
 73
3
 74
0
 40
0.000000000
 40
0.000000000
 40
0.000000000
 40
1.000000000
 40
1.000000000
 40
1.000000000
 10
46.182946429
 20
8.358571429
 30
0.000000000
 10
46.267321429
 20
8.496160714
 30
0.000000000
 10
46.385178571
 20
8.561607143
 30
0.000000000
  0
LINE
  5
ADC
330
A02
100
AcDbEntity
  8
ShapeString
100
AcDbLine
 10
46.182946429
 20
8.592857143
 30
0.000000000
 11
46.182946429
 21
8.358571429
 31
0.000000000
  0
LINE
  5
ADD
330
A02
100
AcDbEntity
  8
ShapeString
100
AcDbLine
 10
45.935178571
 20
8.592857143
 30
0.000000000
 11
46.182946429
 21
8.592857143
 31
0.000000000
  0
LINE
  5
ADE
330
A02
100
AcDbEntity
  8
ShapeString
100
AcDbLine
 10
45.935178571
 20
7.090000000
 30
0.000000000
 11
45.935178571
 21
8.592857143
 31
0.000000000
  0
LINE
  5
ADF
330
A02
100
AcDbEntity
  8
ShapeString
100
AcDbLine
 10
46.182946429
 20
7.090000000
 30
0.000000000
 11
45.935178571
 21
7.090000000
 31
0.000000000
  0
LINE
  5
AE0
330
A02
100
AcDbEntity
  8
ShapeString
100
AcDbLine
 10
46.182946429
 20
7.938839286
 30
0.000000000
 11
46.182946429
 21
7.090000000
 31
0.000000000
  0
SPLINE
  5
AE1
330
A02
100
AcDbEntity
  8
ShapeString
100
AcDbSpline
210
0
220
0
230
1
 70
8
 71
2
 72
6
 73
3
 74
0
 40
0.000000000
 40
0.000000000
 40
0.000000000
 40
1.000000000
 40
1.000000000
 40
1.000000000
 10
46.294107143
 20
8.282857143
 30
0.000000000
 10
46.182946429
 20
8.155803571
 30
0.000000000
 10
46.182946429
 20
7.938839286
 30
0.000000000
  0
SPLINE
  5
AE2
330
A02
100
AcDbEntity
  8
ShapeString
100
AcDbSpline
210
0
220
0
230
1
 70
8
 71
2
 72
6
 73
3
 74
0
 40
0.000000000
 40
0.000000000
 40
0.000000000
 40
1.000000000
 40
1.000000000
 40
1.000000000
 10
46.594107143
 20
8.410000000
 30
0.000000000
 10
46.405267857
 20
8.410000000
 30
0.000000000
 10
46.294107143
 20
8.282857143
 30
0.000000000
  0
SPLINE
  5
AE3
330
A02
100
AcDbEntity
  8
ShapeString
100
AcDbSpline
210
0
220
0
230
1
 70
8
 71
2
 72
6
 73
3
 74
0
 40
0.000000000
 40
0.000000000
 40
0.000000000
 40
1.000000000
 40
1.000000000
 40
1.000000000
 10
46.829821429
 20
8.306964286
 30
0.000000000
 10
46.753482143
 20
8.410000000
 30
0.000000000
 10
46.594107143
 20
8.410000000
 30
0.000000000
  0
SPLINE
  5
AE4
330
A02
100
AcDbEntity
  8
ShapeString
100
AcDbSpline
210
0
220
0
230
1
 70
8
 71
2
 72
6
 73
3
 74
0
 40
0.000000000
 40
0.000000000
 40
0.000000000
 40
1.000000000
 40
1.000000000
 40
1.000000000
 10
46.906160714
 20
7.988482143
 30
0.000000000
 10
46.906160714
 20
8.203928571
 30
0.000000000
 10
46.829821429
 20
8.306964286
 30
0.000000000
  0
LINE
  5
AE5
330
A02
100
AcDbEntity
  8
ShapeString
100
AcDbLine
 10
46.906160714
 20
7.090000000
 30
0.000000000
 11
46.906160714
 21
7.988482143
 31
0.000000000
  0
LINE
  5
AE6
330
A02
100
AcDbEntity
  8
ShapeString
100
AcDbLine
 10
47.153928571
 20
7.090000000
 30
0.000000000
 11
46.906160714
 21
7.090000000
 31
0.000000000
  0
LINE
  5
AE7
330
A02
100
AcDbEntity
  8
ShapeString
100
AcDbLine
 10
47.153928571
 20
7.938839286
 30
0.000000000
 11
47.153928571
 21
7.090000000
 31
0.000000000
  0
SPLINE
  5
AE8
330
A02
100
AcDbEntity
  8
ShapeString
100
AcDbSpline
210
0
220
0
230
1
 70
8
 71
2
 72
6
 73
3
 74
0
 40
0.000000000
 40
0.000000000
 40
0.000000000
 40
1.000000000
 40
1.000000000
 40
1.000000000
 10
47.265089286
 20
8.283571429
 30
0.000000000
 10
47.153928571
 20
8.157142857
 30
0.000000000
 10
47.153928571
 20
7.938839286
 30
0.000000000
  0
SPLINE
  5
AE9
330
A02
100
AcDbEntity
  8
ShapeString
100
AcDbSpline
210
0
220
0
230
1
 70
8
 71
2
 72
6
 73
3
 74
0
 40
0.000000000
 40
0.000000000
 40
0.000000000
 40
1.000000000
 40
1.000000000
 40
1.000000000
 10
47.567767857
 20
8.410000000
 30
0.000000000
 10
47.376250000
 20
8.410000000
 30
0.000000000
 10
47.265089286
 20
8.283571429
 30
0.000000000
  0
SPLINE
  5
AEA
330
A02
100
AcDbEntity
  8
ShapeString
100
AcDbSpline
210
0
220
0
230
1
 70
8
 71
2
 72
6
 73
3
 74
0
 40
0.000000000
 40
0.000000000
 40
0.000000000
 40
1.000000000
 40
1.000000000
 40
1.000000000
 10
47.800803571
 20
8.306250000
 30
0.000000000
 10
47.724464286
 20
8.410000000
 30
0.000000000
 10
47.567767857
 20
8.410000000
 30
0.000000000
  0
SPLINE
  5
AEB
330
A02
100
AcDbEntity
  8
ShapeString
100
AcDbSpline
210
0
220
0
230
1
 70
8
 71
2
 72
6
 73
3
 74
0
 40
0.000000000
 40
0.000000000
 40
0.000000000
 40
1.000000000
 40
1.000000000
 40
1.000000000
 10
47.877142857
 20
7.988482143
 30
0.000000000
 10
47.877142857
 20
8.202589286
 30
0.000000000
 10
47.800803571
 20
8.306250000
 30
0.000000000
  0
LINE
  5
AEC
330
A02
100
AcDbEntity
  8
ShapeString
100
AcDbLine
 10
47.877142857
 20
7.090000000
 30
0.000000000
 11
47.877142857
 21
7.988482143
 31
0.000000000
  0
LINE
  5
AED
330
A02
100
AcDbEntity
  8
ShapeString
100
AcDbLine
 10
48.124910714
 20
7.090000000
 30
0.000000000
 11
47.877142857
 21
7.090000000
 31
0.000000000
  0
LINE
  5
AEE
330
A02
100
AcDbEntity
  8
ShapeString
100
AcDbLine
 10
48.124910714
 20
7.996517857
 30
0.000000000
 11
48.124910714
 21
7.090000000
 31
0.000000000
  0
SPLINE
  5
AEF
330
A02
100
AcDbEntity
  8
ShapeString
100
AcDbSpline
210
0
220
0
230
1
 70
8
 71
2
 72
6
 73
3
 74
0
 40
0.000000000
 40
0.000000000
 40
0.000000000
 40
1.000000000
 40
1.000000000
 40
1.000000000
 10
47.997678571
 20
8.463125000
 30
0.000000000
 10
48.124910714
 20
8.299107143
 30
0.000000000
 10
48.124910714
 20
7.996517857
 30
0.000000000
  0
SPLINE
  5
AF0
330
A02
100
AcDbEntity
  8
ShapeString
100
AcDbSpline
210
0
220
0
230
1
 70
8
 71
2
 72
6
 73
3
 74
0
 40
0.000000000
 40
0.000000000
 40
0.000000000
 40
1.000000000
 40
1.000000000
 40
1.000000000
 10
47.636071429
 20
8.627142857
 30
0.000000000
 10
47.870446429
 20
8.627142857
 30
0.000000000
 10
47.997678571
 20
8.463125000
 30
0.000000000
  0
SPLINE
  5
AF1
330
A02
100
AcDbEntity
  8
ShapeString
100
AcDbSpline
210
0
220
0
230
1
 70
8
 71
2
 72
6
 73
3
 74
0
 40
0.000000000
 40
0.000000000
 40
0.000000000
 40
1.000000000
 40
1.000000000
 40
1.000000000
 10
47.333392857
 20
8.548214286
 30
0.000000000
 10
47.461964286
 20
8.627142857
 30
0.000000000
 10
47.636071429
 20
8.627142857
 30
0.000000000
  0
SPLINE
  5
AF2
330
A02
100
AcDbEntity
  8
ShapeString
100
AcDbSpline
210
0
220
0
230
1
 70
8
 71
2
 72
6
 73
3
 74
0
 40
0.000000000
 40
0.000000000
 40
0.000000000
 40
1.000000000
 40
1.000000000
 40
1.000000000
 10
49.786696429
 20
8.303571429
 30
0.000000000
 10
49.879107143
 20
8.469375000
 30
0.000000000
 10
50.007678571
 20
8.548214286
 30
0.000000000
  0
SPLINE
  5
AF3
330
A02
100
AcDbEntity
  8
ShapeString
100
AcDbSpline
210
0
220
0
230
1
 70
8
 71
2
 72
6
 73
3
 74
0
 40
0.000000000
 40
0.000000000
 40
0.000000000
 40
1.000000000
 40
1.000000000
 40
1.000000000
 10
49.617232143
 20
8.544196429
 30
0.000000000
 10
49.731785714
 20
8.461339286
 30
0.000000000
 10
49.786696429
 20
8.303571429
 30
0.000000000
  0
SPLINE
  5
AF4
330
A02
100
AcDbEntity
  8
ShapeString
100
AcDbSpline
210
0
220
0
230
1
 70
8
 71
2
 72
6
 73
3
 74
0
 40
0.000000000
 40
0.000000000
 40
0.000000000
 40
1.000000000
 40
1.000000000
 40
1.000000000
 10
49.339375000
 20
8.627142857
 30
0.000000000
 10
49.502767857
 20
8.627142857
 30
0.000000000
 10
49.617232143
 20
8.544196429
 30
0.000000000
  0
SPLINE
  5
AF5
330
A02
100
AcDbEntity
  8
ShapeString
100
AcDbSpline
210
0
220
0
230
1
 70
8
 71
2
 72
6
 73
3
 74
0
 40
0.000000000
 40
0.000000000
 40
0.000000000
 40
1.000000000
 40
1.000000000
 40
1.000000000
 10
49.059464286
 20
8.561607143
 30
0.000000000
 10
49.177321429
 20
8.627142857
 30
0.000000000
 10
49.339375000
 20
8.627142857
 30
0.000000000
  0
SPLINE
  5
AF6
330
A02
100
AcDbEntity
  8
ShapeString
100
AcDbSpline
210
0
220
0
230
1
 70
8
 71
2
 72
6
 73
3
 74
0
 40
0.000000000
 40
0.000000000
 40
0.000000000
 40
1.000000000
 40
1.000000000
 40
1.000000000
 10
48.857232143
 20
8.358571429
 30
0.000000000
 10
48.941607143
 20
8.496160714
 30
0.000000000
 10
49.059464286
 20
8.561607143
 30
0.000000000
  0
LINE
  5
AF7
330
A02
100
AcDbEntity
  8
ShapeString
100
AcDbLine
 10
48.857232143
 20
8.592857143
 30
0.000000000
 11
48.857232143
 21
8.358571429
 31
0.000000000
  0
LINE
  5
AF8
330
A02
100
AcDbEntity
  8
ShapeString
100
AcDbLine
 10
48.609464286
 20
8.592857143
 30
0.000000000
 11
48.857232143
 21
8.592857143
 31
0.000000000
  0
LINE
  5
AF9
330
A02
100
AcDbEntity
  8
ShapeString
100
AcDbLine
 10
48.609464286
 20
7.090000000
 30
0.000000000
 11
48.609464286
 21
8.592857143
 31
0.000000000
  0
LINE
  5
AFA
330
A02
100
AcDbEntity
  8
ShapeString
100
AcDbLine
 10
48.857232143
 20
7.090000000
 30
0.000000000
 11
48.609464286
 21
7.090000000
 31
0.000000000
  0
LINE
  5
AFB
330
A02
100
AcDbEntity
  8
ShapeString
100
AcDbLine
 10
48.857232143
 20
7.938839286
 30
0.000000000
 11
48.857232143
 21
7.090000000
 31
0.000000000
  0
SPLINE
  5
AFC
330
A02
100
AcDbEntity
  8
ShapeString
100
AcDbSpline
210
0
220
0
230
1
 70
8
 71
2
 72
6
 73
3
 74
0
 40
0.000000000
 40
0.000000000
 40
0.000000000
 40
1.000000000
 40
1.000000000
 40
1.000000000
 10
48.968392857
 20
8.282857143
 30
0.000000000
 10
48.857232143
 20
8.155803571
 30
0.000000000
 10
48.857232143
 20
7.938839286
 30
0.000000000
  0
SPLINE
  5
AFD
330
A02
100
AcDbEntity
  8
ShapeString
100
AcDbSpline
210
0
220
0
230
1
 70
8
 71
2
 72
6
 73
3
 74
0
 40
0.000000000
 40
0.000000000
 40
0.000000000
 40
1.000000000
 40
1.000000000
 40
1.000000000
 10
49.268392857
 20
8.410000000
 30
0.000000000
 10
49.079553571
 20
8.410000000
 30
0.000000000
 10
48.968392857
 20
8.282857143
 30
0.000000000
  0
SPLINE
  5
AFE
330
A02
100
AcDbEntity
  8
ShapeString
100
AcDbSpline
210
0
220
0
230
1
 70
8
 71
2
 72
6
 73
3
 74
0
 40
0.000000000
 40
0.000000000
 40
0.000000000
 40
1.000000000
 40
1.000000000
 40
1.000000000
 10
49.504107143
 20
8.306964286
 30
0.000000000
 10
49.427767857
 20
8.410000000
 30
0.000000000
 10
49.268392857
 20
8.410000000
 30
0.000000000
  0
SPLINE
  5
AFF
330
A02
100
AcDbEntity
  8
ShapeString
100
AcDbSpline
210
0
220
0
230
1
 70
8
 71
2
 72
6
 73
3
 74
0
 40
0.000000000
 40
0.000000000
 40
0.000000000
 40
1.000000000
 40
1.000000000
 40
1.000000000
 10
49.580446429
 20
7.988482143
 30
0.000000000
 10
49.580446429
 20
8.203928571
 30
0.000000000
 10
49.504107143
 20
8.306964286
 30
0.000000000
  0
LINE
  5
B00
330
A02
100
AcDbEntity
  8
ShapeString
100
AcDbLine
 10
49.580446429
 20
7.090000000
 30
0.000000000
 11
49.580446429
 21
7.988482143
 31
0.000000000
  0
LINE
  5
B01
330
A02
100
AcDbEntity
  8
ShapeString
100
AcDbLine
 10
49.828214286
 20
7.090000000
 30
0.000000000
 11
49.580446429
 21
7.090000000
 31
0.000000000
  0
LINE
  5
B02
330
A02
100
AcDbEntity
  8
ShapeString
100
AcDbLine
 10
49.828214286
 20
7.938839286
 30
0.000000000
 11
49.828214286
 21
7.090000000
 31
0.000000000
  0
SPLINE
  5
B03
330
A02
100
AcDbEntity
  8
ShapeString
100
AcDbSpline
210
0
220
0
230
1
 70
8
 71
2
 72
6
 73
3
 74
0
 40
0.000000000
 40
0.000000000
 40
0.000000000
 40
1.000000000
 40
1.000000000
 40
1.000000000
 10
49.939375000
 20
8.283571429
 30
0.000000000
 10
49.828214286
 20
8.157142857
 30
0.000000000
 10
49.828214286
 20
7.938839286
 30
0.000000000
  0
SPLINE
  5
B04
330
A02
100
AcDbEntity
  8
ShapeString
100
AcDbSpline
210
0
220
0
230
1
 70
8
 71
2
 72
6
 73
3
 74
0
 40
0.000000000
 40
0.000000000
 40
0.000000000
 40
1.000000000
 40
1.000000000
 40
1.000000000
 10
50.242053571
 20
8.410000000
 30
0.000000000
 10
50.050535714
 20
8.410000000
 30
0.000000000
 10
49.939375000
 20
8.283571429
 30
0.000000000
  0
SPLINE
  5
B05
330
A02
100
AcDbEntity
  8
ShapeString
100
AcDbSpline
210
0
220
0
230
1
 70
8
 71
2
 72
6
 73
3
 74
0
 40
0.000000000
 40
0.000000000
 40
0.000000000
 40
1.000000000
 40
1.000000000
 40
1.000000000
 10
50.475089286
 20
8.306250000
 30
0.000000000
 10
50.398750000
 20
8.410000000
 30
0.000000000
 10
50.242053571
 20
8.410000000
 30
0.000000000
  0
SPLINE
  5
B06
330
A02
100
AcDbEntity
  8
ShapeString
100
AcDbSpline
210
0
220
0
230
1
 70
8
 71
2
 72
6
 73
3
 74
0
 40
0.000000000
 40
0.000000000
 40
0.000000000
 40
1.000000000
 40
1.000000000
 40
1.000000000
 10
50.551428571
 20
7.988482143
 30
0.000000000
 10
50.551428571
 20
8.202589286
 30
0.000000000
 10
50.475089286
 20
8.306250000
 30
0.000000000
  0
LINE
  5
B07
330
A02
100
AcDbEntity
  8
ShapeString
100
AcDbLine
 10
50.551428571
 20
7.090000000
 30
0.000000000
 11
50.551428571
 21
7.988482143
 31
0.000000000
  0
LINE
  5
B08
330
A02
100
AcDbEntity
  8
ShapeString
100
AcDbLine
 10
50.799196429
 20
7.090000000
 30
0.000000000
 11
50.551428571
 21
7.090000000
 31
0.000000000
  0
LINE
  5
B09
330
A02
100
AcDbEntity
  8
ShapeString
100
AcDbLine
 10
50.799196429
 20
7.996517857
 30
0.000000000
 11
50.799196429
 21
7.090000000
 31
0.000000000
  0
SPLINE
  5
B0A
330
A02
100
AcDbEntity
  8
ShapeString
100
AcDbSpline
210
0
220
0
230
1
 70
8
 71
2
 72
6
 73
3
 74
0
 40
0.000000000
 40
0.000000000
 40
0.000000000
 40
1.000000000
 40
1.000000000
 40
1.000000000
 10
50.671964286
 20
8.463125000
 30
0.000000000
 10
50.799196429
 20
8.299107143
 30
0.000000000
 10
50.799196429
 20
7.996517857
 30
0.000000000
  0
SPLINE
  5
B0B
330
A02
100
AcDbEntity
  8
ShapeString
100
AcDbSpline
210
0
220
0
230
1
 70
8
 71
2
 72
6
 73
3
 74
0
 40
0.000000000
 40
0.000000000
 40
0.000000000
 40
1.000000000
 40
1.000000000
 40
1.000000000
 10
50.310357143
 20
8.627142857
 30
0.000000000
 10
50.544732143
 20
8.627142857
 30
0.000000000
 10
50.671964286
 20
8.463125000
 30
0.000000000
  0
SPLINE
  5
B0C
330
A02
100
AcDbEntity
  8
ShapeString
100
AcDbSpline
210
0
220
0
230
1
 70
8
 71
2
 72
6
 73
3
 74
0
 40
0.000000000
 40
0.000000000
 40
0.000000000
 40
1.000000000
 40
1.000000000
 40
1.000000000
 10
50.007678571
 20
8.548214286
 30
0.000000000
 10
50.136250000
 20
8.627142857
 30
0.000000000
 10
50.310357143
 20
8.627142857
 30
0.000000000
  0
SPLINE
  5
B0D
330
A02
100
AcDbEntity
  8
ShapeString
100
AcDbSpline
210
0
220
0
230
1
 70
8
 71
2
 72
6
 73
3
 74
0
 40
0.000000000
 40
0.000000000
 40
0.000000000
 40
1.000000000
 40
1.000000000
 40
1.000000000
 10
52.759375000
 20
9.170000000
 30
0.000000000
 10
52.579910714
 20
8.861607143
 30
0.000000000
 10
52.492857143
 20
8.559910714
 30
0.000000000
  0
LINE
  5
B0E
330
A02
100
AcDbEntity
  8
ShapeString
100
AcDbLine
 10
52.545089286
 20
9.170000000
 30
0.000000000
 11
52.759375000
 21
9.170000000
 31
0.000000000
  0
SPLINE
  5
B0F
330
A02
100
AcDbEntity
  8
ShapeString
100
AcDbSpline
210
0
220
0
230
1
 70
8
 71
2
 72
6
 73
3
 74
0
 40
0.000000000
 40
0.000000000
 40
0.000000000
 40
1.000000000
 40
1.000000000
 40
1.000000000
 10
52.243750000
 20
8.550535714
 30
0.000000000
 10
52.342857143
 20
8.853571429
 30
0.000000000
 10
52.545089286
 20
9.170000000
 30
0.000000000
  0
SPLINE
  5
B10
330
A02
100
AcDbEntity
  8
ShapeString
100
AcDbSpline
210
0
220
0
230
1
 70
8
 71
2
 72
6
 73
3
 74
0
 40
0.000000000
 40
0.000000000
 40
0.000000000
 40
1.000000000
 40
1.000000000
 40
1.000000000
 10
52.144642857
 20
7.948482143
 30
0.000000000
 10
52.144642857
 20
8.247500000
 30
0.000000000
 10
52.243750000
 20
8.550535714
 30
0.000000000
  0
SPLINE
  5
B11
330
A02
100
AcDbEntity
  8
ShapeString
100
AcDbSpline
210
0
220
0
230
1
 70
8
 71
2
 72
6
 73
3
 74
0
 40
0.000000000
 40
0.000000000
 40
0.000000000
 40
1.000000000
 40
1.000000000
 40
1.000000000
 10
52.244375000
 20
7.343750000
 30
0.000000000
 10
52.144642857
 20
7.648125000
 30
0.000000000
 10
52.144642857
 20
7.948482143
 30
0.000000000
  0
SPLINE
  5
B12
330
A02
100
AcDbEntity
  8
ShapeString
100
AcDbSpline
210
0
220
0
230
1
 70
8
 71
2
 72
6
 73
3
 74
0
 40
0.000000000
 40
0.000000000
 40
0.000000000
 40
1.000000000
 40
1.000000000
 40
1.000000000
 10
52.545089286
 20
6.724285714
 30
0.000000000
 10
52.344196429
 20
7.039375000
 30
0.000000000
 10
52.244375000
 20
7.343750000
 30
0.000000000
  0
LINE
  5
B13
330
A02
100
AcDbEntity
  8
ShapeString
100
AcDbLine
 10
52.759375000
 20
6.724285714
 30
0.000000000
 11
52.545089286
 21
6.724285714
 31
0.000000000
  0
SPLINE
  5
B14
330
A02
100
AcDbEntity
  8
ShapeString
100
AcDbSpline
210
0
220
0
230
1
 70
8
 71
2
 72
6
 73
3
 74
0
 40
0.000000000
 40
0.000000000
 40
0.000000000
 40
1.000000000
 40
1.000000000
 40
1.000000000
 10
52.493482143
 20
7.335000000
 30
0.000000000
 10
52.581250000
 20
7.031339286
 30
0.000000000
 10
52.759375000
 20
6.724285714
 30
0.000000000
  0
SPLINE
  5
B15
330
A02
100
AcDbEntity
  8
ShapeString
100
AcDbSpline
210
0
220
0
230
1
 70
8
 71
2
 72
6
 73
3
 74
0
 40
0.000000000
 40
0.000000000
 40
0.000000000
 40
1.000000000
 40
1.000000000
 40
1.000000000
 10
52.405803571
 20
7.948482143
 30
0.000000000
 10
52.405803571
 20
7.638750000
 30
0.000000000
 10
52.493482143
 20
7.335000000
 30
0.000000000
  0
SPLINE
  5
B16
330
A02
100
AcDbEntity
  8
ShapeString
100
AcDbSpline
210
0
220
0
230
1
 70
8
 71
2
 72
6
 73
3
 74
0
 40
0.000000000
 40
0.000000000
 40
0.000000000
 40
1.000000000
 40
1.000000000
 40
1.000000000
 10
52.492857143
 20
8.559910714
 30
0.000000000
 10
52.405803571
 20
8.258214286
 30
0.000000000
 10
52.405803571
 20
7.948482143
 30
0.000000000
  0
LINE
  5
B17
330
A02
100
AcDbEntity
  8
ShapeString
100
AcDbLine
 10
53.474375000
 20
7.312857143
 30
0.000000000
 11
53.474375000
 21
6.518571429
 31
0.000000000
  0
SPLINE
  5
B18
330
A02
100
AcDbEntity
  8
ShapeString
100
AcDbSpline
210
0
220
0
230
1
 70
8
 71
2
 72
6
 73
3
 74
0
 40
0.000000000
 40
0.000000000
 40
0.000000000
 40
1.000000000
 40
1.000000000
 40
1.000000000
 10
53.670535714
 20
7.114732143
 30
0.000000000
 10
53.552053571
 20
7.179464286
 30
0.000000000
 10
53.474375000
 20
7.312857143
 30
0.000000000
  0
SPLINE
  5
B19
330
A02
100
AcDbEntity
  8
ShapeString
100
AcDbSpline
210
0
220
0
230
1
 70
8
 71
2
 72
6
 73
3
 74
0
 40
0.000000000
 40
0.000000000
 40
0.000000000
 40
1.000000000
 40
1.000000000
 40
1.000000000
 10
53.953839286
 20
7.050000000
 30
0.000000000
 10
53.789107143
 20
7.050000000
 30
0.000000000
 10
53.670535714
 20
7.114732143
 30
0.000000000
  0
SPLINE
  5
B1A
330
A02
100
AcDbEntity
  8
ShapeString
100
AcDbSpline
210
0
220
0
230
1
 70
8
 71
2
 72
6
 73
3
 74
0
 40
0.000000000
 40
0.000000000
 40
0.000000000
 40
1.000000000
 40
1.000000000
 40
1.000000000
 10
54.397767857
 20
7.267232143
 30
0.000000000
 10
54.227053571
 20
7.050000000
 30
0.000000000
 10
53.953839286
 20
7.050000000
 30
0.000000000
  0
SPLINE
  5
B1B
330
A02
100
AcDbEntity
  8
ShapeString
100
AcDbSpline
210
0
220
0
230
1
 70
8
 71
2
 72
6
 73
3
 74
0
 40
0.000000000
 40
0.000000000
 40
0.000000000
 40
1.000000000
 40
1.000000000
 40
1.000000000
 10
54.568571429
 20
7.838571429
 30
0.000000000
 10
54.568571429
 20
7.484553571
 30
0.000000000
 10
54.397767857
 20
7.267232143
 30
0.000000000
  0
SPLINE
  5
B1C
330
A02
100
AcDbEntity
  8
ShapeString
100
AcDbSpline
210
0
220
0
230
1
 70
8
 71
2
 72
6
 73
3
 74
0
 40
0.000000000
 40
0.000000000
 40
0.000000000
 40
1.000000000
 40
1.000000000
 40
1.000000000
 10
54.397767857
 20
8.409821429
 30
0.000000000
 10
54.568571429
 20
8.192589286
 30
0.000000000
 10
54.568571429
 20
7.838571429
 30
0.000000000
  0
SPLINE
  5
B1D
330
A02
100
AcDbEntity
  8
ShapeString
100
AcDbSpline
210
0
220
0
230
1
 70
8
 71
2
 72
6
 73
3
 74
0
 40
0.000000000
 40
0.000000000
 40
0.000000000
 40
1.000000000
 40
1.000000000
 40
1.000000000
 10
53.953839286
 20
8.627142857
 30
0.000000000
 10
54.227053571
 20
8.627142857
 30
0.000000000
 10
54.397767857
 20
8.409821429
 30
0.000000000
  0
SPLINE
  5
B1E
330
A02
100
AcDbEntity
  8
ShapeString
100
AcDbSpline
210
0
220
0
230
1
 70
8
 71
2
 72
6
 73
3
 74
0
 40
0.000000000
 40
0.000000000
 40
0.000000000
 40
1.000000000
 40
1.000000000
 40
1.000000000
 10
53.670535714
 20
8.562410714
 30
0.000000000
 10
53.789107143
 20
8.627142857
 30
0.000000000
 10
53.953839286
 20
8.627142857
 30
0.000000000
  0
SPLINE
  5
B1F
330
A02
100
AcDbEntity
  8
ShapeString
100
AcDbSpline
210
0
220
0
230
1
 70
8
 71
2
 72
6
 73
3
 74
0
 40
0.000000000
 40
0.000000000
 40
0.000000000
 40
1.000000000
 40
1.000000000
 40
1.000000000
 10
53.474375000
 20
8.364285714
 30
0.000000000
 10
53.552053571
 20
8.497678571
 30
0.000000000
 10
53.670535714
 20
8.562410714
 30
0.000000000
  0
LINE
  5
B20
330
A02
100
AcDbEntity
  8
ShapeString
100
AcDbLine
 10
53.474375000
 20
8.592857143
 30
0.000000000
 11
53.474375000
 21
8.364285714
 31
0.000000000
  0
LINE
  5
B21
330
A02
100
AcDbEntity
  8
ShapeString
100
AcDbLine
 10
53.226607143
 20
8.592857143
 30
0.000000000
 11
53.474375000
 21
8.592857143
 31
0.000000000
  0
LINE
  5
B22
330
A02
100
AcDbEntity
  8
ShapeString
100
AcDbLine
 10
53.226607143
 20
6.518571429
 30
0.000000000
 11
53.226607143
 21
8.592857143
 31
0.000000000
  0
LINE
  5
B23
330
A02
100
AcDbEntity
  8
ShapeString
100
AcDbLine
 10
53.474375000
 20
6.518571429
 30
0.000000000
 11
53.226607143
 21
6.518571429
 31
0.000000000
  0
SPLINE
  5
B24
330
A02
100
AcDbEntity
  8
ShapeString
100
AcDbSpline
210
0
220
0
230
1
 70
8
 71
2
 72
6
 73
3
 74
0
 40
0.000000000
 40
0.000000000
 40
0.000000000
 40
1.000000000
 40
1.000000000
 40
1.000000000
 10
54.312767857
 20
7.838571429
 30
0.000000000
 10
54.312767857
 20
8.111160714
 30
0.000000000
 10
54.200892857
 20
8.266250000
 30
0.000000000
  0
SPLINE
  5
B25
330
A02
100
AcDbEntity
  8
ShapeString
100
AcDbSpline
210
0
220
0
230
1
 70
8
 71
2
 72
6
 73
3
 74
0
 40
0.000000000
 40
0.000000000
 40
0.000000000
 40
1.000000000
 40
1.000000000
 40
1.000000000
 10
54.200892857
 20
7.410803571
 30
0.000000000
 10
54.312767857
 20
7.565982143
 30
0.000000000
 10
54.312767857
 20
7.838571429
 30
0.000000000
  0
SPLINE
  5
B26
330
A02
100
AcDbEntity
  8
ShapeString
100
AcDbSpline
210
0
220
0
230
1
 70
8
 71
2
 72
6
 73
3
 74
0
 40
0.000000000
 40
0.000000000
 40
0.000000000
 40
1.000000000
 40
1.000000000
 40
1.000000000
 10
53.893571429
 20
7.255714286
 30
0.000000000
 10
54.089107143
 20
7.255714286
 30
0.000000000
 10
54.200892857
 20
7.410803571
 30
0.000000000
  0
SPLINE
  5
B27
330
A02
100
AcDbEntity
  8
ShapeString
100
AcDbSpline
210
0
220
0
230
1
 70
8
 71
2
 72
6
 73
3
 74
0
 40
0.000000000
 40
0.000000000
 40
0.000000000
 40
1.000000000
 40
1.000000000
 40
1.000000000
 10
53.586160714
 20
7.410803571
 30
0.000000000
 10
53.698035714
 20
7.255714286
 30
0.000000000
 10
53.893571429
 20
7.255714286
 30
0.000000000
  0
SPLINE
  5
B28
330
A02
100
AcDbEntity
  8
ShapeString
100
AcDbSpline
210
0
220
0
230
1
 70
8
 71
2
 72
6
 73
3
 74
0
 40
0.000000000
 40
0.000000000
 40
0.000000000
 40
1.000000000
 40
1.000000000
 40
1.000000000
 10
53.474375000
 20
7.838571429
 30
0.000000000
 10
53.474375000
 20
7.565982143
 30
0.000000000
 10
53.586160714
 20
7.410803571
 30
0.000000000
  0
SPLINE
  5
B29
330
A02
100
AcDbEntity
  8
ShapeString
100
AcDbSpline
210
0
220
0
230
1
 70
8
 71
2
 72
6
 73
3
 74
0
 40
0.000000000
 40
0.000000000
 40
0.000000000
 40
1.000000000
 40
1.000000000
 40
1.000000000
 10
53.586160714
 20
8.266250000
 30
0.000000000
 10
53.474375000
 20
8.111160714
 30
0.000000000
 10
53.474375000
 20
7.838571429
 30
0.000000000
  0
SPLINE
  5
B2A
330
A02
100
AcDbEntity
  8
ShapeString
100
AcDbSpline
210
0
220
0
230
1
 70
8
 71
2
 72
6
 73
3
 74
0
 40
0.000000000
 40
0.000000000
 40
0.000000000
 40
1.000000000
 40
1.000000000
 40
1.000000000
 10
53.893571429
 20
8.421428571
 30
0.000000000
 10
53.698035714
 20
8.421428571
 30
0.000000000
 10
53.586160714
 20
8.266250000
 30
0.000000000
  0
SPLINE
  5
B2B
330
A02
100
AcDbEntity
  8
ShapeString
100
AcDbSpline
210
0
220
0
230
1
 70
8
 71
2
 72
6
 73
3
 74
0
 40
0.000000000
 40
0.000000000
 40
0.000000000
 40
1.000000000
 40
1.000000000
 40
1.000000000
 10
54.200892857
 20
8.266250000
 30
0.000000000
 10
54.089107143
 20
8.421428571
 30
0.000000000
 10
53.893571429
 20
8.421428571
 30
0.000000000
  0
LINE
  5
B2C
330
A02
100
AcDbEntity
  8
ShapeString
100
AcDbLine
 10
54.978839286
 20
8.592857143
 30
0.000000000
 11
55.225267857
 21
8.592857143
 31
0.000000000
  0
LINE
  5
B2D
330
A02
100
AcDbEntity
  8
ShapeString
100
AcDbLine
 10
54.978839286
 20
7.090000000
 30
0.000000000
 11
54.978839286
 21
8.592857143
 31
0.000000000
  0
LINE
  5
B2E
330
A02
100
AcDbEntity
  8
ShapeString
100
AcDbLine
 10
55.225267857
 20
7.090000000
 30
0.000000000
 11
54.978839286
 21
7.090000000
 31
0.000000000
  0
LINE
  5
B2F
330
A02
100
AcDbEntity
  8
ShapeString
100
AcDbLine
 10
55.225267857
 20
8.592857143
 30
0.000000000
 11
55.225267857
 21
7.090000000
 31
0.000000000
  0
LINE
  5
B30
330
A02
100
AcDbEntity
  8
ShapeString
100
AcDbLine
 10
54.978839286
 20
9.175714286
 30
0.000000000
 11
55.225267857
 21
9.175714286
 31
0.000000000
  0
LINE
  5
B31
330
A02
100
AcDbEntity
  8
ShapeString
100
AcDbLine
 10
54.978839286
 20
8.861428571
 30
0.000000000
 11
54.978839286
 21
9.175714286
 31
0.000000000
  0
LINE
  5
B32
330
A02
100
AcDbEntity
  8
ShapeString
100
AcDbLine
 10
55.225267857
 20
8.861428571
 30
0.000000000
 11
54.978839286
 21
8.861428571
 31
0.000000000
  0
LINE
  5
B33
330
A02
100
AcDbEntity
  8
ShapeString
100
AcDbLine
 10
55.225267857
 20
9.175714286
 30
0.000000000
 11
55.225267857
 21
8.861428571
 31
0.000000000
  0
LINE
  5
B34
330
A02
100
AcDbEntity
  8
ShapeString
100
AcDbLine
 10
56.985714286
 20
7.996517857
 30
0.000000000
 11
56.985714286
 21
7.090000000
 31
0.000000000
  0
SPLINE
  5
B35
330
A02
100
AcDbEntity
  8
ShapeString
100
AcDbSpline
210
0
220
0
230
1
 70
8
 71
2
 72
6
 73
3
 74
0
 40
0.000000000
 40
0.000000000
 40
0.000000000
 40
1.000000000
 40
1.000000000
 40
1.000000000
 10
56.853125000
 20
8.467142857
 30
0.000000000
 10
56.985714286
 20
8.307142857
 30
0.000000000
 10
56.985714286
 20
7.996517857
 30
0.000000000
  0
SPLINE
  5
B36
330
A02
100
AcDbEntity
  8
ShapeString
100
AcDbSpline
210
0
220
0
230
1
 70
8
 71
2
 72
6
 73
3
 74
0
 40
0.000000000
 40
0.000000000
 40
0.000000000
 40
1.000000000
 40
1.000000000
 40
1.000000000
 10
56.462053571
 20
8.627142857
 30
0.000000000
 10
56.720535714
 20
8.627142857
 30
0.000000000
 10
56.853125000
 20
8.467142857
 30
0.000000000
  0
SPLINE
  5
B37
330
A02
100
AcDbEntity
  8
ShapeString
100
AcDbSpline
210
0
220
0
230
1
 70
8
 71
2
 72
6
 73
3
 74
0
 40
0.000000000
 40
0.000000000
 40
0.000000000
 40
1.000000000
 40
1.000000000
 40
1.000000000
 10
56.185446429
 20
8.560267857
 30
0.000000000
 10
56.305357143
 20
8.627142857
 30
0.000000000
 10
56.462053571
 20
8.627142857
 30
0.000000000
  0
SPLINE
  5
B38
330
A02
100
AcDbEntity
  8
ShapeString
100
AcDbSpline
210
0
220
0
230
1
 70
8
 71
2
 72
6
 73
3
 74
0
 40
0.000000000
 40
0.000000000
 40
0.000000000
 40
1.000000000
 40
1.000000000
 40
1.000000000
 10
55.977232143
 20
8.358571429
 30
0.000000000
 10
56.065625000
 20
8.493482143
 30
0.000000000
 10
56.185446429
 20
8.560267857
 30
0.000000000
  0
LINE
  5
B39
330
A02
100
AcDbEntity
  8
ShapeString
100
AcDbLine
 10
55.977232143
 20
8.592857143
 30
0.000000000
 11
55.977232143
 21
8.358571429
 31
0.000000000
  0
LINE
  5
B3A
330
A02
100
AcDbEntity
  8
ShapeString
100
AcDbLine
 10
55.729464286
 20
8.592857143
 30
0.000000000
 11
55.977232143
 21
8.592857143
 31
0.000000000
  0
LINE
  5
B3B
330
A02
100
AcDbEntity
  8
ShapeString
100
AcDbLine
 10
55.729464286
 20
7.090000000
 30
0.000000000
 11
55.729464286
 21
8.592857143
 31
0.000000000
  0
LINE
  5
B3C
330
A02
100
AcDbEntity
  8
ShapeString
100
AcDbLine
 10
55.977232143
 20
7.090000000
 30
0.000000000
 11
55.729464286
 21
7.090000000
 31
0.000000000
  0
LINE
  5
B3D
330
A02
100
AcDbEntity
  8
ShapeString
100
AcDbLine
 10
55.977232143
 20
7.938839286
 30
0.000000000
 11
55.977232143
 21
7.090000000
 31
0.000000000
  0
SPLINE
  5
B3E
330
A02
100
AcDbEntity
  8
ShapeString
100
AcDbSpline
210
0
220
0
230
1
 70
8
 71
2
 72
6
 73
3
 74
0
 40
0.000000000
 40
0.000000000
 40
0.000000000
 40
1.000000000
 40
1.000000000
 40
1.000000000
 10
56.092410714
 20
8.283571429
 30
0.000000000
 10
55.977232143
 20
8.157142857
 30
0.000000000
 10
55.977232143
 20
7.938839286
 30
0.000000000
  0
SPLINE
  5
B3F
330
A02
100
AcDbEntity
  8
ShapeString
100
AcDbSpline
210
0
220
0
230
1
 70
8
 71
2
 72
6
 73
3
 74
0
 40
0.000000000
 40
0.000000000
 40
0.000000000
 40
1.000000000
 40
1.000000000
 40
1.000000000
 10
56.407142857
 20
8.410000000
 30
0.000000000
 10
56.207589286
 20
8.410000000
 30
0.000000000
 10
56.092410714
 20
8.283571429
 30
0.000000000
  0
SPLINE
  5
B40
330
A02
100
AcDbEntity
  8
ShapeString
100
AcDbSpline
210
0
220
0
230
1
 70
8
 71
2
 72
6
 73
3
 74
0
 40
0.000000000
 40
0.000000000
 40
0.000000000
 40
1.000000000
 40
1.000000000
 40
1.000000000
 10
56.656250000
 20
8.304910714
 30
0.000000000
 10
56.573214286
 20
8.410000000
 30
0.000000000
 10
56.407142857
 20
8.410000000
 30
0.000000000
  0
SPLINE
  5
B41
330
A02
100
AcDbEntity
  8
ShapeString
100
AcDbSpline
210
0
220
0
230
1
 70
8
 71
2
 72
6
 73
3
 74
0
 40
0.000000000
 40
0.000000000
 40
0.000000000
 40
1.000000000
 40
1.000000000
 40
1.000000000
 10
56.739285714
 20
7.988482143
 30
0.000000000
 10
56.739285714
 20
8.199910714
 30
0.000000000
 10
56.656250000
 20
8.304910714
 30
0.000000000
  0
LINE
  5
B42
330
A02
100
AcDbEntity
  8
ShapeString
100
AcDbLine
 10
56.739285714
 20
7.090000000
 30
0.000000000
 11
56.739285714
 21
7.988482143
 31
0.000000000
  0
LINE
  5
B43
330
A02
100
AcDbEntity
  8
ShapeString
100
AcDbLine
 10
56.985714286
 20
7.090000000
 30
0.000000000
 11
56.739285714
 21
7.090000000
 31
0.000000000
  0
LINE
  5
B44
330
A02
100
AcDbEntity
  8
ShapeString
100
AcDbLine
 10
57.557678571
 20
7.318571429
 30
0.000000000
 11
57.999642857
 21
7.318571429
 31
0.000000000
  0
LINE
  5
B45
330
A02
100
AcDbEntity
  8
ShapeString
100
AcDbLine
 10
57.557678571
 20
7.090000000
 30
0.000000000
 11
57.557678571
 21
7.318571429
 31
0.000000000
  0
LINE
  5
B46
330
A02
100
AcDbEntity
  8
ShapeString
100
AcDbLine
 10
58.709464286
 20
7.090000000
 30
0.000000000
 11
57.557678571
 21
7.090000000
 31
0.000000000
  0
LINE
  5
B47
330
A02
100
AcDbEntity
  8
ShapeString
100
AcDbLine
 10
58.709464286
 20
7.318571429
 30
0.000000000
 11
58.709464286
 21
7.090000000
 31
0.000000000
  0
LINE
  5
B48
330
A02
100
AcDbEntity
  8
ShapeString
100
AcDbLine
 10
58.267500000
 20
7.318571429
 30
0.000000000
 11
58.709464286
 21
7.318571429
 31
0.000000000
  0
LINE
  5
B49
330
A02
100
AcDbEntity
  8
ShapeString
100
AcDbLine
 10
58.267500000
 20
9.090000000
 30
0.000000000
 11
58.267500000
 21
7.318571429
 31
0.000000000
  0
LINE
  5
B4A
330
A02
100
AcDbEntity
  8
ShapeString
100
AcDbLine
 10
57.996964286
 20
9.090000000
 30
0.000000000
 11
58.267500000
 21
9.090000000
 31
0.000000000
  0
LINE
  5
B4B
330
A02
100
AcDbEntity
  8
ShapeString
100
AcDbLine
 10
57.518839286
 20
8.992857143
 30
0.000000000
 11
57.996964286
 21
9.090000000
 31
0.000000000
  0
LINE
  5
B4C
330
A02
100
AcDbEntity
  8
ShapeString
100
AcDbLine
 10
57.518839286
 20
8.747142857
 30
0.000000000
 11
57.518839286
 21
8.992857143
 31
0.000000000
  0
LINE
  5
B4D
330
A02
100
AcDbEntity
  8
ShapeString
100
AcDbLine
 10
57.999642857
 20
8.844285714
 30
0.000000000
 11
57.518839286
 21
8.747142857
 31
0.000000000
  0
LINE
  5
B4E
330
A02
100
AcDbEntity
  8
ShapeString
100
AcDbLine
 10
57.999642857
 20
7.318571429
 30
0.000000000
 11
57.999642857
 21
8.844285714
 31
0.000000000
  0
LINE
  5
B4F
330
A02
100
AcDbEntity
  8
ShapeString
100
AcDbLine
 10
59.180000000
 20
9.170000000
 30
0.000000000
 11
59.394285714
 21
9.170000000
 31
0.000000000
  0
SPLINE
  5
B50
330
A02
100
AcDbEntity
  8
ShapeString
100
AcDbSpline
210
0
220
0
230
1
 70
8
 71
2
 72
6
 73
3
 74
0
 40
0.000000000
 40
0.000000000
 40
0.000000000
 40
1.000000000
 40
1.000000000
 40
1.000000000
 10
59.445803571
 20
8.559910714
 30
0.000000000
 10
59.358125000
 20
8.861607143
 30
0.000000000
 10
59.180000000
 20
9.170000000
 30
0.000000000
  0
SPLINE
  5
B51
330
A02
100
AcDbEntity
  8
ShapeString
100
AcDbSpline
210
0
220
0
230
1
 70
8
 71
2
 72
6
 73
3
 74
0
 40
0.000000000
 40
0.000000000
 40
0.000000000
 40
1.000000000
 40
1.000000000
 40
1.000000000
 10
59.533571429
 20
7.948482143
 30
0.000000000
 10
59.533571429
 20
8.258214286
 30
0.000000000
 10
59.445803571
 20
8.559910714
 30
0.000000000
  0
SPLINE
  5
B52
330
A02
100
AcDbEntity
  8
ShapeString
100
AcDbSpline
210
0
220
0
230
1
 70
8
 71
2
 72
6
 73
3
 74
0
 40
0.000000000
 40
0.000000000
 40
0.000000000
 40
1.000000000
 40
1.000000000
 40
1.000000000
 10
59.445803571
 20
7.335000000
 30
0.000000000
 10
59.533571429
 20
7.638750000
 30
0.000000000
 10
59.533571429
 20
7.948482143
 30
0.000000000
  0
SPLINE
  5
B53
330
A02
100
AcDbEntity
  8
ShapeString
100
AcDbSpline
210
0
220
0
230
1
 70
8
 71
2
 72
6
 73
3
 74
0
 40
0.000000000
 40
0.000000000
 40
0.000000000
 40
1.000000000
 40
1.000000000
 40
1.000000000
 10
59.180000000
 20
6.724285714
 30
0.000000000
 10
59.358125000
 20
7.031339286
 30
0.000000000
 10
59.445803571
 20
7.335000000
 30
0.000000000
  0
LINE
  5
B54
330
A02
100
AcDbEntity
  8
ShapeString
100
AcDbLine
 10
59.394285714
 20
6.724285714
 30
0.000000000
 11
59.180000000
 21
6.724285714
 31
0.000000000
  0
SPLINE
  5
B55
330
A02
100
AcDbEntity
  8
ShapeString
100
AcDbSpline
210
0
220
0
230
1
 70
8
 71
2
 72
6
 73
3
 74
0
 40
0.000000000
 40
0.000000000
 40
0.000000000
 40
1.000000000
 40
1.000000000
 40
1.000000000
 10
59.694910714
 20
7.343750000
 30
0.000000000
 10
59.595178571
 20
7.039375000
 30
0.000000000
 10
59.394285714
 20
6.724285714
 30
0.000000000
  0
SPLINE
  5
B56
330
A02
100
AcDbEntity
  8
ShapeString
100
AcDbSpline
210
0
220
0
230
1
 70
8
 71
2
 72
6
 73
3
 74
0
 40
0.000000000
 40
0.000000000
 40
0.000000000
 40
1.000000000
 40
1.000000000
 40
1.000000000
 10
59.794732143
 20
7.948482143
 30
0.000000000
 10
59.794732143
 20
7.648125000
 30
0.000000000
 10
59.694910714
 20
7.343750000
 30
0.000000000
  0
SPLINE
  5
B57
330
A02
100
AcDbEntity
  8
ShapeString
100
AcDbSpline
210
0
220
0
230
1
 70
8
 71
2
 72
6
 73
3
 74
0
 40
0.000000000
 40
0.000000000
 40
0.000000000
 40
1.000000000
 40
1.000000000
 40
1.000000000
 10
59.694910714
 20
8.550535714
 30
0.000000000
 10
59.794732143
 20
8.247500000
 30
0.000000000
 10
59.794732143
 20
7.948482143
 30
0.000000000
  0
SPLINE
  5
B58
330
A02
100
AcDbEntity
  8
ShapeString
100
AcDbSpline
210
0
220
0
230
1
 70
8
 71
2
 72
6
 73
3
 74
0
 40
0.000000000
 40
0.000000000
 40
0.000000000
 40
1.000000000
 40
1.000000000
 40
1.000000000
 10
59.394285714
 20
9.170000000
 30
0.000000000
 10
59.595178571
 20
8.853571429
 30
0.000000000
 10
59.694910714
 20
8.550535714
 30
0.000000000
  0
ENDSEC
  0
SECTION
  2
OBJECTS
  0
DICTIONARY
  5
F000
330
0
100
AcDbDictionary
  3
ACAD_GROUP
350
F001
  0
DICTIONARY
  5
F001
330
F000
100
AcDbDictionary
  0
ENDSEC
  0
EOF