999
FreeCAD v1.1 44987 (Git)
  0
SECTION
  2
HEADER
  9
$ACADVER
  1
AC1014
  9
$ACADMAINTVER
 70
     9
  9
$DWGCODEPAGE
  3
ANSI_1252
  9
$TEXTSTYLE
  7
STANDARD
  9
$DIMSTYLE
  2
STANDARD
  9
$DIMTXSTY
  7
STANDARD
  9
$CMLSTYLE
  2
STANDARD
  9
$LUNITS
 70
2
  9
$INSUNITS
 70
4
  9
$PEXTMAX
 10
50
 20
50
 30
50
  9
$PEXTMIN
 10
0
 20
0
 30
0
  9
$HANDSEED
  5
FFFF
  0
ENDSEC
  0
SECTION
  2
CLASSES
  0
CLASS
  1
ACDBDICTIONARYWDFLT
  2
AcDbDictionaryWithDefault
  3
ObjectDBX Classes
 90
        0
280
     0
281
     0
  0
CLASS
  1
XRECORD
  2
AcDbXrecord
  3
ObjectDBX Classes
 90
        0
280
     0
281
     0
  0
CLASS
  1
LWPOLYLINE
  2
AcDbPolyline
  3
ObjectDBX Classes
 90
        0
280
     0
281
     1
  0
ENDSEC
  0
SECTION
  2
TABLES
  0
TABLE
  2
VPORT
  5
20
330
0
100
AcDbSymbolTable
 70
     1
  0
VPORT
  5
21
330
20
100
AcDbSymbolTableRecord
100
AcDbViewportTableRecord
  2
*ACTIVE
 70
     0
  0
ENDTAB
  0
TABLE
  2
LTYPE
  5
22
330
0
100
AcDbSymbolTable
 70
     1
  0
LTYPE
  5
23
330
21
100
AcDbSymbolTableRecord
100
AcDbLinetypeTableRecord
  2
BYBLOCK
 70
     0
  3

 72
    65
 73
     0
 40
0.0
  0
LTYPE
  5
24
330
21
100
AcDbSymbolTableRecord
100
AcDbLinetypeTableRecord
  2
BYLAYER
 70
     0
  3

 72
    65
 73
     0
 40
0.0
  0
LTYPE
  5
25
330
21
100
AcDbSymbolTableRecord
100
AcDbLinetypeTableRecord
  2
CONTINUOUS
 70
     0
  3
Solid line
 72
    65
 73
     0
 40
0.0
  0
ENDTAB
  0
TABLE
  2
LAYER
  5
B45
330
0
100
AcDbSymbolTable
 70
5
  0
LAYER
  5
B46
330
B45
100
AcDbSymbolTableRecord
100
AcDbLayerTableRecord
  2
0
 70
   0
 62
   7
  6
CONTINUOUS
  0
LAYER
  5
B47
330
B45
100
AcDbSymbolTableRecord
100
AcDbLayerTableRecord
  2
none
 70
    0
 62
    7
  6
CONTINUOUS
  0
LAYER
  5
B48
330
B45
100
AcDbSymbolTableRecord
100
AcDbLayerTableRecord
  2
BOARD_OUTLINE
 70
    0
 62
    7
  6
CONTINUOUS
  0
LAYER
  5
B49
330
B45
100
AcDbSymbolTableRecord
100
AcDbLayerTableRecord
  2
ANNO_CAM1_BODY
 70
    0
 62
    7
  6
CONTINUOUS
  0
LAYER
  5
B4A
330
B45
100
AcDbSymbolTableRecord
100
AcDbLayerTableRecord
  2
ShapeString
 70
    0
 62
    7
  6
CONTINUOUS
  0
ENDTAB
  0
TABLE
  2
STYLE
  5
70
330
0
100
AcDbSymbolTable
 70
     2
  0
STYLE
  5
71
330
70
100
AcDbSymbolTableRecord
100
AcDbTextStyleTableRecord
  2
STANDARD
 70
     0
 40
0.0
 41
1.0
 50
0.0
 71
     0
 42
2.5
  3
arial.ttf
  4

  0
STYLE
  5
72
330
70
100
AcDbSymbolTableRecord
100
AcDbTextStyleTableRecord
  2
ANNOTATIVE
 70
     0
 40
0.0
 41
1.0
 50
0.0
 71
     0
 42
2.5
  3
arial.ttf
  4

  0
ENDTAB
  0
TABLE
  2
VIEW
  5
73
330
0
100
AcDbSymbolTable
 70
     0
  0
ENDTAB
  0
TABLE
  2
UCS
  5
74
330
0
100
AcDbSymbolTable
 70
     0
  0
ENDTAB
  0
TABLE
  2
APPID
  5
75
330
0
100
AcDbSymbolTable
 70
     2
  0
APPID
  5
76
330
75
100
AcDbSymbolTableRecord
100
AcDbRegAppTableRecord
  2
ACAD
 70
     0
  0
APPID
  5
77
330
75
100
AcDbSymbolTableRecord
100
AcDbRegAppTableRecord
  2
ACADANNOTATIVE
 70
     0
  0
ENDTAB
  0
TABLE
  2
DIMSTYLE
  5
78
330
0
100
AcDbSymbolTable
 70
     2
  0
DIMSTYLE
105
79
330
78
100
AcDbSymbolTableRecord
100
AcDbDimStyleTableRecord
  2
STANDARD
 70
     0
  3

  4

  5

  6

  7

 40
0.0
 41
2.5
 42
0.625
 43
3.75
 44
1.25
 45
0.0
 46
0.0
 47
0.0
 48
0.0
140
2.5
141
2.5
142
0.0
143
0.03937007874016
144
1.0
145
0.0
146
1.0
147
0.625
 71
     0
 72
     0
 73
     0
 74
     0
 75
     0
 76
     0
 77
     1
 78
     8
170
     0
171
     3
172
     1
173
     0
174
     0
175
     0
176
     0
177
     0
178
     0
270
     2
271
     2
272
     2
273
     2
274
     3
340
71
275
     0
280
     0
281
     0
282
     0
283
     0
284
     8
285
     0
286
     0
287
     3
288
     0
  0
ENDTAB
  0
TABLE
  2
BLOCK_RECORD
  5
A01
330
0
100
AcDbSymbolTable
  70
5
  0
BLOCK_RECORD
  5
A02
330
A01
100
AcDbSymbolTableRecord
100
AcDbBlockTableRecord
  2
*MODEL_SPACE
  0
BLOCK_RECORD
  5
A03
330
A01
100
AcDbSymbolTableRecord
100
AcDbBlockTableRecord
  2
*PAPER_SPACE
  0
ENDTAB
  0
ENDSEC
  0
SECTION
  2
BLOCKS
  0
BLOCK
  5
A04
330
A02
100
AcDbEntity
  8
0
100
AcDbBlockBegin
  2
*MODEL_SPACE
 70
   0
 10
0
 20
0
 30
0
  3
*MODEL_SPACE
  1
 
  0
ENDBLK
  5
A05
330
A02
100
AcDbEntity
  8
0
100
AcDbBlockEnd
  0
BLOCK
  5
A06
330
A03
100
AcDbEntity
 67
1
  8
0
100
AcDbBlockBegin
  2
*PAPER_SPACE
 70
   0
 10
0
 20
0
 30
0
  3
*PAPER_SPACE
  1
 
  0
ENDBLK
  5
A07
330
A03
100
AcDbEntity
 67
    1
  8
0
100
AcDbBlockEnd
  0
ENDSEC
  0
SECTION
  2
ENTITIES
  0
LINE
  5
A08
330
A02
100
AcDbEntity
  8
BOARD_OUTLINE
100
AcDbLine
 10
0.000000000
 20
1.500000000
 30
1.000000000
 11
0.000000000
 21
54.500000000
 31
1.000000000
  0
ARC
  5
A09
330
A02
100
AcDbEntity
  8
BOARD_OUTLINE
100
AcDbCircle
 10
1.500000000
 20
1.500000000
 30
1.000000000
 40
1.500000000
100
AcDbArc
 50
180.000000000
 51
-90.000000000
  0
ARC
  5
A0A
330
A02
100
AcDbEntity
  8
BOARD_OUTLINE
100
AcDbCircle
 10
1.500000000
 20
54.500000000
 30
1.000000000
 40
1.500000000
100
AcDbArc
 50
90.000000000
 51
180.000000000
  0
LINE
  5
A0B
330
A02
100
AcDbEntity
  8
BOARD_OUTLINE
100
AcDbLine
 10
1.500000000
 20
0.000000000
 30
1.000000000
 11
83.500000000
 21
0.000000000
 31
1.000000000
  0
LINE
  5
A0C
330
A02
100
AcDbEntity
  8
BOARD_OUTLINE
100
AcDbLine
 10
1.500000000
 20
56.000000000
 30
1.000000000
 11
16.000000000
 21
56.000000000
 31
1.000000000
  0
ARC
  5
A0D
330
A02
100
AcDbEntity
  8
BOARD_OUTLINE
100
AcDbCircle
 10
83.500000000
 20
1.500000000
 30
1.000000000
 40
1.500000000
100
AcDbArc
 50
-90.000000000
 51
0.000000000
  0
LINE
  5
A0E
330
A02
100
AcDbEntity
  8
BOARD_OUTLINE
100
AcDbLine
 10
17.000000000
 20
55.000000000
 30
1.000000000
 11
16.000000000
 21
56.000000000
 31
1.000000000
  0
LINE
  5
A0F
330
A02
100
AcDbEntity
  8
BOARD_OUTLINE
100
AcDbLine
 10
85.000000000
 20
1.500000000
 30
1.000000000
 11
85.000000000
 21
54.500000000
 31
1.000000000
  0
LINE
  5
A10
330
A02
100
AcDbEntity
  8
BOARD_OUTLINE
100
AcDbLine
 10
17.000000000
 20
52.500000000
 30
1.000000000
 11
17.000000000
 21
55.000000000
 31
1.000000000
  0
ARC
  5
A11
330
A02
100
AcDbEntity
  8
BOARD_OUTLINE
100
AcDbCircle
 10
83.500000000
 20
54.500000000
 30
1.000000000
 40
1.500000000
100
AcDbArc
 50
0.000000000
 51
90.000000000
  0
LINE
  5
A12
330
A02
100
AcDbEntity
  8
BOARD_OUTLINE
100
AcDbLine
 10
18.500000000
 20
51.000000000
 30
1.000000000
 11
17.000000000
 21
52.500000000
 31
1.000000000
  0
LINE
  5
A13
330
A02
100
AcDbEntity
  8
BOARD_OUTLINE
100
AcDbLine
 10
21.000000000
 20
56.000000000
 30
1.000000000
 11
83.500000000
 21
56.000000000
 31
1.000000000
  0
LINE
  5
A14
330
A02
100
AcDbEntity
  8
BOARD_OUTLINE
100
AcDbLine
 10
20.000000000
 20
52.500000000
 30
1.000000000
 11
18.500000000
 21
51.000000000
 31
1.000000000
  0
LINE
  5
A15
330
A02
100
AcDbEntity
  8
BOARD_OUTLINE
100
AcDbLine
 10
21.000000000
 20
56.000000000
 30
1.000000000
 11
20.000000000
 21
55.000000000
 31
1.000000000
  0
LINE
  5
A16
330
A02
100
AcDbEntity
  8
BOARD_OUTLINE
100
AcDbLine
 10
20.000000000
 20
55.000000000
 30
1.000000000
 11
20.000000000
 21
52.500000000
 31
1.000000000
  0
CIRCLE
  5
A17
330
A02
100
AcDbEntity
  8
BOARD_OUTLINE
100
AcDbCircle
 10
23.500000000
 20
3.500000000
 30
1.000000000
 40
1.300000000
  0
CIRCLE
  5
A18
330
A02
100
AcDbEntity
  8
BOARD_OUTLINE
100
AcDbCircle
 10
81.500000000
 20
3.500000000
 30
1.000000000
 40
1.300000000
  0
CIRCLE
  5
A19
330
A02
100
AcDbEntity
  8
BOARD_OUTLINE
100
AcDbCircle
 10
23.500000000
 20
52.500000000
 30
1.000000000
 40
1.300000000
  0
CIRCLE
  5
A1A
330
A02
100
AcDbEntity
  8
BOARD_OUTLINE
100
AcDbCircle
 10
81.500000000
 20
52.500000000
 30
1.000000000
 40
1.300000000
  0
LINE
  5
A1B
330
A02
100
AcDbEntity
  8
ANNO_CAM1_BODY
100
AcDbLine
 10
35.200000000
 20
50.030000000
 30
0.000000000
 11
43.700000000
 21
50.030000000
 31
0.000000000
  0
LINE
  5
A1C
330
A02
100
AcDbEntity
  8
ANNO_CAM1_BODY
100
AcDbLine
 10
43.700000000
 20
50.030000000
 30
0.000000000
 11
43.700000000
 21
52.530000000
 31
0.000000000
  0
LINE
  5
A1D
330
A02
100
AcDbEntity
  8
ANNO_CAM1_BODY
100
AcDbLine
 10
43.700000000
 20
52.530000000
 30
0.000000000
 11
35.200000000
 21
52.530000000
 31
0.000000000
  0
LINE
  5
A1E
330
A02
100
AcDbEntity
  8
ANNO_CAM1_BODY
100
AcDbLine
 10
35.200000000
 20
52.530000000
 30
0.000000000
 11
35.200000000
 21
50.030000000
 31
0.000000000
  0
LINE
  5
A1F
330
A02
100
AcDbEntity
  8
ShapeString
100
AcDbLine
 10
35.812500100
 20
55.875714286
 30
0.000000000
 11
35.812500100
 21
55.590000000
 31
0.000000000
  0
SPLINE
  5
A20
330
A02
100
AcDbEntity
  8
ShapeString
100
AcDbSpline
210
0
220
0
230
1
 70
8
 71
2
 72
6
 73
3
 74
0
 40
0.000000000
 40
0.000000000
 40
0.000000000
 40
1.000000000
 40
1.000000000
 40
1.000000000
 10
35.514464386
 20
56.017142857
 30
0.000000000
 10
35.673214386
 20
55.970000000
 30
0.000000000
 10
35.812500100
 20
55.875714286
 30
0.000000000
  0
SPLINE
  5
A21
330
A02
100
AcDbEntity
  8
ShapeString
100
AcDbSpline
210
0
220
0
230
1
 70
8
 71
2
 72
6
 73
3
 74
0
 40
0.000000000
 40
0.000000000
 40
0.000000000
 40
1.000000000
 40
1.000000000
 40
1.000000000
 10
35.176339386
 20
56.064285714
 30
0.000000000
 10
35.355803671
 20
56.064285714
 30
0.000000000
 10
35.514464386
 20
56.017142857
 30
0.000000000
  0
SPLINE
  5
A22
330
A02
100
AcDbEntity
  8
ShapeString
100
AcDbSpline
210
0
220
0
230
1
 70
8
 71
2
 72
6
 73
3
 74
0
 40
0.000000000
 40
0.000000000
 40
0.000000000
 40
1.000000000
 40
1.000000000
 40
1.000000000
 10
34.461160814
 20
55.786428571
 30
0.000000000
 10
34.722321529
 20
56.064285714
 30
0.000000000
 10
35.176339386
 20
56.064285714
 30
0.000000000
  0
SPLINE
  5
A23
330
A02
100
AcDbEntity
  8
ShapeString
100
AcDbSpline
210
0
220
0
230
1
 70
8
 71
2
 72
6
 73
3
 74
0
 40
0.000000000
 40
0.000000000
 40
0.000000000
 40
1.000000000
 40
1.000000000
 40
1.000000000
 10
34.200000100
 20
55.026517857
 30
0.000000000
 10
34.200000100
 20
55.508571429
 30
0.000000000
 10
34.461160814
 20
55.786428571
 30
0.000000000
  0
SPLINE
  5
A24
330
A02
100
AcDbEntity
  8
ShapeString
100
AcDbSpline
210
0
220
0
230
1
 70
8
 71
2
 72
6
 73
3
 74
0
 40
0.000000000
 40
0.000000000
 40
0.000000000
 40
1.000000000
 40
1.000000000
 40
1.000000000
 10
34.461160814
 20
54.267857143
 30
0.000000000
 10
34.200000100
 20
54.545714286
 30
0.000000000
 10
34.200000100
 20
55.026517857
 30
0.000000000
  0
SPLINE
  5
A25
330
A02
100
AcDbEntity
  8
ShapeString
100
AcDbSpline
210
0
220
0
230
1
 70
8
 71
2
 72
6
 73
3
 74
0
 40
0.000000000
 40
0.000000000
 40
0.000000000
 40
1.000000000
 40
1.000000000
 40
1.000000000
 10
35.176339386
 20
53.990000000
 30
0.000000000
 10
34.722321529
 20
53.990000000
 30
0.000000000
 10
34.461160814
 20
54.267857143
 30
0.000000000
  0
SPLINE
  5
A26
330
A02
100
AcDbEntity
  8
ShapeString
100
AcDbSpline
210
0
220
0
230
1
 70
8
 71
2
 72
6
 73
3
 74
0
 40
0.000000000
 40
0.000000000
 40
0.000000000
 40
1.000000000
 40
1.000000000
 40
1.000000000
 10
35.511785814
 20
54.038571429
 30
0.000000000
 10
35.353125100
 20
53.990000000
 30
0.000000000
 10
35.176339386
 20
53.990000000
 30
0.000000000
  0
SPLINE
  5
A27
330
A02
100
AcDbEntity
  8
ShapeString
100
AcDbSpline
210
0
220
0
230
1
 70
8
 71
2
 72
6
 73
3
 74
0
 40
0.000000000
 40
0.000000000
 40
0.000000000
 40
1.000000000
 40
1.000000000
 40
1.000000000
 10
35.812500100
 20
54.184285714
 30
0.000000000
 10
35.670535814
 20
54.087142857
 30
0.000000000
 10
35.511785814
 20
54.038571429
 30
0.000000000
  0
LINE
  5
A28
330
A02
100
AcDbEntity
  8
ShapeString
100
AcDbLine
 10
35.812500100
 20
54.464285714
 30
0.000000000
 11
35.812500100
 21
54.184285714
 31
0.000000000
  0
SPLINE
  5
A29
330
A02
100
AcDbEntity
  8
ShapeString
100
AcDbSpline
210
0
220
0
230
1
 70
8
 71
2
 72
6
 73
3
 74
0
 40
0.000000000
 40
0.000000000
 40
0.000000000
 40
1.000000000
 40
1.000000000
 40
1.000000000
 10
35.521160814
 20
54.275357143
 30
0.000000000
 10
35.675892957
 20
54.337946429
 30
0.000000000
 10
35.812500100
 20
54.464285714
 30
0.000000000
  0
SPLINE
  5
A2A
330
A02
100
AcDbEntity
  8
ShapeString
100
AcDbSpline
210
0
220
0
230
1
 70
8
 71
2
 72
6
 73
3
 74
0
 40
0.000000000
 40
0.000000000
 40
0.000000000
 40
1.000000000
 40
1.000000000
 40
1.000000000
 10
35.192410814
 20
54.212857143
 30
0.000000000
 10
35.366517957
 20
54.212857143
 30
0.000000000
 10
35.521160814
 20
54.275357143
 30
0.000000000
  0
SPLINE
  5
A2B
330
A02
100
AcDbEntity
  8
ShapeString
100
AcDbSpline
210
0
220
0
230
1
 70
8
 71
2
 72
6
 73
3
 74
0
 40
0.000000000
 40
0.000000000
 40
0.000000000
 40
1.000000000
 40
1.000000000
 40
1.000000000
 10
34.667410814
 20
54.422232143
 30
0.000000000
 10
34.849553671
 20
54.212857143
 30
0.000000000
 10
35.192410814
 20
54.212857143
 30
0.000000000
  0
SPLINE
  5
A2C
330
A02
100
AcDbEntity
  8
ShapeString
100
AcDbSpline
210
0
220
0
230
1
 70
8
 71
2
 72
6
 73
3
 74
0
 40
0.000000000
 40
0.000000000
 40
0.000000000
 40
1.000000000
 40
1.000000000
 40
1.000000000
 10
34.485267957
 20
55.026517857
 30
0.000000000
 10
34.485267957
 20
54.631696429
 30
0.000000000
 10
34.667410814
 20
54.422232143
 30
0.000000000
  0
SPLINE
  5
A2D
330
A02
100
AcDbEntity
  8
ShapeString
100
AcDbSpline
210
0
220
0
230
1
 70
8
 71
2
 72
6
 73
3
 74
0
 40
0.000000000
 40
0.000000000
 40
0.000000000
 40
1.000000000
 40
1.000000000
 40
1.000000000
 10
34.667410814
 20
55.631964286
 30
0.000000000
 10
34.485267957
 20
55.422589286
 30
0.000000000
 10
34.485267957
 20
55.026517857
 30
0.000000000
  0
SPLINE
  5
A2E
330
A02
100
AcDbEntity
  8
ShapeString
100
AcDbSpline
210
0
220
0
230
1
 70
8
 71
2
 72
6
 73
3
 74
0
 40
0.000000000
 40
0.000000000
 40
0.000000000
 40
1.000000000
 40
1.000000000
 40
1.000000000
 10
35.192410814
 20
55.841428571
 30
0.000000000
 10
34.849553671
 20
55.841428571
 30
0.000000000
 10
34.667410814
 20
55.631964286
 30
0.000000000
  0
SPLINE
  5
A2F
330
A02
100
AcDbEntity
  8
ShapeString
100
AcDbSpline
210
0
220
0
230
1
 70
8
 71
2
 72
6
 73
3
 74
0
 40
0.000000000
 40
0.000000000
 40
0.000000000
 40
1.000000000
 40
1.000000000
 40
1.000000000
 10
35.521160814
 20
55.778839286
 30
0.000000000
 10
35.366517957
 20
55.841428571
 30
0.000000000
 10
35.192410814
 20
55.841428571
 30
0.000000000
  0
SPLINE
  5
A30
330
A02
100
AcDbEntity
  8
ShapeString
100
AcDbSpline
210
0
220
0
230
1
 70
8
 71
2
 72
6
 73
3
 74
0
 40
0.000000000
 40
0.000000000
 40
0.000000000
 40
1.000000000
 40
1.000000000
 40
1.000000000
 10
35.812500100
 20
55.590000000
 30
0.000000000
 10
35.675892957
 20
55.716339286
 30
0.000000000
 10
35.521160814
 20
55.778839286
 30
0.000000000
  0
LINE
  5
A31
330
A02
100
AcDbEntity
  8
ShapeString
100
AcDbLine
 10
36.745089386
 20
56.030000000
 30
0.000000000
 11
37.051785814
 21
56.030000000
 31
0.000000000
  0
LINE
  5
A32
330
A02
100
AcDbEntity
  8
ShapeString
100
AcDbLine
 10
35.981696529
 20
54.030000000
 30
0.000000000
 11
36.745089386
 21
56.030000000
 31
0.000000000
  0
LINE
  5
A33
330
A02
100
AcDbEntity
  8
ShapeString
100
AcDbLine
 10
36.266964386
 20
54.030000000
 30
0.000000000
 11
35.981696529
 21
54.030000000
 31
0.000000000
  0
LINE
  5
A34
330
A02
100
AcDbEntity
  8
ShapeString
100
AcDbLine
 10
36.449107243
 20
54.544285714
 30
0.000000000
 11
36.266964386
 21
54.030000000
 31
0.000000000
  0
LINE
  5
A35
330
A02
100
AcDbEntity
  8
ShapeString
100
AcDbLine
 10
37.350446529
 20
54.544285714
 30
0.000000000
 11
36.449107243
 21
54.544285714
 31
0.000000000
  0
LINE
  5
A36
330
A02
100
AcDbEntity
  8
ShapeString
100
AcDbLine
 10
37.532589386
 20
54.030000000
 30
0.000000000
 11
37.350446529
 21
54.544285714
 31
0.000000000
  0
LINE
  5
A37
330
A02
100
AcDbEntity
  8
ShapeString
100
AcDbLine
 10
37.813839386
 20
54.030000000
 30
0.000000000
 11
37.532589386
 21
54.030000000
 31
0.000000000
  0
LINE
  5
A38
330
A02
100
AcDbEntity
  8
ShapeString
100
AcDbLine
 10
37.051785814
 20
56.030000000
 30
0.000000000
 11
37.813839386
 21
54.030000000
 31
0.000000000
  0
LINE
  5
A39
330
A02
100
AcDbEntity
  8
ShapeString
100
AcDbLine
 10
36.897767957
 20
55.763214286
 30
0.000000000
 11
36.530803671
 21
54.767142857
 31
0.000000000
  0
LINE
  5
A3A
330
A02
100
AcDbEntity
  8
ShapeString
100
AcDbLine
 10
37.266071529
 20
54.767142857
 30
0.000000000
 11
36.897767957
 21
55.763214286
 31
0.000000000
  0
LINE
  5
A3B
330
A02
100
AcDbEntity
  8
ShapeString
100
AcDbLine
 10
36.530803671
 20
54.767142857
 30
0.000000000
 11
37.266071529
 21
54.767142857
 31
0.000000000
  0
LINE
  5
A3C
330
A02
100
AcDbEntity
  8
ShapeString
100
AcDbLine
 10
38.103750100
 20
56.030000000
 30
0.000000000
 11
38.506875100
 21
56.030000000
 31
0.000000000
  0
LINE
  5
A3D
330
A02
100
AcDbEntity
  8
ShapeString
100
AcDbLine
 10
38.103750100
 20
54.030000000
 30
0.000000000
 11
38.103750100
 21
56.030000000
 31
0.000000000
  0
LINE
  5
A3E
330
A02
100
AcDbEntity
  8
ShapeString
100
AcDbLine
 10
38.366250100
 20
54.030000000
 30
0.000000000
 11
38.103750100
 21
54.030000000
 31
0.000000000
  0
LINE
  5
A3F
330
A02
100
AcDbEntity
  8
ShapeString
100
AcDbLine
 10
38.366250100
 20
55.785982143
 30
0.000000000
 11
38.366250100
 21
54.030000000
 31
0.000000000
  0
LINE
  5
A40
330
A02
100
AcDbEntity
  8
ShapeString
100
AcDbLine
 10
38.881875100
 20
54.412857143
 30
0.000000000
 11
38.366250100
 21
55.785982143
 31
0.000000000
  0
LINE
  5
A41
330
A02
100
AcDbEntity
  8
ShapeString
100
AcDbLine
 10
39.153750100
 20
54.412857143
 30
0.000000000
 11
38.881875100
 21
54.412857143
 31
0.000000000
  0
LINE
  5
A42
330
A02
100
AcDbEntity
  8
ShapeString
100
AcDbLine
 10
39.669375100
 20
55.785982143
 30
0.000000000
 11
39.153750100
 21
54.412857143
 31
0.000000000
  0
LINE
  5
A43
330
A02
100
AcDbEntity
  8
ShapeString
100
AcDbLine
 10
39.669375100
 20
54.030000000
 30
0.000000000
 11
39.669375100
 21
55.785982143
 31
0.000000000
  0
LINE
  5
A44
330
A02
100
AcDbEntity
  8
ShapeString
100
AcDbLine
 10
39.933214386
 20
54.030000000
 30
0.000000000
 11
39.669375100
 21
54.030000000
 31
0.000000000
  0
LINE
  5
A45
330
A02
100
AcDbEntity
  8
ShapeString
100
AcDbLine
 10
39.933214386
 20
56.030000000
 30
0.000000000
 11
39.933214386
 21
54.030000000
 31
0.000000000
  0
LINE
  5
A46
330
A02
100
AcDbEntity
  8
ShapeString
100
AcDbLine
 10
39.530089386
 20
56.030000000
 30
0.000000000
 11
39.933214386
 21
56.030000000
 31
0.000000000
  0
LINE
  5
A47
330
A02
100
AcDbEntity
  8
ShapeString
100
AcDbLine
 10
39.017142957
 20
54.667589286
 30
0.000000000
 11
39.530089386
 21
56.030000000
 31
0.000000000
  0
LINE
  5
A48
330
A02
100
AcDbEntity
  8
ShapeString
100
AcDbLine
 10
38.506875100
 20
56.030000000
 30
0.000000000
 11
39.017142957
 21
54.667589286
 31
0.000000000
  0
LINE
  5
A49
330
A02
100
AcDbEntity
  8
ShapeString
100
AcDbLine
 10
40.540446529
 20
54.258571429
 30
0.000000000
 11
40.982410814
 21
54.258571429
 31
0.000000000
  0
LINE
  5
A4A
330
A02
100
AcDbEntity
  8
ShapeString
100
AcDbLine
 10
40.540446529
 20
54.030000000
 30
0.000000000
 11
40.540446529
 21
54.258571429
 31
0.000000000
  0
LINE
  5
A4B
330
A02
100
AcDbEntity
  8
ShapeString
100
AcDbLine
 10
41.692232243
 20
54.030000000
 30
0.000000000
 11
40.540446529
 21
54.030000000
 31
0.000000000
  0
LINE
  5
A4C
330
A02
100
AcDbEntity
  8
ShapeString
100
AcDbLine
 10
41.692232243
 20
54.258571429
 30
0.000000000
 11
41.692232243
 21
54.030000000
 31
0.000000000
  0
LINE
  5
A4D
330
A02
100
AcDbEntity
  8
ShapeString
100
AcDbLine
 10
41.250267957
 20
54.258571429
 30
0.000000000
 11
41.692232243
 21
54.258571429
 31
0.000000000
  0
LINE
  5
A4E
330
A02
100
AcDbEntity
  8
ShapeString
100
AcDbLine
 10
41.250267957
 20
56.030000000
 30
0.000000000
 11
41.250267957
 21
54.258571429
 31
0.000000000
  0
LINE
  5
A4F
330
A02
100
AcDbEntity
  8
ShapeString
100
AcDbLine
 10
40.979732243
 20
56.030000000
 30
0.000000000
 11
41.250267957
 21
56.030000000
 31
0.000000000
  0
LINE
  5
A50
330
A02
100
AcDbEntity
  8
ShapeString
100
AcDbLine
 10
40.501607243
 20
55.932857143
 30
0.000000000
 11
40.979732243
 21
56.030000000
 31
0.000000000
  0
LINE
  5
A51
330
A02
100
AcDbEntity
  8
ShapeString
100
AcDbLine
 10
40.501607243
 20
55.687142857
 30
0.000000000
 11
40.501607243
 21
55.932857143
 31
0.000000000
  0
LINE
  5
A52
330
A02
100
AcDbEntity
  8
ShapeString
100
AcDbLine
 10
40.982410814
 20
55.784285714
 30
0.000000000
 11
40.501607243
 21
55.687142857
 31
0.000000000
  0
LINE
  5
A53
330
A02
100
AcDbEntity
  8
ShapeString
100
AcDbLine
 10
40.982410814
 20
54.258571429
 30
0.000000000
 11
40.982410814
 21
55.784285714
 31
0.000000000
  0
LINE
  5
A54
330
A02
100
AcDbEntity
  8
ShapeString
100
AcDbLine
 10
43.086607243
 20
56.030000000
 30
0.000000000
 11
43.777678671
 21
56.030000000
 31
0.000000000
  0
LINE
  5
A55
330
A02
100
AcDbEntity
  8
ShapeString
100
AcDbLine
 10
43.086607243
 20
54.030000000
 30
0.000000000
 11
43.086607243
 21
56.030000000
 31
0.000000000
  0
LINE
  5
A56
330
A02
100
AcDbEntity
  8
ShapeString
100
AcDbLine
 10
43.804464386
 20
54.030000000
 30
0.000000000
 11
43.086607243
 21
54.030000000
 31
0.000000000
  0
SPLINE
  5
A57
330
A02
100
AcDbEntity
  8
ShapeString
100
AcDbSpline
210
0
220
0
230
1
 70
8
 71
2
 72
6
 73
3
 74
0
 40
0.000000000
 40
0.000000000
 40
0.000000000
 40
1.000000000
 40
1.000000000
 40
1.000000000
 10
44.322767957
 20
54.176428571
 30
0.000000000
 10
44.140625100
 20
54.030000000
 30
0.000000000
 10
43.804464386
 20
54.030000000
 30
0.000000000
  0
SPLINE
  5
A58
330
A02
100
AcDbEntity
  8
ShapeString
100
AcDbSpline
210
0
220
0
230
1
 70
8
 71
2
 72
6
 73
3
 74
0
 40
0.000000000
 40
0.000000000
 40
0.000000000
 40
1.000000000
 40
1.000000000
 40
1.000000000
 10
44.504910814
 20
54.591696429
 30
0.000000000
 10
44.504910814
 20
54.322946429
 30
0.000000000
 10
44.322767957
 20
54.176428571
 30
0.000000000
  0
SPLINE
  5
A59
330
A02
100
AcDbEntity
  8
ShapeString
100
AcDbSpline
210
0
220
0
230
1
 70
8
 71
2
 72
6
 73
3
 74
0
 40
0.000000000
 40
0.000000000
 40
0.000000000
 40
1.000000000
 40
1.000000000
 40
1.000000000
 10
44.394375100
 20
54.932321429
 30
0.000000000
 10
44.504910814
 20
54.795982143
 30
0.000000000
 10
44.504910814
 20
54.591696429
 30
0.000000000
  0
SPLINE
  5
A5A
330
A02
100
AcDbEntity
  8
ShapeString
100
AcDbSpline
210
0
220
0
230
1
 70
8
 71
2
 72
6
 73
3
 74
0
 40
0.000000000
 40
0.000000000
 40
0.000000000
 40
1.000000000
 40
1.000000000
 40
1.000000000
 10
44.084375100
 20
55.111785714
 30
0.000000000
 10
44.283928671
 20
55.068750000
 30
0.000000000
 10
44.394375100
 20
54.932321429
 30
0.000000000
  0
SPLINE
  5
A5B
330
A02
100
AcDbEntity
  8
ShapeString
100
AcDbSpline
210
0
220
0
230
1
 70
8
 71
2
 72
6
 73
3
 74
0
 40
0.000000000
 40
0.000000000
 40
0.000000000
 40
1.000000000
 40
1.000000000
 40
1.000000000
 10
44.336160814
 20
55.246517857
 30
0.000000000
 10
44.250446529
 20
55.138482143
 30
0.000000000
 10
44.084375100
 20
55.111785714
 30
0.000000000
  0
SPLINE
  5
A5C
330
A02
100
AcDbEntity
  8
ShapeString
100
AcDbSpline
210
0
220
0
230
1
 70
8
 71
2
 72
6
 73
3
 74
0
 40
0.000000000
 40
0.000000000
 40
0.000000000
 40
1.000000000
 40
1.000000000
 40
1.000000000
 10
44.421875100
 20
55.537500000
 30
0.000000000
 10
44.421875100
 20
55.354642857
 30
0.000000000
 10
44.336160814
 20
55.246517857
 30
0.000000000
  0
SPLINE
  5
A5D
330
A02
100
AcDbEntity
  8
ShapeString
100
AcDbSpline
210
0
220
0
230
1
 70
8
 71
2
 72
6
 73
3
 74
0
 40
0.000000000
 40
0.000000000
 40
0.000000000
 40
1.000000000
 40
1.000000000
 40
1.000000000
 10
44.254464386
 20
55.901875000
 30
0.000000000
 10
44.421875100
 20
55.773750000
 30
0.000000000
 10
44.421875100
 20
55.537500000
 30
0.000000000
  0
SPLINE
  5
A5E
330
A02
100
AcDbEntity
  8
ShapeString
100
AcDbSpline
210
0
220
0
230
1
 70
8
 71
2
 72
6
 73
3
 74
0
 40
0.000000000
 40
0.000000000
 40
0.000000000
 40
1.000000000
 40
1.000000000
 40
1.000000000
 10
43.777678671
 20
56.030000000
 30
0.000000000
 10
44.087053671
 20
56.030000000
 30
0.000000000
 10
44.254464386
 20
55.901875000
 30
0.000000000
  0
LINE
  5
A5F
330
A02
100
AcDbEntity
  8
ShapeString
100
AcDbLine
 10
43.357142957
 20
54.990000000
 30
0.000000000
 11
43.357142957
 21
54.252857143
 31
0.000000000
  0
LINE
  5
A60
330
A02
100
AcDbEntity
  8
ShapeString
100
AcDbLine
 10
43.791071529
 20
54.990000000
 30
0.000000000
 11
43.357142957
 21
54.990000000
 31
0.000000000
  0
SPLINE
  5
A61
330
A02
100
AcDbEntity
  8
ShapeString
100
AcDbSpline
210
0
220
0
230
1
 70
8
 71
2
 72
6
 73
3
 74
0
 40
0.000000000
 40
0.000000000
 40
0.000000000
 40
1.000000000
 40
1.000000000
 40
1.000000000
 10
44.114464386
 20
54.900357143
 30
0.000000000
 10
44.009375100
 20
54.990000000
 30
0.000000000
 10
43.791071529
 20
54.990000000
 30
0.000000000
  0
SPLINE
  5
A62
330
A02
100
AcDbEntity
  8
ShapeString
100
AcDbSpline
210
0
220
0
230
1
 70
8
 71
2
 72
6
 73
3
 74
0
 40
0.000000000
 40
0.000000000
 40
0.000000000
 40
1.000000000
 40
1.000000000
 40
1.000000000
 10
44.219642957
 20
54.622142857
 30
0.000000000
 10
44.219642957
 20
54.810803571
 30
0.000000000
 10
44.114464386
 20
54.900357143
 30
0.000000000
  0
SPLINE
  5
A63
330
A02
100
AcDbEntity
  8
ShapeString
100
AcDbSpline
210
0
220
0
230
1
 70
8
 71
2
 72
6
 73
3
 74
0
 40
0.000000000
 40
0.000000000
 40
0.000000000
 40
1.000000000
 40
1.000000000
 40
1.000000000
 10
44.114464386
 20
54.343839286
 30
0.000000000
 10
44.219642957
 20
54.434821429
 30
0.000000000
 10
44.219642957
 20
54.622142857
 30
0.000000000
  0
SPLINE
  5
A64
330
A02
100
AcDbEntity
  8
ShapeString
100
AcDbSpline
210
0
220
0
230
1
 70
8
 71
2
 72
6
 73
3
 74
0
 40
0.000000000
 40
0.000000000
 40
0.000000000
 40
1.000000000
 40
1.000000000
 40
1.000000000
 10
43.791071529
 20
54.252857143
 30
0.000000000
 10
44.009375100
 20
54.252857143
 30
0.000000000
 10
44.114464386
 20
54.343839286
 30
0.000000000
  0
LINE
  5
A65
330
A02
100
AcDbEntity
  8
ShapeString
100
AcDbLine
 10
43.357142957
 20
54.252857143
 30
0.000000000
 11
43.791071529
 21
54.252857143
 31
0.000000000
  0
LINE
  5
A66
330
A02
100
AcDbEntity
  8
ShapeString
100
AcDbLine
 10
43.357142957
 20
55.807142857
 30
0.000000000
 11
43.357142957
 21
55.207142857
 31
0.000000000
  0
LINE
  5
A67
330
A02
100
AcDbEntity
  8
ShapeString
100
AcDbLine
 10
43.757589386
 20
55.807142857
 30
0.000000000
 11
43.357142957
 21
55.807142857
 31
0.000000000
  0
SPLINE
  5
A68
330
A02
100
AcDbEntity
  8
ShapeString
100
AcDbSpline
210
0
220
0
230
1
 70
8
 71
2
 72
6
 73
3
 74
0
 40
0.000000000
 40
0.000000000
 40
0.000000000
 40
1.000000000
 40
1.000000000
 40
1.000000000
 10
44.052857243
 20
55.732410714
 30
0.000000000
 10
43.955803671
 20
55.807142857
 30
0.000000000
 10
43.757589386
 20
55.807142857
 30
0.000000000
  0
SPLINE
  5
A69
330
A02
100
AcDbEntity
  8
ShapeString
100
AcDbSpline
210
0
220
0
230
1
 70
8
 71
2
 72
6
 73
3
 74
0
 40
0.000000000
 40
0.000000000
 40
0.000000000
 40
1.000000000
 40
1.000000000
 40
1.000000000
 10
44.150000100
 20
55.507142857
 30
0.000000000
 10
44.150000100
 20
55.657767857
 30
0.000000000
 10
44.052857243
 20
55.732410714
 30
0.000000000
  0
SPLINE
  5
A6A
330
A02
100
AcDbEntity
  8
ShapeString
100
AcDbSpline
210
0
220
0
230
1
 70
8
 71
2
 72
6
 73
3
 74
0
 40
0.000000000
 40
0.000000000
 40
0.000000000
 40
1.000000000
 40
1.000000000
 40
1.000000000
 10
44.052857243
 20
55.281160714
 30
0.000000000
 10
44.150000100
 20
55.355178571
 30
0.000000000
 10
44.150000100
 20
55.507142857
 30
0.000000000
  0
SPLINE
  5
A6B
330
A02
100
AcDbEntity
  8
ShapeString
100
AcDbSpline
210
0
220
0
230
1
 70
8
 71
2
 72
6
 73
3
 74
0
 40
0.000000000
 40
0.000000000
 40
0.000000000
 40
1.000000000
 40
1.000000000
 40
1.000000000
 10
43.757589386
 20
55.207142857
 30
0.000000000
 10
43.955803671
 20
55.207142857
 30
0.000000000
 10
44.052857243
 20
55.281160714
 30
0.000000000
  0
LINE
  5
A6C
330
A02
100
AcDbEntity
  8
ShapeString
100
AcDbLine
 10
43.357142957
 20
55.207142857
 30
0.000000000
 11
43.757589386
 21
55.207142857
 31
0.000000000
  0
LINE
  5
A6D
330
A02
100
AcDbEntity
  8
ShapeString
100
AcDbLine
 10
45.223750100
 20
54.258571429
 30
0.000000000
 11
46.167946529
 21
54.258571429
 31
0.000000000
  0
SPLINE
  5
A6E
330
A02
100
AcDbEntity
  8
ShapeString
100
AcDbSpline
210
0
220
0
230
1
 70
8
 71
2
 72
6
 73
3
 74
0
 40
0.000000000
 40
0.000000000
 40
0.000000000
 40
1.000000000
 40
1.000000000
 40
1.000000000
 10
45.730000100
 20
54.776875000
 30
0.000000000
 10
45.550535814
 20
54.591607143
 30
0.000000000
 10
45.223750100
 20
54.258571429
 30
0.000000000
  0
SPLINE
  5
A6F
330
A02
100
AcDbEntity
  8
ShapeString
100
AcDbSpline
210
0
220
0
230
1
 70
8
 71
2
 72
6
 73
3
 74
0
 40
0.000000000
 40
0.000000000
 40
0.000000000
 40
1.000000000
 40
1.000000000
 40
1.000000000
 10
45.942946529
 20
55.000892857
 30
0.000000000
 10
45.909464386
 20
54.962142857
 30
0.000000000
 10
45.730000100
 20
54.776875000
 30
0.000000000
  0
SPLINE
  5
A70
330
A02
100
AcDbEntity
  8
ShapeString
100
AcDbSpline
210
0
220
0
230
1
 70
8
 71
2
 72
6
 73
3
 74
0
 40
0.000000000
 40
0.000000000
 40
0.000000000
 40
1.000000000
 40
1.000000000
 40
1.000000000
 10
46.110982243
 20
55.261071429
 30
0.000000000
 10
46.064821529
 20
55.150714286
 30
0.000000000
 10
45.942946529
 20
55.000892857
 30
0.000000000
  0
SPLINE
  5
A71
330
A02
100
AcDbEntity
  8
ShapeString
100
AcDbSpline
210
0
220
0
230
1
 70
8
 71
2
 72
6
 73
3
 74
0
 40
0.000000000
 40
0.000000000
 40
0.000000000
 40
1.000000000
 40
1.000000000
 40
1.000000000
 10
46.157232243
 20
55.494464286
 30
0.000000000
 10
46.157232243
 20
55.371428571
 30
0.000000000
 10
46.110982243
 20
55.261071429
 30
0.000000000
  0
SPLINE
  5
A72
330
A02
100
AcDbEntity
  8
ShapeString
100
AcDbSpline
210
0
220
0
230
1
 70
8
 71
2
 72
6
 73
3
 74
0
 40
0.000000000
 40
0.000000000
 40
0.000000000
 40
1.000000000
 40
1.000000000
 40
1.000000000
 10
45.972410814
 20
55.909107143
 30
0.000000000
 10
46.157232243
 20
55.753928571
 30
0.000000000
 10
46.157232243
 20
55.494464286
 30
0.000000000
  0
SPLINE
  5
A73
330
A02
100
AcDbEntity
  8
ShapeString
100
AcDbSpline
210
0
220
0
230
1
 70
8
 71
2
 72
6
 73
3
 74
0
 40
0.000000000
 40
0.000000000
 40
0.000000000
 40
1.000000000
 40
1.000000000
 40
1.000000000
 10
45.476875100
 20
56.064285714
 30
0.000000000
 10
45.787589386
 20
56.064285714
 30
0.000000000
 10
45.972410814
 20
55.909107143
 30
0.000000000
  0
SPLINE
  5
A74
330
A02
100
AcDbEntity
  8
ShapeString
100
AcDbSpline
210
0
220
0
230
1
 70
8
 71
2
 72
6
 73
3
 74
0
 40
0.000000000
 40
0.000000000
 40
0.000000000
 40
1.000000000
 40
1.000000000
 40
1.000000000
 10
45.217053671
 20
56.031071429
 30
0.000000000
 10
45.359017957
 20
56.064285714
 30
0.000000000
 10
45.476875100
 20
56.064285714
 30
0.000000000
  0
SPLINE
  5
A75
330
A02
100
AcDbEntity
  8
ShapeString
100
AcDbSpline
210
0
220
0
230
1
 70
8
 71
2
 72
6
 73
3
 74
0
 40
0.000000000
 40
0.000000000
 40
0.000000000
 40
1.000000000
 40
1.000000000
 40
1.000000000
 10
44.911696529
 20
55.932857143
 30
0.000000000
 10
45.075089386
 20
55.997946429
 30
0.000000000
 10
45.217053671
 20
56.031071429
 30
0.000000000
  0
LINE
  5
A76
330
A02
100
AcDbEntity
  8
ShapeString
100
AcDbLine
 10
44.911696529
 20
55.658571429
 30
0.000000000
 11
44.911696529
 21
55.932857143
 31
0.000000000
  0
SPLINE
  5
A77
330
A02
100
AcDbEntity
  8
ShapeString
100
AcDbSpline
210
0
220
0
230
1
 70
8
 71
2
 72
6
 73
3
 74
0
 40
0.000000000
 40
0.000000000
 40
0.000000000
 40
1.000000000
 40
1.000000000
 40
1.000000000
 10
45.213660814
 20
55.791696429
 30
0.000000000
 10
45.072410814
 20
55.747767857
 30
0.000000000
 10
44.911696529
 20
55.658571429
 30
0.000000000
  0
SPLINE
  5
A78
330
A02
100
AcDbEntity
  8
ShapeString
100
AcDbSpline
210
0
220
0
230
1
 70
8
 71
2
 72
6
 73
3
 74
0
 40
0.000000000
 40
0.000000000
 40
0.000000000
 40
1.000000000
 40
1.000000000
 40
1.000000000
 10
45.482232243
 20
55.835714286
 30
0.000000000
 10
45.355000100
 20
55.835714286
 30
0.000000000
 10
45.213660814
 20
55.791696429
 30
0.000000000
  0
SPLINE
  5
A79
330
A02
100
AcDbEntity
  8
ShapeString
100
AcDbSpline
210
0
220
0
230
1
 70
8
 71
2
 72
6
 73
3
 74
0
 40
0.000000000
 40
0.000000000
 40
0.000000000
 40
1.000000000
 40
1.000000000
 40
1.000000000
 10
45.773482243
 20
55.735446429
 30
0.000000000
 10
45.661696529
 20
55.835714286
 30
0.000000000
 10
45.482232243
 20
55.835714286
 30
0.000000000
  0
SPLINE
  5
A7A
330
A02
100
AcDbEntity
  8
ShapeString
100
AcDbSpline
210
0
220
0
230
1
 70
8
 71
2
 72
6
 73
3
 74
0
 40
0.000000000
 40
0.000000000
 40
0.000000000
 40
1.000000000
 40
1.000000000
 40
1.000000000
 10
45.885357243
 20
55.476160714
 30
0.000000000
 10
45.885357243
 20
55.635267857
 30
0.000000000
 10
45.773482243
 20
55.735446429
 30
0.000000000
  0
SPLINE
  5
A7B
330
A02
100
AcDbEntity
  8
ShapeString
100
AcDbSpline
210
0
220
0
230
1
 70
8
 71
2
 72
6
 73
3
 74
0
 40
0.000000000
 40
0.000000000
 40
0.000000000
 40
1.000000000
 40
1.000000000
 40
1.000000000
 10
45.833750100
 20
55.277678571
 30
0.000000000
 10
45.885357243
 20
55.378571429
 30
0.000000000
 10
45.885357243
 20
55.476160714
 30
0.000000000
  0
SPLINE
  5
A7C
330
A02
100
AcDbEntity
  8
ShapeString
100
AcDbSpline
210
0
220
0
230
1
 70
8
 71
2
 72
6
 73
3
 74
0
 40
0.000000000
 40
0.000000000
 40
0.000000000
 40
1.000000000
 40
1.000000000
 40
1.000000000
 10
45.652321529
 20
55.031071429
 30
0.000000000
 10
45.782232243
 20
55.176785714
 30
0.000000000
 10
45.833750100
 20
55.277678571
 30
0.000000000
  0
SPLINE
  5
A7D
330
A02
100
AcDbEntity
  8
ShapeString
100
AcDbSpline
210
0
220
0
230
1
 70
8
 71
2
 72
6
 73
3
 74
0
 40
0.000000000
 40
0.000000000
 40
0.000000000
 40
1.000000000
 40
1.000000000
 40
1.000000000
 10
45.318125100
 20
54.685535714
 30
0.000000000
 10
45.584017957
 20
54.953571429
 30
0.000000000
 10
45.652321529
 20
55.031071429
 30
0.000000000
  0
SPLINE
  5
A7E
330
A02
100
AcDbEntity
  8
ShapeString
100
AcDbSpline
210
0
220
0
230
1
 70
8
 71
2
 72
6
 73
3
 74
0
 40
0.000000000
 40
0.000000000
 40
0.000000000
 40
1.000000000
 40
1.000000000
 40
1.000000000
 10
44.898303671
 20
54.258571429
 30
0.000000000
 10
45.052321529
 20
54.417589286
 30
0.000000000
 10
45.318125100
 20
54.685535714
 30
0.000000000
  0
LINE
  5
A7F
330
A02
100
AcDbEntity
  8
ShapeString
100
AcDbLine
 10
44.898303671
 20
54.030000000
 30
0.000000000
 11
44.898303671
 21
54.258571429
 31
0.000000000
  0
LINE
  5
A80
330
A02
100
AcDbEntity
  8
ShapeString
100
AcDbLine
 10
46.167946529
 20
54.030000000
 30
0.000000000
 11
44.898303671
 21
54.030000000
 31
0.000000000
  0
LINE
  5
A81
330
A02
100
AcDbEntity
  8
ShapeString
100
AcDbLine
 10
46.167946529
 20
54.258571429
 30
0.000000000
 11
46.167946529
 21
54.030000000
 31
0.000000000
  0
LINE
  5
A82
330
A02
100
AcDbEntity
  8
ShapeString
100
AcDbLine
 10
46.709464386
 20
56.030000000
 30
0.000000000
 11
47.400535814
 21
56.030000000
 31
0.000000000
  0
LINE
  5
A83
330
A02
100
AcDbEntity
  8
ShapeString
100
AcDbLine
 10
46.709464386
 20
54.030000000
 30
0.000000000
 11
46.709464386
 21
56.030000000
 31
0.000000000
  0
LINE
  5
A84
330
A02
100
AcDbEntity
  8
ShapeString
100
AcDbLine
 10
47.427321529
 20
54.030000000
 30
0.000000000
 11
46.709464386
 21
54.030000000
 31
0.000000000
  0
SPLINE
  5
A85
330
A02
100
AcDbEntity
  8
ShapeString
100
AcDbSpline
210
0
220
0
230
1
 70
8
 71
2
 72
6
 73
3
 74
0
 40
0.000000000
 40
0.000000000
 40
0.000000000
 40
1.000000000
 40
1.000000000
 40
1.000000000
 10
47.945625100
 20
54.176428571
 30
0.000000000
 10
47.763482243
 20
54.030000000
 30
0.000000000
 10
47.427321529
 20
54.030000000
 30
0.000000000
  0
SPLINE
  5
A86
330
A02
100
AcDbEntity
  8
ShapeString
100
AcDbSpline
210
0
220
0
230
1
 70
8
 71
2
 72
6
 73
3
 74
0
 40
0.000000000
 40
0.000000000
 40
0.000000000
 40
1.000000000
 40
1.000000000
 40
1.000000000
 10
48.127767957
 20
54.591696429
 30
0.000000000
 10
48.127767957
 20
54.322946429
 30
0.000000000
 10
47.945625100
 20
54.176428571
 30
0.000000000
  0
SPLINE
  5
A87
330
A02
100
AcDbEntity
  8
ShapeString
100
AcDbSpline
210
0
220
0
230
1
 70
8
 71
2
 72
6
 73
3
 74
0
 40
0.000000000
 40
0.000000000
 40
0.000000000
 40
1.000000000
 40
1.000000000
 40
1.000000000
 10
48.017232243
 20
54.932321429
 30
0.000000000
 10
48.127767957
 20
54.795982143
 30
0.000000000
 10
48.127767957
 20
54.591696429
 30
0.000000000
  0
SPLINE
  5
A88
330
A02
100
AcDbEntity
  8
ShapeString
100
AcDbSpline
210
0
220
0
230
1
 70
8
 71
2
 72
6
 73
3
 74
0
 40
0.000000000
 40
0.000000000
 40
0.000000000
 40
1.000000000
 40
1.000000000
 40
1.000000000
 10
47.707232243
 20
55.111785714
 30
0.000000000
 10
47.906785814
 20
55.068750000
 30
0.000000000
 10
48.017232243
 20
54.932321429
 30
0.000000000
  0
SPLINE
  5
A89
330
A02
100
AcDbEntity
  8
ShapeString
100
AcDbSpline
210
0
220
0
230
1
 70
8
 71
2
 72
6
 73
3
 74
0
 40
0.000000000
 40
0.000000000
 40
0.000000000
 40
1.000000000
 40
1.000000000
 40
1.000000000
 10
47.959017957
 20
55.246517857
 30
0.000000000
 10
47.873303671
 20
55.138482143
 30
0.000000000
 10
47.707232243
 20
55.111785714
 30
0.000000000
  0
SPLINE
  5
A8A
330
A02
100
AcDbEntity
  8
ShapeString
100
AcDbSpline
210
0
220
0
230
1
 70
8
 71
2
 72
6
 73
3
 74
0
 40
0.000000000
 40
0.000000000
 40
0.000000000
 40
1.000000000
 40
1.000000000
 40
1.000000000
 10
48.044732243
 20
55.537500000
 30
0.000000000
 10
48.044732243
 20
55.354642857
 30
0.000000000
 10
47.959017957
 20
55.246517857
 30
0.000000000
  0
SPLINE
  5
A8B
330
A02
100
AcDbEntity
  8
ShapeString
100
AcDbSpline
210
0
220
0
230
1
 70
8
 71
2
 72
6
 73
3
 74
0
 40
0.000000000
 40
0.000000000
 40
0.000000000
 40
1.000000000
 40
1.000000000
 40
1.000000000
 10
47.877321529
 20
55.901875000
 30
0.000000000
 10
48.044732243
 20
55.773750000
 30
0.000000000
 10
48.044732243
 20
55.537500000
 30
0.000000000
  0
SPLINE
  5
A8C
330
A02
100
AcDbEntity
  8
ShapeString
100
AcDbSpline
210
0
220
0
230
1
 70
8
 71
2
 72
6
 73
3
 74
0
 40
0.000000000
 40
0.000000000
 40
0.000000000
 40
1.000000000
 40
1.000000000
 40
1.000000000
 10
47.400535814
 20
56.030000000
 30
0.000000000
 10
47.709910814
 20
56.030000000
 30
0.000000000
 10
47.877321529
 20
55.901875000
 30
0.000000000
  0
LINE
  5
A8D
330
A02
100
AcDbEntity
  8
ShapeString
100
AcDbLine
 10
46.980000100
 20
54.990000000
 30
0.000000000
 11
46.980000100
 21
54.252857143
 31
0.000000000
  0
LINE
  5
A8E
330
A02
100
AcDbEntity
  8
ShapeString
100
AcDbLine
 10
47.413928671
 20
54.990000000
 30
0.000000000
 11
46.980000100
 21
54.990000000
 31
0.000000000
  0
SPLINE
  5
A8F
330
A02
100
AcDbEntity
  8
ShapeString
100
AcDbSpline
210
0
220
0
230
1
 70
8
 71
2
 72
6
 73
3
 74
0
 40
0.000000000
 40
0.000000000
 40
0.000000000
 40
1.000000000
 40
1.000000000
 40
1.000000000
 10
47.737321529
 20
54.900357143
 30
0.000000000
 10
47.632232243
 20
54.990000000
 30
0.000000000
 10
47.413928671
 20
54.990000000
 30
0.000000000
  0
SPLINE
  5
A90
330
A02
100
AcDbEntity
  8
ShapeString
100
AcDbSpline
210
0
220
0
230
1
 70
8
 71
2
 72
6
 73
3
 74
0
 40
0.000000000
 40
0.000000000
 40
0.000000000
 40
1.000000000
 40
1.000000000
 40
1.000000000
 10
47.842500100
 20
54.622142857
 30
0.000000000
 10
47.842500100
 20
54.810803571
 30
0.000000000
 10
47.737321529
 20
54.900357143
 30
0.000000000
  0
SPLINE
  5
A91
330
A02
100
AcDbEntity
  8
ShapeString
100
AcDbSpline
210
0
220
0
230
1
 70
8
 71
2
 72
6
 73
3
 74
0
 40
0.000000000
 40
0.000000000
 40
0.000000000
 40
1.000000000
 40
1.000000000
 40
1.000000000
 10
47.737321529
 20
54.343839286
 30
0.000000000
 10
47.842500100
 20
54.434821429
 30
0.000000000
 10
47.842500100
 20
54.622142857
 30
0.000000000
  0
SPLINE
  5
A92
330
A02
100
AcDbEntity
  8
ShapeString
100
AcDbSpline
210
0
220
0
230
1
 70
8
 71
2
 72
6
 73
3
 74
0
 40
0.000000000
 40
0.000000000
 40
0.000000000
 40
1.000000000
 40
1.000000000
 40
1.000000000
 10
47.413928671
 20
54.252857143
 30
0.000000000
 10
47.632232243
 20
54.252857143
 30
0.000000000
 10
47.737321529
 20
54.343839286
 30
0.000000000
  0
LINE
  5
A93
330
A02
100
AcDbEntity
  8
ShapeString
100
AcDbLine
 10
46.980000100
 20
54.252857143
 30
0.000000000
 11
47.413928671
 21
54.252857143
 31
0.000000000
  0
LINE
  5
A94
330
A02
100
AcDbEntity
  8
ShapeString
100
AcDbLine
 10
46.980000100
 20
55.807142857
 30
0.000000000
 11
46.980000100
 21
55.207142857
 31
0.000000000
  0
LINE
  5
A95
330
A02
100
AcDbEntity
  8
ShapeString
100
AcDbLine
 10
47.380446529
 20
55.807142857
 30
0.000000000
 11
46.980000100
 21
55.807142857
 31
0.000000000
  0
SPLINE
  5
A96
330
A02
100
AcDbEntity
  8
ShapeString
100
AcDbSpline
210
0
220
0
230
1
 70
8
 71
2
 72
6
 73
3
 74
0
 40
0.000000000
 40
0.000000000
 40
0.000000000
 40
1.000000000
 40
1.000000000
 40
1.000000000
 10
47.675714386
 20
55.732410714
 30
0.000000000
 10
47.578660814
 20
55.807142857
 30
0.000000000
 10
47.380446529
 20
55.807142857
 30
0.000000000
  0
SPLINE
  5
A97
330
A02
100
AcDbEntity
  8
ShapeString
100
AcDbSpline
210
0
220
0
230
1
 70
8
 71
2
 72
6
 73
3
 74
0
 40
0.000000000
 40
0.000000000
 40
0.000000000
 40
1.000000000
 40
1.000000000
 40
1.000000000
 10
47.772857243
 20
55.507142857
 30
0.000000000
 10
47.772857243
 20
55.657767857
 30
0.000000000
 10
47.675714386
 20
55.732410714
 30
0.000000000
  0
SPLINE
  5
A98
330
A02
100
AcDbEntity
  8
ShapeString
100
AcDbSpline
210
0
220
0
230
1
 70
8
 71
2
 72
6
 73
3
 74
0
 40
0.000000000
 40
0.000000000
 40
0.000000000
 40
1.000000000
 40
1.000000000
 40
1.000000000
 10
47.675714386
 20
55.281160714
 30
0.000000000
 10
47.772857243
 20
55.355178571
 30
0.000000000
 10
47.772857243
 20
55.507142857
 30
0.000000000
  0
SPLINE
  5
A99
330
A02
100
AcDbEntity
  8
ShapeString
100
AcDbSpline
210
0
220
0
230
1
 70
8
 71
2
 72
6
 73
3
 74
0
 40
0.000000000
 40
0.000000000
 40
0.000000000
 40
1.000000000
 40
1.000000000
 40
1.000000000
 10
47.380446529
 20
55.207142857
 30
0.000000000
 10
47.578660814
 20
55.207142857
 30
0.000000000
 10
47.675714386
 20
55.281160714
 30
0.000000000
  0
LINE
  5
A9A
330
A02
100
AcDbEntity
  8
ShapeString
100
AcDbLine
 10
46.980000100
 20
55.207142857
 30
0.000000000
 11
47.380446529
 21
55.207142857
 31
0.000000000
  0
SPLINE
  5
A9B
330
A02
100
AcDbEntity
  8
ShapeString
100
AcDbSpline
210
0
220
0
230
1
 70
8
 71
2
 72
6
 73
3
 74
0
 40
0.000000000
 40
0.000000000
 40
0.000000000
 40
1.000000000
 40
1.000000000
 40
1.000000000
 10
50.066428671
 20
56.064285714
 30
0.000000000
 10
50.402589386
 20
56.064285714
 30
0.000000000
 10
50.580000100
 20
55.798482143
 30
0.000000000
  0
SPLINE
  5
A9C
330
A02
100
AcDbEntity
  8
ShapeString
100
AcDbSpline
210
0
220
0
230
1
 70
8
 71
2
 72
6
 73
3
 74
0
 40
0.000000000
 40
0.000000000
 40
0.000000000
 40
1.000000000
 40
1.000000000
 40
1.000000000
 10
49.552767957
 20
55.798482143
 30
0.000000000
 10
49.730267957
 20
56.064285714
 30
0.000000000
 10
50.066428671
 20
56.064285714
 30
0.000000000
  0
SPLINE
  5
A9D
330
A02
100
AcDbEntity
  8
ShapeString
100
AcDbSpline
210
0
220
0
230
1
 70
8
 71
2
 72
6
 73
3
 74
0
 40
0.000000000
 40
0.000000000
 40
0.000000000
 40
1.000000000
 40
1.000000000
 40
1.000000000
 10
49.375357243
 20
55.026517857
 30
0.000000000
 10
49.375357243
 20
55.532678571
 30
0.000000000
 10
49.552767957
 20
55.798482143
 30
0.000000000
  0
SPLINE
  5
A9E
330
A02
100
AcDbEntity
  8
ShapeString
100
AcDbSpline
210
0
220
0
230
1
 70
8
 71
2
 72
6
 73
3
 74
0
 40
0.000000000
 40
0.000000000
 40
0.000000000
 40
1.000000000
 40
1.000000000
 40
1.000000000
 10
49.552767957
 20
54.255803571
 30
0.000000000
 10
49.375357243
 20
54.521607143
 30
0.000000000
 10
49.375357243
 20
55.026517857
 30
0.000000000
  0
SPLINE
  5
A9F
330
A02
100
AcDbEntity
  8
ShapeString
100
AcDbSpline
210
0
220
0
230
1
 70
8
 71
2
 72
6
 73
3
 74
0
 40
0.000000000
 40
0.000000000
 40
0.000000000
 40
1.000000000
 40
1.000000000
 40
1.000000000
 10
50.066428671
 20
53.990000000
 30
0.000000000
 10
49.730267957
 20
53.990000000
 30
0.000000000
 10
49.552767957
 20
54.255803571
 30
0.000000000
  0
SPLINE
  5
AA0
330
A02
100
AcDbEntity
  8
ShapeString
100
AcDbSpline
210
0
220
0
230
1
 70
8
 71
2
 72
6
 73
3
 74
0
 40
0.000000000
 40
0.000000000
 40
0.000000000
 40
1.000000000
 40
1.000000000
 40
1.000000000
 10
50.580000100
 20
54.255803571
 30
0.000000000
 10
50.402589386
 20
53.990000000
 30
0.000000000
 10
50.066428671
 20
53.990000000
 30
0.000000000
  0
SPLINE
  5
AA1
330
A02
100
AcDbEntity
  8
ShapeString
100
AcDbSpline
210
0
220
0
230
1
 70
8
 71
2
 72
6
 73
3
 74
0
 40
0.000000000
 40
0.000000000
 40
0.000000000
 40
1.000000000
 40
1.000000000
 40
1.000000000
 10
50.757500100
 20
55.026517857
 30
0.000000000
 10
50.757500100
 20
54.521607143
 30
0.000000000
 10
50.580000100
 20
54.255803571
 30
0.000000000
  0
SPLINE
  5
AA2
330
A02
100
AcDbEntity
  8
ShapeString
100
AcDbSpline
210
0
220
0
230
1
 70
8
 71
2
 72
6
 73
3
 74
0
 40
0.000000000
 40
0.000000000
 40
0.000000000
 40
1.000000000
 40
1.000000000
 40
1.000000000
 10
50.580000100
 20
55.798482143
 30
0.000000000
 10
50.757500100
 20
55.532678571
 30
0.000000000
 10
50.757500100
 20
55.026517857
 30
0.000000000
  0
SPLINE
  5
AA3
330
A02
100
AcDbEntity
  8
ShapeString
100
AcDbSpline
210
0
220
0
230
1
 70
8
 71
2
 72
6
 73
3
 74
0
 40
0.000000000
 40
0.000000000
 40
0.000000000
 40
1.000000000
 40
1.000000000
 40
1.000000000
 10
50.066428671
 20
55.847142857
 30
0.000000000
 10
49.857500100
 20
55.847142857
 30
0.000000000
 10
49.752321529
 20
55.642321429
 30
0.000000000
  0
SPLINE
  5
AA4
330
A02
100
AcDbEntity
  8
ShapeString
100
AcDbSpline
210
0
220
0
230
1
 70
8
 71
2
 72
6
 73
3
 74
0
 40
0.000000000
 40
0.000000000
 40
0.000000000
 40
1.000000000
 40
1.000000000
 40
1.000000000
 10
50.381785814
 20
55.642321429
 30
0.000000000
 10
50.276696529
 20
55.847142857
 30
0.000000000
 10
50.066428671
 20
55.847142857
 30
0.000000000
  0
SPLINE
  5
AA5
330
A02
100
AcDbEntity
  8
ShapeString
100
AcDbSpline
210
0
220
0
230
1
 70
8
 71
2
 72
6
 73
3
 74
0
 40
0.000000000
 40
0.000000000
 40
0.000000000
 40
1.000000000
 40
1.000000000
 40
1.000000000
 10
50.486964386
 20
55.026517857
 30
0.000000000
 10
50.486964386
 20
55.437500000
 30
0.000000000
 10
50.381785814
 20
55.642321429
 30
0.000000000
  0
SPLINE
  5
AA6
330
A02
100
AcDbEntity
  8
ShapeString
100
AcDbSpline
210
0
220
0
230
1
 70
8
 71
2
 72
6
 73
3
 74
0
 40
0.000000000
 40
0.000000000
 40
0.000000000
 40
1.000000000
 40
1.000000000
 40
1.000000000
 10
50.381785814
 20
54.411964286
 30
0.000000000
 10
50.486964386
 20
54.616785714
 30
0.000000000
 10
50.486964386
 20
55.026517857
 30
0.000000000
  0
SPLINE
  5
AA7
330
A02
100
AcDbEntity
  8
ShapeString
100
AcDbSpline
210
0
220
0
230
1
 70
8
 71
2
 72
6
 73
3
 74
0
 40
0.000000000
 40
0.000000000
 40
0.000000000
 40
1.000000000
 40
1.000000000
 40
1.000000000
 10
50.066428671
 20
54.207142857
 30
0.000000000
 10
50.276696529
 20
54.207142857
 30
0.000000000
 10
50.381785814
 20
54.411964286
 30
0.000000000
  0
SPLINE
  5
AA8
330
A02
100
AcDbEntity
  8
ShapeString
100
AcDbSpline
210
0
220
0
230
1
 70
8
 71
2
 72
6
 73
3
 74
0
 40
0.000000000
 40
0.000000000
 40
0.000000000
 40
1.000000000
 40
1.000000000
 40
1.000000000
 10
49.752321529
 20
54.411964286
 30
0.000000000
 10
49.857500100
 20
54.207142857
 30
0.000000000
 10
50.066428671
 20
54.207142857
 30
0.000000000
  0
SPLINE
  5
AA9
330
A02
100
AcDbEntity
  8
ShapeString
100
AcDbSpline
210
0
220
0
230
1
 70
8
 71
2
 72
6
 73
3
 74
0
 40
0.000000000
 40
0.000000000
 40
0.000000000
 40
1.000000000
 40
1.000000000
 40
1.000000000
 10
49.647232243
 20
55.026517857
 30
0.000000000
 10
49.647232243
 20
54.616785714
 30
0.000000000
 10
49.752321529
 20
54.411964286
 30
0.000000000
  0
SPLINE
  5
AAA
330
A02
100
AcDbEntity
  8
ShapeString
100
AcDbSpline
210
0
220
0
230
1
 70
8
 71
2
 72
6
 73
3
 74
0
 40
0.000000000
 40
0.000000000
 40
0.000000000
 40
1.000000000
 40
1.000000000
 40
1.000000000
 10
49.752321529
 20
55.642321429
 30
0.000000000
 10
49.647232243
 20
55.437500000
 30
0.000000000
 10
49.647232243
 20
55.026517857
 30
0.000000000
  0
LINE
  5
AAB
330
A02
100
AcDbEntity
  8
ShapeString
100
AcDbLine
 10
51.230714386
 20
54.372857143
 30
0.000000000
 11
51.513303671
 21
54.372857143
 31
0.000000000
  0
LINE
  5
AAC
330
A02
100
AcDbEntity
  8
ShapeString
100
AcDbLine
 10
51.230714386
 20
54.030000000
 30
0.000000000
 11
51.230714386
 21
54.372857143
 31
0.000000000
  0
LINE
  5
AAD
330
A02
100
AcDbEntity
  8
ShapeString
100
AcDbLine
 10
51.513303671
 20
54.030000000
 30
0.000000000
 11
51.230714386
 21
54.030000000
 31
0.000000000
  0
LINE
  5
AAE
330
A02
100
AcDbEntity
  8
ShapeString
100
AcDbLine
 10
51.513303671
 20
54.372857143
 30
0.000000000
 11
51.513303671
 21
54.030000000
 31
0.000000000
  0
LINE
  5
AAF
330
A02
100
AcDbEntity
  8
ShapeString
100
AcDbLine
 10
52.777321529
 20
56.030000000
 30
0.000000000
 11
53.117500100
 21
56.030000000
 31
0.000000000
  0
LINE
  5
AB0
330
A02
100
AcDbEntity
  8
ShapeString
100
AcDbLine
 10
51.945625100
 20
54.765000000
 30
0.000000000
 11
52.777321529
 21
56.030000000
 31
0.000000000
  0
LINE
  5
AB1
330
A02
100
AcDbEntity
  8
ShapeString
100
AcDbLine
 10
51.945625100
 20
54.504285714
 30
0.000000000
 11
51.945625100
 21
54.765000000
 31
0.000000000
  0
LINE
  5
AB2
330
A02
100
AcDbEntity
  8
ShapeString
100
AcDbLine
 10
52.848303671
 20
54.504285714
 30
0.000000000
 11
51.945625100
 21
54.504285714
 31
0.000000000
  0
LINE
  5
AB3
330
A02
100
AcDbEntity
  8
ShapeString
100
AcDbLine
 10
52.848303671
 20
54.030000000
 30
0.000000000
 11
52.848303671
 21
54.504285714
 31
0.000000000
  0
LINE
  5
AB4
330
A02
100
AcDbEntity
  8
ShapeString
100
AcDbLine
 10
53.117500100
 20
54.030000000
 30
0.000000000
 11
52.848303671
 21
54.030000000
 31
0.000000000
  0
LINE
  5
AB5
330
A02
100
AcDbEntity
  8
ShapeString
100
AcDbLine
 10
53.117500100
 20
54.504285714
 30
0.000000000
 11
53.117500100
 21
54.030000000
 31
0.000000000
  0
LINE
  5
AB6
330
A02
100
AcDbEntity
  8
ShapeString
100
AcDbLine
 10
53.402767957
 20
54.504285714
 30
0.000000000
 11
53.117500100
 21
54.504285714
 31
0.000000000
  0
LINE
  5
AB7
330
A02
100
AcDbEntity
  8
ShapeString
100
AcDbLine
 10
53.402767957
 20
54.727142857
 30
0.000000000
 11
53.402767957
 21
54.504285714
 31
0.000000000
  0
LINE
  5
AB8
330
A02
100
AcDbEntity
  8
ShapeString
100
AcDbLine
 10
53.117500100
 20
54.727142857
 30
0.000000000
 11
53.402767957
 21
54.727142857
 31
0.000000000
  0
LINE
  5
AB9
330
A02
100
AcDbEntity
  8
ShapeString
100
AcDbLine
 10
53.117500100
 20
56.030000000
 30
0.000000000
 11
53.117500100
 21
54.727142857
 31
0.000000000
  0
LINE
  5
ABA
330
A02
100
AcDbEntity
  8
ShapeString
100
AcDbLine
 10
52.848303671
 20
55.794375000
 30
0.000000000
 11
52.165267957
 21
54.727142857
 31
0.000000000
  0
LINE
  5
ABB
330
A02
100
AcDbEntity
  8
ShapeString
100
AcDbLine
 10
52.848303671
 20
54.727142857
 30
0.000000000
 11
52.848303671
 21
55.794375000
 31
0.000000000
  0
LINE
  5
ABC
330
A02
100
AcDbEntity
  8
ShapeString
100
AcDbLine
 10
52.165267957
 20
54.727142857
 30
0.000000000
 11
52.848303671
 21
54.727142857
 31
0.000000000
  0
SPLINE
  5
ABD
330
A02
100
AcDbEntity
  8
ShapeString
100
AcDbSpline
210
0
220
0
230
1
 70
8
 71
2
 72
6
 73
3
 74
0
 40
0.000000000
 40
0.000000000
 40
0.000000000
 40
1.000000000
 40
1.000000000
 40
1.000000000
 10
54.980892957
 20
55.243571429
 30
0.000000000
 10
55.073303671
 20
55.409375000
 30
0.000000000
 10
55.201875100
 20
55.488214286
 30
0.000000000
  0
SPLINE
  5
ABE
330
A02
100
AcDbEntity
  8
ShapeString
100
AcDbSpline
210
0
220
0
230
1
 70
8
 71
2
 72
6
 73
3
 74
0
 40
0.000000000
 40
0.000000000
 40
0.000000000
 40
1.000000000
 40
1.000000000
 40
1.000000000
 10
54.811428671
 20
55.484196429
 30
0.000000000
 10
54.925982243
 20
55.401339286
 30
0.000000000
 10
54.980892957
 20
55.243571429
 30
0.000000000
  0
SPLINE
  5
ABF
330
A02
100
AcDbEntity
  8
ShapeString
100
AcDbSpline
210
0
220
0
230
1
 70
8
 71
2
 72
6
 73
3
 74
0
 40
0.000000000
 40
0.000000000
 40
0.000000000
 40
1.000000000
 40
1.000000000
 40
1.000000000
 10
54.533571529
 20
55.567142857
 30
0.000000000
 10
54.696964386
 20
55.567142857
 30
0.000000000
 10
54.811428671
 20
55.484196429
 30
0.000000000
  0
SPLINE
  5
AC0
330
A02
100
AcDbEntity
  8
ShapeString
100
AcDbSpline
210
0
220
0
230
1
 70
8
 71
2
 72
6
 73
3
 74
0
 40
0.000000000
 40
0.000000000
 40
0.000000000
 40
1.000000000
 40
1.000000000
 40
1.000000000
 10
54.253660814
 20
55.501607143
 30
0.000000000
 10
54.371517957
 20
55.567142857
 30
0.000000000
 10
54.533571529
 20
55.567142857
 30
0.000000000
  0
SPLINE
  5
AC1
330
A02
100
AcDbEntity
  8
ShapeString
100
AcDbSpline
210
0
220
0
230
1
 70
8
 71
2
 72
6
 73
3
 74
0
 40
0.000000000
 40
0.000000000
 40
0.000000000
 40
1.000000000
 40
1.000000000
 40
1.000000000
 10
54.051428671
 20
55.298571429
 30
0.000000000
 10
54.135803671
 20
55.436160714
 30
0.000000000
 10
54.253660814
 20
55.501607143
 30
0.000000000
  0
LINE
  5
AC2
330
A02
100
AcDbEntity
  8
ShapeString
100
AcDbLine
 10
54.051428671
 20
55.532857143
 30
0.000000000
 11
54.051428671
 21
55.298571429
 31
0.000000000
  0
LINE
  5
AC3
330
A02
100
AcDbEntity
  8
ShapeString
100
AcDbLine
 10
53.803660814
 20
55.532857143
 30
0.000000000
 11
54.051428671
 21
55.532857143
 31
0.000000000
  0
LINE
  5
AC4
330
A02
100
AcDbEntity
  8
ShapeString
100
AcDbLine
 10
53.803660814
 20
54.030000000
 30
0.000000000
 11
53.803660814
 21
55.532857143
 31
0.000000000
  0
LINE
  5
AC5
330
A02
100
AcDbEntity
  8
ShapeString
100
AcDbLine
 10
54.051428671
 20
54.030000000
 30
0.000000000
 11
53.803660814
 21
54.030000000
 31
0.000000000
  0
LINE
  5
AC6
330
A02
100
AcDbEntity
  8
ShapeString
100
AcDbLine
 10
54.051428671
 20
54.878839286
 30
0.000000000
 11
54.051428671
 21
54.030000000
 31
0.000000000
  0
SPLINE
  5
AC7
330
A02
100
AcDbEntity
  8
ShapeString
100
AcDbSpline
210
0
220
0
230
1
 70
8
 71
2
 72
6
 73
3
 74
0
 40
0.000000000
 40
0.000000000
 40
0.000000000
 40
1.000000000
 40
1.000000000
 40
1.000000000
 10
54.162589386
 20
55.222857143
 30
0.000000000
 10
54.051428671
 20
55.095803571
 30
0.000000000
 10
54.051428671
 20
54.878839286
 30
0.000000000
  0
SPLINE
  5
AC8
330
A02
100
AcDbEntity
  8
ShapeString
100
AcDbSpline
210
0
220
0
230
1
 70
8
 71
2
 72
6
 73
3
 74
0
 40
0.000000000
 40
0.000000000
 40
0.000000000
 40
1.000000000
 40
1.000000000
 40
1.000000000
 10
54.462589386
 20
55.350000000
 30
0.000000000
 10
54.273750100
 20
55.350000000
 30
0.000000000
 10
54.162589386
 20
55.222857143
 30
0.000000000
  0
SPLINE
  5
AC9
330
A02
100
AcDbEntity
  8
ShapeString
100
AcDbSpline
210
0
220
0
230
1
 70
8
 71
2
 72
6
 73
3
 74
0
 40
0.000000000
 40
0.000000000
 40
0.000000000
 40
1.000000000
 40
1.000000000
 40
1.000000000
 10
54.698303671
 20
55.246964286
 30
0.000000000
 10
54.621964386
 20
55.350000000
 30
0.000000000
 10
54.462589386
 20
55.350000000
 30
0.000000000
  0
SPLINE
  5
ACA
330
A02
100
AcDbEntity
  8
ShapeString
100
AcDbSpline
210
0
220
0
230
1
 70
8
 71
2
 72
6
 73
3
 74
0
 40
0.000000000
 40
0.000000000
 40
0.000000000
 40
1.000000000
 40
1.000000000
 40
1.000000000
 10
54.774642957
 20
54.928482143
 30
0.000000000
 10
54.774642957
 20
55.143928571
 30
0.000000000
 10
54.698303671
 20
55.246964286
 30
0.000000000
  0
LINE
  5
ACB
330
A02
100
AcDbEntity
  8
ShapeString
100
AcDbLine
 10
54.774642957
 20
54.030000000
 30
0.000000000
 11
54.774642957
 21
54.928482143
 31
0.000000000
  0
LINE
  5
ACC
330
A02
100
AcDbEntity
  8
ShapeString
100
AcDbLine
 10
55.022410814
 20
54.030000000
 30
0.000000000
 11
54.774642957
 21
54.030000000
 31
0.000000000
  0
LINE
  5
ACD
330
A02
100
AcDbEntity
  8
ShapeString
100
AcDbLine
 10
55.022410814
 20
54.878839286
 30
0.000000000
 11
55.022410814
 21
54.030000000
 31
0.000000000
  0
SPLINE
  5
ACE
330
A02
100
AcDbEntity
  8
ShapeString
100
AcDbSpline
210
0
220
0
230
1
 70
8
 71
2
 72
6
 73
3
 74
0
 40
0.000000000
 40
0.000000000
 40
0.000000000
 40
1.000000000
 40
1.000000000
 40
1.000000000
 10
55.133571529
 20
55.223571429
 30
0.000000000
 10
55.022410814
 20
55.097142857
 30
0.000000000
 10
55.022410814
 20
54.878839286
 30
0.000000000
  0
SPLINE
  5
ACF
330
A02
100
AcDbEntity
  8
ShapeString
100
AcDbSpline
210
0
220
0
230
1
 70
8
 71
2
 72
6
 73
3
 74
0
 40
0.000000000
 40
0.000000000
 40
0.000000000
 40
1.000000000
 40
1.000000000
 40
1.000000000
 10
55.436250100
 20
55.350000000
 30
0.000000000
 10
55.244732243
 20
55.350000000
 30
0.000000000
 10
55.133571529
 20
55.223571429
 30
0.000000000
  0
SPLINE
  5
AD0
330
A02
100
AcDbEntity
  8
ShapeString
100
AcDbSpline
210
0
220
0
230
1
 70
8
 71
2
 72
6
 73
3
 74
0
 40
0.000000000
 40
0.000000000
 40
0.000000000
 40
1.000000000
 40
1.000000000
 40
1.000000000
 10
55.669285814
 20
55.246250000
 30
0.000000000
 10
55.592946529
 20
55.350000000
 30
0.000000000
 10
55.436250100
 20
55.350000000
 30
0.000000000
  0
SPLINE
  5
AD1
330
A02
100
AcDbEntity
  8
ShapeString
100
AcDbSpline
210
0
220
0
230
1
 70
8
 71
2
 72
6
 73
3
 74
0
 40
0.000000000
 40
0.000000000
 40
0.000000000
 40
1.000000000
 40
1.000000000
 40
1.000000000
 10
55.745625100
 20
54.928482143
 30
0.000000000
 10
55.745625100
 20
55.142589286
 30
0.000000000
 10
55.669285814
 20
55.246250000
 30
0.000000000
  0
LINE
  5
AD2
330
A02
100
AcDbEntity
  8
ShapeString
100
AcDbLine
 10
55.745625100
 20
54.030000000
 30
0.000000000
 11
55.745625100
 21
54.928482143
 31
0.000000000
  0
LINE
  5
AD3
330
A02
100
AcDbEntity
  8
ShapeString
100
AcDbLine
 10
55.993392957
 20
54.030000000
 30
0.000000000
 11
55.745625100
 21
54.030000000
 31
0.000000000
  0
LINE
  5
AD4
330
A02
100
AcDbEntity
  8
ShapeString
100
AcDbLine
 10
55.993392957
 20
54.936517857
 30
0.000000000
 11
55.993392957
 21
54.030000000
 31
0.000000000
  0
SPLINE
  5
AD5
330
A02
100
AcDbEntity
  8
ShapeString
100
AcDbSpline
210
0
220
0
230
1
 70
8
 71
2
 72
6
 73
3
 74
0
 40
0.000000000
 40
0.000000000
 40
0.000000000
 40
1.000000000
 40
1.000000000
 40
1.000000000
 10
55.866160814
 20
55.403125000
 30
0.000000000
 10
55.993392957
 20
55.239107143
 30
0.000000000
 10
55.993392957
 20
54.936517857
 30
0.000000000
  0
SPLINE
  5
AD6
330
A02
100
AcDbEntity
  8
ShapeString
100
AcDbSpline
210
0
220
0
230
1
 70
8
 71
2
 72
6
 73
3
 74
0
 40
0.000000000
 40
0.000000000
 40
0.000000000
 40
1.000000000
 40
1.000000000
 40
1.000000000
 10
55.504553671
 20
55.567142857
 30
0.000000000
 10
55.738928671
 20
55.567142857
 30
0.000000000
 10
55.866160814
 20
55.403125000
 30
0.000000000
  0
SPLINE
  5
AD7
330
A02
100
AcDbEntity
  8
ShapeString
100
AcDbSpline
210
0
220
0
230
1
 70
8
 71
2
 72
6
 73
3
 74
0
 40
0.000000000
 40
0.000000000
 40
0.000000000
 40
1.000000000
 40
1.000000000
 40
1.000000000
 10
55.201875100
 20
55.488214286
 30
0.000000000
 10
55.330446529
 20
55.567142857
 30
0.000000000
 10
55.504553671
 20
55.567142857
 30
0.000000000
  0
SPLINE
  5
AD8
330
A02
100
AcDbEntity
  8
ShapeString
100
AcDbSpline
210
0
220
0
230
1
 70
8
 71
2
 72
6
 73
3
 74
0
 40
0.000000000
 40
0.000000000
 40
0.000000000
 40
1.000000000
 40
1.000000000
 40
1.000000000
 10
57.655178671
 20
55.243571429
 30
0.000000000
 10
57.747589386
 20
55.409375000
 30
0.000000000
 10
57.876160814
 20
55.488214286
 30
0.000000000
  0
SPLINE
  5
AD9
330
A02
100
AcDbEntity
  8
ShapeString
100
AcDbSpline
210
0
220
0
230
1
 70
8
 71
2
 72
6
 73
3
 74
0
 40
0.000000000
 40
0.000000000
 40
0.000000000
 40
1.000000000
 40
1.000000000
 40
1.000000000
 10
57.485714386
 20
55.484196429
 30
0.000000000
 10
57.600267957
 20
55.401339286
 30
0.000000000
 10
57.655178671
 20
55.243571429
 30
0.000000000
  0
SPLINE
  5
ADA
330
A02
100
AcDbEntity
  8
ShapeString
100
AcDbSpline
210
0
220
0
230
1
 70
8
 71
2
 72
6
 73
3
 74
0
 40
0.000000000
 40
0.000000000
 40
0.000000000
 40
1.000000000
 40
1.000000000
 40
1.000000000
 10
57.207857243
 20
55.567142857
 30
0.000000000
 10
57.371250100
 20
55.567142857
 30
0.000000000
 10
57.485714386
 20
55.484196429
 30
0.000000000
  0
SPLINE
  5
ADB
330
A02
100
AcDbEntity
  8
ShapeString
100
AcDbSpline
210
0
220
0
230
1
 70
8
 71
2
 72
6
 73
3
 74
0
 40
0.000000000
 40
0.000000000
 40
0.000000000
 40
1.000000000
 40
1.000000000
 40
1.000000000
 10
56.927946529
 20
55.501607143
 30
0.000000000
 10
57.045803671
 20
55.567142857
 30
0.000000000
 10
57.207857243
 20
55.567142857
 30
0.000000000
  0
SPLINE
  5
ADC
330
A02
100
AcDbEntity
  8
ShapeString
100
AcDbSpline
210
0
220
0
230
1
 70
8
 71
2
 72
6
 73
3
 74
0
 40
0.000000000
 40
0.000000000
 40
0.000000000
 40
1.000000000
 40
1.000000000
 40
1.000000000
 10
56.725714386
 20
55.298571429
 30
0.000000000
 10
56.810089386
 20
55.436160714
 30
0.000000000
 10
56.927946529
 20
55.501607143
 30
0.000000000
  0
LINE
  5
ADD
330
A02
100
AcDbEntity
  8
ShapeString
100
AcDbLine
 10
56.725714386
 20
55.532857143
 30
0.000000000
 11
56.725714386
 21
55.298571429
 31
0.000000000
  0
LINE
  5
ADE
330
A02
100
AcDbEntity
  8
ShapeString
100
AcDbLine
 10
56.477946529
 20
55.532857143
 30
0.000000000
 11
56.725714386
 21
55.532857143
 31
0.000000000
  0
LINE
  5
ADF
330
A02
100
AcDbEntity
  8
ShapeString
100
AcDbLine
 10
56.477946529
 20
54.030000000
 30
0.000000000
 11
56.477946529
 21
55.532857143
 31
0.000000000
  0
LINE
  5
AE0
330
A02
100
AcDbEntity
  8
ShapeString
100
AcDbLine
 10
56.725714386
 20
54.030000000
 30
0.000000000
 11
56.477946529
 21
54.030000000
 31
0.000000000
  0
LINE
  5
AE1
330
A02
100
AcDbEntity
  8
ShapeString
100
AcDbLine
 10
56.725714386
 20
54.878839286
 30
0.000000000
 11
56.725714386
 21
54.030000000
 31
0.000000000
  0
SPLINE
  5
AE2
330
A02
100
AcDbEntity
  8
ShapeString
100
AcDbSpline
210
0
220
0
230
1
 70
8
 71
2
 72
6
 73
3
 74
0
 40
0.000000000
 40
0.000000000
 40
0.000000000
 40
1.000000000
 40
1.000000000
 40
1.000000000
 10
56.836875100
 20
55.222857143
 30
0.000000000
 10
56.725714386
 20
55.095803571
 30
0.000000000
 10
56.725714386
 20
54.878839286
 30
0.000000000
  0
SPLINE
  5
AE3
330
A02
100
AcDbEntity
  8
ShapeString
100
AcDbSpline
210
0
220
0
230
1
 70
8
 71
2
 72
6
 73
3
 74
0
 40
0.000000000
 40
0.000000000
 40
0.000000000
 40
1.000000000
 40
1.000000000
 40
1.000000000
 10
57.136875100
 20
55.350000000
 30
0.000000000
 10
56.948035814
 20
55.350000000
 30
0.000000000
 10
56.836875100
 20
55.222857143
 30
0.000000000
  0
SPLINE
  5
AE4
330
A02
100
AcDbEntity
  8
ShapeString
100
AcDbSpline
210
0
220
0
230
1
 70
8
 71
2
 72
6
 73
3
 74
0
 40
0.000000000
 40
0.000000000
 40
0.000000000
 40
1.000000000
 40
1.000000000
 40
1.000000000
 10
57.372589386
 20
55.246964286
 30
0.000000000
 10
57.296250100
 20
55.350000000
 30
0.000000000
 10
57.136875100
 20
55.350000000
 30
0.000000000
  0
SPLINE
  5
AE5
330
A02
100
AcDbEntity
  8
ShapeString
100
AcDbSpline
210
0
220
0
230
1
 70
8
 71
2
 72
6
 73
3
 74
0
 40
0.000000000
 40
0.000000000
 40
0.000000000
 40
1.000000000
 40
1.000000000
 40
1.000000000
 10
57.448928671
 20
54.928482143
 30
0.000000000
 10
57.448928671
 20
55.143928571
 30
0.000000000
 10
57.372589386
 20
55.246964286
 30
0.000000000
  0
LINE
  5
AE6
330
A02
100
AcDbEntity
  8
ShapeString
100
AcDbLine
 10
57.448928671
 20
54.030000000
 30
0.000000000
 11
57.448928671
 21
54.928482143
 31
0.000000000
  0
LINE
  5
AE7
330
A02
100
AcDbEntity
  8
ShapeString
100
AcDbLine
 10
57.696696529
 20
54.030000000
 30
0.000000000
 11
57.448928671
 21
54.030000000
 31
0.000000000
  0
LINE
  5
AE8
330
A02
100
AcDbEntity
  8
ShapeString
100
AcDbLine
 10
57.696696529
 20
54.878839286
 30
0.000000000
 11
57.696696529
 21
54.030000000
 31
0.000000000
  0
SPLINE
  5
AE9
330
A02
100
AcDbEntity
  8
ShapeString
100
AcDbSpline
210
0
220
0
230
1
 70
8
 71
2
 72
6
 73
3
 74
0
 40
0.000000000
 40
0.000000000
 40
0.000000000
 40
1.000000000
 40
1.000000000
 40
1.000000000
 10
57.807857243
 20
55.223571429
 30
0.000000000
 10
57.696696529
 20
55.097142857
 30
0.000000000
 10
57.696696529
 20
54.878839286
 30
0.000000000
  0
SPLINE
  5
AEA
330
A02
100
AcDbEntity
  8
ShapeString
100
AcDbSpline
210
0
220
0
230
1
 70
8
 71
2
 72
6
 73
3
 74
0
 40
0.000000000
 40
0.000000000
 40
0.000000000
 40
1.000000000
 40
1.000000000
 40
1.000000000
 10
58.110535814
 20
55.350000000
 30
0.000000000
 10
57.919017957
 20
55.350000000
 30
0.000000000
 10
57.807857243
 20
55.223571429
 30
0.000000000
  0
SPLINE
  5
AEB
330
A02
100
AcDbEntity
  8
ShapeString
100
AcDbSpline
210
0
220
0
230
1
 70
8
 71
2
 72
6
 73
3
 74
0
 40
0.000000000
 40
0.000000000
 40
0.000000000
 40
1.000000000
 40
1.000000000
 40
1.000000000
 10
58.343571529
 20
55.246250000
 30
0.000000000
 10
58.267232243
 20
55.350000000
 30
0.000000000
 10
58.110535814
 20
55.350000000
 30
0.000000000
  0
SPLINE
  5
AEC
330
A02
100
AcDbEntity
  8
ShapeString
100
AcDbSpline
210
0
220
0
230
1
 70
8
 71
2
 72
6
 73
3
 74
0
 40
0.000000000
 40
0.000000000
 40
0.000000000
 40
1.000000000
 40
1.000000000
 40
1.000000000
 10
58.419910814
 20
54.928482143
 30
0.000000000
 10
58.419910814
 20
55.142589286
 30
0.000000000
 10
58.343571529
 20
55.246250000
 30
0.000000000
  0
LINE
  5
AED
330
A02
100
AcDbEntity
  8
ShapeString
100
AcDbLine
 10
58.419910814
 20
54.030000000
 30
0.000000000
 11
58.419910814
 21
54.928482143
 31
0.000000000
  0
LINE
  5
AEE
330
A02
100
AcDbEntity
  8
ShapeString
100
AcDbLine
 10
58.667678671
 20
54.030000000
 30
0.000000000
 11
58.419910814
 21
54.030000000
 31
0.000000000
  0
LINE
  5
AEF
330
A02
100
AcDbEntity
  8
ShapeString
100
AcDbLine
 10
58.667678671
 20
54.936517857
 30
0.000000000
 11
58.667678671
 21
54.030000000
 31
0.000000000
  0
SPLINE
  5
AF0
330
A02
100
AcDbEntity
  8
ShapeString
100
AcDbSpline
210
0
220
0
230
1
 70
8
 71
2
 72
6
 73
3
 74
0
 40
0.000000000
 40
0.000000000
 40
0.000000000
 40
1.000000000
 40
1.000000000
 40
1.000000000
 10
58.540446529
 20
55.403125000
 30
0.000000000
 10
58.667678671
 20
55.239107143
 30
0.000000000
 10
58.667678671
 20
54.936517857
 30
0.000000000
  0
SPLINE
  5
AF1
330
A02
100
AcDbEntity
  8
ShapeString
100
AcDbSpline
210
0
220
0
230
1
 70
8
 71
2
 72
6
 73
3
 74
0
 40
0.000000000
 40
0.000000000
 40
0.000000000
 40
1.000000000
 40
1.000000000
 40
1.000000000
 10
58.178839386
 20
55.567142857
 30
0.000000000
 10
58.413214386
 20
55.567142857
 30
0.000000000
 10
58.540446529
 20
55.403125000
 30
0.000000000
  0
SPLINE
  5
AF2
330
A02
100
AcDbEntity
  8
ShapeString
100
AcDbSpline
210
0
220
0
230
1
 70
8
 71
2
 72
6
 73
3
 74
0
 40
0.000000000
 40
0.000000000
 40
0.000000000
 40
1.000000000
 40
1.000000000
 40
1.000000000
 10
57.876160814
 20
55.488214286
 30
0.000000000
 10
58.004732243
 20
55.567142857
 30
0.000000000
 10
58.178839386
 20
55.567142857
 30
0.000000000
  0
LINE
  5
AF3
330
A02
100
AcDbEntity
  8
ShapeString
100
AcDbLine
 10
60.303750100
 20
54.258571429
 30
0.000000000
 11
61.247946529
 21
54.258571429
 31
0.000000000
  0
SPLINE
  5
AF4
330
A02
100
AcDbEntity
  8
ShapeString
100
AcDbSpline
210
0
220
0
230
1
 70
8
 71
2
 72
6
 73
3
 74
0
 40
0.000000000
 40
0.000000000
 40
0.000000000
 40
1.000000000
 40
1.000000000
 40
1.000000000
 10
60.810000100
 20
54.776875000
 30
0.000000000
 10
60.630535814
 20
54.591607143
 30
0.000000000
 10
60.303750100
 20
54.258571429
 30
0.000000000
  0
SPLINE
  5
AF5
330
A02
100
AcDbEntity
  8
ShapeString
100
AcDbSpline
210
0
220
0
230
1
 70
8
 71
2
 72
6
 73
3
 74
0
 40
0.000000000
 40
0.000000000
 40
0.000000000
 40
1.000000000
 40
1.000000000
 40
1.000000000
 10
61.022946529
 20
55.000892857
 30
0.000000000
 10
60.989464386
 20
54.962142857
 30
0.000000000
 10
60.810000100
 20
54.776875000
 30
0.000000000
  0
SPLINE
  5
AF6
330
A02
100
AcDbEntity
  8
ShapeString
100
AcDbSpline
210
0
220
0
230
1
 70
8
 71
2
 72
6
 73
3
 74
0
 40
0.000000000
 40
0.000000000
 40
0.000000000
 40
1.000000000
 40
1.000000000
 40
1.000000000
 10
61.190982243
 20
55.261071429
 30
0.000000000
 10
61.144821529
 20
55.150714286
 30
0.000000000
 10
61.022946529
 20
55.000892857
 30
0.000000000
  0
SPLINE
  5
AF7
330
A02
100
AcDbEntity
  8
ShapeString
100
AcDbSpline
210
0
220
0
230
1
 70
8
 71
2
 72
6
 73
3
 74
0
 40
0.000000000
 40
0.000000000
 40
0.000000000
 40
1.000000000
 40
1.000000000
 40
1.000000000
 10
61.237232243
 20
55.494464286
 30
0.000000000
 10
61.237232243
 20
55.371428571
 30
0.000000000
 10
61.190982243
 20
55.261071429
 30
0.000000000
  0
SPLINE
  5
AF8
330
A02
100
AcDbEntity
  8
ShapeString
100
AcDbSpline
210
0
220
0
230
1
 70
8
 71
2
 72
6
 73
3
 74
0
 40
0.000000000
 40
0.000000000
 40
0.000000000
 40
1.000000000
 40
1.000000000
 40
1.000000000
 10
61.052410814
 20
55.909107143
 30
0.000000000
 10
61.237232243
 20
55.753928571
 30
0.000000000
 10
61.237232243
 20
55.494464286
 30
0.000000000
  0
SPLINE
  5
AF9
330
A02
100
AcDbEntity
  8
ShapeString
100
AcDbSpline
210
0
220
0
230
1
 70
8
 71
2
 72
6
 73
3
 74
0
 40
0.000000000
 40
0.000000000
 40
0.000000000
 40
1.000000000
 40
1.000000000
 40
1.000000000
 10
60.556875100
 20
56.064285714
 30
0.000000000
 10
60.867589386
 20
56.064285714
 30
0.000000000
 10
61.052410814
 20
55.909107143
 30
0.000000000
  0
SPLINE
  5
AFA
330
A02
100
AcDbEntity
  8
ShapeString
100
AcDbSpline
210
0
220
0
230
1
 70
8
 71
2
 72
6
 73
3
 74
0
 40
0.000000000
 40
0.000000000
 40
0.000000000
 40
1.000000000
 40
1.000000000
 40
1.000000000
 10
60.297053671
 20
56.031071429
 30
0.000000000
 10
60.439017957
 20
56.064285714
 30
0.000000000
 10
60.556875100
 20
56.064285714
 30
0.000000000
  0
SPLINE
  5
AFB
330
A02
100
AcDbEntity
  8
ShapeString
100
AcDbSpline
210
0
220
0
230
1
 70
8
 71
2
 72
6
 73
3
 74
0
 40
0.000000000
 40
0.000000000
 40
0.000000000
 40
1.000000000
 40
1.000000000
 40
1.000000000
 10
59.991696529
 20
55.932857143
 30
0.000000000
 10
60.155089386
 20
55.997946429
 30
0.000000000
 10
60.297053671
 20
56.031071429
 30
0.000000000
  0
LINE
  5
AFC
330
A02
100
AcDbEntity
  8
ShapeString
100
AcDbLine
 10
59.991696529
 20
55.658571429
 30
0.000000000
 11
59.991696529
 21
55.932857143
 31
0.000000000
  0
SPLINE
  5
AFD
330
A02
100
AcDbEntity
  8
ShapeString
100
AcDbSpline
210
0
220
0
230
1
 70
8
 71
2
 72
6
 73
3
 74
0
 40
0.000000000
 40
0.000000000
 40
0.000000000
 40
1.000000000
 40
1.000000000
 40
1.000000000
 10
60.293660814
 20
55.791696429
 30
0.000000000
 10
60.152410814
 20
55.747767857
 30
0.000000000
 10
59.991696529
 20
55.658571429
 30
0.000000000
  0
SPLINE
  5
AFE
330
A02
100
AcDbEntity
  8
ShapeString
100
AcDbSpline
210
0
220
0
230
1
 70
8
 71
2
 72
6
 73
3
 74
0
 40
0.000000000
 40
0.000000000
 40
0.000000000
 40
1.000000000
 40
1.000000000
 40
1.000000000
 10
60.562232243
 20
55.835714286
 30
0.000000000
 10
60.435000100
 20
55.835714286
 30
0.000000000
 10
60.293660814
 20
55.791696429
 30
0.000000000
  0
SPLINE
  5
AFF
330
A02
100
AcDbEntity
  8
ShapeString
100
AcDbSpline
210
0
220
0
230
1
 70
8
 71
2
 72
6
 73
3
 74
0
 40
0.000000000
 40
0.000000000
 40
0.000000000
 40
1.000000000
 40
1.000000000
 40
1.000000000
 10
60.853482243
 20
55.735446429
 30
0.000000000
 10
60.741696529
 20
55.835714286
 30
0.000000000
 10
60.562232243
 20
55.835714286
 30
0.000000000
  0
SPLINE
  5
B00
330
A02
100
AcDbEntity
  8
ShapeString
100
AcDbSpline
210
0
220
0
230
1
 70
8
 71
2
 72
6
 73
3
 74
0
 40
0.000000000
 40
0.000000000
 40
0.000000000
 40
1.000000000
 40
1.000000000
 40
1.000000000
 10
60.965357243
 20
55.476160714
 30
0.000000000
 10
60.965357243
 20
55.635267857
 30
0.000000000
 10
60.853482243
 20
55.735446429
 30
0.000000000
  0
SPLINE
  5
B01
330
A02
100
AcDbEntity
  8
ShapeString
100
AcDbSpline
210
0
220
0
230
1
 70
8
 71
2
 72
6
 73
3
 74
0
 40
0.000000000
 40
0.000000000
 40
0.000000000
 40
1.000000000
 40
1.000000000
 40
1.000000000
 10
60.913750100
 20
55.277678571
 30
0.000000000
 10
60.965357243
 20
55.378571429
 30
0.000000000
 10
60.965357243
 20
55.476160714
 30
0.000000000
  0
SPLINE
  5
B02
330
A02
100
AcDbEntity
  8
ShapeString
100
AcDbSpline
210
0
220
0
230
1
 70
8
 71
2
 72
6
 73
3
 74
0
 40
0.000000000
 40
0.000000000
 40
0.000000000
 40
1.000000000
 40
1.000000000
 40
1.000000000
 10
60.732321529
 20
55.031071429
 30
0.000000000
 10
60.862232243
 20
55.176785714
 30
0.000000000
 10
60.913750100
 20
55.277678571
 30
0.000000000
  0
SPLINE
  5
B03
330
A02
100
AcDbEntity
  8
ShapeString
100
AcDbSpline
210
0
220
0
230
1
 70
8
 71
2
 72
6
 73
3
 74
0
 40
0.000000000
 40
0.000000000
 40
0.000000000
 40
1.000000000
 40
1.000000000
 40
1.000000000
 10
60.398125100
 20
54.685535714
 30
0.000000000
 10
60.664017957
 20
54.953571429
 30
0.000000000
 10
60.732321529
 20
55.031071429
 30
0.000000000
  0
SPLINE
  5
B04
330
A02
100
AcDbEntity
  8
ShapeString
100
AcDbSpline
210
0
220
0
230
1
 70
8
 71
2
 72
6
 73
3
 74
0
 40
0.000000000
 40
0.000000000
 40
0.000000000
 40
1.000000000
 40
1.000000000
 40
1.000000000
 10
59.978303671
 20
54.258571429
 30
0.000000000
 10
60.132321529
 20
54.417589286
 30
0.000000000
 10
60.398125100
 20
54.685535714
 30
0.000000000
  0
LINE
  5
B05
330
A02
100
AcDbEntity
  8
ShapeString
100
AcDbLine
 10
59.978303671
 20
54.030000000
 30
0.000000000
 11
59.978303671
 21
54.258571429
 31
0.000000000
  0
LINE
  5
B06
330
A02
100
AcDbEntity
  8
ShapeString
100
AcDbLine
 10
61.247946529
 20
54.030000000
 30
0.000000000
 11
59.978303671
 21
54.030000000
 31
0.000000000
  0
LINE
  5
B07
330
A02
100
AcDbEntity
  8
ShapeString
100
AcDbLine
 10
61.247946529
 20
54.258571429
 30
0.000000000
 11
61.247946529
 21
54.030000000
 31
0.000000000
  0
LINE
  5
B08
330
A02
100
AcDbEntity
  8
ShapeString
100
AcDbLine
 10
63.025625100
 20
55.532857143
 30
0.000000000
 11
62.483214386
 21
54.801517857
 31
0.000000000
  0
LINE
  5
B09
330
A02
100
AcDbEntity
  8
ShapeString
100
AcDbLine
 10
62.735000100
 20
55.532857143
 30
0.000000000
 11
63.025625100
 21
55.532857143
 31
0.000000000
  0
LINE
  5
B0A
330
A02
100
AcDbEntity
  8
ShapeString
100
AcDbLine
 10
62.337232243
 20
54.997500000
 30
0.000000000
 11
62.735000100
 21
55.532857143
 31
0.000000000
  0
LINE
  5
B0B
330
A02
100
AcDbEntity
  8
ShapeString
100
AcDbLine
 10
61.939464386
 20
55.532857143
 30
0.000000000
 11
62.337232243
 21
54.997500000
 31
0.000000000
  0
LINE
  5
B0C
330
A02
100
AcDbEntity
  8
ShapeString
100
AcDbLine
 10
61.648839386
 20
55.532857143
 30
0.000000000
 11
61.939464386
 21
55.532857143
 31
0.000000000
  0
LINE
  5
B0D
330
A02
100
AcDbEntity
  8
ShapeString
100
AcDbLine
 10
62.181875100
 20
54.816339286
 30
0.000000000
 11
61.648839386
 21
55.532857143
 31
0.000000000
  0
LINE
  5
B0E
330
A02
100
AcDbEntity
  8
ShapeString
100
AcDbLine
 10
61.599285814
 20
54.030000000
 30
0.000000000
 11
62.181875100
 21
54.816339286
 31
0.000000000
  0
LINE
  5
B0F
330
A02
100
AcDbEntity
  8
ShapeString
100
AcDbLine
 10
61.889910814
 20
54.030000000
 30
0.000000000
 11
61.599285814
 21
54.030000000
 31
0.000000000
  0
LINE
  5
B10
330
A02
100
AcDbEntity
  8
ShapeString
100
AcDbLine
 10
62.326517957
 20
54.620446429
 30
0.000000000
 11
61.889910814
 21
54.030000000
 31
0.000000000
  0
LINE
  5
B11
330
A02
100
AcDbEntity
  8
ShapeString
100
AcDbLine
 10
62.763125100
 20
54.030000000
 30
0.000000000
 11
62.326517957
 21
54.620446429
 31
0.000000000
  0
LINE
  5
B12
330
A02
100
AcDbEntity
  8
ShapeString
100
AcDbLine
 10
63.053750100
 20
54.030000000
 30
0.000000000
 11
62.763125100
 21
54.030000000
 31
0.000000000
  0
LINE
  5
B13
330
A02
100
AcDbEntity
  8
ShapeString
100
AcDbLine
 10
62.483214386
 20
54.801517857
 30
0.000000000
 11
63.053750100
 21
54.030000000
 31
0.000000000
  0
LINE
  5
B14
330
A02
100
AcDbEntity
  8
ShapeString
100
AcDbLine
 10
63.483303671
 20
54.258571429
 30
0.000000000
 11
63.925267957
 21
54.258571429
 31
0.000000000
  0
LINE
  5
B15
330
A02
100
AcDbEntity
  8
ShapeString
100
AcDbLine
 10
63.483303671
 20
54.030000000
 30
0.000000000
 11
63.483303671
 21
54.258571429
 31
0.000000000
  0
LINE
  5
B16
330
A02
100
AcDbEntity
  8
ShapeString
100
AcDbLine
 10
64.635089386
 20
54.030000000
 30
0.000000000
 11
63.483303671
 21
54.030000000
 31
0.000000000
  0
LINE
  5
B17
330
A02
100
AcDbEntity
  8
ShapeString
100
AcDbLine
 10
64.635089386
 20
54.258571429
 30
0.000000000
 11
64.635089386
 21
54.030000000
 31
0.000000000
  0
LINE
  5
B18
330
A02
100
AcDbEntity
  8
ShapeString
100
AcDbLine
 10
64.193125100
 20
54.258571429
 30
0.000000000
 11
64.635089386
 21
54.258571429
 31
0.000000000
  0
LINE
  5
B19
330
A02
100
AcDbEntity
  8
ShapeString
100
AcDbLine
 10
64.193125100
 20
56.030000000
 30
0.000000000
 11
64.193125100
 21
54.258571429
 31
0.000000000
  0
LINE
  5
B1A
330
A02
100
AcDbEntity
  8
ShapeString
100
AcDbLine
 10
63.922589386
 20
56.030000000
 30
0.000000000
 11
64.193125100
 21
56.030000000
 31
0.000000000
  0
LINE
  5
B1B
330
A02
100
AcDbEntity
  8
ShapeString
100
AcDbLine
 10
63.444464386
 20
55.932857143
 30
0.000000000
 11
63.922589386
 21
56.030000000
 31
0.000000000
  0
LINE
  5
B1C
330
A02
100
AcDbEntity
  8
ShapeString
100
AcDbLine
 10
63.444464386
 20
55.687142857
 30
0.000000000
 11
63.444464386
 21
55.932857143
 31
0.000000000
  0
LINE
  5
B1D
330
A02
100
AcDbEntity
  8
ShapeString
100
AcDbLine
 10
63.925267957
 20
55.784285714
 30
0.000000000
 11
63.444464386
 21
55.687142857
 31
0.000000000
  0
LINE
  5
B1E
330
A02
100
AcDbEntity
  8
ShapeString
100
AcDbLine
 10
63.925267957
 20
54.258571429
 30
0.000000000
 11
63.925267957
 21
55.784285714
 31
0.000000000
  0
LINE
  5
B1F
330
A02
100
AcDbEntity
  8
ShapeString
100
AcDbLine
 10
65.181964386
 20
56.030000000
 30
0.000000000
 11
66.244017957
 21
56.030000000
 31
0.000000000
  0
LINE
  5
B20
330
A02
100
AcDbEntity
  8
ShapeString
100
AcDbLine
 10
65.181964386
 20
55.024285714
 30
0.000000000
 11
65.181964386
 21
56.030000000
 31
0.000000000
  0
SPLINE
  5
B21
330
A02
100
AcDbEntity
  8
ShapeString
100
AcDbSpline
210
0
220
0
230
1
 70
8
 71
2
 72
6
 73
3
 74
0
 40
0.000000000
 40
0.000000000
 40
0.000000000
 40
1.000000000
 40
1.000000000
 40
1.000000000
 10
65.402232243
 20
55.097767857
 30
0.000000000
 10
65.294464386
 20
55.074196429
 30
0.000000000
 10
65.181964386
 20
55.024285714
 30
0.000000000
  0
SPLINE
  5
B22
330
A02
100
AcDbEntity
  8
ShapeString
100
AcDbSpline
210
0
220
0
230
1
 70
8
 71
2
 72
6
 73
3
 74
0
 40
0.000000000
 40
0.000000000
 40
0.000000000
 40
1.000000000
 40
1.000000000
 40
1.000000000
 10
65.618571529
 20
55.121428571
 30
0.000000000
 10
65.510089386
 20
55.121428571
 30
0.000000000
 10
65.402232243
 20
55.097767857
 30
0.000000000
  0
SPLINE
  5
B23
330
A02
100
AcDbEntity
  8
ShapeString
100
AcDbSpline
210
0
220
0
230
1
 70
8
 71
2
 72
6
 73
3
 74
0
 40
0.000000000
 40
0.000000000
 40
0.000000000
 40
1.000000000
 40
1.000000000
 40
1.000000000
 10
65.985535814
 20
54.999910714
 30
0.000000000
 10
65.850267957
 20
55.121428571
 30
0.000000000
 10
65.618571529
 20
55.121428571
 30
0.000000000
  0
SPLINE
  5
B24
330
A02
100
AcDbEntity
  8
ShapeString
100
AcDbSpline
210
0
220
0
230
1
 70
8
 71
2
 72
6
 73
3
 74
0
 40
0.000000000
 40
0.000000000
 40
0.000000000
 40
1.000000000
 40
1.000000000
 40
1.000000000
 10
66.120803671
 20
54.670000000
 30
0.000000000
 10
66.120803671
 20
54.878392857
 30
0.000000000
 10
65.985535814
 20
54.999910714
 30
0.000000000
  0
SPLINE
  5
B25
330
A02
100
AcDbEntity
  8
ShapeString
100
AcDbSpline
210
0
220
0
230
1
 70
8
 71
2
 72
6
 73
3
 74
0
 40
0.000000000
 40
0.000000000
 40
0.000000000
 40
1.000000000
 40
1.000000000
 40
1.000000000
 10
65.985535814
 20
54.340089286
 30
0.000000000
 10
66.120803671
 20
54.461607143
 30
0.000000000
 10
66.120803671
 20
54.670000000
 30
0.000000000
  0
SPLINE
  5
B26
330
A02
100
AcDbEntity
  8
ShapeString
100
AcDbSpline
210
0
220
0
230
1
 70
8
 71
2
 72
6
 73
3
 74
0
 40
0.000000000
 40
0.000000000
 40
0.000000000
 40
1.000000000
 40
1.000000000
 40
1.000000000
 10
65.618571529
 20
54.218571429
 30
0.000000000
 10
65.850267957
 20
54.218571429
 30
0.000000000
 10
65.985535814
 20
54.340089286
 30
0.000000000
  0
SPLINE
  5
B27
330
A02
100
AcDbEntity
  8
ShapeString
100
AcDbSpline
210
0
220
0
230
1
 70
8
 71
2
 72
6
 73
3
 74
0
 40
0.000000000
 40
0.000000000
 40
0.000000000
 40
1.000000000
 40
1.000000000
 40
1.000000000
 10
65.346696529
 20
54.251071429
 30
0.000000000
 10
65.475267957
 20
54.218571429
 30
0.000000000
 10
65.618571529
 20
54.218571429
 30
0.000000000
  0
SPLINE
  5
B28
330
A02
100
AcDbEntity
  8
ShapeString
100
AcDbSpline
210
0
220
0
230
1
 70
8
 71
2
 72
6
 73
3
 74
0
 40
0.000000000
 40
0.000000000
 40
0.000000000
 40
1.000000000
 40
1.000000000
 40
1.000000000
 10
65.097589386
 20
54.350000000
 30
0.000000000
 10
65.218125100
 20
54.283571429
 30
0.000000000
 10
65.346696529
 20
54.251071429
 30
0.000000000
  0
LINE
  5
B29
330
A02
100
AcDbEntity
  8
ShapeString
100
AcDbLine
 10
65.097589386
 20
54.075714286
 30
0.000000000
 11
65.097589386
 21
54.350000000
 31
0.000000000
  0
SPLINE
  5
B2A
330
A02
100
AcDbEntity
  8
ShapeString
100
AcDbSpline
210
0
220
0
230
1
 70
8
 71
2
 72
6
 73
3
 74
0
 40
0.000000000
 40
0.000000000
 40
0.000000000
 40
1.000000000
 40
1.000000000
 40
1.000000000
 10
65.367410814
 20
54.011428571
 30
0.000000000
 10
65.236875100
 20
54.032857143
 30
0.000000000
 10
65.097589386
 20
54.075714286
 30
0.000000000
  0
SPLINE
  5
B2B
330
A02
100
AcDbEntity
  8
ShapeString
100
AcDbSpline
210
0
220
0
230
1
 70
8
 71
2
 72
6
 73
3
 74
0
 40
0.000000000
 40
0.000000000
 40
0.000000000
 40
1.000000000
 40
1.000000000
 40
1.000000000
 10
65.623928671
 20
53.990000000
 30
0.000000000
 10
65.498035814
 20
53.990000000
 30
0.000000000
 10
65.367410814
 20
54.011428571
 30
0.000000000
  0
SPLINE
  5
B2C
330
A02
100
AcDbEntity
  8
ShapeString
100
AcDbSpline
210
0
220
0
230
1
 70
8
 71
2
 72
6
 73
3
 74
0
 40
0.000000000
 40
0.000000000
 40
0.000000000
 40
1.000000000
 40
1.000000000
 40
1.000000000
 10
66.190446529
 20
54.168660714
 30
0.000000000
 10
65.989553671
 20
53.990000000
 30
0.000000000
 10
65.623928671
 20
53.990000000
 30
0.000000000
  0
SPLINE
  5
B2D
330
A02
100
AcDbEntity
  8
ShapeString
100
AcDbSpline
210
0
220
0
230
1
 70
8
 71
2
 72
6
 73
3
 74
0
 40
0.000000000
 40
0.000000000
 40
0.000000000
 40
1.000000000
 40
1.000000000
 40
1.000000000
 10
66.391339386
 20
54.670000000
 30
0.000000000
 10
66.391339386
 20
54.347410714
 30
0.000000000
 10
66.190446529
 20
54.168660714
 30
0.000000000
  0
SPLINE
  5
B2E
330
A02
100
AcDbEntity
  8
ShapeString
100
AcDbSpline
210
0
220
0
230
1
 70
8
 71
2
 72
6
 73
3
 74
0
 40
0.000000000
 40
0.000000000
 40
0.000000000
 40
1.000000000
 40
1.000000000
 40
1.000000000
 10
66.195803671
 20
55.166607143
 30
0.000000000
 10
66.391339386
 20
54.983214286
 30
0.000000000
 10
66.391339386
 20
54.670000000
 30
0.000000000
  0
SPLINE
  5
B2F
330
A02
100
AcDbEntity
  8
ShapeString
100
AcDbSpline
210
0
220
0
230
1
 70
8
 71
2
 72
6
 73
3
 74
0
 40
0.000000000
 40
0.000000000
 40
0.000000000
 40
1.000000000
 40
1.000000000
 40
1.000000000
 10
65.665446529
 20
55.350000000
 30
0.000000000
 10
66.000267957
 20
55.350000000
 30
0.000000000
 10
66.195803671
 20
55.166607143
 30
0.000000000
  0
SPLINE
  5
B30
330
A02
100
AcDbEntity
  8
ShapeString
100
AcDbSpline
210
0
220
0
230
1
 70
8
 71
2
 72
6
 73
3
 74
0
 40
0.000000000
 40
0.000000000
 40
0.000000000
 40
1.000000000
 40
1.000000000
 40
1.000000000
 10
65.547589386
 20
55.339910714
 30
0.000000000
 10
65.606517957
 20
55.350000000
 30
0.000000000
 10
65.665446529
 20
55.350000000
 30
0.000000000
  0
SPLINE
  5
B31
330
A02
100
AcDbEntity
  8
ShapeString
100
AcDbSpline
210
0
220
0
230
1
 70
8
 71
2
 72
6
 73
3
 74
0
 40
0.000000000
 40
0.000000000
 40
0.000000000
 40
1.000000000
 40
1.000000000
 40
1.000000000
 10
65.429732243
 20
55.309642857
 30
0.000000000
 10
65.488660814
 20
55.329821429
 30
0.000000000
 10
65.547589386
 20
55.339910714
 30
0.000000000
  0
LINE
  5
B32
330
A02
100
AcDbEntity
  8
ShapeString
100
AcDbLine
 10
65.429732243
 20
55.801428571
 30
0.000000000
 11
65.429732243
 21
55.309642857
 31
0.000000000
  0
LINE
  5
B33
330
A02
100
AcDbEntity
  8
ShapeString
100
AcDbLine
 10
66.244017957
 20
55.801428571
 30
0.000000000
 11
65.429732243
 21
55.801428571
 31
0.000000000
  0
LINE
  5
B34
330
A02
100
AcDbEntity
  8
ShapeString
100
AcDbLine
 10
66.244017957
 20
56.030000000
 30
0.000000000
 11
66.244017957
 21
55.801428571
 31
0.000000000
  0
LINE
  5
B35
330
A02
100
AcDbEntity
  8
ShapeString
100
AcDbLine
 10
66.898035814
 20
56.030000000
 30
0.000000000
 11
67.508750100
 21
56.030000000
 31
0.000000000
  0
LINE
  5
B36
330
A02
100
AcDbEntity
  8
ShapeString
100
AcDbLine
 10
66.898035814
 20
54.030000000
 30
0.000000000
 11
66.898035814
 21
56.030000000
 31
0.000000000
  0
LINE
  5
B37
330
A02
100
AcDbEntity
  8
ShapeString
100
AcDbLine
 10
67.168571529
 20
54.030000000
 30
0.000000000
 11
66.898035814
 21
54.030000000
 31
0.000000000
  0
LINE
  5
B38
330
A02
100
AcDbEntity
  8
ShapeString
100
AcDbLine
 10
67.168571529
 20
54.835714286
 30
0.000000000
 11
67.168571529
 21
54.030000000
 31
0.000000000
  0
LINE
  5
B39
330
A02
100
AcDbEntity
  8
ShapeString
100
AcDbLine
 10
67.508750100
 20
54.835714286
 30
0.000000000
 11
67.168571529
 21
54.835714286
 31
0.000000000
  0
SPLINE
  5
B3A
330
A02
100
AcDbEntity
  8
ShapeString
100
AcDbSpline
210
0
220
0
230
1
 70
8
 71
2
 72
6
 73
3
 74
0
 40
0.000000000
 40
0.000000000
 40
0.000000000
 40
1.000000000
 40
1.000000000
 40
1.000000000
 10
68.016964386
 20
54.986785714
 30
0.000000000
 10
67.844910814
 20
54.835714286
 30
0.000000000
 10
67.508750100
 20
54.835714286
 30
0.000000000
  0
SPLINE
  5
B3B
330
A02
100
AcDbEntity
  8
ShapeString
100
AcDbSpline
210
0
220
0
230
1
 70
8
 71
2
 72
6
 73
3
 74
0
 40
0.000000000
 40
0.000000000
 40
0.000000000
 40
1.000000000
 40
1.000000000
 40
1.000000000
 10
68.189107243
 20
55.433482143
 30
0.000000000
 10
68.189107243
 20
55.137946429
 30
0.000000000
 10
68.016964386
 20
54.986785714
 30
0.000000000
  0
SPLINE
  5
B3C
330
A02
100
AcDbEntity
  8
ShapeString
100
AcDbSpline
210
0
220
0
230
1
 70
8
 71
2
 72
6
 73
3
 74
0
 40
0.000000000
 40
0.000000000
 40
0.000000000
 40
1.000000000
 40
1.000000000
 40
1.000000000
 10
68.016964386
 20
55.878214286
 30
0.000000000
 10
68.189107243
 20
55.726428571
 30
0.000000000
 10
68.189107243
 20
55.433482143
 30
0.000000000
  0
SPLINE
  5
B3D
330
A02
100
AcDbEntity
  8
ShapeString
100
AcDbSpline
210
0
220
0
230
1
 70
8
 71
2
 72
6
 73
3
 74
0
 40
0.000000000
 40
0.000000000
 40
0.000000000
 40
1.000000000
 40
1.000000000
 40
1.000000000
 10
67.508750100
 20
56.030000000
 30
0.000000000
 10
67.844910814
 20
56.030000000
 30
0.000000000
 10
68.016964386
 20
55.878214286
 30
0.000000000
  0
LINE
  5
B3E
330
A02
100
AcDbEntity
  8
ShapeString
100
AcDbLine
 10
67.168571529
 20
55.807142857
 30
0.000000000
 11
67.168571529
 21
55.058571429
 31
0.000000000
  0
LINE
  5
B3F
330
A02
100
AcDbEntity
  8
ShapeString
100
AcDbLine
 10
67.508750100
 20
55.807142857
 30
0.000000000
 11
67.168571529
 21
55.807142857
 31
0.000000000
  0
SPLINE
  5
B40
330
A02
100
AcDbEntity
  8
ShapeString
100
AcDbSpline
210
0
220
0
230
1
 70
8
 71
2
 72
6
 73
3
 74
0
 40
0.000000000
 40
0.000000000
 40
0.000000000
 40
1.000000000
 40
1.000000000
 40
1.000000000
 10
67.800714386
 20
55.709732143
 30
0.000000000
 10
67.697589386
 20
55.807142857
 30
0.000000000
 10
67.508750100
 20
55.807142857
 30
0.000000000
  0
SPLINE
  5
B41
330
A02
100
AcDbEntity
  8
ShapeString
100
AcDbSpline
210
0
220
0
230
1
 70
8
 71
2
 72
6
 73
3
 74
0
 40
0.000000000
 40
0.000000000
 40
0.000000000
 40
1.000000000
 40
1.000000000
 40
1.000000000
 10
67.903839386
 20
55.433482143
 30
0.000000000
 10
67.903839386
 20
55.612321429
 30
0.000000000
 10
67.800714386
 20
55.709732143
 30
0.000000000
  0
SPLINE
  5
B42
330
A02
100
AcDbEntity
  8
ShapeString
100
AcDbSpline
210
0
220
0
230
1
 70
8
 71
2
 72
6
 73
3
 74
0
 40
0.000000000
 40
0.000000000
 40
0.000000000
 40
1.000000000
 40
1.000000000
 40
1.000000000
 10
67.800714386
 20
55.155982143
 30
0.000000000
 10
67.903839386
 20
55.253392857
 30
0.000000000
 10
67.903839386
 20
55.433482143
 30
0.000000000
  0
SPLINE
  5
B43
330
A02
100
AcDbEntity
  8
ShapeString
100
AcDbSpline
210
0
220
0
230
1
 70
8
 71
2
 72
6
 73
3
 74
0
 40
0.000000000
 40
0.000000000
 40
0.000000000
 40
1.000000000
 40
1.000000000
 40
1.000000000
 10
67.508750100
 20
55.058571429
 30
0.000000000
 10
67.697589386
 20
55.058571429
 30
0.000000000
 10
67.800714386
 20
55.155982143
 30
0.000000000
  0
LINE
  5
B44
330
A02
100
AcDbEntity
  8
ShapeString
100
AcDbLine
 10
67.168571529
 20
55.058571429
 30
0.000000000
 11
67.508750100
 21
55.058571429
 31
0.000000000
  0
ENDSEC
  0
SECTION
  2
OBJECTS
  0
DICTIONARY
  5
F000
330
0
100
AcDbDictionary
  3
ACAD_GROUP
350
F001
  0
DICTIONARY
  5
F001
330
F000
100
AcDbDictionary
  0
ENDSEC
  0
EOF