999
FreeCAD v1.1 44987 (Git)
  0
SECTION
  2
HEADER
  9
$ACADVER
  1
AC1014
  9
$ACADMAINTVER
 70
     9
  9
$DWGCODEPAGE
  3
ANSI_1252
  9
$TEXTSTYLE
  7
STANDARD
  9
$DIMSTYLE
  2
STANDARD
  9
$DIMTXSTY
  7
STANDARD
  9
$CMLSTYLE
  2
STANDARD
  9
$LUNITS
 70
2
  9
$INSUNITS
 70
4
  9
$PEXTMAX
 10
50
 20
50
 30
50
  9
$PEXTMIN
 10
0
 20
0
 30
0
  9
$HANDSEED
  5
FFFF
  0
ENDSEC
  0
SECTION
  2
CLASSES
  0
CLASS
  1
ACDBDICTIONARYWDFLT
  2
AcDbDictionaryWithDefault
  3
ObjectDBX Classes
 90
        0
280
     0
281
     0
  0
CLASS
  1
XRECORD
  2
AcDbXrecord
  3
ObjectDBX Classes
 90
        0
280
     0
281
     0
  0
CLASS
  1
LWPOLYLINE
  2
AcDbPolyline
  3
ObjectDBX Classes
 90
        0
280
     0
281
     1
  0
ENDSEC
  0
SECTION
  2
TABLES
  0
TABLE
  2
VPORT
  5
20
330
0
100
AcDbSymbolTable
 70
     1
  0
VPORT
  5
21
330
20
100
AcDbSymbolTableRecord
100
AcDbViewportTableRecord
  2
*ACTIVE
 70
     0
  0
ENDTAB
  0
TABLE
  2
LTYPE
  5
22
330
0
100
AcDbSymbolTable
 70
     1
  0
LTYPE
  5
23
330
21
100
AcDbSymbolTableRecord
100
AcDbLinetypeTableRecord
  2
BYBLOCK
 70
     0
  3

 72
    65
 73
     0
 40
0.0
  0
LTYPE
  5
24
330
21
100
AcDbSymbolTableRecord
100
AcDbLinetypeTableRecord
  2
BYLAYER
 70
     0
  3

 72
    65
 73
     0
 40
0.0
  0
LTYPE
  5
25
330
21
100
AcDbSymbolTableRecord
100
AcDbLinetypeTableRecord
  2
CONTINUOUS
 70
     0
  3
Solid line
 72
    65
 73
     0
 40
0.0
  0
ENDTAB
  0
TABLE
  2
LAYER
  5
BFE
330
0
100
AcDbSymbolTable
 70
46
  0
LAYER
  5
BFF
330
BFE
100
AcDbSymbolTableRecord
100
AcDbLayerTableRecord
  2
0
 70
   0
 62
   7
  6
CONTINUOUS
  0
LAYER
  5
C00
330
BFE
100
AcDbSymbolTableRecord
100
AcDbLayerTableRecord
  2
none
 70
    0
 62
    7
  6
CONTINUOUS
  0
LAYER
  5
C01
330
BFE
100
AcDbSymbolTableRecord
100
AcDbLayerTableRecord
  2
PLATE_OUTLINE
 70
    0
 62
    7
  6
CONTINUOUS
  0
LAYER
  5
C02
330
BFE
100
AcDbSymbolTableRecord
100
AcDbLayerTableRecord
  2
ANNO_40P_BODY
 70
    0
 62
    7
  6
CONTINUOUS
  0
LAYER
  5
C03
330
BFE
100
AcDbSymbolTableRecord
100
AcDbLayerTableRecord
  2
ANNO_40P_PAD_00_0
 70
    0
 62
    7
  6
CONTINUOUS
  0
LAYER
  5
C04
330
BFE
100
AcDbSymbolTableRecord
100
AcDbLayerTableRecord
  2
ANNO_40P_PAD_00_1
 70
    0
 62
    7
  6
CONTINUOUS
  0
LAYER
  5
C05
330
BFE
100
AcDbSymbolTableRecord
100
AcDbLayerTableRecord
  2
ANNO_40P_PAD_01_0
 70
    0
 62
    7
  6
CONTINUOUS
  0
LAYER
  5
C06
330
BFE
100
AcDbSymbolTableRecord
100
AcDbLayerTableRecord
  2
ANNO_40P_PAD_01_1
 70
    0
 62
    7
  6
CONTINUOUS
  0
LAYER
  5
C07
330
BFE
100
AcDbSymbolTableRecord
100
AcDbLayerTableRecord
  2
ANNO_40P_PAD_02_0
 70
    0
 62
    7
  6
CONTINUOUS
  0
LAYER
  5
C08
330
BFE
100
AcDbSymbolTableRecord
100
AcDbLayerTableRecord
  2
ANNO_40P_PAD_02_1
 70
    0
 62
    7
  6
CONTINUOUS
  0
LAYER
  5
C09
330
BFE
100
AcDbSymbolTableRecord
100
AcDbLayerTableRecord
  2
ANNO_40P_PAD_03_0
 70
    0
 62
    7
  6
CONTINUOUS
  0
LAYER
  5
C0A
330
BFE
100
AcDbSymbolTableRecord
100
AcDbLayerTableRecord
  2
ANNO_40P_PAD_03_1
 70
    0
 62
    7
  6
CONTINUOUS
  0
LAYER
  5
C0B
330
BFE
100
AcDbSymbolTableRecord
100
AcDbLayerTableRecord
  2
ANNO_40P_PAD_04_0
 70
    0
 62
    7
  6
CONTINUOUS
  0
LAYER
  5
C0C
330
BFE
100
AcDbSymbolTableRecord
100
AcDbLayerTableRecord
  2
ANNO_40P_PAD_04_1
 70
    0
 62
    7
  6
CONTINUOUS
  0
LAYER
  5
C0D
330
BFE
100
AcDbSymbolTableRecord
100
AcDbLayerTableRecord
  2
ANNO_40P_PAD_05_0
 70
    0
 62
    7
  6
CONTINUOUS
  0
LAYER
  5
C0E
330
BFE
100
AcDbSymbolTableRecord
100
AcDbLayerTableRecord
  2
ANNO_40P_PAD_05_1
 70
    0
 62
    7
  6
CONTINUOUS
  0
LAYER
  5
C0F
330
BFE
100
AcDbSymbolTableRecord
100
AcDbLayerTableRecord
  2
ANNO_40P_PAD_06_0
 70
    0
 62
    7
  6
CONTINUOUS
  0
LAYER
  5
C10
330
BFE
100
AcDbSymbolTableRecord
100
AcDbLayerTableRecord
  2
ANNO_40P_PAD_06_1
 70
    0
 62
    7
  6
CONTINUOUS
  0
LAYER
  5
C11
330
BFE
100
AcDbSymbolTableRecord
100
AcDbLayerTableRecord
  2
ANNO_40P_PAD_07_0
 70
    0
 62
    7
  6
CONTINUOUS
  0
LAYER
  5
C12
330
BFE
100
AcDbSymbolTableRecord
100
AcDbLayerTableRecord
  2
ANNO_40P_PAD_07_1
 70
    0
 62
    7
  6
CONTINUOUS
  0
LAYER
  5
C13
330
BFE
100
AcDbSymbolTableRecord
100
AcDbLayerTableRecord
  2
ANNO_40P_PAD_08_0
 70
    0
 62
    7
  6
CONTINUOUS
  0
LAYER
  5
C14
330
BFE
100
AcDbSymbolTableRecord
100
AcDbLayerTableRecord
  2
ANNO_40P_PAD_08_1
 70
    0
 62
    7
  6
CONTINUOUS
  0
LAYER
  5
C15
330
BFE
100
AcDbSymbolTableRecord
100
AcDbLayerTableRecord
  2
ANNO_40P_PAD_09_0
 70
    0
 62
    7
  6
CONTINUOUS
  0
LAYER
  5
C16
330
BFE
100
AcDbSymbolTableRecord
100
AcDbLayerTableRecord
  2
ANNO_40P_PAD_09_1
 70
    0
 62
    7
  6
CONTINUOUS
  0
LAYER
  5
C17
330
BFE
100
AcDbSymbolTableRecord
100
AcDbLayerTableRecord
  2
ANNO_40P_PAD_10_0
 70
    0
 62
    7
  6
CONTINUOUS
  0
LAYER
  5
C18
330
BFE
100
AcDbSymbolTableRecord
100
AcDbLayerTableRecord
  2
ANNO_40P_PAD_10_1
 70
    0
 62
    7
  6
CONTINUOUS
  0
LAYER
  5
C19
330
BFE
100
AcDbSymbolTableRecord
100
AcDbLayerTableRecord
  2
ANNO_40P_PAD_11_0
 70
    0
 62
    7
  6
CONTINUOUS
  0
LAYER
  5
C1A
330
BFE
100
AcDbSymbolTableRecord
100
AcDbLayerTableRecord
  2
ANNO_40P_PAD_11_1
 70
    0
 62
    7
  6
CONTINUOUS
  0
LAYER
  5
C1B
330
BFE
100
AcDbSymbolTableRecord
100
AcDbLayerTableRecord
  2
ANNO_40P_PAD_12_0
 70
    0
 62
    7
  6
CONTINUOUS
  0
LAYER
  5
C1C
330
BFE
100
AcDbSymbolTableRecord
100
AcDbLayerTableRecord
  2
ANNO_40P_PAD_12_1
 70
    0
 62
    7
  6
CONTINUOUS
  0
LAYER
  5
C1D
330
BFE
100
AcDbSymbolTableRecord
100
AcDbLayerTableRecord
  2
ANNO_40P_PAD_13_0
 70
    0
 62
    7
  6
CONTINUOUS
  0
LAYER
  5
C1E
330
BFE
100
AcDbSymbolTableRecord
100
AcDbLayerTableRecord
  2
ANNO_40P_PAD_13_1
 70
    0
 62
    7
  6
CONTINUOUS
  0
LAYER
  5
C1F
330
BFE
100
AcDbSymbolTableRecord
100
AcDbLayerTableRecord
  2
ANNO_40P_PAD_14_0
 70
    0
 62
    7
  6
CONTINUOUS
  0
LAYER
  5
C20
330
BFE
100
AcDbSymbolTableRecord
100
AcDbLayerTableRecord
  2
ANNO_40P_PAD_14_1
 70
    0
 62
    7
  6
CONTINUOUS
  0
LAYER
  5
C21
330
BFE
100
AcDbSymbolTableRecord
100
AcDbLayerTableRecord
  2
ANNO_40P_PAD_15_0
 70
    0
 62
    7
  6
CONTINUOUS
  0
LAYER
  5
C22
330
BFE
100
AcDbSymbolTableRecord
100
AcDbLayerTableRecord
  2
ANNO_40P_PAD_15_1
 70
    0
 62
    7
  6
CONTINUOUS
  0
LAYER
  5
C23
330
BFE
100
AcDbSymbolTableRecord
100
AcDbLayerTableRecord
  2
ANNO_40P_PAD_16_0
 70
    0
 62
    7
  6
CONTINUOUS
  0
LAYER
  5
C24
330
BFE
100
AcDbSymbolTableRecord
100
AcDbLayerTableRecord
  2
ANNO_40P_PAD_16_1
 70
    0
 62
    7
  6
CONTINUOUS
  0
LAYER
  5
C25
330
BFE
100
AcDbSymbolTableRecord
100
AcDbLayerTableRecord
  2
ANNO_40P_PAD_17_0
 70
    0
 62
    7
  6
CONTINUOUS
  0
LAYER
  5
C26
330
BFE
100
AcDbSymbolTableRecord
100
AcDbLayerTableRecord
  2
ANNO_40P_PAD_17_1
 70
    0
 62
    7
  6
CONTINUOUS
  0
LAYER
  5
C27
330
BFE
100
AcDbSymbolTableRecord
100
AcDbLayerTableRecord
  2
ANNO_40P_PAD_18_0
 70
    0
 62
    7
  6
CONTINUOUS
  0
LAYER
  5
C28
330
BFE
100
AcDbSymbolTableRecord
100
AcDbLayerTableRecord
  2
ANNO_40P_PAD_18_1
 70
    0
 62
    7
  6
CONTINUOUS
  0
LAYER
  5
C29
330
BFE
100
AcDbSymbolTableRecord
100
AcDbLayerTableRecord
  2
ANNO_40P_PAD_19_0
 70
    0
 62
    7
  6
CONTINUOUS
  0
LAYER
  5
C2A
330
BFE
100
AcDbSymbolTableRecord
100
AcDbLayerTableRecord
  2
ANNO_40P_PAD_19_1
 70
    0
 62
    7
  6
CONTINUOUS
  0
LAYER
  5
C2B
330
BFE
100
AcDbSymbolTableRecord
100
AcDbLayerTableRecord
  2
ANNO_40P_PIN1_BOX
 70
    0
 62
    7
  6
CONTINUOUS
  0
LAYER
  5
C2C
330
BFE
100
AcDbSymbolTableRecord
100
AcDbLayerTableRecord
  2
ShapeString
 70
    0
 62
    7
  6
CONTINUOUS
  0
ENDTAB
  0
TABLE
  2
STYLE
  5
70
330
0
100
AcDbSymbolTable
 70
     2
  0
STYLE
  5
71
330
70
100
AcDbSymbolTableRecord
100
AcDbTextStyleTableRecord
  2
STANDARD
 70
     0
 40
0.0
 41
1.0
 50
0.0
 71
     0
 42
2.5
  3
arial.ttf
  4

  0
STYLE
  5
72
330
70
100
AcDbSymbolTableRecord
100
AcDbTextStyleTableRecord
  2
ANNOTATIVE
 70
     0
 40
0.0
 41
1.0
 50
0.0
 71
     0
 42
2.5
  3
arial.ttf
  4

  0
ENDTAB
  0
TABLE
  2
VIEW
  5
73
330
0
100
AcDbSymbolTable
 70
     0
  0
ENDTAB
  0
TABLE
  2
UCS
  5
74
330
0
100
AcDbSymbolTable
 70
     0
  0
ENDTAB
  0
TABLE
  2
APPID
  5
75
330
0
100
AcDbSymbolTable
 70
     2
  0
APPID
  5
76
330
75
100
AcDbSymbolTableRecord
100
AcDbRegAppTableRecord
  2
ACAD
 70
     0
  0
APPID
  5
77
330
75
100
AcDbSymbolTableRecord
100
AcDbRegAppTableRecord
  2
ACADANNOTATIVE
 70
     0
  0
ENDTAB
  0
TABLE
  2
DIMSTYLE
  5
78
330
0
100
AcDbSymbolTable
 70
     2
  0
DIMSTYLE
105
79
330
78
100
AcDbSymbolTableRecord
100
AcDbDimStyleTableRecord
  2
STANDARD
 70
     0
  3

  4

  5

  6

  7

 40
0.0
 41
2.5
 42
0.625
 43
3.75
 44
1.25
 45
0.0
 46
0.0
 47
0.0
 48
0.0
140
2.5
141
2.5
142
0.0
143
0.03937007874016
144
1.0
145
0.0
146
1.0
147
0.625
 71
     0
 72
     0
 73
     0
 74
     0
 75
     0
 76
     0
 77
     1
 78
     8
170
     0
171
     3
172
     1
173
     0
174
     0
175
     0
176
     0
177
     0
178
     0
270
     2
271
     2
272
     2
273
     2
274
     3
340
71
275
     0
280
     0
281
     0
282
     0
283
     0
284
     8
285
     0
286
     0
287
     3
288
     0
  0
ENDTAB
  0
TABLE
  2
BLOCK_RECORD
  5
A01
330
0
100
AcDbSymbolTable
  70
5
  0
BLOCK_RECORD
  5
A02
330
A01
100
AcDbSymbolTableRecord
100
AcDbBlockTableRecord
  2
*MODEL_SPACE
  0
BLOCK_RECORD
  5
A03
330
A01
100
AcDbSymbolTableRecord
100
AcDbBlockTableRecord
  2
*PAPER_SPACE
  0
ENDTAB
  0
ENDSEC
  0
SECTION
  2
BLOCKS
  0
BLOCK
  5
A04
330
A02
100
AcDbEntity
  8
0
100
AcDbBlockBegin
  2
*MODEL_SPACE
 70
   0
 10
0
 20
0
 30
0
  3
*MODEL_SPACE
  1
 
  0
ENDBLK
  5
A05
330
A02
100
AcDbEntity
  8
0
100
AcDbBlockEnd
  0
BLOCK
  5
A06
330
A03
100
AcDbEntity
 67
1
  8
0
100
AcDbBlockBegin
  2
*PAPER_SPACE
 70
   0
 10
0
 20
0
 30
0
  3
*PAPER_SPACE
  1
 
  0
ENDBLK
  5
A07
330
A03
100
AcDbEntity
 67
    1
  8
0
100
AcDbBlockEnd
  0
ENDSEC
  0
SECTION
  2
ENTITIES
  0
LINE
  5
A08
330
A02
100
AcDbEntity
  8
PLATE_OUTLINE
100
AcDbLine
 10
18.400000000
 20
-0.000000000
 30
1.600000000
 11
18.400000000
 21
51.100000000
 31
1.600000000
  0
LINE
  5
A09
330
A02
100
AcDbEntity
  8
PLATE_OUTLINE
100
AcDbLine
 10
18.400000000
 20
0.000000000
 30
1.600000000
 11
83.500000000
 21
0.000000000
 31
1.600000000
  0
LINE
  5
A0A
330
A02
100
AcDbEntity
  8
PLATE_OUTLINE
100
AcDbLine
 10
18.500000000
 20
51.000000000
 30
1.600000000
 11
18.400000000
 21
51.100000000
 31
1.600000000
  0
ARC
  5
A0B
330
A02
100
AcDbEntity
  8
PLATE_OUTLINE
100
AcDbCircle
 10
83.500000000
 20
1.500000000
 30
1.600000000
 40
1.500000000
100
AcDbArc
 50
-90.000000000
 51
0.000000000
  0
LINE
  5
A0C
330
A02
100
AcDbEntity
  8
PLATE_OUTLINE
100
AcDbLine
 10
20.000000000
 20
52.500000000
 30
1.600000000
 11
18.500000000
 21
51.000000000
 31
1.600000000
  0
LINE
  5
A0D
330
A02
100
AcDbEntity
  8
PLATE_OUTLINE
100
AcDbLine
 10
85.000000000
 20
1.500000000
 30
1.600000000
 11
85.000000000
 21
54.500000000
 31
1.600000000
  0
LINE
  5
A0E
330
A02
100
AcDbEntity
  8
PLATE_OUTLINE
100
AcDbLine
 10
20.000000000
 20
55.000000000
 30
1.600000000
 11
20.000000000
 21
52.500000000
 31
1.600000000
  0
ARC
  5
A0F
330
A02
100
AcDbEntity
  8
PLATE_OUTLINE
100
AcDbCircle
 10
83.500000000
 20
54.500000000
 30
1.600000000
 40
1.500000000
100
AcDbArc
 50
0.000000000
 51
90.000000000
  0
LINE
  5
A10
330
A02
100
AcDbEntity
  8
PLATE_OUTLINE
100
AcDbLine
 10
21.000000000
 20
56.000000000
 30
1.600000000
 11
20.000000000
 21
55.000000000
 31
1.600000000
  0
LINE
  5
A11
330
A02
100
AcDbEntity
  8
PLATE_OUTLINE
100
AcDbLine
 10
21.000000000
 20
56.000000000
 30
1.600000000
 11
83.500000000
 21
56.000000000
 31
1.600000000
  0
CIRCLE
  5
A12
330
A02
100
AcDbEntity
  8
PLATE_OUTLINE
100
AcDbCircle
 10
23.500000000
 20
3.500000000
 30
1.600000000
 40
1.350000000
  0
CIRCLE
  5
A13
330
A02
100
AcDbEntity
  8
PLATE_OUTLINE
100
AcDbCircle
 10
51.000000000
 20
24.700000000
 30
1.600000000
 40
0.900000000
  0
CIRCLE
  5
A14
330
A02
100
AcDbEntity
  8
PLATE_OUTLINE
100
AcDbCircle
 10
81.500000000
 20
3.500000000
 30
1.600000000
 40
1.350000000
  0
LINE
  5
A15
330
A02
100
AcDbEntity
  8
PLATE_OUTLINE
100
AcDbLine
 10
84.000000000
 20
8.000000000
 30
1.600000000
 11
68.000000000
 21
8.000000000
 31
1.600000000
  0
LINE
  5
A16
330
A02
100
AcDbEntity
  8
PLATE_OUTLINE
100
AcDbLine
 10
84.000000000
 20
8.000000000
 30
1.600000000
 11
84.000000000
 21
20.000000000
 31
1.600000000
  0
LINE
  5
A17
330
A02
100
AcDbEntity
  8
PLATE_OUTLINE
100
AcDbLine
 10
68.000000000
 20
8.000000000
 30
1.600000000
 11
68.000000000
 21
20.000000000
 31
1.600000000
  0
LINE
  5
A18
330
A02
100
AcDbEntity
  8
PLATE_OUTLINE
100
AcDbLine
 10
84.000000000
 20
20.000000000
 30
1.600000000
 11
68.000000000
 21
20.000000000
 31
1.600000000
  0
CIRCLE
  5
A19
330
A02
100
AcDbEntity
  8
PLATE_OUTLINE
100
AcDbCircle
 10
66.000000000
 20
24.700000000
 30
1.600000000
 40
0.900000000
  0
CIRCLE
  5
A1A
330
A02
100
AcDbEntity
  8
PLATE_OUTLINE
100
AcDbCircle
 10
51.000000000
 20
39.700000000
 30
1.600000000
 40
0.900000000
  0
CIRCLE
  5
A1B
330
A02
100
AcDbEntity
  8
PLATE_OUTLINE
100
AcDbCircle
 10
23.500000000
 20
52.500000000
 30
1.600000000
 40
1.350000000
  0
CIRCLE
  5
A1C
330
A02
100
AcDbEntity
  8
PLATE_OUTLINE
100
AcDbCircle
 10
34.600000000
 20
48.800000000
 30
1.600000000
 40
1.100000000
  0
CIRCLE
  5
A1D
330
A02
100
AcDbEntity
  8
PLATE_OUTLINE
100
AcDbCircle
 10
44.400000000
 20
48.800000000
 30
1.600000000
 40
1.100000000
  0
CIRCLE
  5
A1E
330
A02
100
AcDbEntity
  8
PLATE_OUTLINE
100
AcDbCircle
 10
58.500000000
 20
32.200000000
 30
1.600000000
 40
8.000000000
  0
CIRCLE
  5
A1F
330
A02
100
AcDbEntity
  8
PLATE_OUTLINE
100
AcDbCircle
 10
66.000000000
 20
39.700000000
 30
1.600000000
 40
0.900000000
  0
CIRCLE
  5
A20
330
A02
100
AcDbEntity
  8
PLATE_OUTLINE
100
AcDbCircle
 10
81.500000000
 20
52.500000000
 30
1.600000000
 40
1.350000000
  0
LINE
  5
A21
330
A02
100
AcDbEntity
  8
ANNO_40P_BODY
100
AcDbLine
 10
27.250000000
 20
0.510000000
 30
0.000000000
 11
78.050000000
 21
0.510000000
 31
0.000000000
  0
LINE
  5
A22
330
A02
100
AcDbEntity
  8
ANNO_40P_BODY
100
AcDbLine
 10
78.050000000
 20
0.510000000
 30
0.000000000
 11
78.050000000
 21
5.590000000
 31
0.000000000
  0
LINE
  5
A23
330
A02
100
AcDbEntity
  8
ANNO_40P_BODY
100
AcDbLine
 10
78.050000000
 20
5.590000000
 30
0.000000000
 11
27.250000000
 21
5.590000000
 31
0.000000000
  0
LINE
  5
A24
330
A02
100
AcDbEntity
  8
ANNO_40P_BODY
100
AcDbLine
 10
27.250000000
 20
5.590000000
 30
0.000000000
 11
27.250000000
 21
0.510000000
 31
0.000000000
  0
CIRCLE
  5
A25
330
A02
100
AcDbEntity
  8
ANNO_40P_PAD_00_0
100
AcDbCircle
 10
28.520000000
 20
1.780000000
 30
0.000000000
 40
0.850000000
  0
CIRCLE
  5
A26
330
A02
100
AcDbEntity
  8
ANNO_40P_PAD_00_1
100
AcDbCircle
 10
28.520000000
 20
4.320000000
 30
0.000000000
 40
0.850000000
  0
CIRCLE
  5
A27
330
A02
100
AcDbEntity
  8
ANNO_40P_PAD_01_0
100
AcDbCircle
 10
31.060000000
 20
1.780000000
 30
0.000000000
 40
0.850000000
  0
CIRCLE
  5
A28
330
A02
100
AcDbEntity
  8
ANNO_40P_PAD_01_1
100
AcDbCircle
 10
31.060000000
 20
4.320000000
 30
0.000000000
 40
0.850000000
  0
CIRCLE
  5
A29
330
A02
100
AcDbEntity
  8
ANNO_40P_PAD_02_0
100
AcDbCircle
 10
33.600000000
 20
1.780000000
 30
0.000000000
 40
0.850000000
  0
CIRCLE
  5
A2A
330
A02
100
AcDbEntity
  8
ANNO_40P_PAD_02_1
100
AcDbCircle
 10
33.600000000
 20
4.320000000
 30
0.000000000
 40
0.850000000
  0
CIRCLE
  5
A2B
330
A02
100
AcDbEntity
  8
ANNO_40P_PAD_03_0
100
AcDbCircle
 10
36.140000000
 20
1.780000000
 30
0.000000000
 40
0.850000000
  0
CIRCLE
  5
A2C
330
A02
100
AcDbEntity
  8
ANNO_40P_PAD_03_1
100
AcDbCircle
 10
36.140000000
 20
4.320000000
 30
0.000000000
 40
0.850000000
  0
CIRCLE
  5
A2D
330
A02
100
AcDbEntity
  8
ANNO_40P_PAD_04_0
100
AcDbCircle
 10
38.680000000
 20
1.780000000
 30
0.000000000
 40
0.850000000
  0
CIRCLE
  5
A2E
330
A02
100
AcDbEntity
  8
ANNO_40P_PAD_04_1
100
AcDbCircle
 10
38.680000000
 20
4.320000000
 30
0.000000000
 40
0.850000000
  0
CIRCLE
  5
A2F
330
A02
100
AcDbEntity
  8
ANNO_40P_PAD_05_0
100
AcDbCircle
 10
41.220000000
 20
1.780000000
 30
0.000000000
 40
0.850000000
  0
CIRCLE
  5
A30
330
A02
100
AcDbEntity
  8
ANNO_40P_PAD_05_1
100
AcDbCircle
 10
41.220000000
 20
4.320000000
 30
0.000000000
 40
0.850000000
  0
CIRCLE
  5
A31
330
A02
100
AcDbEntity
  8
ANNO_40P_PAD_06_0
100
AcDbCircle
 10
43.760000000
 20
1.780000000
 30
0.000000000
 40
0.850000000
  0
CIRCLE
  5
A32
330
A02
100
AcDbEntity
  8
ANNO_40P_PAD_06_1
100
AcDbCircle
 10
43.760000000
 20
4.320000000
 30
0.000000000
 40
0.850000000
  0
CIRCLE
  5
A33
330
A02
100
AcDbEntity
  8
ANNO_40P_PAD_07_0
100
AcDbCircle
 10
46.300000000
 20
1.780000000
 30
0.000000000
 40
0.850000000
  0
CIRCLE
  5
A34
330
A02
100
AcDbEntity
  8
ANNO_40P_PAD_07_1
100
AcDbCircle
 10
46.300000000
 20
4.320000000
 30
0.000000000
 40
0.850000000
  0
CIRCLE
  5
A35
330
A02
100
AcDbEntity
  8
ANNO_40P_PAD_08_0
100
AcDbCircle
 10
48.840000000
 20
1.780000000
 30
0.000000000
 40
0.850000000
  0
CIRCLE
  5
A36
330
A02
100
AcDbEntity
  8
ANNO_40P_PAD_08_1
100
AcDbCircle
 10
48.840000000
 20
4.320000000
 30
0.000000000
 40
0.850000000
  0
CIRCLE
  5
A37
330
A02
100
AcDbEntity
  8
ANNO_40P_PAD_09_0
100
AcDbCircle
 10
51.380000000
 20
1.780000000
 30
0.000000000
 40
0.850000000
  0
CIRCLE
  5
A38
330
A02
100
AcDbEntity
  8
ANNO_40P_PAD_09_1
100
AcDbCircle
 10
51.380000000
 20
4.320000000
 30
0.000000000
 40
0.850000000
  0
CIRCLE
  5
A39
330
A02
100
AcDbEntity
  8
ANNO_40P_PAD_10_0
100
AcDbCircle
 10
53.920000000
 20
1.780000000
 30
0.000000000
 40
0.850000000
  0
CIRCLE
  5
A3A
330
A02
100
AcDbEntity
  8
ANNO_40P_PAD_10_1
100
AcDbCircle
 10
53.920000000
 20
4.320000000
 30
0.000000000
 40
0.850000000
  0
CIRCLE
  5
A3B
330
A02
100
AcDbEntity
  8
ANNO_40P_PAD_11_0
100
AcDbCircle
 10
56.460000000
 20
1.780000000
 30
0.000000000
 40
0.850000000
  0
CIRCLE
  5
A3C
330
A02
100
AcDbEntity
  8
ANNO_40P_PAD_11_1
100
AcDbCircle
 10
56.460000000
 20
4.320000000
 30
0.000000000
 40
0.850000000
  0
CIRCLE
  5
A3D
330
A02
100
AcDbEntity
  8
ANNO_40P_PAD_12_0
100
AcDbCircle
 10
59.000000000
 20
1.780000000
 30
0.000000000
 40
0.850000000
  0
CIRCLE
  5
A3E
330
A02
100
AcDbEntity
  8
ANNO_40P_PAD_12_1
100
AcDbCircle
 10
59.000000000
 20
4.320000000
 30
0.000000000
 40
0.850000000
  0
CIRCLE
  5
A3F
330
A02
100
AcDbEntity
  8
ANNO_40P_PAD_13_0
100
AcDbCircle
 10
61.540000000
 20
1.780000000
 30
0.000000000
 40
0.850000000
  0
CIRCLE
  5
A40
330
A02
100
AcDbEntity
  8
ANNO_40P_PAD_13_1
100
AcDbCircle
 10
61.540000000
 20
4.320000000
 30
0.000000000
 40
0.850000000
  0
CIRCLE
  5
A41
330
A02
100
AcDbEntity
  8
ANNO_40P_PAD_14_0
100
AcDbCircle
 10
64.080000000
 20
1.780000000
 30
0.000000000
 40
0.850000000
  0
CIRCLE
  5
A42
330
A02
100
AcDbEntity
  8
ANNO_40P_PAD_14_1
100
AcDbCircle
 10
64.080000000
 20
4.320000000
 30
0.000000000
 40
0.850000000
  0
CIRCLE
  5
A43
330
A02
100
AcDbEntity
  8
ANNO_40P_PAD_15_0
100
AcDbCircle
 10
66.620000000
 20
1.780000000
 30
0.000000000
 40
0.850000000
  0
CIRCLE
  5
A44
330
A02
100
AcDbEntity
  8
ANNO_40P_PAD_15_1
100
AcDbCircle
 10
66.620000000
 20
4.320000000
 30
0.000000000
 40
0.850000000
  0
CIRCLE
  5
A45
330
A02
100
AcDbEntity
  8
ANNO_40P_PAD_16_0
100
AcDbCircle
 10
69.160000000
 20
1.780000000
 30
0.000000000
 40
0.850000000
  0
CIRCLE
  5
A46
330
A02
100
AcDbEntity
  8
ANNO_40P_PAD_16_1
100
AcDbCircle
 10
69.160000000
 20
4.320000000
 30
0.000000000
 40
0.850000000
  0
CIRCLE
  5
A47
330
A02
100
AcDbEntity
  8
ANNO_40P_PAD_17_0
100
AcDbCircle
 10
71.700000000
 20
1.780000000
 30
0.000000000
 40
0.850000000
  0
CIRCLE
  5
A48
330
A02
100
AcDbEntity
  8
ANNO_40P_PAD_17_1
100
AcDbCircle
 10
71.700000000
 20
4.320000000
 30
0.000000000
 40
0.850000000
  0
CIRCLE
  5
A49
330
A02
100
AcDbEntity
  8
ANNO_40P_PAD_18_0
100
AcDbCircle
 10
74.240000000
 20
1.780000000
 30
0.000000000
 40
0.850000000
  0
CIRCLE
  5
A4A
330
A02
100
AcDbEntity
  8
ANNO_40P_PAD_18_1
100
AcDbCircle
 10
74.240000000
 20
4.320000000
 30
0.000000000
 40
0.850000000
  0
CIRCLE
  5
A4B
330
A02
100
AcDbEntity
  8
ANNO_40P_PAD_19_0
100
AcDbCircle
 10
76.780000000
 20
1.780000000
 30
0.000000000
 40
0.850000000
  0
CIRCLE
  5
A4C
330
A02
100
AcDbEntity
  8
ANNO_40P_PAD_19_1
100
AcDbCircle
 10
76.780000000
 20
4.320000000
 30
0.000000000
 40
0.850000000
  0
LINE
  5
A4D
330
A02
100
AcDbEntity
  8
ANNO_40P_PIN1_BOX
100
AcDbLine
 10
75.180000000
 20
0.510000000
 30
0.000000000
 11
78.380000000
 21
0.510000000
 31
0.000000000
  0
LINE
  5
A4E
330
A02
100
AcDbEntity
  8
ANNO_40P_PIN1_BOX
100
AcDbLine
 10
78.380000000
 20
0.510000000
 30
0.000000000
 11
78.380000000
 21
5.590000000
 31
0.000000000
  0
LINE
  5
A4F
330
A02
100
AcDbEntity
  8
ANNO_40P_PIN1_BOX
100
AcDbLine
 10
78.380000000
 20
5.590000000
 30
0.000000000
 11
75.180000000
 21
5.590000000
 31
0.000000000
  0
LINE
  5
A50
330
A02
100
AcDbEntity
  8
ANNO_40P_PIN1_BOX
100
AcDbLine
 10
75.180000000
 20
5.590000000
 30
0.000000000
 11
75.180000000
 21
0.510000000
 31
0.000000000
  0
LINE
  5
A51
330
A02
100
AcDbEntity
  8
ShapeString
100
AcDbLine
 10
27.289620536
 20
10.090000000
 30
0.000000000
 11
27.714843750
 21
10.090000000
 31
0.000000000
  0
LINE
  5
A52
330
A02
100
AcDbEntity
  8
ShapeString
100
AcDbLine
 10
26.250000000
 20
8.508750000
 30
0.000000000
 11
27.289620536
 21
10.090000000
 31
0.000000000
  0
LINE
  5
A53
330
A02
100
AcDbEntity
  8
ShapeString
100
AcDbLine
 10
26.250000000
 20
8.182857143
 30
0.000000000
 11
26.250000000
 21
8.508750000
 31
0.000000000
  0
LINE
  5
A54
330
A02
100
AcDbEntity
  8
ShapeString
100
AcDbLine
 10
27.378348214
 20
8.182857143
 30
0.000000000
 11
26.250000000
 21
8.182857143
 31
0.000000000
  0
LINE
  5
A55
330
A02
100
AcDbEntity
  8
ShapeString
100
AcDbLine
 10
27.378348214
 20
7.590000000
 30
0.000000000
 11
27.378348214
 21
8.182857143
 31
0.000000000
  0
LINE
  5
A56
330
A02
100
AcDbEntity
  8
ShapeString
100
AcDbLine
 10
27.714843750
 20
7.590000000
 30
0.000000000
 11
27.378348214
 21
7.590000000
 31
0.000000000
  0
LINE
  5
A57
330
A02
100
AcDbEntity
  8
ShapeString
100
AcDbLine
 10
27.714843750
 20
8.182857143
 30
0.000000000
 11
27.714843750
 21
7.590000000
 31
0.000000000
  0
LINE
  5
A58
330
A02
100
AcDbEntity
  8
ShapeString
100
AcDbLine
 10
28.071428571
 20
8.182857143
 30
0.000000000
 11
27.714843750
 21
8.182857143
 31
0.000000000
  0
LINE
  5
A59
330
A02
100
AcDbEntity
  8
ShapeString
100
AcDbLine
 10
28.071428571
 20
8.461428571
 30
0.000000000
 11
28.071428571
 21
8.182857143
 31
0.000000000
  0
LINE
  5
A5A
330
A02
100
AcDbEntity
  8
ShapeString
100
AcDbLine
 10
27.714843750
 20
8.461428571
 30
0.000000000
 11
28.071428571
 21
8.461428571
 31
0.000000000
  0
LINE
  5
A5B
330
A02
100
AcDbEntity
  8
ShapeString
100
AcDbLine
 10
27.714843750
 20
10.090000000
 30
0.000000000
 11
27.714843750
 21
8.461428571
 31
0.000000000
  0
LINE
  5
A5C
330
A02
100
AcDbEntity
  8
ShapeString
100
AcDbLine
 10
27.378348214
 20
9.795468750
 30
0.000000000
 11
26.524553571
 21
8.461428571
 31
0.000000000
  0
LINE
  5
A5D
330
A02
100
AcDbEntity
  8
ShapeString
100
AcDbLine
 10
27.378348214
 20
8.461428571
 30
0.000000000
 11
27.378348214
 21
9.795468750
 31
0.000000000
  0
LINE
  5
A5E
330
A02
100
AcDbEntity
  8
ShapeString
100
AcDbLine
 10
26.524553571
 20
8.461428571
 30
0.000000000
 11
27.378348214
 21
8.461428571
 31
0.000000000
  0
SPLINE
  5
A5F
330
A02
100
AcDbEntity
  8
ShapeString
100
AcDbSpline
210
0
220
0
230
1
 70
8
 71
2
 72
6
 73
3
 74
0
 40
0.000000000
 40
0.000000000
 40
0.000000000
 40
1.000000000
 40
1.000000000
 40
1.000000000
 10
29.351004464
 20
10.132857143
 30
0.000000000
 10
29.771205357
 20
10.132857143
 30
0.000000000
 10
29.992968750
 20
9.800602679
 30
0.000000000
  0
SPLINE
  5
A60
330
A02
100
AcDbEntity
  8
ShapeString
100
AcDbSpline
210
0
220
0
230
1
 70
8
 71
2
 72
6
 73
3
 74
0
 40
0.000000000
 40
0.000000000
 40
0.000000000
 40
1.000000000
 40
1.000000000
 40
1.000000000
 10
28.708928571
 20
9.800602679
 30
0.000000000
 10
28.930803571
 20
10.132857143
 30
0.000000000
 10
29.351004464
 20
10.132857143
 30
0.000000000
  0
SPLINE
  5
A61
330
A02
100
AcDbEntity
  8
ShapeString
100
AcDbSpline
210
0
220
0
230
1
 70
8
 71
2
 72
6
 73
3
 74
0
 40
0.000000000
 40
0.000000000
 40
0.000000000
 40
1.000000000
 40
1.000000000
 40
1.000000000
 10
28.487165179
 20
8.835647321
 30
0.000000000
 10
28.487165179
 20
9.468348214
 30
0.000000000
 10
28.708928571
 20
9.800602679
 30
0.000000000
  0
SPLINE
  5
A62
330
A02
100
AcDbEntity
  8
ShapeString
100
AcDbSpline
210
0
220
0
230
1
 70
8
 71
2
 72
6
 73
3
 74
0
 40
0.000000000
 40
0.000000000
 40
0.000000000
 40
1.000000000
 40
1.000000000
 40
1.000000000
 10
28.708928571
 20
7.872254464
 30
0.000000000
 10
28.487165179
 20
8.204508929
 30
0.000000000
 10
28.487165179
 20
8.835647321
 30
0.000000000
  0
SPLINE
  5
A63
330
A02
100
AcDbEntity
  8
ShapeString
100
AcDbSpline
210
0
220
0
230
1
 70
8
 71
2
 72
6
 73
3
 74
0
 40
0.000000000
 40
0.000000000
 40
0.000000000
 40
1.000000000
 40
1.000000000
 40
1.000000000
 10
29.351004464
 20
7.540000000
 30
0.000000000
 10
28.930803571
 20
7.540000000
 30
0.000000000
 10
28.708928571
 20
7.872254464
 30
0.000000000
  0
SPLINE
  5
A64
330
A02
100
AcDbEntity
  8
ShapeString
100
AcDbSpline
210
0
220
0
230
1
 70
8
 71
2
 72
6
 73
3
 74
0
 40
0.000000000
 40
0.000000000
 40
0.000000000
 40
1.000000000
 40
1.000000000
 40
1.000000000
 10
29.992968750
 20
7.872254464
 30
0.000000000
 10
29.771205357
 20
7.540000000
 30
0.000000000
 10
29.351004464
 20
7.540000000
 30
0.000000000
  0
SPLINE
  5
A65
330
A02
100
AcDbEntity
  8
ShapeString
100
AcDbSpline
210
0
220
0
230
1
 70
8
 71
2
 72
6
 73
3
 74
0
 40
0.000000000
 40
0.000000000
 40
0.000000000
 40
1.000000000
 40
1.000000000
 40
1.000000000
 10
30.214843750
 20
8.835647321
 30
0.000000000
 10
30.214843750
 20
8.204508929
 30
0.000000000
 10
29.992968750
 20
7.872254464
 30
0.000000000
  0
SPLINE
  5
A66
330
A02
100
AcDbEntity
  8
ShapeString
100
AcDbSpline
210
0
220
0
230
1
 70
8
 71
2
 72
6
 73
3
 74
0
 40
0.000000000
 40
0.000000000
 40
0.000000000
 40
1.000000000
 40
1.000000000
 40
1.000000000
 10
29.992968750
 20
9.800602679
 30
0.000000000
 10
30.214843750
 20
9.468348214
 30
0.000000000
 10
30.214843750
 20
8.835647321
 30
0.000000000
  0
SPLINE
  5
A67
330
A02
100
AcDbEntity
  8
ShapeString
100
AcDbSpline
210
0
220
0
230
1
 70
8
 71
2
 72
6
 73
3
 74
0
 40
0.000000000
 40
0.000000000
 40
0.000000000
 40
1.000000000
 40
1.000000000
 40
1.000000000
 10
29.351004464
 20
9.861428571
 30
0.000000000
 10
29.089843750
 20
9.861428571
 30
0.000000000
 10
28.958370536
 20
9.605401786
 30
0.000000000
  0
SPLINE
  5
A68
330
A02
100
AcDbEntity
  8
ShapeString
100
AcDbSpline
210
0
220
0
230
1
 70
8
 71
2
 72
6
 73
3
 74
0
 40
0.000000000
 40
0.000000000
 40
0.000000000
 40
1.000000000
 40
1.000000000
 40
1.000000000
 10
29.745200893
 20
9.605401786
 30
0.000000000
 10
29.613839286
 20
9.861428571
 30
0.000000000
 10
29.351004464
 20
9.861428571
 30
0.000000000
  0
SPLINE
  5
A69
330
A02
100
AcDbEntity
  8
ShapeString
100
AcDbSpline
210
0
220
0
230
1
 70
8
 71
2
 72
6
 73
3
 74
0
 40
0.000000000
 40
0.000000000
 40
0.000000000
 40
1.000000000
 40
1.000000000
 40
1.000000000
 10
29.876674107
 20
8.835647321
 30
0.000000000
 10
29.876674107
 20
9.349375000
 30
0.000000000
 10
29.745200893
 20
9.605401786
 30
0.000000000
  0
SPLINE
  5
A6A
330
A02
100
AcDbEntity
  8
ShapeString
100
AcDbSpline
210
0
220
0
230
1
 70
8
 71
2
 72
6
 73
3
 74
0
 40
0.000000000
 40
0.000000000
 40
0.000000000
 40
1.000000000
 40
1.000000000
 40
1.000000000
 10
29.745200893
 20
8.067455357
 30
0.000000000
 10
29.876674107
 20
8.323482143
 30
0.000000000
 10
29.876674107
 20
8.835647321
 30
0.000000000
  0
SPLINE
  5
A6B
330
A02
100
AcDbEntity
  8
ShapeString
100
AcDbSpline
210
0
220
0
230
1
 70
8
 71
2
 72
6
 73
3
 74
0
 40
0.000000000
 40
0.000000000
 40
0.000000000
 40
1.000000000
 40
1.000000000
 40
1.000000000
 10
29.351004464
 20
7.811428571
 30
0.000000000
 10
29.613839286
 20
7.811428571
 30
0.000000000
 10
29.745200893
 20
8.067455357
 30
0.000000000
  0
SPLINE
  5
A6C
330
A02
100
AcDbEntity
  8
ShapeString
100
AcDbSpline
210
0
220
0
230
1
 70
8
 71
2
 72
6
 73
3
 74
0
 40
0.000000000
 40
0.000000000
 40
0.000000000
 40
1.000000000
 40
1.000000000
 40
1.000000000
 10
28.958370536
 20
8.067455357
 30
0.000000000
 10
29.089843750
 20
7.811428571
 30
0.000000000
 10
29.351004464
 20
7.811428571
 30
0.000000000
  0
SPLINE
  5
A6D
330
A02
100
AcDbEntity
  8
ShapeString
100
AcDbSpline
210
0
220
0
230
1
 70
8
 71
2
 72
6
 73
3
 74
0
 40
0.000000000
 40
0.000000000
 40
0.000000000
 40
1.000000000
 40
1.000000000
 40
1.000000000
 10
28.827008929
 20
8.835647321
 30
0.000000000
 10
28.827008929
 20
8.323482143
 30
0.000000000
 10
28.958370536
 20
8.067455357
 30
0.000000000
  0
SPLINE
  5
A6E
330
A02
100
AcDbEntity
  8
ShapeString
100
AcDbSpline
210
0
220
0
230
1
 70
8
 71
2
 72
6
 73
3
 74
0
 40
0.000000000
 40
0.000000000
 40
0.000000000
 40
1.000000000
 40
1.000000000
 40
1.000000000
 10
28.958370536
 20
9.605401786
 30
0.000000000
 10
28.827008929
 20
9.349375000
 30
0.000000000
 10
28.827008929
 20
8.835647321
 30
0.000000000
  0
LINE
  5
A6F
330
A02
100
AcDbEntity
  8
ShapeString
100
AcDbLine
 10
30.776227679
 20
10.090000000
 30
0.000000000
 11
31.539620536
 21
10.090000000
 31
0.000000000
  0
LINE
  5
A70
330
A02
100
AcDbEntity
  8
ShapeString
100
AcDbLine
 10
30.776227679
 20
7.590000000
 30
0.000000000
 11
30.776227679
 21
10.090000000
 31
0.000000000
  0
LINE
  5
A71
330
A02
100
AcDbEntity
  8
ShapeString
100
AcDbLine
 10
31.114397321
 20
7.590000000
 30
0.000000000
 11
30.776227679
 21
7.590000000
 31
0.000000000
  0
LINE
  5
A72
330
A02
100
AcDbEntity
  8
ShapeString
100
AcDbLine
 10
31.114397321
 20
8.597142857
 30
0.000000000
 11
31.114397321
 21
7.590000000
 31
0.000000000
  0
LINE
  5
A73
330
A02
100
AcDbEntity
  8
ShapeString
100
AcDbLine
 10
31.539620536
 20
8.597142857
 30
0.000000000
 11
31.114397321
 21
8.597142857
 31
0.000000000
  0
SPLINE
  5
A74
330
A02
100
AcDbEntity
  8
ShapeString
100
AcDbSpline
210
0
220
0
230
1
 70
8
 71
2
 72
6
 73
3
 74
0
 40
0.000000000
 40
0.000000000
 40
0.000000000
 40
1.000000000
 40
1.000000000
 40
1.000000000
 10
32.174888393
 20
8.785982143
 30
0.000000000
 10
31.959821429
 20
8.597142857
 30
0.000000000
 10
31.539620536
 20
8.597142857
 30
0.000000000
  0
SPLINE
  5
A75
330
A02
100
AcDbEntity
  8
ShapeString
100
AcDbSpline
210
0
220
0
230
1
 70
8
 71
2
 72
6
 73
3
 74
0
 40
0.000000000
 40
0.000000000
 40
0.000000000
 40
1.000000000
 40
1.000000000
 40
1.000000000
 10
32.390066964
 20
9.344352679
 30
0.000000000
 10
32.390066964
 20
8.974933036
 30
0.000000000
 10
32.174888393
 20
8.785982143
 30
0.000000000
  0
SPLINE
  5
A76
330
A02
100
AcDbEntity
  8
ShapeString
100
AcDbSpline
210
0
220
0
230
1
 70
8
 71
2
 72
6
 73
3
 74
0
 40
0.000000000
 40
0.000000000
 40
0.000000000
 40
1.000000000
 40
1.000000000
 40
1.000000000
 10
32.174888393
 20
9.900267857
 30
0.000000000
 10
32.390066964
 20
9.710535714
 30
0.000000000
 10
32.390066964
 20
9.344352679
 30
0.000000000
  0
SPLINE
  5
A77
330
A02
100
AcDbEntity
  8
ShapeString
100
AcDbSpline
210
0
220
0
230
1
 70
8
 71
2
 72
6
 73
3
 74
0
 40
0.000000000
 40
0.000000000
 40
0.000000000
 40
1.000000000
 40
1.000000000
 40
1.000000000
 10
31.539620536
 20
10.090000000
 30
0.000000000
 10
31.959821429
 20
10.090000000
 30
0.000000000
 10
32.174888393
 20
9.900267857
 30
0.000000000
  0
LINE
  5
A78
330
A02
100
AcDbEntity
  8
ShapeString
100
AcDbLine
 10
31.114397321
 20
9.811428571
 30
0.000000000
 11
31.114397321
 21
8.875714286
 31
0.000000000
  0
LINE
  5
A79
330
A02
100
AcDbEntity
  8
ShapeString
100
AcDbLine
 10
31.539620536
 20
9.811428571
 30
0.000000000
 11
31.114397321
 21
9.811428571
 31
0.000000000
  0
SPLINE
  5
A7A
330
A02
100
AcDbEntity
  8
ShapeString
100
AcDbSpline
210
0
220
0
230
1
 70
8
 71
2
 72
6
 73
3
 74
0
 40
0.000000000
 40
0.000000000
 40
0.000000000
 40
1.000000000
 40
1.000000000
 40
1.000000000
 10
31.904575893
 20
9.689665179
 30
0.000000000
 10
31.775669643
 20
9.811428571
 30
0.000000000
 10
31.539620536
 20
9.811428571
 30
0.000000000
  0
SPLINE
  5
A7B
330
A02
100
AcDbEntity
  8
ShapeString
100
AcDbSpline
210
0
220
0
230
1
 70
8
 71
2
 72
6
 73
3
 74
0
 40
0.000000000
 40
0.000000000
 40
0.000000000
 40
1.000000000
 40
1.000000000
 40
1.000000000
 10
32.033482143
 20
9.344352679
 30
0.000000000
 10
32.033482143
 20
9.567901786
 30
0.000000000
 10
31.904575893
 20
9.689665179
 30
0.000000000
  0
SPLINE
  5
A7C
330
A02
100
AcDbEntity
  8
ShapeString
100
AcDbSpline
210
0
220
0
230
1
 70
8
 71
2
 72
6
 73
3
 74
0
 40
0.000000000
 40
0.000000000
 40
0.000000000
 40
1.000000000
 40
1.000000000
 40
1.000000000
 10
31.904575893
 20
8.997477679
 30
0.000000000
 10
32.033482143
 20
9.119241071
 30
0.000000000
 10
32.033482143
 20
9.344352679
 30
0.000000000
  0
SPLINE
  5
A7D
330
A02
100
AcDbEntity
  8
ShapeString
100
AcDbSpline
210
0
220
0
230
1
 70
8
 71
2
 72
6
 73
3
 74
0
 40
0.000000000
 40
0.000000000
 40
0.000000000
 40
1.000000000
 40
1.000000000
 40
1.000000000
 10
31.539620536
 20
8.875714286
 30
0.000000000
 10
31.775669643
 20
8.875714286
 30
0.000000000
 10
31.904575893
 20
8.997477679
 30
0.000000000
  0
LINE
  5
A7E
330
A02
100
AcDbEntity
  8
ShapeString
100
AcDbLine
 10
31.114397321
 20
8.875714286
 30
0.000000000
 11
31.539620536
 21
8.875714286
 31
0.000000000
  0
LINE
  5
A7F
330
A02
100
AcDbEntity
  8
ShapeString
100
AcDbLine
 10
34.254799107
 20
7.875714286
 30
0.000000000
 11
35.435044643
 21
7.875714286
 31
0.000000000
  0
SPLINE
  5
A80
330
A02
100
AcDbEntity
  8
ShapeString
100
AcDbSpline
210
0
220
0
230
1
 70
8
 71
2
 72
6
 73
3
 74
0
 40
0.000000000
 40
0.000000000
 40
0.000000000
 40
1.000000000
 40
1.000000000
 40
1.000000000
 10
34.887611607
 20
8.523593750
 30
0.000000000
 10
34.663281250
 20
8.292008929
 30
0.000000000
 10
34.254799107
 20
7.875714286
 30
0.000000000
  0
SPLINE
  5
A81
330
A02
100
AcDbEntity
  8
ShapeString
100
AcDbSpline
210
0
220
0
230
1
 70
8
 71
2
 72
6
 73
3
 74
0
 40
0.000000000
 40
0.000000000
 40
0.000000000
 40
1.000000000
 40
1.000000000
 40
1.000000000
 10
35.153794643
 20
8.803616071
 30
0.000000000
 10
35.111941964
 20
8.755178571
 30
0.000000000
 10
34.887611607
 20
8.523593750
 30
0.000000000
  0
SPLINE
  5
A82
330
A02
100
AcDbEntity
  8
ShapeString
100
AcDbSpline
210
0
220
0
230
1
 70
8
 71
2
 72
6
 73
3
 74
0
 40
0.000000000
 40
0.000000000
 40
0.000000000
 40
1.000000000
 40
1.000000000
 40
1.000000000
 10
35.363839286
 20
9.128839286
 30
0.000000000
 10
35.306138393
 20
8.990892857
 30
0.000000000
 10
35.153794643
 20
8.803616071
 30
0.000000000
  0
SPLINE
  5
A83
330
A02
100
AcDbEntity
  8
ShapeString
100
AcDbSpline
210
0
220
0
230
1
 70
8
 71
2
 72
6
 73
3
 74
0
 40
0.000000000
 40
0.000000000
 40
0.000000000
 40
1.000000000
 40
1.000000000
 40
1.000000000
 10
35.421651786
 20
9.420580357
 30
0.000000000
 10
35.421651786
 20
9.266785714
 30
0.000000000
 10
35.363839286
 20
9.128839286
 30
0.000000000
  0
SPLINE
  5
A84
330
A02
100
AcDbEntity
  8
ShapeString
100
AcDbSpline
210
0
220
0
230
1
 70
8
 71
2
 72
6
 73
3
 74
0
 40
0.000000000
 40
0.000000000
 40
0.000000000
 40
1.000000000
 40
1.000000000
 40
1.000000000
 10
35.190625000
 20
9.938883929
 30
0.000000000
 10
35.421651786
 20
9.744910714
 30
0.000000000
 10
35.421651786
 20
9.420580357
 30
0.000000000
  0
SPLINE
  5
A85
330
A02
100
AcDbEntity
  8
ShapeString
100
AcDbSpline
210
0
220
0
230
1
 70
8
 71
2
 72
6
 73
3
 74
0
 40
0.000000000
 40
0.000000000
 40
0.000000000
 40
1.000000000
 40
1.000000000
 40
1.000000000
 10
34.571205357
 20
10.132857143
 30
0.000000000
 10
34.959598214
 20
10.132857143
 30
0.000000000
 10
35.190625000
 20
9.938883929
 30
0.000000000
  0
SPLINE
  5
A86
330
A02
100
AcDbEntity
  8
ShapeString
100
AcDbSpline
210
0
220
0
230
1
 70
8
 71
2
 72
6
 73
3
 74
0
 40
0.000000000
 40
0.000000000
 40
0.000000000
 40
1.000000000
 40
1.000000000
 40
1.000000000
 10
34.246428571
 20
10.091339286
 30
0.000000000
 10
34.423883929
 20
10.132857143
 30
0.000000000
 10
34.571205357
 20
10.132857143
 30
0.000000000
  0
SPLINE
  5
A87
330
A02
100
AcDbEntity
  8
ShapeString
100
AcDbSpline
210
0
220
0
230
1
 70
8
 71
2
 72
6
 73
3
 74
0
 40
0.000000000
 40
0.000000000
 40
0.000000000
 40
1.000000000
 40
1.000000000
 40
1.000000000
 10
33.864732143
 20
9.968571429
 30
0.000000000
 10
34.068973214
 20
10.049933036
 30
0.000000000
 10
34.246428571
 20
10.091339286
 30
0.000000000
  0
LINE
  5
A88
330
A02
100
AcDbEntity
  8
ShapeString
100
AcDbLine
 10
33.864732143
 20
9.625714286
 30
0.000000000
 11
33.864732143
 21
9.968571429
 31
0.000000000
  0
SPLINE
  5
A89
330
A02
100
AcDbEntity
  8
ShapeString
100
AcDbSpline
210
0
220
0
230
1
 70
8
 71
2
 72
6
 73
3
 74
0
 40
0.000000000
 40
0.000000000
 40
0.000000000
 40
1.000000000
 40
1.000000000
 40
1.000000000
 10
34.242187500
 20
9.792120536
 30
0.000000000
 10
34.065625000
 20
9.737209821
 30
0.000000000
 10
33.864732143
 20
9.625714286
 30
0.000000000
  0
SPLINE
  5
A8A
330
A02
100
AcDbEntity
  8
ShapeString
100
AcDbSpline
210
0
220
0
230
1
 70
8
 71
2
 72
6
 73
3
 74
0
 40
0.000000000
 40
0.000000000
 40
0.000000000
 40
1.000000000
 40
1.000000000
 40
1.000000000
 10
34.577901786
 20
9.847142857
 30
0.000000000
 10
34.418861607
 20
9.847142857
 30
0.000000000
 10
34.242187500
 20
9.792120536
 30
0.000000000
  0
SPLINE
  5
A8B
330
A02
100
AcDbEntity
  8
ShapeString
100
AcDbSpline
210
0
220
0
230
1
 70
8
 71
2
 72
6
 73
3
 74
0
 40
0.000000000
 40
0.000000000
 40
0.000000000
 40
1.000000000
 40
1.000000000
 40
1.000000000
 10
34.941964286
 20
9.721808036
 30
0.000000000
 10
34.802232143
 20
9.847142857
 30
0.000000000
 10
34.577901786
 20
9.847142857
 30
0.000000000
  0
SPLINE
  5
A8C
330
A02
100
AcDbEntity
  8
ShapeString
100
AcDbSpline
210
0
220
0
230
1
 70
8
 71
2
 72
6
 73
3
 74
0
 40
0.000000000
 40
0.000000000
 40
0.000000000
 40
1.000000000
 40
1.000000000
 40
1.000000000
 10
35.081808036
 20
9.397700893
 30
0.000000000
 10
35.081808036
 20
9.596584821
 30
0.000000000
 10
34.941964286
 20
9.721808036
 30
0.000000000
  0
SPLINE
  5
A8D
330
A02
100
AcDbEntity
  8
ShapeString
100
AcDbSpline
210
0
220
0
230
1
 70
8
 71
2
 72
6
 73
3
 74
0
 40
0.000000000
 40
0.000000000
 40
0.000000000
 40
1.000000000
 40
1.000000000
 40
1.000000000
 10
35.017299107
 20
9.149598214
 30
0.000000000
 10
35.081808036
 20
9.275714286
 30
0.000000000
 10
35.081808036
 20
9.397700893
 30
0.000000000
  0
SPLINE
  5
A8E
330
A02
100
AcDbEntity
  8
ShapeString
100
AcDbSpline
210
0
220
0
230
1
 70
8
 71
2
 72
6
 73
3
 74
0
 40
0.000000000
 40
0.000000000
 40
0.000000000
 40
1.000000000
 40
1.000000000
 40
1.000000000
 10
34.790513393
 20
8.841339286
 30
0.000000000
 10
34.952901786
 20
9.023482143
 30
0.000000000
 10
35.017299107
 20
9.149598214
 30
0.000000000
  0
SPLINE
  5
A8F
330
A02
100
AcDbEntity
  8
ShapeString
100
AcDbSpline
210
0
220
0
230
1
 70
8
 71
2
 72
6
 73
3
 74
0
 40
0.000000000
 40
0.000000000
 40
0.000000000
 40
1.000000000
 40
1.000000000
 40
1.000000000
 10
34.372767857
 20
8.409419643
 30
0.000000000
 10
34.705133929
 20
8.744464286
 30
0.000000000
 10
34.790513393
 20
8.841339286
 30
0.000000000
  0
SPLINE
  5
A90
330
A02
100
AcDbEntity
  8
ShapeString
100
AcDbSpline
210
0
220
0
230
1
 70
8
 71
2
 72
6
 73
3
 74
0
 40
0.000000000
 40
0.000000000
 40
0.000000000
 40
1.000000000
 40
1.000000000
 40
1.000000000
 10
33.847991071
 20
7.875714286
 30
0.000000000
 10
34.040513393
 20
8.074486607
 30
0.000000000
 10
34.372767857
 20
8.409419643
 30
0.000000000
  0
LINE
  5
A91
330
A02
100
AcDbEntity
  8
ShapeString
100
AcDbLine
 10
33.847991071
 20
7.590000000
 30
0.000000000
 11
33.847991071
 21
7.875714286
 31
0.000000000
  0
LINE
  5
A92
330
A02
100
AcDbEntity
  8
ShapeString
100
AcDbLine
 10
35.435044643
 20
7.590000000
 30
0.000000000
 11
33.847991071
 21
7.590000000
 31
0.000000000
  0
LINE
  5
A93
330
A02
100
AcDbEntity
  8
ShapeString
100
AcDbLine
 10
35.435044643
 20
7.875714286
 30
0.000000000
 11
35.435044643
 21
7.590000000
 31
0.000000000
  0
LINE
  5
A94
330
A02
100
AcDbEntity
  8
ShapeString
100
AcDbLine
 10
37.657142857
 20
9.468571429
 30
0.000000000
 11
36.979129464
 21
8.554397321
 31
0.000000000
  0
LINE
  5
A95
330
A02
100
AcDbEntity
  8
ShapeString
100
AcDbLine
 10
37.293861607
 20
9.468571429
 30
0.000000000
 11
37.657142857
 21
9.468571429
 31
0.000000000
  0
LINE
  5
A96
330
A02
100
AcDbEntity
  8
ShapeString
100
AcDbLine
 10
36.796651786
 20
8.799375000
 30
0.000000000
 11
37.293861607
 21
9.468571429
 31
0.000000000
  0
LINE
  5
A97
330
A02
100
AcDbEntity
  8
ShapeString
100
AcDbLine
 10
36.299441964
 20
9.468571429
 30
0.000000000
 11
36.796651786
 21
8.799375000
 31
0.000000000
  0
LINE
  5
A98
330
A02
100
AcDbEntity
  8
ShapeString
100
AcDbLine
 10
35.936160714
 20
9.468571429
 30
0.000000000
 11
36.299441964
 21
9.468571429
 31
0.000000000
  0
LINE
  5
A99
330
A02
100
AcDbEntity
  8
ShapeString
100
AcDbLine
 10
36.602455357
 20
8.572924107
 30
0.000000000
 11
35.936160714
 21
9.468571429
 31
0.000000000
  0
LINE
  5
A9A
330
A02
100
AcDbEntity
  8
ShapeString
100
AcDbLine
 10
35.874218750
 20
7.590000000
 30
0.000000000
 11
36.602455357
 21
8.572924107
 31
0.000000000
  0
LINE
  5
A9B
330
A02
100
AcDbEntity
  8
ShapeString
100
AcDbLine
 10
36.237500000
 20
7.590000000
 30
0.000000000
 11
35.874218750
 21
7.590000000
 31
0.000000000
  0
LINE
  5
A9C
330
A02
100
AcDbEntity
  8
ShapeString
100
AcDbLine
 10
36.783258929
 20
8.328058036
 30
0.000000000
 11
36.237500000
 21
7.590000000
 31
0.000000000
  0
LINE
  5
A9D
330
A02
100
AcDbEntity
  8
ShapeString
100
AcDbLine
 10
37.329017857
 20
7.590000000
 30
0.000000000
 11
36.783258929
 21
8.328058036
 31
0.000000000
  0
LINE
  5
A9E
330
A02
100
AcDbEntity
  8
ShapeString
100
AcDbLine
 10
37.692299107
 20
7.590000000
 30
0.000000000
 11
37.329017857
 21
7.590000000
 31
0.000000000
  0
LINE
  5
A9F
330
A02
100
AcDbEntity
  8
ShapeString
100
AcDbLine
 10
36.979129464
 20
8.554397321
 30
0.000000000
 11
37.692299107
 21
7.590000000
 31
0.000000000
  0
LINE
  5
AA0
330
A02
100
AcDbEntity
  8
ShapeString
100
AcDbLine
 10
38.461941964
 20
7.875714286
 30
0.000000000
 11
39.642187500
 21
7.875714286
 31
0.000000000
  0
SPLINE
  5
AA1
330
A02
100
AcDbEntity
  8
ShapeString
100
AcDbSpline
210
0
220
0
230
1
 70
8
 71
2
 72
6
 73
3
 74
0
 40
0.000000000
 40
0.000000000
 40
0.000000000
 40
1.000000000
 40
1.000000000
 40
1.000000000
 10
39.094754464
 20
8.523593750
 30
0.000000000
 10
38.870424107
 20
8.292008929
 30
0.000000000
 10
38.461941964
 20
7.875714286
 30
0.000000000
  0
SPLINE
  5
AA2
330
A02
100
AcDbEntity
  8
ShapeString
100
AcDbSpline
210
0
220
0
230
1
 70
8
 71
2
 72
6
 73
3
 74
0
 40
0.000000000
 40
0.000000000
 40
0.000000000
 40
1.000000000
 40
1.000000000
 40
1.000000000
 10
39.360937500
 20
8.803616071
 30
0.000000000
 10
39.319084821
 20
8.755178571
 30
0.000000000
 10
39.094754464
 20
8.523593750
 30
0.000000000
  0
SPLINE
  5
AA3
330
A02
100
AcDbEntity
  8
ShapeString
100
AcDbSpline
210
0
220
0
230
1
 70
8
 71
2
 72
6
 73
3
 74
0
 40
0.000000000
 40
0.000000000
 40
0.000000000
 40
1.000000000
 40
1.000000000
 40
1.000000000
 10
39.570982143
 20
9.128839286
 30
0.000000000
 10
39.513281250
 20
8.990892857
 30
0.000000000
 10
39.360937500
 20
8.803616071
 30
0.000000000
  0
SPLINE
  5
AA4
330
A02
100
AcDbEntity
  8
ShapeString
100
AcDbSpline
210
0
220
0
230
1
 70
8
 71
2
 72
6
 73
3
 74
0
 40
0.000000000
 40
0.000000000
 40
0.000000000
 40
1.000000000
 40
1.000000000
 40
1.000000000
 10
39.628794643
 20
9.420580357
 30
0.000000000
 10
39.628794643
 20
9.266785714
 30
0.000000000
 10
39.570982143
 20
9.128839286
 30
0.000000000
  0
SPLINE
  5
AA5
330
A02
100
AcDbEntity
  8
ShapeString
100
AcDbSpline
210
0
220
0
230
1
 70
8
 71
2
 72
6
 73
3
 74
0
 40
0.000000000
 40
0.000000000
 40
0.000000000
 40
1.000000000
 40
1.000000000
 40
1.000000000
 10
39.397767857
 20
9.938883929
 30
0.000000000
 10
39.628794643
 20
9.744910714
 30
0.000000000
 10
39.628794643
 20
9.420580357
 30
0.000000000
  0
SPLINE
  5
AA6
330
A02
100
AcDbEntity
  8
ShapeString
100
AcDbSpline
210
0
220
0
230
1
 70
8
 71
2
 72
6
 73
3
 74
0
 40
0.000000000
 40
0.000000000
 40
0.000000000
 40
1.000000000
 40
1.000000000
 40
1.000000000
 10
38.778348214
 20
10.132857143
 30
0.000000000
 10
39.166741071
 20
10.132857143
 30
0.000000000
 10
39.397767857
 20
9.938883929
 30
0.000000000
  0
SPLINE
  5
AA7
330
A02
100
AcDbEntity
  8
ShapeString
100
AcDbSpline
210
0
220
0
230
1
 70
8
 71
2
 72
6
 73
3
 74
0
 40
0.000000000
 40
0.000000000
 40
0.000000000
 40
1.000000000
 40
1.000000000
 40
1.000000000
 10
38.453571429
 20
10.091339286
 30
0.000000000
 10
38.631026786
 20
10.132857143
 30
0.000000000
 10
38.778348214
 20
10.132857143
 30
0.000000000
  0
SPLINE
  5
AA8
330
A02
100
AcDbEntity
  8
ShapeString
100
AcDbSpline
210
0
220
0
230
1
 70
8
 71
2
 72
6
 73
3
 74
0
 40
0.000000000
 40
0.000000000
 40
0.000000000
 40
1.000000000
 40
1.000000000
 40
1.000000000
 10
38.071875000
 20
9.968571429
 30
0.000000000
 10
38.276116071
 20
10.049933036
 30
0.000000000
 10
38.453571429
 20
10.091339286
 30
0.000000000
  0
LINE
  5
AA9
330
A02
100
AcDbEntity
  8
ShapeString
100
AcDbLine
 10
38.071875000
 20
9.625714286
 30
0.000000000
 11
38.071875000
 21
9.968571429
 31
0.000000000
  0
SPLINE
  5
AAA
330
A02
100
AcDbEntity
  8
ShapeString
100
AcDbSpline
210
0
220
0
230
1
 70
8
 71
2
 72
6
 73
3
 74
0
 40
0.000000000
 40
0.000000000
 40
0.000000000
 40
1.000000000
 40
1.000000000
 40
1.000000000
 10
38.449330357
 20
9.792120536
 30
0.000000000
 10
38.272767857
 20
9.737209821
 30
0.000000000
 10
38.071875000
 20
9.625714286
 30
0.000000000
  0
SPLINE
  5
AAB
330
A02
100
AcDbEntity
  8
ShapeString
100
AcDbSpline
210
0
220
0
230
1
 70
8
 71
2
 72
6
 73
3
 74
0
 40
0.000000000
 40
0.000000000
 40
0.000000000
 40
1.000000000
 40
1.000000000
 40
1.000000000
 10
38.785044643
 20
9.847142857
 30
0.000000000
 10
38.626004464
 20
9.847142857
 30
0.000000000
 10
38.449330357
 20
9.792120536
 30
0.000000000
  0
SPLINE
  5
AAC
330
A02
100
AcDbEntity
  8
ShapeString
100
AcDbSpline
210
0
220
0
230
1
 70
8
 71
2
 72
6
 73
3
 74
0
 40
0.000000000
 40
0.000000000
 40
0.000000000
 40
1.000000000
 40
1.000000000
 40
1.000000000
 10
39.149107143
 20
9.721808036
 30
0.000000000
 10
39.009375000
 20
9.847142857
 30
0.000000000
 10
38.785044643
 20
9.847142857
 30
0.000000000
  0
SPLINE
  5
AAD
330
A02
100
AcDbEntity
  8
ShapeString
100
AcDbSpline
210
0
220
0
230
1
 70
8
 71
2
 72
6
 73
3
 74
0
 40
0.000000000
 40
0.000000000
 40
0.000000000
 40
1.000000000
 40
1.000000000
 40
1.000000000
 10
39.288950893
 20
9.397700893
 30
0.000000000
 10
39.288950893
 20
9.596584821
 30
0.000000000
 10
39.149107143
 20
9.721808036
 30
0.000000000
  0
SPLINE
  5
AAE
330
A02
100
AcDbEntity
  8
ShapeString
100
AcDbSpline
210
0
220
0
230
1
 70
8
 71
2
 72
6
 73
3
 74
0
 40
0.000000000
 40
0.000000000
 40
0.000000000
 40
1.000000000
 40
1.000000000
 40
1.000000000
 10
39.224441964
 20
9.149598214
 30
0.000000000
 10
39.288950893
 20
9.275714286
 30
0.000000000
 10
39.288950893
 20
9.397700893
 30
0.000000000
  0
SPLINE
  5
AAF
330
A02
100
AcDbEntity
  8
ShapeString
100
AcDbSpline
210
0
220
0
230
1
 70
8
 71
2
 72
6
 73
3
 74
0
 40
0.000000000
 40
0.000000000
 40
0.000000000
 40
1.000000000
 40
1.000000000
 40
1.000000000
 10
38.997656250
 20
8.841339286
 30
0.000000000
 10
39.160044643
 20
9.023482143
 30
0.000000000
 10
39.224441964
 20
9.149598214
 30
0.000000000
  0
SPLINE
  5
AB0
330
A02
100
AcDbEntity
  8
ShapeString
100
AcDbSpline
210
0
220
0
230
1
 70
8
 71
2
 72
6
 73
3
 74
0
 40
0.000000000
 40
0.000000000
 40
0.000000000
 40
1.000000000
 40
1.000000000
 40
1.000000000
 10
38.579910714
 20
8.409419643
 30
0.000000000
 10
38.912276786
 20
8.744464286
 30
0.000000000
 10
38.997656250
 20
8.841339286
 30
0.000000000
  0
SPLINE
  5
AB1
330
A02
100
AcDbEntity
  8
ShapeString
100
AcDbSpline
210
0
220
0
230
1
 70
8
 71
2
 72
6
 73
3
 74
0
 40
0.000000000
 40
0.000000000
 40
0.000000000
 40
1.000000000
 40
1.000000000
 40
1.000000000
 10
38.055133929
 20
7.875714286
 30
0.000000000
 10
38.247656250
 20
8.074486607
 30
0.000000000
 10
38.579910714
 20
8.409419643
 30
0.000000000
  0
LINE
  5
AB2
330
A02
100
AcDbEntity
  8
ShapeString
100
AcDbLine
 10
38.055133929
 20
7.590000000
 30
0.000000000
 11
38.055133929
 21
7.875714286
 31
0.000000000
  0
LINE
  5
AB3
330
A02
100
AcDbEntity
  8
ShapeString
100
AcDbLine
 10
39.642187500
 20
7.590000000
 30
0.000000000
 11
38.055133929
 21
7.590000000
 31
0.000000000
  0
LINE
  5
AB4
330
A02
100
AcDbEntity
  8
ShapeString
100
AcDbLine
 10
39.642187500
 20
7.875714286
 30
0.000000000
 11
39.642187500
 21
7.590000000
 31
0.000000000
  0
SPLINE
  5
AB5
330
A02
100
AcDbEntity
  8
ShapeString
100
AcDbSpline
210
0
220
0
230
1
 70
8
 71
2
 72
6
 73
3
 74
0
 40
0.000000000
 40
0.000000000
 40
0.000000000
 40
1.000000000
 40
1.000000000
 40
1.000000000
 10
41.072433036
 20
10.132857143
 30
0.000000000
 10
41.492633929
 20
10.132857143
 30
0.000000000
 10
41.714397321
 20
9.800602679
 30
0.000000000
  0
SPLINE
  5
AB6
330
A02
100
AcDbEntity
  8
ShapeString
100
AcDbSpline
210
0
220
0
230
1
 70
8
 71
2
 72
6
 73
3
 74
0
 40
0.000000000
 40
0.000000000
 40
0.000000000
 40
1.000000000
 40
1.000000000
 40
1.000000000
 10
40.430357143
 20
9.800602679
 30
0.000000000
 10
40.652232143
 20
10.132857143
 30
0.000000000
 10
41.072433036
 20
10.132857143
 30
0.000000000
  0
SPLINE
  5
AB7
330
A02
100
AcDbEntity
  8
ShapeString
100
AcDbSpline
210
0
220
0
230
1
 70
8
 71
2
 72
6
 73
3
 74
0
 40
0.000000000
 40
0.000000000
 40
0.000000000
 40
1.000000000
 40
1.000000000
 40
1.000000000
 10
40.208593750
 20
8.835647321
 30
0.000000000
 10
40.208593750
 20
9.468348214
 30
0.000000000
 10
40.430357143
 20
9.800602679
 30
0.000000000
  0
SPLINE
  5
AB8
330
A02
100
AcDbEntity
  8
ShapeString
100
AcDbSpline
210
0
220
0
230
1
 70
8
 71
2
 72
6
 73
3
 74
0
 40
0.000000000
 40
0.000000000
 40
0.000000000
 40
1.000000000
 40
1.000000000
 40
1.000000000
 10
40.430357143
 20
7.872254464
 30
0.000000000
 10
40.208593750
 20
8.204508929
 30
0.000000000
 10
40.208593750
 20
8.835647321
 30
0.000000000
  0
SPLINE
  5
AB9
330
A02
100
AcDbEntity
  8
ShapeString
100
AcDbSpline
210
0
220
0
230
1
 70
8
 71
2
 72
6
 73
3
 74
0
 40
0.000000000
 40
0.000000000
 40
0.000000000
 40
1.000000000
 40
1.000000000
 40
1.000000000
 10
41.072433036
 20
7.540000000
 30
0.000000000
 10
40.652232143
 20
7.540000000
 30
0.000000000
 10
40.430357143
 20
7.872254464
 30
0.000000000
  0
SPLINE
  5
ABA
330
A02
100
AcDbEntity
  8
ShapeString
100
AcDbSpline
210
0
220
0
230
1
 70
8
 71
2
 72
6
 73
3
 74
0
 40
0.000000000
 40
0.000000000
 40
0.000000000
 40
1.000000000
 40
1.000000000
 40
1.000000000
 10
41.714397321
 20
7.872254464
 30
0.000000000
 10
41.492633929
 20
7.540000000
 30
0.000000000
 10
41.072433036
 20
7.540000000
 30
0.000000000
  0
SPLINE
  5
ABB
330
A02
100
AcDbEntity
  8
ShapeString
100
AcDbSpline
210
0
220
0
230
1
 70
8
 71
2
 72
6
 73
3
 74
0
 40
0.000000000
 40
0.000000000
 40
0.000000000
 40
1.000000000
 40
1.000000000
 40
1.000000000
 10
41.936272321
 20
8.835647321
 30
0.000000000
 10
41.936272321
 20
8.204508929
 30
0.000000000
 10
41.714397321
 20
7.872254464
 30
0.000000000
  0
SPLINE
  5
ABC
330
A02
100
AcDbEntity
  8
ShapeString
100
AcDbSpline
210
0
220
0
230
1
 70
8
 71
2
 72
6
 73
3
 74
0
 40
0.000000000
 40
0.000000000
 40
0.000000000
 40
1.000000000
 40
1.000000000
 40
1.000000000
 10
41.714397321
 20
9.800602679
 30
0.000000000
 10
41.936272321
 20
9.468348214
 30
0.000000000
 10
41.936272321
 20
8.835647321
 30
0.000000000
  0
SPLINE
  5
ABD
330
A02
100
AcDbEntity
  8
ShapeString
100
AcDbSpline
210
0
220
0
230
1
 70
8
 71
2
 72
6
 73
3
 74
0
 40
0.000000000
 40
0.000000000
 40
0.000000000
 40
1.000000000
 40
1.000000000
 40
1.000000000
 10
41.072433036
 20
9.861428571
 30
0.000000000
 10
40.811272321
 20
9.861428571
 30
0.000000000
 10
40.679799107
 20
9.605401786
 30
0.000000000
  0
SPLINE
  5
ABE
330
A02
100
AcDbEntity
  8
ShapeString
100
AcDbSpline
210
0
220
0
230
1
 70
8
 71
2
 72
6
 73
3
 74
0
 40
0.000000000
 40
0.000000000
 40
0.000000000
 40
1.000000000
 40
1.000000000
 40
1.000000000
 10
41.466629464
 20
9.605401786
 30
0.000000000
 10
41.335267857
 20
9.861428571
 30
0.000000000
 10
41.072433036
 20
9.861428571
 30
0.000000000
  0
SPLINE
  5
ABF
330
A02
100
AcDbEntity
  8
ShapeString
100
AcDbSpline
210
0
220
0
230
1
 70
8
 71
2
 72
6
 73
3
 74
0
 40
0.000000000
 40
0.000000000
 40
0.000000000
 40
1.000000000
 40
1.000000000
 40
1.000000000
 10
41.598102679
 20
8.835647321
 30
0.000000000
 10
41.598102679
 20
9.349375000
 30
0.000000000
 10
41.466629464
 20
9.605401786
 30
0.000000000
  0
SPLINE
  5
AC0
330
A02
100
AcDbEntity
  8
ShapeString
100
AcDbSpline
210
0
220
0
230
1
 70
8
 71
2
 72
6
 73
3
 74
0
 40
0.000000000
 40
0.000000000
 40
0.000000000
 40
1.000000000
 40
1.000000000
 40
1.000000000
 10
41.466629464
 20
8.067455357
 30
0.000000000
 10
41.598102679
 20
8.323482143
 30
0.000000000
 10
41.598102679
 20
8.835647321
 30
0.000000000
  0
SPLINE
  5
AC1
330
A02
100
AcDbEntity
  8
ShapeString
100
AcDbSpline
210
0
220
0
230
1
 70
8
 71
2
 72
6
 73
3
 74
0
 40
0.000000000
 40
0.000000000
 40
0.000000000
 40
1.000000000
 40
1.000000000
 40
1.000000000
 10
41.072433036
 20
7.811428571
 30
0.000000000
 10
41.335267857
 20
7.811428571
 30
0.000000000
 10
41.466629464
 20
8.067455357
 30
0.000000000
  0
SPLINE
  5
AC2
330
A02
100
AcDbEntity
  8
ShapeString
100
AcDbSpline
210
0
220
0
230
1
 70
8
 71
2
 72
6
 73
3
 74
0
 40
0.000000000
 40
0.000000000
 40
0.000000000
 40
1.000000000
 40
1.000000000
 40
1.000000000
 10
40.679799107
 20
8.067455357
 30
0.000000000
 10
40.811272321
 20
7.811428571
 30
0.000000000
 10
41.072433036
 20
7.811428571
 30
0.000000000
  0
SPLINE
  5
AC3
330
A02
100
AcDbEntity
  8
ShapeString
100
AcDbSpline
210
0
220
0
230
1
 70
8
 71
2
 72
6
 73
3
 74
0
 40
0.000000000
 40
0.000000000
 40
0.000000000
 40
1.000000000
 40
1.000000000
 40
1.000000000
 10
40.548437500
 20
8.835647321
 30
0.000000000
 10
40.548437500
 20
8.323482143
 30
0.000000000
 10
40.679799107
 20
8.067455357
 30
0.000000000
  0
SPLINE
  5
AC4
330
A02
100
AcDbEntity
  8
ShapeString
100
AcDbSpline
210
0
220
0
230
1
 70
8
 71
2
 72
6
 73
3
 74
0
 40
0.000000000
 40
0.000000000
 40
0.000000000
 40
1.000000000
 40
1.000000000
 40
1.000000000
 10
40.679799107
 20
9.605401786
 30
0.000000000
 10
40.548437500
 20
9.349375000
 30
0.000000000
 10
40.548437500
 20
8.835647321
 30
0.000000000
  0
LINE
  5
AC5
330
A02
100
AcDbEntity
  8
ShapeString
100
AcDbLine
 10
43.911941964
 20
7.875714286
 30
0.000000000
 11
45.092187500
 21
7.875714286
 31
0.000000000
  0
SPLINE
  5
AC6
330
A02
100
AcDbEntity
  8
ShapeString
100
AcDbSpline
210
0
220
0
230
1
 70
8
 71
2
 72
6
 73
3
 74
0
 40
0.000000000
 40
0.000000000
 40
0.000000000
 40
1.000000000
 40
1.000000000
 40
1.000000000
 10
44.544754464
 20
8.523593750
 30
0.000000000
 10
44.320424107
 20
8.292008929
 30
0.000000000
 10
43.911941964
 20
7.875714286
 30
0.000000000
  0
SPLINE
  5
AC7
330
A02
100
AcDbEntity
  8
ShapeString
100
AcDbSpline
210
0
220
0
230
1
 70
8
 71
2
 72
6
 73
3
 74
0
 40
0.000000000
 40
0.000000000
 40
0.000000000
 40
1.000000000
 40
1.000000000
 40
1.000000000
 10
44.810937500
 20
8.803616071
 30
0.000000000
 10
44.769084821
 20
8.755178571
 30
0.000000000
 10
44.544754464
 20
8.523593750
 30
0.000000000
  0
SPLINE
  5
AC8
330
A02
100
AcDbEntity
  8
ShapeString
100
AcDbSpline
210
0
220
0
230
1
 70
8
 71
2
 72
6
 73
3
 74
0
 40
0.000000000
 40
0.000000000
 40
0.000000000
 40
1.000000000
 40
1.000000000
 40
1.000000000
 10
45.020982143
 20
9.128839286
 30
0.000000000
 10
44.963281250
 20
8.990892857
 30
0.000000000
 10
44.810937500
 20
8.803616071
 30
0.000000000
  0
SPLINE
  5
AC9
330
A02
100
AcDbEntity
  8
ShapeString
100
AcDbSpline
210
0
220
0
230
1
 70
8
 71
2
 72
6
 73
3
 74
0
 40
0.000000000
 40
0.000000000
 40
0.000000000
 40
1.000000000
 40
1.000000000
 40
1.000000000
 10
45.078794643
 20
9.420580357
 30
0.000000000
 10
45.078794643
 20
9.266785714
 30
0.000000000
 10
45.020982143
 20
9.128839286
 30
0.000000000
  0
SPLINE
  5
ACA
330
A02
100
AcDbEntity
  8
ShapeString
100
AcDbSpline
210
0
220
0
230
1
 70
8
 71
2
 72
6
 73
3
 74
0
 40
0.000000000
 40
0.000000000
 40
0.000000000
 40
1.000000000
 40
1.000000000
 40
1.000000000
 10
44.847767857
 20
9.938883929
 30
0.000000000
 10
45.078794643
 20
9.744910714
 30
0.000000000
 10
45.078794643
 20
9.420580357
 30
0.000000000
  0
SPLINE
  5
ACB
330
A02
100
AcDbEntity
  8
ShapeString
100
AcDbSpline
210
0
220
0
230
1
 70
8
 71
2
 72
6
 73
3
 74
0
 40
0.000000000
 40
0.000000000
 40
0.000000000
 40
1.000000000
 40
1.000000000
 40
1.000000000
 10
44.228348214
 20
10.132857143
 30
0.000000000
 10
44.616741071
 20
10.132857143
 30
0.000000000
 10
44.847767857
 20
9.938883929
 30
0.000000000
  0
SPLINE
  5
ACC
330
A02
100
AcDbEntity
  8
ShapeString
100
AcDbSpline
210
0
220
0
230
1
 70
8
 71
2
 72
6
 73
3
 74
0
 40
0.000000000
 40
0.000000000
 40
0.000000000
 40
1.000000000
 40
1.000000000
 40
1.000000000
 10
43.903571429
 20
10.091339286
 30
0.000000000
 10
44.081026786
 20
10.132857143
 30
0.000000000
 10
44.228348214
 20
10.132857143
 30
0.000000000
  0
SPLINE
  5
ACD
330
A02
100
AcDbEntity
  8
ShapeString
100
AcDbSpline
210
0
220
0
230
1
 70
8
 71
2
 72
6
 73
3
 74
0
 40
0.000000000
 40
0.000000000
 40
0.000000000
 40
1.000000000
 40
1.000000000
 40
1.000000000
 10
43.521875000
 20
9.968571429
 30
0.000000000
 10
43.726116071
 20
10.049933036
 30
0.000000000
 10
43.903571429
 20
10.091339286
 30
0.000000000
  0
LINE
  5
ACE
330
A02
100
AcDbEntity
  8
ShapeString
100
AcDbLine
 10
43.521875000
 20
9.625714286
 30
0.000000000
 11
43.521875000
 21
9.968571429
 31
0.000000000
  0
SPLINE
  5
ACF
330
A02
100
AcDbEntity
  8
ShapeString
100
AcDbSpline
210
0
220
0
230
1
 70
8
 71
2
 72
6
 73
3
 74
0
 40
0.000000000
 40
0.000000000
 40
0.000000000
 40
1.000000000
 40
1.000000000
 40
1.000000000
 10
43.899330357
 20
9.792120536
 30
0.000000000
 10
43.722767857
 20
9.737209821
 30
0.000000000
 10
43.521875000
 20
9.625714286
 30
0.000000000
  0
SPLINE
  5
AD0
330
A02
100
AcDbEntity
  8
ShapeString
100
AcDbSpline
210
0
220
0
230
1
 70
8
 71
2
 72
6
 73
3
 74
0
 40
0.000000000
 40
0.000000000
 40
0.000000000
 40
1.000000000
 40
1.000000000
 40
1.000000000
 10
44.235044643
 20
9.847142857
 30
0.000000000
 10
44.076004464
 20
9.847142857
 30
0.000000000
 10
43.899330357
 20
9.792120536
 30
0.000000000
  0
SPLINE
  5
AD1
330
A02
100
AcDbEntity
  8
ShapeString
100
AcDbSpline
210
0
220
0
230
1
 70
8
 71
2
 72
6
 73
3
 74
0
 40
0.000000000
 40
0.000000000
 40
0.000000000
 40
1.000000000
 40
1.000000000
 40
1.000000000
 10
44.599107143
 20
9.721808036
 30
0.000000000
 10
44.459375000
 20
9.847142857
 30
0.000000000
 10
44.235044643
 20
9.847142857
 30
0.000000000
  0
SPLINE
  5
AD2
330
A02
100
AcDbEntity
  8
ShapeString
100
AcDbSpline
210
0
220
0
230
1
 70
8
 71
2
 72
6
 73
3
 74
0
 40
0.000000000
 40
0.000000000
 40
0.000000000
 40
1.000000000
 40
1.000000000
 40
1.000000000
 10
44.738950893
 20
9.397700893
 30
0.000000000
 10
44.738950893
 20
9.596584821
 30
0.000000000
 10
44.599107143
 20
9.721808036
 30
0.000000000
  0
SPLINE
  5
AD3
330
A02
100
AcDbEntity
  8
ShapeString
100
AcDbSpline
210
0
220
0
230
1
 70
8
 71
2
 72
6
 73
3
 74
0
 40
0.000000000
 40
0.000000000
 40
0.000000000
 40
1.000000000
 40
1.000000000
 40
1.000000000
 10
44.674441964
 20
9.149598214
 30
0.000000000
 10
44.738950893
 20
9.275714286
 30
0.000000000
 10
44.738950893
 20
9.397700893
 30
0.000000000
  0
SPLINE
  5
AD4
330
A02
100
AcDbEntity
  8
ShapeString
100
AcDbSpline
210
0
220
0
230
1
 70
8
 71
2
 72
6
 73
3
 74
0
 40
0.000000000
 40
0.000000000
 40
0.000000000
 40
1.000000000
 40
1.000000000
 40
1.000000000
 10
44.447656250
 20
8.841339286
 30
0.000000000
 10
44.610044643
 20
9.023482143
 30
0.000000000
 10
44.674441964
 20
9.149598214
 30
0.000000000
  0
SPLINE
  5
AD5
330
A02
100
AcDbEntity
  8
ShapeString
100
AcDbSpline
210
0
220
0
230
1
 70
8
 71
2
 72
6
 73
3
 74
0
 40
0.000000000
 40
0.000000000
 40
0.000000000
 40
1.000000000
 40
1.000000000
 40
1.000000000
 10
44.029910714
 20
8.409419643
 30
0.000000000
 10
44.362276786
 20
8.744464286
 30
0.000000000
 10
44.447656250
 20
8.841339286
 30
0.000000000
  0
SPLINE
  5
AD6
330
A02
100
AcDbEntity
  8
ShapeString
100
AcDbSpline
210
0
220
0
230
1
 70
8
 71
2
 72
6
 73
3
 74
0
 40
0.000000000
 40
0.000000000
 40
0.000000000
 40
1.000000000
 40
1.000000000
 40
1.000000000
 10
43.505133929
 20
7.875714286
 30
0.000000000
 10
43.697656250
 20
8.074486607
 30
0.000000000
 10
44.029910714
 20
8.409419643
 30
0.000000000
  0
LINE
  5
AD7
330
A02
100
AcDbEntity
  8
ShapeString
100
AcDbLine
 10
43.505133929
 20
7.590000000
 30
0.000000000
 11
43.505133929
 21
7.875714286
 31
0.000000000
  0
LINE
  5
AD8
330
A02
100
AcDbEntity
  8
ShapeString
100
AcDbLine
 10
45.092187500
 20
7.590000000
 30
0.000000000
 11
43.505133929
 21
7.590000000
 31
0.000000000
  0
LINE
  5
AD9
330
A02
100
AcDbEntity
  8
ShapeString
100
AcDbLine
 10
45.092187500
 20
7.875714286
 30
0.000000000
 11
45.092187500
 21
7.590000000
 31
0.000000000
  0
LINE
  5
ADA
330
A02
100
AcDbEntity
  8
ShapeString
100
AcDbLine
 10
45.799218750
 20
8.018571429
 30
0.000000000
 11
46.152455357
 21
8.018571429
 31
0.000000000
  0
LINE
  5
ADB
330
A02
100
AcDbEntity
  8
ShapeString
100
AcDbLine
 10
45.799218750
 20
7.590000000
 30
0.000000000
 11
45.799218750
 21
8.018571429
 31
0.000000000
  0
LINE
  5
ADC
330
A02
100
AcDbEntity
  8
ShapeString
100
AcDbLine
 10
46.152455357
 20
7.590000000
 30
0.000000000
 11
45.799218750
 21
7.590000000
 31
0.000000000
  0
LINE
  5
ADD
330
A02
100
AcDbEntity
  8
ShapeString
100
AcDbLine
 10
46.152455357
 20
8.018571429
 30
0.000000000
 11
46.152455357
 21
7.590000000
 31
0.000000000
  0
LINE
  5
ADE
330
A02
100
AcDbEntity
  8
ShapeString
100
AcDbLine
 10
46.895424107
 20
10.090000000
 30
0.000000000
 11
48.222991071
 21
10.090000000
 31
0.000000000
  0
LINE
  5
ADF
330
A02
100
AcDbEntity
  8
ShapeString
100
AcDbLine
 10
46.895424107
 20
8.832857143
 30
0.000000000
 11
46.895424107
 21
10.090000000
 31
0.000000000
  0
SPLINE
  5
AE0
330
A02
100
AcDbEntity
  8
ShapeString
100
AcDbSpline
210
0
220
0
230
1
 70
8
 71
2
 72
6
 73
3
 74
0
 40
0.000000000
 40
0.000000000
 40
0.000000000
 40
1.000000000
 40
1.000000000
 40
1.000000000
 10
47.170758929
 20
8.924709821
 30
0.000000000
 10
47.036049107
 20
8.895245536
 30
0.000000000
 10
46.895424107
 20
8.832857143
 30
0.000000000
  0
SPLINE
  5
AE1
330
A02
100
AcDbEntity
  8
ShapeString
100
AcDbSpline
210
0
220
0
230
1
 70
8
 71
2
 72
6
 73
3
 74
0
 40
0.000000000
 40
0.000000000
 40
0.000000000
 40
1.000000000
 40
1.000000000
 40
1.000000000
 10
47.441183036
 20
8.954285714
 30
0.000000000
 10
47.305580357
 20
8.954285714
 30
0.000000000
 10
47.170758929
 20
8.924709821
 30
0.000000000
  0
SPLINE
  5
AE2
330
A02
100
AcDbEntity
  8
ShapeString
100
AcDbSpline
210
0
220
0
230
1
 70
8
 71
2
 72
6
 73
3
 74
0
 40
0.000000000
 40
0.000000000
 40
0.000000000
 40
1.000000000
 40
1.000000000
 40
1.000000000
 10
47.899888393
 20
8.802388393
 30
0.000000000
 10
47.730803571
 20
8.954285714
 30
0.000000000
 10
47.441183036
 20
8.954285714
 30
0.000000000
  0
SPLINE
  5
AE3
330
A02
100
AcDbEntity
  8
ShapeString
100
AcDbSpline
210
0
220
0
230
1
 70
8
 71
2
 72
6
 73
3
 74
0
 40
0.000000000
 40
0.000000000
 40
0.000000000
 40
1.000000000
 40
1.000000000
 40
1.000000000
 10
48.068973214
 20
8.390000000
 30
0.000000000
 10
48.068973214
 20
8.650491071
 30
0.000000000
 10
47.899888393
 20
8.802388393
 30
0.000000000
  0
SPLINE
  5
AE4
330
A02
100
AcDbEntity
  8
ShapeString
100
AcDbSpline
210
0
220
0
230
1
 70
8
 71
2
 72
6
 73
3
 74
0
 40
0.000000000
 40
0.000000000
 40
0.000000000
 40
1.000000000
 40
1.000000000
 40
1.000000000
 10
47.899888393
 20
7.977611607
 30
0.000000000
 10
48.068973214
 20
8.129508929
 30
0.000000000
 10
48.068973214
 20
8.390000000
 30
0.000000000
  0
SPLINE
  5
AE5
330
A02
100
AcDbEntity
  8
ShapeString
100
AcDbSpline
210
0
220
0
230
1
 70
8
 71
2
 72
6
 73
3
 74
0
 40
0.000000000
 40
0.000000000
 40
0.000000000
 40
1.000000000
 40
1.000000000
 40
1.000000000
 10
47.441183036
 20
7.825714286
 30
0.000000000
 10
47.730803571
 20
7.825714286
 30
0.000000000
 10
47.899888393
 20
7.977611607
 30
0.000000000
  0
SPLINE
  5
AE6
330
A02
100
AcDbEntity
  8
ShapeString
100
AcDbSpline
210
0
220
0
230
1
 70
8
 71
2
 72
6
 73
3
 74
0
 40
0.000000000
 40
0.000000000
 40
0.000000000
 40
1.000000000
 40
1.000000000
 40
1.000000000
 10
47.101339286
 20
7.866339286
 30
0.000000000
 10
47.262053571
 20
7.825714286
 30
0.000000000
 10
47.441183036
 20
7.825714286
 30
0.000000000
  0
SPLINE
  5
AE7
330
A02
100
AcDbEntity
  8
ShapeString
100
AcDbSpline
210
0
220
0
230
1
 70
8
 71
2
 72
6
 73
3
 74
0
 40
0.000000000
 40
0.000000000
 40
0.000000000
 40
1.000000000
 40
1.000000000
 40
1.000000000
 10
46.789955357
 20
7.990000000
 30
0.000000000
 10
46.940625000
 20
7.906964286
 30
0.000000000
 10
47.101339286
 20
7.866339286
 30
0.000000000
  0
LINE
  5
AE8
330
A02
100
AcDbEntity
  8
ShapeString
100
AcDbLine
 10
46.789955357
 20
7.647142857
 30
0.000000000
 11
46.789955357
 21
7.990000000
 31
0.000000000
  0
SPLINE
  5
AE9
330
A02
100
AcDbEntity
  8
ShapeString
100
AcDbSpline
210
0
220
0
230
1
 70
8
 71
2
 72
6
 73
3
 74
0
 40
0.000000000
 40
0.000000000
 40
0.000000000
 40
1.000000000
 40
1.000000000
 40
1.000000000
 10
47.127232143
 20
7.566785714
 30
0.000000000
 10
46.964062500
 20
7.593571429
 30
0.000000000
 10
46.789955357
 20
7.647142857
 30
0.000000000
  0
SPLINE
  5
AEA
330
A02
100
AcDbEntity
  8
ShapeString
100
AcDbSpline
210
0
220
0
230
1
 70
8
 71
2
 72
6
 73
3
 74
0
 40
0.000000000
 40
0.000000000
 40
0.000000000
 40
1.000000000
 40
1.000000000
 40
1.000000000
 10
47.447879464
 20
7.540000000
 30
0.000000000
 10
47.290513393
 20
7.540000000
 30
0.000000000
 10
47.127232143
 20
7.566785714
 30
0.000000000
  0
SPLINE
  5
AEB
330
A02
100
AcDbEntity
  8
ShapeString
100
AcDbSpline
210
0
220
0
230
1
 70
8
 71
2
 72
6
 73
3
 74
0
 40
0.000000000
 40
0.000000000
 40
0.000000000
 40
1.000000000
 40
1.000000000
 40
1.000000000
 10
48.156026786
 20
7.763325893
 30
0.000000000
 10
47.904910714
 20
7.540000000
 30
0.000000000
 10
47.447879464
 20
7.540000000
 30
0.000000000
  0
SPLINE
  5
AEC
330
A02
100
AcDbEntity
  8
ShapeString
100
AcDbSpline
210
0
220
0
230
1
 70
8
 71
2
 72
6
 73
3
 74
0
 40
0.000000000
 40
0.000000000
 40
0.000000000
 40
1.000000000
 40
1.000000000
 40
1.000000000
 10
48.407142857
 20
8.390000000
 30
0.000000000
 10
48.407142857
 20
7.986763393
 30
0.000000000
 10
48.156026786
 20
7.763325893
 30
0.000000000
  0
SPLINE
  5
AED
330
A02
100
AcDbEntity
  8
ShapeString
100
AcDbSpline
210
0
220
0
230
1
 70
8
 71
2
 72
6
 73
3
 74
0
 40
0.000000000
 40
0.000000000
 40
0.000000000
 40
1.000000000
 40
1.000000000
 40
1.000000000
 10
48.162723214
 20
9.010758929
 30
0.000000000
 10
48.407142857
 20
8.781517857
 30
0.000000000
 10
48.407142857
 20
8.390000000
 30
0.000000000
  0
SPLINE
  5
AEE
330
A02
100
AcDbEntity
  8
ShapeString
100
AcDbSpline
210
0
220
0
230
1
 70
8
 71
2
 72
6
 73
3
 74
0
 40
0.000000000
 40
0.000000000
 40
0.000000000
 40
1.000000000
 40
1.000000000
 40
1.000000000
 10
47.499776786
 20
9.240000000
 30
0.000000000
 10
47.918303571
 20
9.240000000
 30
0.000000000
 10
48.162723214
 20
9.010758929
 30
0.000000000
  0
SPLINE
  5
AEF
330
A02
100
AcDbEntity
  8
ShapeString
100
AcDbSpline
210
0
220
0
230
1
 70
8
 71
2
 72
6
 73
3
 74
0
 40
0.000000000
 40
0.000000000
 40
0.000000000
 40
1.000000000
 40
1.000000000
 40
1.000000000
 10
47.352455357
 20
9.227388393
 30
0.000000000
 10
47.426116071
 20
9.240000000
 30
0.000000000
 10
47.499776786
 20
9.240000000
 30
0.000000000
  0
SPLINE
  5
AF0
330
A02
100
AcDbEntity
  8
ShapeString
100
AcDbSpline
210
0
220
0
230
1
 70
8
 71
2
 72
6
 73
3
 74
0
 40
0.000000000
 40
0.000000000
 40
0.000000000
 40
1.000000000
 40
1.000000000
 40
1.000000000
 10
47.205133929
 20
9.189553571
 30
0.000000000
 10
47.278794643
 20
9.214776786
 30
0.000000000
 10
47.352455357
 20
9.227388393
 30
0.000000000
  0
LINE
  5
AF1
330
A02
100
AcDbEntity
  8
ShapeString
100
AcDbLine
 10
47.205133929
 20
9.804285714
 30
0.000000000
 11
47.205133929
 21
9.189553571
 31
0.000000000
  0
LINE
  5
AF2
330
A02
100
AcDbEntity
  8
ShapeString
100
AcDbLine
 10
48.222991071
 20
9.804285714
 30
0.000000000
 11
47.205133929
 21
9.804285714
 31
0.000000000
  0
LINE
  5
AF3
330
A02
100
AcDbEntity
  8
ShapeString
100
AcDbLine
 10
48.222991071
 20
10.090000000
 30
0.000000000
 11
48.222991071
 21
9.804285714
 31
0.000000000
  0
LINE
  5
AF4
330
A02
100
AcDbEntity
  8
ShapeString
100
AcDbLine
 10
49.911049107
 20
10.090000000
 30
0.000000000
 11
50.336272321
 21
10.090000000
 31
0.000000000
  0
LINE
  5
AF5
330
A02
100
AcDbEntity
  8
ShapeString
100
AcDbLine
 10
48.871428571
 20
8.508750000
 30
0.000000000
 11
49.911049107
 21
10.090000000
 31
0.000000000
  0
LINE
  5
AF6
330
A02
100
AcDbEntity
  8
ShapeString
100
AcDbLine
 10
48.871428571
 20
8.182857143
 30
0.000000000
 11
48.871428571
 21
8.508750000
 31
0.000000000
  0
LINE
  5
AF7
330
A02
100
AcDbEntity
  8
ShapeString
100
AcDbLine
 10
49.999776786
 20
8.182857143
 30
0.000000000
 11
48.871428571
 21
8.182857143
 31
0.000000000
  0
LINE
  5
AF8
330
A02
100
AcDbEntity
  8
ShapeString
100
AcDbLine
 10
49.999776786
 20
7.590000000
 30
0.000000000
 11
49.999776786
 21
8.182857143
 31
0.000000000
  0
LINE
  5
AF9
330
A02
100
AcDbEntity
  8
ShapeString
100
AcDbLine
 10
50.336272321
 20
7.590000000
 30
0.000000000
 11
49.999776786
 21
7.590000000
 31
0.000000000
  0
LINE
  5
AFA
330
A02
100
AcDbEntity
  8
ShapeString
100
AcDbLine
 10
50.336272321
 20
8.182857143
 30
0.000000000
 11
50.336272321
 21
7.590000000
 31
0.000000000
  0
LINE
  5
AFB
330
A02
100
AcDbEntity
  8
ShapeString
100
AcDbLine
 10
50.692857143
 20
8.182857143
 30
0.000000000
 11
50.336272321
 21
8.182857143
 31
0.000000000
  0
LINE
  5
AFC
330
A02
100
AcDbEntity
  8
ShapeString
100
AcDbLine
 10
50.692857143
 20
8.461428571
 30
0.000000000
 11
50.692857143
 21
8.182857143
 31
0.000000000
  0
LINE
  5
AFD
330
A02
100
AcDbEntity
  8
ShapeString
100
AcDbLine
 10
50.336272321
 20
8.461428571
 30
0.000000000
 11
50.692857143
 21
8.461428571
 31
0.000000000
  0
LINE
  5
AFE
330
A02
100
AcDbEntity
  8
ShapeString
100
AcDbLine
 10
50.336272321
 20
10.090000000
 30
0.000000000
 11
50.336272321
 21
8.461428571
 31
0.000000000
  0
LINE
  5
AFF
330
A02
100
AcDbEntity
  8
ShapeString
100
AcDbLine
 10
49.999776786
 20
9.795468750
 30
0.000000000
 11
49.145982143
 21
8.461428571
 31
0.000000000
  0
LINE
  5
B00
330
A02
100
AcDbEntity
  8
ShapeString
100
AcDbLine
 10
49.999776786
 20
8.461428571
 30
0.000000000
 11
49.999776786
 21
9.795468750
 31
0.000000000
  0
LINE
  5
B01
330
A02
100
AcDbEntity
  8
ShapeString
100
AcDbLine
 10
49.145982143
 20
8.461428571
 30
0.000000000
 11
49.999776786
 21
8.461428571
 31
0.000000000
  0
LINE
  5
B02
330
A02
100
AcDbEntity
  8
ShapeString
100
AcDbLine
 10
53.689397321
 20
7.868571429
 30
0.000000000
 11
53.689397321
 21
6.875714286
 31
0.000000000
  0
SPLINE
  5
B03
330
A02
100
AcDbEntity
  8
ShapeString
100
AcDbSpline
210
0
220
0
230
1
 70
8
 71
2
 72
6
 73
3
 74
0
 40
0.000000000
 40
0.000000000
 40
0.000000000
 40
1.000000000
 40
1.000000000
 40
1.000000000
 10
53.934598214
 20
7.620915179
 30
0.000000000
 10
53.786495536
 20
7.701830357
 30
0.000000000
 10
53.689397321
 20
7.868571429
 30
0.000000000
  0
SPLINE
  5
B04
330
A02
100
AcDbEntity
  8
ShapeString
100
AcDbSpline
210
0
220
0
230
1
 70
8
 71
2
 72
6
 73
3
 74
0
 40
0.000000000
 40
0.000000000
 40
0.000000000
 40
1.000000000
 40
1.000000000
 40
1.000000000
 10
54.288727679
 20
7.540000000
 30
0.000000000
 10
54.082812500
 20
7.540000000
 30
0.000000000
 10
53.934598214
 20
7.620915179
 30
0.000000000
  0
SPLINE
  5
B05
330
A02
100
AcDbEntity
  8
ShapeString
100
AcDbSpline
210
0
220
0
230
1
 70
8
 71
2
 72
6
 73
3
 74
0
 40
0.000000000
 40
0.000000000
 40
0.000000000
 40
1.000000000
 40
1.000000000
 40
1.000000000
 10
54.843638393
 20
7.811540179
 30
0.000000000
 10
54.630245536
 20
7.540000000
 30
0.000000000
 10
54.288727679
 20
7.540000000
 30
0.000000000
  0
SPLINE
  5
B06
330
A02
100
AcDbEntity
  8
ShapeString
100
AcDbSpline
210
0
220
0
230
1
 70
8
 71
2
 72
6
 73
3
 74
0
 40
0.000000000
 40
0.000000000
 40
0.000000000
 40
1.000000000
 40
1.000000000
 40
1.000000000
 10
55.057142857
 20
8.525714286
 30
0.000000000
 10
55.057142857
 20
8.083191964
 30
0.000000000
 10
54.843638393
 20
7.811540179
 30
0.000000000
  0
SPLINE
  5
B07
330
A02
100
AcDbEntity
  8
ShapeString
100
AcDbSpline
210
0
220
0
230
1
 70
8
 71
2
 72
6
 73
3
 74
0
 40
0.000000000
 40
0.000000000
 40
0.000000000
 40
1.000000000
 40
1.000000000
 40
1.000000000
 10
54.843638393
 20
9.239776786
 30
0.000000000
 10
55.057142857
 20
8.968236607
 30
0.000000000
 10
55.057142857
 20
8.525714286
 30
0.000000000
  0
SPLINE
  5
B08
330
A02
100
AcDbEntity
  8
ShapeString
100
AcDbSpline
210
0
220
0
230
1
 70
8
 71
2
 72
6
 73
3
 74
0
 40
0.000000000
 40
0.000000000
 40
0.000000000
 40
1.000000000
 40
1.000000000
 40
1.000000000
 10
54.288727679
 20
9.511428571
 30
0.000000000
 10
54.630245536
 20
9.511428571
 30
0.000000000
 10
54.843638393
 20
9.239776786
 30
0.000000000
  0
SPLINE
  5
B09
330
A02
100
AcDbEntity
  8
ShapeString
100
AcDbSpline
210
0
220
0
230
1
 70
8
 71
2
 72
6
 73
3
 74
0
 40
0.000000000
 40
0.000000000
 40
0.000000000
 40
1.000000000
 40
1.000000000
 40
1.000000000
 10
53.934598214
 20
9.430513393
 30
0.000000000
 10
54.082812500
 20
9.511428571
 30
0.000000000
 10
54.288727679
 20
9.511428571
 30
0.000000000
  0
SPLINE
  5
B0A
330
A02
100
AcDbEntity
  8
ShapeString
100
AcDbSpline
210
0
220
0
230
1
 70
8
 71
2
 72
6
 73
3
 74
0
 40
0.000000000
 40
0.000000000
 40
0.000000000
 40
1.000000000
 40
1.000000000
 40
1.000000000
 10
53.689397321
 20
9.182857143
 30
0.000000000
 10
53.786495536
 20
9.349598214
 30
0.000000000
 10
53.934598214
 20
9.430513393
 30
0.000000000
  0
LINE
  5
B0B
330
A02
100
AcDbEntity
  8
ShapeString
100
AcDbLine
 10
53.689397321
 20
9.468571429
 30
0.000000000
 11
53.689397321
 21
9.182857143
 31
0.000000000
  0
LINE
  5
B0C
330
A02
100
AcDbEntity
  8
ShapeString
100
AcDbLine
 10
53.379687500
 20
9.468571429
 30
0.000000000
 11
53.689397321
 21
9.468571429
 31
0.000000000
  0
LINE
  5
B0D
330
A02
100
AcDbEntity
  8
ShapeString
100
AcDbLine
 10
53.379687500
 20
6.875714286
 30
0.000000000
 11
53.379687500
 21
9.468571429
 31
0.000000000
  0
LINE
  5
B0E
330
A02
100
AcDbEntity
  8
ShapeString
100
AcDbLine
 10
53.689397321
 20
6.875714286
 30
0.000000000
 11
53.379687500
 21
6.875714286
 31
0.000000000
  0
SPLINE
  5
B0F
330
A02
100
AcDbEntity
  8
ShapeString
100
AcDbSpline
210
0
220
0
230
1
 70
8
 71
2
 72
6
 73
3
 74
0
 40
0.000000000
 40
0.000000000
 40
0.000000000
 40
1.000000000
 40
1.000000000
 40
1.000000000
 10
54.737388393
 20
8.525714286
 30
0.000000000
 10
54.737388393
 20
8.866450893
 30
0.000000000
 10
54.597544643
 20
9.060312500
 30
0.000000000
  0
SPLINE
  5
B10
330
A02
100
AcDbEntity
  8
ShapeString
100
AcDbSpline
210
0
220
0
230
1
 70
8
 71
2
 72
6
 73
3
 74
0
 40
0.000000000
 40
0.000000000
 40
0.000000000
 40
1.000000000
 40
1.000000000
 40
1.000000000
 10
54.597544643
 20
7.991004464
 30
0.000000000
 10
54.737388393
 20
8.184977679
 30
0.000000000
 10
54.737388393
 20
8.525714286
 30
0.000000000
  0
SPLINE
  5
B11
330
A02
100
AcDbEntity
  8
ShapeString
100
AcDbSpline
210
0
220
0
230
1
 70
8
 71
2
 72
6
 73
3
 74
0
 40
0.000000000
 40
0.000000000
 40
0.000000000
 40
1.000000000
 40
1.000000000
 40
1.000000000
 10
54.213392857
 20
7.797142857
 30
0.000000000
 10
54.457812500
 20
7.797142857
 30
0.000000000
 10
54.597544643
 20
7.991004464
 30
0.000000000
  0
SPLINE
  5
B12
330
A02
100
AcDbEntity
  8
ShapeString
100
AcDbSpline
210
0
220
0
230
1
 70
8
 71
2
 72
6
 73
3
 74
0
 40
0.000000000
 40
0.000000000
 40
0.000000000
 40
1.000000000
 40
1.000000000
 40
1.000000000
 10
53.829129464
 20
7.991004464
 30
0.000000000
 10
53.968973214
 20
7.797142857
 30
0.000000000
 10
54.213392857
 20
7.797142857
 30
0.000000000
  0
SPLINE
  5
B13
330
A02
100
AcDbEntity
  8
ShapeString
100
AcDbSpline
210
0
220
0
230
1
 70
8
 71
2
 72
6
 73
3
 74
0
 40
0.000000000
 40
0.000000000
 40
0.000000000
 40
1.000000000
 40
1.000000000
 40
1.000000000
 10
53.689397321
 20
8.525714286
 30
0.000000000
 10
53.689397321
 20
8.184977679
 30
0.000000000
 10
53.829129464
 20
7.991004464
 30
0.000000000
  0
SPLINE
  5
B14
330
A02
100
AcDbEntity
  8
ShapeString
100
AcDbSpline
210
0
220
0
230
1
 70
8
 71
2
 72
6
 73
3
 74
0
 40
0.000000000
 40
0.000000000
 40
0.000000000
 40
1.000000000
 40
1.000000000
 40
1.000000000
 10
53.829129464
 20
9.060312500
 30
0.000000000
 10
53.689397321
 20
8.866450893
 30
0.000000000
 10
53.689397321
 20
8.525714286
 30
0.000000000
  0
SPLINE
  5
B15
330
A02
100
AcDbEntity
  8
ShapeString
100
AcDbSpline
210
0
220
0
230
1
 70
8
 71
2
 72
6
 73
3
 74
0
 40
0.000000000
 40
0.000000000
 40
0.000000000
 40
1.000000000
 40
1.000000000
 40
1.000000000
 10
54.213392857
 20
9.254285714
 30
0.000000000
 10
53.968973214
 20
9.254285714
 30
0.000000000
 10
53.829129464
 20
9.060312500
 30
0.000000000
  0
SPLINE
  5
B16
330
A02
100
AcDbEntity
  8
ShapeString
100
AcDbSpline
210
0
220
0
230
1
 70
8
 71
2
 72
6
 73
3
 74
0
 40
0.000000000
 40
0.000000000
 40
0.000000000
 40
1.000000000
 40
1.000000000
 40
1.000000000
 10
54.597544643
 20
9.060312500
 30
0.000000000
 10
54.457812500
 20
9.254285714
 30
0.000000000
 10
54.213392857
 20
9.254285714
 30
0.000000000
  0
LINE
  5
B17
330
A02
100
AcDbEntity
  8
ShapeString
100
AcDbLine
 10
55.569977679
 20
9.468571429
 30
0.000000000
 11
55.878013393
 21
9.468571429
 31
0.000000000
  0
LINE
  5
B18
330
A02
100
AcDbEntity
  8
ShapeString
100
AcDbLine
 10
55.569977679
 20
7.590000000
 30
0.000000000
 11
55.569977679
 21
9.468571429
 31
0.000000000
  0
LINE
  5
B19
330
A02
100
AcDbEntity
  8
ShapeString
100
AcDbLine
 10
55.878013393
 20
7.590000000
 30
0.000000000
 11
55.569977679
 21
7.590000000
 31
0.000000000
  0
LINE
  5
B1A
330
A02
100
AcDbEntity
  8
ShapeString
100
AcDbLine
 10
55.878013393
 20
9.468571429
 30
0.000000000
 11
55.878013393
 21
7.590000000
 31
0.000000000
  0
LINE
  5
B1B
330
A02
100
AcDbEntity
  8
ShapeString
100
AcDbLine
 10
55.569977679
 20
10.197142857
 30
0.000000000
 11
55.878013393
 21
10.197142857
 31
0.000000000
  0
LINE
  5
B1C
330
A02
100
AcDbEntity
  8
ShapeString
100
AcDbLine
 10
55.569977679
 20
9.804285714
 30
0.000000000
 11
55.569977679
 21
10.197142857
 31
0.000000000
  0
LINE
  5
B1D
330
A02
100
AcDbEntity
  8
ShapeString
100
AcDbLine
 10
55.878013393
 20
9.804285714
 30
0.000000000
 11
55.569977679
 21
9.804285714
 31
0.000000000
  0
LINE
  5
B1E
330
A02
100
AcDbEntity
  8
ShapeString
100
AcDbLine
 10
55.878013393
 20
10.197142857
 30
0.000000000
 11
55.878013393
 21
9.804285714
 31
0.000000000
  0
LINE
  5
B1F
330
A02
100
AcDbEntity
  8
ShapeString
100
AcDbLine
 10
58.078571429
 20
8.723147321
 30
0.000000000
 11
58.078571429
 21
7.590000000
 31
0.000000000
  0
SPLINE
  5
B20
330
A02
100
AcDbEntity
  8
ShapeString
100
AcDbSpline
210
0
220
0
230
1
 70
8
 71
2
 72
6
 73
3
 74
0
 40
0.000000000
 40
0.000000000
 40
0.000000000
 40
1.000000000
 40
1.000000000
 40
1.000000000
 10
57.912834821
 20
9.311428571
 30
0.000000000
 10
58.078571429
 20
9.111428571
 30
0.000000000
 10
58.078571429
 20
8.723147321
 30
0.000000000
  0
SPLINE
  5
B21
330
A02
100
AcDbEntity
  8
ShapeString
100
AcDbSpline
210
0
220
0
230
1
 70
8
 71
2
 72
6
 73
3
 74
0
 40
0.000000000
 40
0.000000000
 40
0.000000000
 40
1.000000000
 40
1.000000000
 40
1.000000000
 10
57.423995536
 20
9.511428571
 30
0.000000000
 10
57.747098214
 20
9.511428571
 30
0.000000000
 10
57.912834821
 20
9.311428571
 30
0.000000000
  0
SPLINE
  5
B22
330
A02
100
AcDbEntity
  8
ShapeString
100
AcDbSpline
210
0
220
0
230
1
 70
8
 71
2
 72
6
 73
3
 74
0
 40
0.000000000
 40
0.000000000
 40
0.000000000
 40
1.000000000
 40
1.000000000
 40
1.000000000
 10
57.078236607
 20
9.427834821
 30
0.000000000
 10
57.228125000
 20
9.511428571
 30
0.000000000
 10
57.423995536
 20
9.511428571
 30
0.000000000
  0
SPLINE
  5
B23
330
A02
100
AcDbEntity
  8
ShapeString
100
AcDbSpline
210
0
220
0
230
1
 70
8
 71
2
 72
6
 73
3
 74
0
 40
0.000000000
 40
0.000000000
 40
0.000000000
 40
1.000000000
 40
1.000000000
 40
1.000000000
 10
56.817968750
 20
9.175714286
 30
0.000000000
 10
56.928459821
 20
9.344352679
 30
0.000000000
 10
57.078236607
 20
9.427834821
 30
0.000000000
  0
LINE
  5
B24
330
A02
100
AcDbEntity
  8
ShapeString
100
AcDbLine
 10
56.817968750
 20
9.468571429
 30
0.000000000
 11
56.817968750
 21
9.175714286
 31
0.000000000
  0
LINE
  5
B25
330
A02
100
AcDbEntity
  8
ShapeString
100
AcDbLine
 10
56.508258929
 20
9.468571429
 30
0.000000000
 11
56.817968750
 21
9.468571429
 31
0.000000000
  0
LINE
  5
B26
330
A02
100
AcDbEntity
  8
ShapeString
100
AcDbLine
 10
56.508258929
 20
7.590000000
 30
0.000000000
 11
56.508258929
 21
9.468571429
 31
0.000000000
  0
LINE
  5
B27
330
A02
100
AcDbEntity
  8
ShapeString
100
AcDbLine
 10
56.817968750
 20
7.590000000
 30
0.000000000
 11
56.508258929
 21
7.590000000
 31
0.000000000
  0
LINE
  5
B28
330
A02
100
AcDbEntity
  8
ShapeString
100
AcDbLine
 10
56.817968750
 20
8.651049107
 30
0.000000000
 11
56.817968750
 21
7.590000000
 31
0.000000000
  0
SPLINE
  5
B29
330
A02
100
AcDbEntity
  8
ShapeString
100
AcDbSpline
210
0
220
0
230
1
 70
8
 71
2
 72
6
 73
3
 74
0
 40
0.000000000
 40
0.000000000
 40
0.000000000
 40
1.000000000
 40
1.000000000
 40
1.000000000
 10
56.961941964
 20
9.081964286
 30
0.000000000
 10
56.817968750
 20
8.923928571
 30
0.000000000
 10
56.817968750
 20
8.651049107
 30
0.000000000
  0
SPLINE
  5
B2A
330
A02
100
AcDbEntity
  8
ShapeString
100
AcDbSpline
210
0
220
0
230
1
 70
8
 71
2
 72
6
 73
3
 74
0
 40
0.000000000
 40
0.000000000
 40
0.000000000
 40
1.000000000
 40
1.000000000
 40
1.000000000
 10
57.355357143
 20
9.240000000
 30
0.000000000
 10
57.105915179
 20
9.240000000
 30
0.000000000
 10
56.961941964
 20
9.081964286
 30
0.000000000
  0
SPLINE
  5
B2B
330
A02
100
AcDbEntity
  8
ShapeString
100
AcDbSpline
210
0
220
0
230
1
 70
8
 71
2
 72
6
 73
3
 74
0
 40
0.000000000
 40
0.000000000
 40
0.000000000
 40
1.000000000
 40
1.000000000
 40
1.000000000
 10
57.666741071
 20
9.108638393
 30
0.000000000
 10
57.562946429
 20
9.240000000
 30
0.000000000
 10
57.355357143
 20
9.240000000
 30
0.000000000
  0
SPLINE
  5
B2C
330
A02
100
AcDbEntity
  8
ShapeString
100
AcDbSpline
210
0
220
0
230
1
 70
8
 71
2
 72
6
 73
3
 74
0
 40
0.000000000
 40
0.000000000
 40
0.000000000
 40
1.000000000
 40
1.000000000
 40
1.000000000
 10
57.770535714
 20
8.713102679
 30
0.000000000
 10
57.770535714
 20
8.977388393
 30
0.000000000
 10
57.666741071
 20
9.108638393
 30
0.000000000
  0
LINE
  5
B2D
330
A02
100
AcDbEntity
  8
ShapeString
100
AcDbLine
 10
57.770535714
 20
7.590000000
 30
0.000000000
 11
57.770535714
 21
8.713102679
 31
0.000000000
  0
LINE
  5
B2E
330
A02
100
AcDbEntity
  8
ShapeString
100
AcDbLine
 10
58.078571429
 20
7.590000000
 30
0.000000000
 11
57.770535714
 21
7.590000000
 31
0.000000000
  0
LINE
  5
B2F
330
A02
100
AcDbEntity
  8
ShapeString
100
AcDbLine
 10
58.793526786
 20
7.875714286
 30
0.000000000
 11
59.345982143
 21
7.875714286
 31
0.000000000
  0
LINE
  5
B30
330
A02
100
AcDbEntity
  8
ShapeString
100
AcDbLine
 10
58.793526786
 20
7.590000000
 30
0.000000000
 11
58.793526786
 21
7.875714286
 31
0.000000000
  0
LINE
  5
B31
330
A02
100
AcDbEntity
  8
ShapeString
100
AcDbLine
 10
60.233258929
 20
7.590000000
 30
0.000000000
 11
58.793526786
 21
7.590000000
 31
0.000000000
  0
LINE
  5
B32
330
A02
100
AcDbEntity
  8
ShapeString
100
AcDbLine
 10
60.233258929
 20
7.875714286
 30
0.000000000
 11
60.233258929
 21
7.590000000
 31
0.000000000
  0
LINE
  5
B33
330
A02
100
AcDbEntity
  8
ShapeString
100
AcDbLine
 10
59.680803571
 20
7.875714286
 30
0.000000000
 11
60.233258929
 21
7.875714286
 31
0.000000000
  0
LINE
  5
B34
330
A02
100
AcDbEntity
  8
ShapeString
100
AcDbLine
 10
59.680803571
 20
10.090000000
 30
0.000000000
 11
59.680803571
 21
7.875714286
 31
0.000000000
  0
LINE
  5
B35
330
A02
100
AcDbEntity
  8
ShapeString
100
AcDbLine
 10
59.342633929
 20
10.090000000
 30
0.000000000
 11
59.680803571
 21
10.090000000
 31
0.000000000
  0
LINE
  5
B36
330
A02
100
AcDbEntity
  8
ShapeString
100
AcDbLine
 10
58.744977679
 20
9.968571429
 30
0.000000000
 11
59.342633929
 21
10.090000000
 31
0.000000000
  0
LINE
  5
B37
330
A02
100
AcDbEntity
  8
ShapeString
100
AcDbLine
 10
58.744977679
 20
9.661428571
 30
0.000000000
 11
58.744977679
 21
9.968571429
 31
0.000000000
  0
LINE
  5
B38
330
A02
100
AcDbEntity
  8
ShapeString
100
AcDbLine
 10
59.345982143
 20
9.782857143
 30
0.000000000
 11
58.744977679
 21
9.661428571
 31
0.000000000
  0
LINE
  5
B39
330
A02
100
AcDbEntity
  8
ShapeString
100
AcDbLine
 10
59.345982143
 20
7.875714286
 30
0.000000000
 11
59.345982143
 21
9.782857143
 31
0.000000000
  0
LINE
  5
B3A
330
A02
100
AcDbEntity
  8
ShapeString
100
AcDbLine
 10
60.910156250
 20
8.461428571
 30
0.000000000
 11
63.056361607
 21
8.461428571
 31
0.000000000
  0
LINE
  5
B3B
330
A02
100
AcDbEntity
  8
ShapeString
100
AcDbLine
 10
60.910156250
 20
8.175714286
 30
0.000000000
 11
60.910156250
 21
8.461428571
 31
0.000000000
  0
LINE
  5
B3C
330
A02
100
AcDbEntity
  8
ShapeString
100
AcDbLine
 10
63.056361607
 20
8.175714286
 30
0.000000000
 11
60.910156250
 21
8.175714286
 31
0.000000000
  0
LINE
  5
B3D
330
A02
100
AcDbEntity
  8
ShapeString
100
AcDbLine
 10
63.056361607
 20
8.461428571
 30
0.000000000
 11
63.056361607
 21
8.175714286
 31
0.000000000
  0
LINE
  5
B3E
330
A02
100
AcDbEntity
  8
ShapeString
100
AcDbLine
 10
60.910156250
 20
9.140000000
 30
0.000000000
 11
63.056361607
 21
9.140000000
 31
0.000000000
  0
LINE
  5
B3F
330
A02
100
AcDbEntity
  8
ShapeString
100
AcDbLine
 10
60.910156250
 20
8.861428571
 30
0.000000000
 11
60.910156250
 21
9.140000000
 31
0.000000000
  0
LINE
  5
B40
330
A02
100
AcDbEntity
  8
ShapeString
100
AcDbLine
 10
63.056361607
 20
8.861428571
 30
0.000000000
 11
60.910156250
 21
8.861428571
 31
0.000000000
  0
LINE
  5
B41
330
A02
100
AcDbEntity
  8
ShapeString
100
AcDbLine
 10
63.056361607
 20
9.140000000
 30
0.000000000
 11
63.056361607
 21
8.861428571
 31
0.000000000
  0
SPLINE
  5
B42
330
A02
100
AcDbEntity
  8
ShapeString
100
AcDbSpline
210
0
220
0
230
1
 70
8
 71
2
 72
6
 73
3
 74
0
 40
0.000000000
 40
0.000000000
 40
0.000000000
 40
1.000000000
 40
1.000000000
 40
1.000000000
 10
64.940066964
 20
8.762879464
 30
0.000000000
 10
65.048883929
 20
8.726049107
 30
0.000000000
 10
65.151785714
 20
8.605401786
 30
0.000000000
  0
SPLINE
  5
B43
330
A02
100
AcDbEntity
  8
ShapeString
100
AcDbSpline
210
0
220
0
230
1
 70
8
 71
2
 72
6
 73
3
 74
0
 40
0.000000000
 40
0.000000000
 40
0.000000000
 40
1.000000000
 40
1.000000000
 40
1.000000000
 10
65.258928571
 20
8.978727679
 30
0.000000000
 10
65.149330357
 20
8.823147321
 30
0.000000000
 10
64.940066964
 20
8.762879464
 30
0.000000000
  0
SPLINE
  5
B44
330
A02
100
AcDbEntity
  8
ShapeString
100
AcDbSpline
210
0
220
0
230
1
 70
8
 71
2
 72
6
 73
3
 74
0
 40
0.000000000
 40
0.000000000
 40
0.000000000
 40
1.000000000
 40
1.000000000
 40
1.000000000
 10
65.368638393
 20
9.370357143
 30
0.000000000
 10
65.368638393
 20
9.134419643
 30
0.000000000
 10
65.258928571
 20
8.978727679
 30
0.000000000
  0
SPLINE
  5
B45
330
A02
100
AcDbEntity
  8
ShapeString
100
AcDbSpline
210
0
220
0
230
1
 70
8
 71
2
 72
6
 73
3
 74
0
 40
0.000000000
 40
0.000000000
 40
0.000000000
 40
1.000000000
 40
1.000000000
 40
1.000000000
 10
65.157700893
 20
9.910870536
 30
0.000000000
 10
65.368638393
 20
9.731852679
 30
0.000000000
 10
65.368638393
 20
9.370357143
 30
0.000000000
  0
SPLINE
  5
B46
330
A02
100
AcDbEntity
  8
ShapeString
100
AcDbSpline
210
0
220
0
230
1
 70
8
 71
2
 72
6
 73
3
 74
0
 40
0.000000000
 40
0.000000000
 40
0.000000000
 40
1.000000000
 40
1.000000000
 40
1.000000000
 10
64.518191964
 20
10.090000000
 30
0.000000000
 10
64.946763393
 20
10.090000000
 30
0.000000000
 10
65.157700893
 20
9.910870536
 30
0.000000000
  0
LINE
  5
B47
330
A02
100
AcDbEntity
  8
ShapeString
100
AcDbLine
 10
63.754799107
 20
10.090000000
 30
0.000000000
 11
64.518191964
 21
10.090000000
 31
0.000000000
  0
LINE
  5
B48
330
A02
100
AcDbEntity
  8
ShapeString
100
AcDbLine
 10
63.754799107
 20
7.590000000
 30
0.000000000
 11
63.754799107
 21
10.090000000
 31
0.000000000
  0
LINE
  5
B49
330
A02
100
AcDbEntity
  8
ShapeString
100
AcDbLine
 10
64.092968750
 20
7.590000000
 30
0.000000000
 11
63.754799107
 21
7.590000000
 31
0.000000000
  0
LINE
  5
B4A
330
A02
100
AcDbEntity
  8
ShapeString
100
AcDbLine
 10
64.092968750
 20
8.647142857
 30
0.000000000
 11
64.092968750
 21
7.590000000
 31
0.000000000
  0
LINE
  5
B4B
330
A02
100
AcDbEntity
  8
ShapeString
100
AcDbLine
 10
64.461272321
 20
8.647142857
 30
0.000000000
 11
64.092968750
 21
8.647142857
 31
0.000000000
  0
SPLINE
  5
B4C
330
A02
100
AcDbEntity
  8
ShapeString
100
AcDbSpline
210
0
220
0
230
1
 70
8
 71
2
 72
6
 73
3
 74
0
 40
0.000000000
 40
0.000000000
 40
0.000000000
 40
1.000000000
 40
1.000000000
 40
1.000000000
 10
64.778459821
 20
8.565000000
 30
0.000000000
 10
64.662165179
 20
8.647142857
 30
0.000000000
 10
64.461272321
 20
8.647142857
 30
0.000000000
  0
SPLINE
  5
B4D
330
A02
100
AcDbEntity
  8
ShapeString
100
AcDbSpline
210
0
220
0
230
1
 70
8
 71
2
 72
6
 73
3
 74
0
 40
0.000000000
 40
0.000000000
 40
0.000000000
 40
1.000000000
 40
1.000000000
 40
1.000000000
 10
65.018750000
 20
8.231629464
 30
0.000000000
 10
64.894866071
 20
8.482968750
 30
0.000000000
 10
64.778459821
 20
8.565000000
 30
0.000000000
  0
LINE
  5
B4E
330
A02
100
AcDbEntity
  8
ShapeString
100
AcDbLine
 10
65.338504464
 20
7.590000000
 30
0.000000000
 11
65.018750000
 21
8.231629464
 31
0.000000000
  0
LINE
  5
B4F
330
A02
100
AcDbEntity
  8
ShapeString
100
AcDbLine
 10
65.701785714
 20
7.590000000
 30
0.000000000
 11
65.338504464
 21
7.590000000
 31
0.000000000
  0
LINE
  5
B50
330
A02
100
AcDbEntity
  8
ShapeString
100
AcDbLine
 10
65.358593750
 20
8.273593750
 30
0.000000000
 11
65.701785714
 21
7.590000000
 31
0.000000000
  0
SPLINE
  5
B51
330
A02
100
AcDbEntity
  8
ShapeString
100
AcDbSpline
210
0
220
0
230
1
 70
8
 71
2
 72
6
 73
3
 74
0
 40
0.000000000
 40
0.000000000
 40
0.000000000
 40
1.000000000
 40
1.000000000
 40
1.000000000
 10
65.151785714
 20
8.605401786
 30
0.000000000
 10
65.254799107
 20
8.484754464
 30
0.000000000
 10
65.358593750
 20
8.273593750
 30
0.000000000
  0
LINE
  5
B52
330
A02
100
AcDbEntity
  8
ShapeString
100
AcDbLine
 10
64.092968750
 20
9.811428571
 30
0.000000000
 11
64.092968750
 21
8.925714286
 31
0.000000000
  0
LINE
  5
B53
330
A02
100
AcDbEntity
  8
ShapeString
100
AcDbLine
 10
64.518191964
 20
9.811428571
 30
0.000000000
 11
64.092968750
 21
9.811428571
 31
0.000000000
  0
SPLINE
  5
B54
330
A02
100
AcDbEntity
  8
ShapeString
100
AcDbSpline
210
0
220
0
230
1
 70
8
 71
2
 72
6
 73
3
 74
0
 40
0.000000000
 40
0.000000000
 40
0.000000000
 40
1.000000000
 40
1.000000000
 40
1.000000000
 10
64.887276786
 20
9.700267857
 30
0.000000000
 10
64.762611607
 20
9.811428571
 30
0.000000000
 10
64.518191964
 20
9.811428571
 30
0.000000000
  0
SPLINE
  5
B55
330
A02
100
AcDbEntity
  8
ShapeString
100
AcDbSpline
210
0
220
0
230
1
 70
8
 71
2
 72
6
 73
3
 74
0
 40
0.000000000
 40
0.000000000
 40
0.000000000
 40
1.000000000
 40
1.000000000
 40
1.000000000
 10
65.012053571
 20
9.370245536
 30
0.000000000
 10
65.012053571
 20
9.589218750
 30
0.000000000
 10
64.887276786
 20
9.700267857
 30
0.000000000
  0
SPLINE
  5
B56
330
A02
100
AcDbEntity
  8
ShapeString
100
AcDbSpline
210
0
220
0
230
1
 70
8
 71
2
 72
6
 73
3
 74
0
 40
0.000000000
 40
0.000000000
 40
0.000000000
 40
1.000000000
 40
1.000000000
 40
1.000000000
 10
64.887276786
 20
9.038437500
 30
0.000000000
 10
65.012053571
 20
9.151272321
 30
0.000000000
 10
65.012053571
 20
9.370245536
 30
0.000000000
  0
SPLINE
  5
B57
330
A02
100
AcDbEntity
  8
ShapeString
100
AcDbSpline
210
0
220
0
230
1
 70
8
 71
2
 72
6
 73
3
 74
0
 40
0.000000000
 40
0.000000000
 40
0.000000000
 40
1.000000000
 40
1.000000000
 40
1.000000000
 10
64.518191964
 20
8.925714286
 30
0.000000000
 10
64.762611607
 20
8.925714286
 30
0.000000000
 10
64.887276786
 20
9.038437500
 30
0.000000000
  0
LINE
  5
B58
330
A02
100
AcDbEntity
  8
ShapeString
100
AcDbLine
 10
64.092968750
 20
8.925714286
 30
0.000000000
 11
64.518191964
 21
8.925714286
 31
0.000000000
  0
LINE
  5
B59
330
A02
100
AcDbEntity
  8
ShapeString
100
AcDbLine
 10
66.140513393
 20
10.090000000
 30
0.000000000
 11
66.478683036
 21
10.090000000
 31
0.000000000
  0
LINE
  5
B5A
330
A02
100
AcDbEntity
  8
ShapeString
100
AcDbLine
 10
66.140513393
 20
7.590000000
 30
0.000000000
 11
66.140513393
 21
10.090000000
 31
0.000000000
  0
LINE
  5
B5B
330
A02
100
AcDbEntity
  8
ShapeString
100
AcDbLine
 10
66.478683036
 20
7.590000000
 30
0.000000000
 11
66.140513393
 21
7.590000000
 31
0.000000000
  0
LINE
  5
B5C
330
A02
100
AcDbEntity
  8
ShapeString
100
AcDbLine
 10
66.478683036
 20
10.090000000
 30
0.000000000
 11
66.478683036
 21
7.590000000
 31
0.000000000
  0
LINE
  5
B5D
330
A02
100
AcDbEntity
  8
ShapeString
100
AcDbLine
 10
68.859040179
 20
7.946026786
 30
0.000000000
 11
68.859040179
 21
8.618571429
 31
0.000000000
  0
SPLINE
  5
B5E
330
A02
100
AcDbEntity
  8
ShapeString
100
AcDbSpline
210
0
220
0
230
1
 70
8
 71
2
 72
6
 73
3
 74
0
 40
0.000000000
 40
0.000000000
 40
0.000000000
 40
1.000000000
 40
1.000000000
 40
1.000000000
 10
68.606250000
 20
7.849598214
 30
0.000000000
 10
68.746875000
 20
7.880625000
 30
0.000000000
 10
68.859040179
 20
7.946026786
 30
0.000000000
  0
SPLINE
  5
B5F
330
A02
100
AcDbEntity
  8
ShapeString
100
AcDbSpline
210
0
220
0
230
1
 70
8
 71
2
 72
6
 73
3
 74
0
 40
0.000000000
 40
0.000000000
 40
0.000000000
 40
1.000000000
 40
1.000000000
 40
1.000000000
 10
68.286495536
 20
7.818571429
 30
0.000000000
 10
68.465625000
 20
7.818571429
 30
0.000000000
 10
68.606250000
 20
7.849598214
 30
0.000000000
  0
SPLINE
  5
B60
330
A02
100
AcDbEntity
  8
ShapeString
100
AcDbSpline
210
0
220
0
230
1
 70
8
 71
2
 72
6
 73
3
 74
0
 40
0.000000000
 40
0.000000000
 40
0.000000000
 40
1.000000000
 40
1.000000000
 40
1.000000000
 10
67.597544643
 20
8.074486607
 30
0.000000000
 10
67.827790179
 20
7.818571429
 30
0.000000000
 10
68.286495536
 20
7.818571429
 30
0.000000000
  0
SPLINE
  5
B61
330
A02
100
AcDbEntity
  8
ShapeString
100
AcDbSpline
210
0
220
0
230
1
 70
8
 71
2
 72
6
 73
3
 74
0
 40
0.000000000
 40
0.000000000
 40
0.000000000
 40
1.000000000
 40
1.000000000
 40
1.000000000
 10
67.367410714
 20
8.835647321
 30
0.000000000
 10
67.367410714
 20
8.330401786
 30
0.000000000
 10
67.597544643
 20
8.074486607
 30
0.000000000
  0
SPLINE
  5
B62
330
A02
100
AcDbEntity
  8
ShapeString
100
AcDbSpline
210
0
220
0
230
1
 70
8
 71
2
 72
6
 73
3
 74
0
 40
0.000000000
 40
0.000000000
 40
0.000000000
 40
1.000000000
 40
1.000000000
 40
1.000000000
 10
67.597544643
 20
9.598370536
 30
0.000000000
 10
67.367410714
 20
9.342455357
 30
0.000000000
 10
67.367410714
 20
8.835647321
 30
0.000000000
  0
SPLINE
  5
B63
330
A02
100
AcDbEntity
  8
ShapeString
100
AcDbSpline
210
0
220
0
230
1
 70
8
 71
2
 72
6
 73
3
 74
0
 40
0.000000000
 40
0.000000000
 40
0.000000000
 40
1.000000000
 40
1.000000000
 40
1.000000000
 10
68.286495536
 20
9.854285714
 30
0.000000000
 10
67.827790179
 20
9.854285714
 30
0.000000000
 10
67.597544643
 20
9.598370536
 30
0.000000000
  0
SPLINE
  5
B64
330
A02
100
AcDbEntity
  8
ShapeString
100
AcDbSpline
210
0
220
0
230
1
 70
8
 71
2
 72
6
 73
3
 74
0
 40
0.000000000
 40
0.000000000
 40
0.000000000
 40
1.000000000
 40
1.000000000
 40
1.000000000
 10
68.730133929
 20
9.775267857
 30
0.000000000
 10
68.519196429
 20
9.854285714
 30
0.000000000
 10
68.286495536
 20
9.854285714
 30
0.000000000
  0
SPLINE
  5
B65
330
A02
100
AcDbEntity
  8
ShapeString
100
AcDbSpline
210
0
220
0
230
1
 70
8
 71
2
 72
6
 73
3
 74
0
 40
0.000000000
 40
0.000000000
 40
0.000000000
 40
1.000000000
 40
1.000000000
 40
1.000000000
 10
69.128571429
 20
9.540000000
 30
0.000000000
 10
68.941071429
 20
9.696361607
 30
0.000000000
 10
68.730133929
 20
9.775267857
 30
0.000000000
  0
LINE
  5
B66
330
A02
100
AcDbEntity
  8
ShapeString
100
AcDbLine
 10
69.128571429
 20
9.897142857
 30
0.000000000
 11
69.128571429
 21
9.540000000
 31
0.000000000
  0
SPLINE
  5
B67
330
A02
100
AcDbEntity
  8
ShapeString
100
AcDbSpline
210
0
220
0
230
1
 70
8
 71
2
 72
6
 73
3
 74
0
 40
0.000000000
 40
0.000000000
 40
0.000000000
 40
1.000000000
 40
1.000000000
 40
1.000000000
 10
68.722544643
 20
10.073035714
 30
0.000000000
 10
68.942745536
 20
10.013325893
 30
0.000000000
 10
69.128571429
 20
9.897142857
 30
0.000000000
  0
SPLINE
  5
B68
330
A02
100
AcDbEntity
  8
ShapeString
100
AcDbSpline
210
0
220
0
230
1
 70
8
 71
2
 72
6
 73
3
 74
0
 40
0.000000000
 40
0.000000000
 40
0.000000000
 40
1.000000000
 40
1.000000000
 40
1.000000000
 10
68.258035714
 20
10.132857143
 30
0.000000000
 10
68.502455357
 20
10.132857143
 30
0.000000000
 10
68.722544643
 20
10.073035714
 30
0.000000000
  0
SPLINE
  5
B69
330
A02
100
AcDbEntity
  8
ShapeString
100
AcDbSpline
210
0
220
0
230
1
 70
8
 71
2
 72
6
 73
3
 74
0
 40
0.000000000
 40
0.000000000
 40
0.000000000
 40
1.000000000
 40
1.000000000
 40
1.000000000
 10
67.341406250
 20
9.790558036
 30
0.000000000
 10
67.672098214
 20
10.132857143
 30
0.000000000
 10
68.258035714
 20
10.132857143
 30
0.000000000
  0
SPLINE
  5
B6A
330
A02
100
AcDbEntity
  8
ShapeString
100
AcDbSpline
210
0
220
0
230
1
 70
8
 71
2
 72
6
 73
3
 74
0
 40
0.000000000
 40
0.000000000
 40
0.000000000
 40
1.000000000
 40
1.000000000
 40
1.000000000
 10
67.010825893
 20
8.835647321
 30
0.000000000
 10
67.010825893
 20
9.448258929
 30
0.000000000
 10
67.341406250
 20
9.790558036
 30
0.000000000
  0
SPLINE
  5
B6B
330
A02
100
AcDbEntity
  8
ShapeString
100
AcDbSpline
210
0
220
0
230
1
 70
8
 71
2
 72
6
 73
3
 74
0
 40
0.000000000
 40
0.000000000
 40
0.000000000
 40
1.000000000
 40
1.000000000
 40
1.000000000
 10
67.341406250
 20
7.882299107
 30
0.000000000
 10
67.010825893
 20
8.224598214
 30
0.000000000
 10
67.010825893
 20
8.835647321
 30
0.000000000
  0
SPLINE
  5
B6C
330
A02
100
AcDbEntity
  8
ShapeString
100
AcDbSpline
210
0
220
0
230
1
 70
8
 71
2
 72
6
 73
3
 74
0
 40
0.000000000
 40
0.000000000
 40
0.000000000
 40
1.000000000
 40
1.000000000
 40
1.000000000
 10
68.258035714
 20
7.540000000
 30
0.000000000
 10
67.672098214
 20
7.540000000
 30
0.000000000
 10
67.341406250
 20
7.882299107
 30
0.000000000
  0
SPLINE
  5
B6D
330
A02
100
AcDbEntity
  8
ShapeString
100
AcDbSpline
210
0
220
0
230
1
 70
8
 71
2
 72
6
 73
3
 74
0
 40
0.000000000
 40
0.000000000
 40
0.000000000
 40
1.000000000
 40
1.000000000
 40
1.000000000
 10
68.761941964
 20
7.611316964
 30
0.000000000
 10
68.525892857
 20
7.540000000
 30
0.000000000
 10
68.258035714
 20
7.540000000
 30
0.000000000
  0
SPLINE
  5
B6E
330
A02
100
AcDbEntity
  8
ShapeString
100
AcDbSpline
210
0
220
0
230
1
 70
8
 71
2
 72
6
 73
3
 74
0
 40
0.000000000
 40
0.000000000
 40
0.000000000
 40
1.000000000
 40
1.000000000
 40
1.000000000
 10
69.193861607
 20
7.821919643
 30
0.000000000
 10
68.997991071
 20
7.682633929
 30
0.000000000
 10
68.761941964
 20
7.611316964
 30
0.000000000
  0
LINE
  5
B6F
330
A02
100
AcDbEntity
  8
ShapeString
100
AcDbLine
 10
69.193861607
 20
8.897142857
 30
0.000000000
 11
69.193861607
 21
7.821919643
 31
0.000000000
  0
LINE
  5
B70
330
A02
100
AcDbEntity
  8
ShapeString
100
AcDbLine
 10
68.306584821
 20
8.897142857
 30
0.000000000
 11
69.193861607
 21
8.897142857
 31
0.000000000
  0
LINE
  5
B71
330
A02
100
AcDbEntity
  8
ShapeString
100
AcDbLine
 10
68.306584821
 20
8.618571429
 30
0.000000000
 11
68.306584821
 21
8.897142857
 31
0.000000000
  0
LINE
  5
B72
330
A02
100
AcDbEntity
  8
ShapeString
100
AcDbLine
 10
68.859040179
 20
8.618571429
 30
0.000000000
 11
68.306584821
 21
8.618571429
 31
0.000000000
  0
LINE
  5
B73
330
A02
100
AcDbEntity
  8
ShapeString
100
AcDbLine
 10
69.811941964
 20
10.090000000
 30
0.000000000
 11
70.150111607
 21
10.090000000
 31
0.000000000
  0
LINE
  5
B74
330
A02
100
AcDbEntity
  8
ShapeString
100
AcDbLine
 10
69.811941964
 20
7.590000000
 30
0.000000000
 11
69.811941964
 21
10.090000000
 31
0.000000000
  0
LINE
  5
B75
330
A02
100
AcDbEntity
  8
ShapeString
100
AcDbLine
 10
70.150111607
 20
7.590000000
 30
0.000000000
 11
69.811941964
 21
7.590000000
 31
0.000000000
  0
LINE
  5
B76
330
A02
100
AcDbEntity
  8
ShapeString
100
AcDbLine
 10
70.150111607
 20
8.775714286
 30
0.000000000
 11
70.150111607
 21
7.590000000
 31
0.000000000
  0
LINE
  5
B77
330
A02
100
AcDbEntity
  8
ShapeString
100
AcDbLine
 10
71.378906250
 20
8.775714286
 30
0.000000000
 11
70.150111607
 21
8.775714286
 31
0.000000000
  0
LINE
  5
B78
330
A02
100
AcDbEntity
  8
ShapeString
100
AcDbLine
 10
71.378906250
 20
7.590000000
 30
0.000000000
 11
71.378906250
 21
8.775714286
 31
0.000000000
  0
LINE
  5
B79
330
A02
100
AcDbEntity
  8
ShapeString
100
AcDbLine
 10
71.717075893
 20
7.590000000
 30
0.000000000
 11
71.378906250
 21
7.590000000
 31
0.000000000
  0
LINE
  5
B7A
330
A02
100
AcDbEntity
  8
ShapeString
100
AcDbLine
 10
71.717075893
 20
10.090000000
 30
0.000000000
 11
71.717075893
 21
7.590000000
 31
0.000000000
  0
LINE
  5
B7B
330
A02
100
AcDbEntity
  8
ShapeString
100
AcDbLine
 10
71.378906250
 20
10.090000000
 30
0.000000000
 11
71.717075893
 21
10.090000000
 31
0.000000000
  0
LINE
  5
B7C
330
A02
100
AcDbEntity
  8
ShapeString
100
AcDbLine
 10
71.378906250
 20
9.061428571
 30
0.000000000
 11
71.378906250
 21
10.090000000
 31
0.000000000
  0
LINE
  5
B7D
330
A02
100
AcDbEntity
  8
ShapeString
100
AcDbLine
 10
70.150111607
 20
9.061428571
 30
0.000000000
 11
71.378906250
 21
9.061428571
 31
0.000000000
  0
LINE
  5
B7E
330
A02
100
AcDbEntity
  8
ShapeString
100
AcDbLine
 10
70.150111607
 20
10.090000000
 30
0.000000000
 11
70.150111607
 21
9.061428571
 31
0.000000000
  0
LINE
  5
B7F
330
A02
100
AcDbEntity
  8
ShapeString
100
AcDbLine
 10
72.043973214
 20
10.090000000
 30
0.000000000
 11
74.158370536
 21
10.090000000
 31
0.000000000
  0
LINE
  5
B80
330
A02
100
AcDbEntity
  8
ShapeString
100
AcDbLine
 10
72.043973214
 20
9.804285714
 30
0.000000000
 11
72.043973214
 21
10.090000000
 31
0.000000000
  0
LINE
  5
B81
330
A02
100
AcDbEntity
  8
ShapeString
100
AcDbLine
 10
72.931250000
 20
9.804285714
 30
0.000000000
 11
72.043973214
 21
9.804285714
 31
0.000000000
  0
LINE
  5
B82
330
A02
100
AcDbEntity
  8
ShapeString
100
AcDbLine
 10
72.931250000
 20
7.590000000
 30
0.000000000
 11
72.931250000
 21
9.804285714
 31
0.000000000
  0
LINE
  5
B83
330
A02
100
AcDbEntity
  8
ShapeString
100
AcDbLine
 10
73.271093750
 20
7.590000000
 30
0.000000000
 11
72.931250000
 21
7.590000000
 31
0.000000000
  0
LINE
  5
B84
330
A02
100
AcDbEntity
  8
ShapeString
100
AcDbLine
 10
73.271093750
 20
9.804285714
 30
0.000000000
 11
73.271093750
 21
7.590000000
 31
0.000000000
  0
LINE
  5
B85
330
A02
100
AcDbEntity
  8
ShapeString
100
AcDbLine
 10
74.158370536
 20
9.804285714
 30
0.000000000
 11
73.271093750
 21
9.804285714
 31
0.000000000
  0
LINE
  5
B86
330
A02
100
AcDbEntity
  8
ShapeString
100
AcDbLine
 10
74.158370536
 20
10.090000000
 30
0.000000000
 11
74.158370536
 21
9.804285714
 31
0.000000000
  0
LINE
  5
B87
330
A02
100
AcDbEntity
  8
ShapeString
100
AcDbLine
 10
76.953683036
 20
7.868571429
 30
0.000000000
 11
76.953683036
 21
6.875714286
 31
0.000000000
  0
SPLINE
  5
B88
330
A02
100
AcDbEntity
  8
ShapeString
100
AcDbSpline
210
0
220
0
230
1
 70
8
 71
2
 72
6
 73
3
 74
0
 40
0.000000000
 40
0.000000000
 40
0.000000000
 40
1.000000000
 40
1.000000000
 40
1.000000000
 10
77.198883929
 20
7.620915179
 30
0.000000000
 10
77.050781250
 20
7.701830357
 30
0.000000000
 10
76.953683036
 20
7.868571429
 30
0.000000000
  0
SPLINE
  5
B89
330
A02
100
AcDbEntity
  8
ShapeString
100
AcDbSpline
210
0
220
0
230
1
 70
8
 71
2
 72
6
 73
3
 74
0
 40
0.000000000
 40
0.000000000
 40
0.000000000
 40
1.000000000
 40
1.000000000
 40
1.000000000
 10
77.553013393
 20
7.540000000
 30
0.000000000
 10
77.347098214
 20
7.540000000
 30
0.000000000
 10
77.198883929
 20
7.620915179
 30
0.000000000
  0
SPLINE
  5
B8A
330
A02
100
AcDbEntity
  8
ShapeString
100
AcDbSpline
210
0
220
0
230
1
 70
8
 71
2
 72
6
 73
3
 74
0
 40
0.000000000
 40
0.000000000
 40
0.000000000
 40
1.000000000
 40
1.000000000
 40
1.000000000
 10
78.107924107
 20
7.811540179
 30
0.000000000
 10
77.894531250
 20
7.540000000
 30
0.000000000
 10
77.553013393
 20
7.540000000
 30
0.000000000
  0
SPLINE
  5
B8B
330
A02
100
AcDbEntity
  8
ShapeString
100
AcDbSpline
210
0
220
0
230
1
 70
8
 71
2
 72
6
 73
3
 74
0
 40
0.000000000
 40
0.000000000
 40
0.000000000
 40
1.000000000
 40
1.000000000
 40
1.000000000
 10
78.321428571
 20
8.525714286
 30
0.000000000
 10
78.321428571
 20
8.083191964
 30
0.000000000
 10
78.107924107
 20
7.811540179
 30
0.000000000
  0
SPLINE
  5
B8C
330
A02
100
AcDbEntity
  8
ShapeString
100
AcDbSpline
210
0
220
0
230
1
 70
8
 71
2
 72
6
 73
3
 74
0
 40
0.000000000
 40
0.000000000
 40
0.000000000
 40
1.000000000
 40
1.000000000
 40
1.000000000
 10
78.107924107
 20
9.239776786
 30
0.000000000
 10
78.321428571
 20
8.968236607
 30
0.000000000
 10
78.321428571
 20
8.525714286
 30
0.000000000
  0
SPLINE
  5
B8D
330
A02
100
AcDbEntity
  8
ShapeString
100
AcDbSpline
210
0
220
0
230
1
 70
8
 71
2
 72
6
 73
3
 74
0
 40
0.000000000
 40
0.000000000
 40
0.000000000
 40
1.000000000
 40
1.000000000
 40
1.000000000
 10
77.553013393
 20
9.511428571
 30
0.000000000
 10
77.894531250
 20
9.511428571
 30
0.000000000
 10
78.107924107
 20
9.239776786
 30
0.000000000
  0
SPLINE
  5
B8E
330
A02
100
AcDbEntity
  8
ShapeString
100
AcDbSpline
210
0
220
0
230
1
 70
8
 71
2
 72
6
 73
3
 74
0
 40
0.000000000
 40
0.000000000
 40
0.000000000
 40
1.000000000
 40
1.000000000
 40
1.000000000
 10
77.198883929
 20
9.430513393
 30
0.000000000
 10
77.347098214
 20
9.511428571
 30
0.000000000
 10
77.553013393
 20
9.511428571
 30
0.000000000
  0
SPLINE
  5
B8F
330
A02
100
AcDbEntity
  8
ShapeString
100
AcDbSpline
210
0
220
0
230
1
 70
8
 71
2
 72
6
 73
3
 74
0
 40
0.000000000
 40
0.000000000
 40
0.000000000
 40
1.000000000
 40
1.000000000
 40
1.000000000
 10
76.953683036
 20
9.182857143
 30
0.000000000
 10
77.050781250
 20
9.349598214
 30
0.000000000
 10
77.198883929
 20
9.430513393
 30
0.000000000
  0
LINE
  5
B90
330
A02
100
AcDbEntity
  8
ShapeString
100
AcDbLine
 10
76.953683036
 20
9.468571429
 30
0.000000000
 11
76.953683036
 21
9.182857143
 31
0.000000000
  0
LINE
  5
B91
330
A02
100
AcDbEntity
  8
ShapeString
100
AcDbLine
 10
76.643973214
 20
9.468571429
 30
0.000000000
 11
76.953683036
 21
9.468571429
 31
0.000000000
  0
LINE
  5
B92
330
A02
100
AcDbEntity
  8
ShapeString
100
AcDbLine
 10
76.643973214
 20
6.875714286
 30
0.000000000
 11
76.643973214
 21
9.468571429
 31
0.000000000
  0
LINE
  5
B93
330
A02
100
AcDbEntity
  8
ShapeString
100
AcDbLine
 10
76.953683036
 20
6.875714286
 30
0.000000000
 11
76.643973214
 21
6.875714286
 31
0.000000000
  0
SPLINE
  5
B94
330
A02
100
AcDbEntity
  8
ShapeString
100
AcDbSpline
210
0
220
0
230
1
 70
8
 71
2
 72
6
 73
3
 74
0
 40
0.000000000
 40
0.000000000
 40
0.000000000
 40
1.000000000
 40
1.000000000
 40
1.000000000
 10
78.001674107
 20
8.525714286
 30
0.000000000
 10
78.001674107
 20
8.866450893
 30
0.000000000
 10
77.861830357
 20
9.060312500
 30
0.000000000
  0
SPLINE
  5
B95
330
A02
100
AcDbEntity
  8
ShapeString
100
AcDbSpline
210
0
220
0
230
1
 70
8
 71
2
 72
6
 73
3
 74
0
 40
0.000000000
 40
0.000000000
 40
0.000000000
 40
1.000000000
 40
1.000000000
 40
1.000000000
 10
77.861830357
 20
7.991004464
 30
0.000000000
 10
78.001674107
 20
8.184977679
 30
0.000000000
 10
78.001674107
 20
8.525714286
 30
0.000000000
  0
SPLINE
  5
B96
330
A02
100
AcDbEntity
  8
ShapeString
100
AcDbSpline
210
0
220
0
230
1
 70
8
 71
2
 72
6
 73
3
 74
0
 40
0.000000000
 40
0.000000000
 40
0.000000000
 40
1.000000000
 40
1.000000000
 40
1.000000000
 10
77.477678571
 20
7.797142857
 30
0.000000000
 10
77.722098214
 20
7.797142857
 30
0.000000000
 10
77.861830357
 20
7.991004464
 30
0.000000000
  0
SPLINE
  5
B97
330
A02
100
AcDbEntity
  8
ShapeString
100
AcDbSpline
210
0
220
0
230
1
 70
8
 71
2
 72
6
 73
3
 74
0
 40
0.000000000
 40
0.000000000
 40
0.000000000
 40
1.000000000
 40
1.000000000
 40
1.000000000
 10
77.093415179
 20
7.991004464
 30
0.000000000
 10
77.233258929
 20
7.797142857
 30
0.000000000
 10
77.477678571
 20
7.797142857
 30
0.000000000
  0
SPLINE
  5
B98
330
A02
100
AcDbEntity
  8
ShapeString
100
AcDbSpline
210
0
220
0
230
1
 70
8
 71
2
 72
6
 73
3
 74
0
 40
0.000000000
 40
0.000000000
 40
0.000000000
 40
1.000000000
 40
1.000000000
 40
1.000000000
 10
76.953683036
 20
8.525714286
 30
0.000000000
 10
76.953683036
 20
8.184977679
 30
0.000000000
 10
77.093415179
 20
7.991004464
 30
0.000000000
  0
SPLINE
  5
B99
330
A02
100
AcDbEntity
  8
ShapeString
100
AcDbSpline
210
0
220
0
230
1
 70
8
 71
2
 72
6
 73
3
 74
0
 40
0.000000000
 40
0.000000000
 40
0.000000000
 40
1.000000000
 40
1.000000000
 40
1.000000000
 10
77.093415179
 20
9.060312500
 30
0.000000000
 10
76.953683036
 20
8.866450893
 30
0.000000000
 10
76.953683036
 20
8.525714286
 30
0.000000000
  0
SPLINE
  5
B9A
330
A02
100
AcDbEntity
  8
ShapeString
100
AcDbSpline
210
0
220
0
230
1
 70
8
 71
2
 72
6
 73
3
 74
0
 40
0.000000000
 40
0.000000000
 40
0.000000000
 40
1.000000000
 40
1.000000000
 40
1.000000000
 10
77.477678571
 20
9.254285714
 30
0.000000000
 10
77.233258929
 20
9.254285714
 30
0.000000000
 10
77.093415179
 20
9.060312500
 30
0.000000000
  0
SPLINE
  5
B9B
330
A02
100
AcDbEntity
  8
ShapeString
100
AcDbSpline
210
0
220
0
230
1
 70
8
 71
2
 72
6
 73
3
 74
0
 40
0.000000000
 40
0.000000000
 40
0.000000000
 40
1.000000000
 40
1.000000000
 40
1.000000000
 10
77.861830357
 20
9.060312500
 30
0.000000000
 10
77.722098214
 20
9.254285714
 30
0.000000000
 10
77.477678571
 20
9.254285714
 30
0.000000000
  0
LINE
  5
B9C
330
A02
100
AcDbEntity
  8
ShapeString
100
AcDbLine
 10
78.834263393
 20
9.468571429
 30
0.000000000
 11
79.142299107
 21
9.468571429
 31
0.000000000
  0
LINE
  5
B9D
330
A02
100
AcDbEntity
  8
ShapeString
100
AcDbLine
 10
78.834263393
 20
7.590000000
 30
0.000000000
 11
78.834263393
 21
9.468571429
 31
0.000000000
  0
LINE
  5
B9E
330
A02
100
AcDbEntity
  8
ShapeString
100
AcDbLine
 10
79.142299107
 20
7.590000000
 30
0.000000000
 11
78.834263393
 21
7.590000000
 31
0.000000000
  0
LINE
  5
B9F
330
A02
100
AcDbEntity
  8
ShapeString
100
AcDbLine
 10
79.142299107
 20
9.468571429
 30
0.000000000
 11
79.142299107
 21
7.590000000
 31
0.000000000
  0
LINE
  5
BA0
330
A02
100
AcDbEntity
  8
ShapeString
100
AcDbLine
 10
78.834263393
 20
10.197142857
 30
0.000000000
 11
79.142299107
 21
10.197142857
 31
0.000000000
  0
LINE
  5
BA1
330
A02
100
AcDbEntity
  8
ShapeString
100
AcDbLine
 10
78.834263393
 20
9.804285714
 30
0.000000000
 11
78.834263393
 21
10.197142857
 31
0.000000000
  0
LINE
  5
BA2
330
A02
100
AcDbEntity
  8
ShapeString
100
AcDbLine
 10
79.142299107
 20
9.804285714
 30
0.000000000
 11
78.834263393
 21
9.804285714
 31
0.000000000
  0
LINE
  5
BA3
330
A02
100
AcDbEntity
  8
ShapeString
100
AcDbLine
 10
79.142299107
 20
10.197142857
 30
0.000000000
 11
79.142299107
 21
9.804285714
 31
0.000000000
  0
LINE
  5
BA4
330
A02
100
AcDbEntity
  8
ShapeString
100
AcDbLine
 10
81.342857143
 20
8.723147321
 30
0.000000000
 11
81.342857143
 21
7.590000000
 31
0.000000000
  0
SPLINE
  5
BA5
330
A02
100
AcDbEntity
  8
ShapeString
100
AcDbSpline
210
0
220
0
230
1
 70
8
 71
2
 72
6
 73
3
 74
0
 40
0.000000000
 40
0.000000000
 40
0.000000000
 40
1.000000000
 40
1.000000000
 40
1.000000000
 10
81.177120536
 20
9.311428571
 30
0.000000000
 10
81.342857143
 20
9.111428571
 30
0.000000000
 10
81.342857143
 20
8.723147321
 30
0.000000000
  0
SPLINE
  5
BA6
330
A02
100
AcDbEntity
  8
ShapeString
100
AcDbSpline
210
0
220
0
230
1
 70
8
 71
2
 72
6
 73
3
 74
0
 40
0.000000000
 40
0.000000000
 40
0.000000000
 40
1.000000000
 40
1.000000000
 40
1.000000000
 10
80.688281250
 20
9.511428571
 30
0.000000000
 10
81.011383929
 20
9.511428571
 30
0.000000000
 10
81.177120536
 20
9.311428571
 30
0.000000000
  0
SPLINE
  5
BA7
330
A02
100
AcDbEntity
  8
ShapeString
100
AcDbSpline
210
0
220
0
230
1
 70
8
 71
2
 72
6
 73
3
 74
0
 40
0.000000000
 40
0.000000000
 40
0.000000000
 40
1.000000000
 40
1.000000000
 40
1.000000000
 10
80.342522321
 20
9.427834821
 30
0.000000000
 10
80.492410714
 20
9.511428571
 30
0.000000000
 10
80.688281250
 20
9.511428571
 30
0.000000000
  0
SPLINE
  5
BA8
330
A02
100
AcDbEntity
  8
ShapeString
100
AcDbSpline
210
0
220
0
230
1
 70
8
 71
2
 72
6
 73
3
 74
0
 40
0.000000000
 40
0.000000000
 40
0.000000000
 40
1.000000000
 40
1.000000000
 40
1.000000000
 10
80.082254464
 20
9.175714286
 30
0.000000000
 10
80.192745536
 20
9.344352679
 30
0.000000000
 10
80.342522321
 20
9.427834821
 30
0.000000000
  0
LINE
  5
BA9
330
A02
100
AcDbEntity
  8
ShapeString
100
AcDbLine
 10
80.082254464
 20
9.468571429
 30
0.000000000
 11
80.082254464
 21
9.175714286
 31
0.000000000
  0
LINE
  5
BAA
330
A02
100
AcDbEntity
  8
ShapeString
100
AcDbLine
 10
79.772544643
 20
9.468571429
 30
0.000000000
 11
80.082254464
 21
9.468571429
 31
0.000000000
  0
LINE
  5
BAB
330
A02
100
AcDbEntity
  8
ShapeString
100
AcDbLine
 10
79.772544643
 20
7.590000000
 30
0.000000000
 11
79.772544643
 21
9.468571429
 31
0.000000000
  0
LINE
  5
BAC
330
A02
100
AcDbEntity
  8
ShapeString
100
AcDbLine
 10
80.082254464
 20
7.590000000
 30
0.000000000
 11
79.772544643
 21
7.590000000
 31
0.000000000
  0
LINE
  5
BAD
330
A02
100
AcDbEntity
  8
ShapeString
100
AcDbLine
 10
80.082254464
 20
8.651049107
 30
0.000000000
 11
80.082254464
 21
7.590000000
 31
0.000000000
  0
SPLINE
  5
BAE
330
A02
100
AcDbEntity
  8
ShapeString
100
AcDbSpline
210
0
220
0
230
1
 70
8
 71
2
 72
6
 73
3
 74
0
 40
0.000000000
 40
0.000000000
 40
0.000000000
 40
1.000000000
 40
1.000000000
 40
1.000000000
 10
80.226227679
 20
9.081964286
 30
0.000000000
 10
80.082254464
 20
8.923928571
 30
0.000000000
 10
80.082254464
 20
8.651049107
 30
0.000000000
  0
SPLINE
  5
BAF
330
A02
100
AcDbEntity
  8
ShapeString
100
AcDbSpline
210
0
220
0
230
1
 70
8
 71
2
 72
6
 73
3
 74
0
 40
0.000000000
 40
0.000000000
 40
0.000000000
 40
1.000000000
 40
1.000000000
 40
1.000000000
 10
80.619642857
 20
9.240000000
 30
0.000000000
 10
80.370200893
 20
9.240000000
 30
0.000000000
 10
80.226227679
 20
9.081964286
 30
0.000000000
  0
SPLINE
  5
BB0
330
A02
100
AcDbEntity
  8
ShapeString
100
AcDbSpline
210
0
220
0
230
1
 70
8
 71
2
 72
6
 73
3
 74
0
 40
0.000000000
 40
0.000000000
 40
0.000000000
 40
1.000000000
 40
1.000000000
 40
1.000000000
 10
80.931026786
 20
9.108638393
 30
0.000000000
 10
80.827232143
 20
9.240000000
 30
0.000000000
 10
80.619642857
 20
9.240000000
 30
0.000000000
  0
SPLINE
  5
BB1
330
A02
100
AcDbEntity
  8
ShapeString
100
AcDbSpline
210
0
220
0
230
1
 70
8
 71
2
 72
6
 73
3
 74
0
 40
0.000000000
 40
0.000000000
 40
0.000000000
 40
1.000000000
 40
1.000000000
 40
1.000000000
 10
81.034821429
 20
8.713102679
 30
0.000000000
 10
81.034821429
 20
8.977388393
 30
0.000000000
 10
80.931026786
 20
9.108638393
 30
0.000000000
  0
LINE
  5
BB2
330
A02
100
AcDbEntity
  8
ShapeString
100
AcDbLine
 10
81.034821429
 20
7.590000000
 30
0.000000000
 11
81.034821429
 21
8.713102679
 31
0.000000000
  0
LINE
  5
BB3
330
A02
100
AcDbEntity
  8
ShapeString
100
AcDbLine
 10
81.342857143
 20
7.590000000
 30
0.000000000
 11
81.034821429
 21
7.590000000
 31
0.000000000
  0
LINE
  5
BB4
330
A02
100
AcDbEntity
  8
ShapeString
100
AcDbLine
 10
82.839620536
 20
10.090000000
 30
0.000000000
 11
83.264843750
 21
10.090000000
 31
0.000000000
  0
LINE
  5
BB5
330
A02
100
AcDbEntity
  8
ShapeString
100
AcDbLine
 10
81.800000000
 20
8.508750000
 30
0.000000000
 11
82.839620536
 21
10.090000000
 31
0.000000000
  0
LINE
  5
BB6
330
A02
100
AcDbEntity
  8
ShapeString
100
AcDbLine
 10
81.800000000
 20
8.182857143
 30
0.000000000
 11
81.800000000
 21
8.508750000
 31
0.000000000
  0
LINE
  5
BB7
330
A02
100
AcDbEntity
  8
ShapeString
100
AcDbLine
 10
82.928348214
 20
8.182857143
 30
0.000000000
 11
81.800000000
 21
8.182857143
 31
0.000000000
  0
LINE
  5
BB8
330
A02
100
AcDbEntity
  8
ShapeString
100
AcDbLine
 10
82.928348214
 20
7.590000000
 30
0.000000000
 11
82.928348214
 21
8.182857143
 31
0.000000000
  0
LINE
  5
BB9
330
A02
100
AcDbEntity
  8
ShapeString
100
AcDbLine
 10
83.264843750
 20
7.590000000
 30
0.000000000
 11
82.928348214
 21
7.590000000
 31
0.000000000
  0
LINE
  5
BBA
330
A02
100
AcDbEntity
  8
ShapeString
100
AcDbLine
 10
83.264843750
 20
8.182857143
 30
0.000000000
 11
83.264843750
 21
7.590000000
 31
0.000000000
  0
LINE
  5
BBB
330
A02
100
AcDbEntity
  8
ShapeString
100
AcDbLine
 10
83.621428571
 20
8.182857143
 30
0.000000000
 11
83.264843750
 21
8.182857143
 31
0.000000000
  0
LINE
  5
BBC
330
A02
100
AcDbEntity
  8
ShapeString
100
AcDbLine
 10
83.621428571
 20
8.461428571
 30
0.000000000
 11
83.621428571
 21
8.182857143
 31
0.000000000
  0
LINE
  5
BBD
330
A02
100
AcDbEntity
  8
ShapeString
100
AcDbLine
 10
83.264843750
 20
8.461428571
 30
0.000000000
 11
83.621428571
 21
8.461428571
 31
0.000000000
  0
LINE
  5
BBE
330
A02
100
AcDbEntity
  8
ShapeString
100
AcDbLine
 10
83.264843750
 20
10.090000000
 30
0.000000000
 11
83.264843750
 21
8.461428571
 31
0.000000000
  0
LINE
  5
BBF
330
A02
100
AcDbEntity
  8
ShapeString
100
AcDbLine
 10
82.928348214
 20
9.795468750
 30
0.000000000
 11
82.074553571
 21
8.461428571
 31
0.000000000
  0
LINE
  5
BC0
330
A02
100
AcDbEntity
  8
ShapeString
100
AcDbLine
 10
82.928348214
 20
8.461428571
 30
0.000000000
 11
82.928348214
 21
9.795468750
 31
0.000000000
  0
LINE
  5
BC1
330
A02
100
AcDbEntity
  8
ShapeString
100
AcDbLine
 10
82.074553571
 20
8.461428571
 30
0.000000000
 11
82.928348214
 21
8.461428571
 31
0.000000000
  0
SPLINE
  5
BC2
330
A02
100
AcDbEntity
  8
ShapeString
100
AcDbSpline
210
0
220
0
230
1
 70
8
 71
2
 72
6
 73
3
 74
0
 40
0.000000000
 40
0.000000000
 40
0.000000000
 40
1.000000000
 40
1.000000000
 40
1.000000000
 10
84.901004464
 20
10.132857143
 30
0.000000000
 10
85.321205357
 20
10.132857143
 30
0.000000000
 10
85.542968750
 20
9.800602679
 30
0.000000000
  0
SPLINE
  5
BC3
330
A02
100
AcDbEntity
  8
ShapeString
100
AcDbSpline
210
0
220
0
230
1
 70
8
 71
2
 72
6
 73
3
 74
0
 40
0.000000000
 40
0.000000000
 40
0.000000000
 40
1.000000000
 40
1.000000000
 40
1.000000000
 10
84.258928571
 20
9.800602679
 30
0.000000000
 10
84.480803571
 20
10.132857143
 30
0.000000000
 10
84.901004464
 20
10.132857143
 30
0.000000000
  0
SPLINE
  5
BC4
330
A02
100
AcDbEntity
  8
ShapeString
100
AcDbSpline
210
0
220
0
230
1
 70
8
 71
2
 72
6
 73
3
 74
0
 40
0.000000000
 40
0.000000000
 40
0.000000000
 40
1.000000000
 40
1.000000000
 40
1.000000000
 10
84.037165179
 20
8.835647321
 30
0.000000000
 10
84.037165179
 20
9.468348214
 30
0.000000000
 10
84.258928571
 20
9.800602679
 30
0.000000000
  0
SPLINE
  5
BC5
330
A02
100
AcDbEntity
  8
ShapeString
100
AcDbSpline
210
0
220
0
230
1
 70
8
 71
2
 72
6
 73
3
 74
0
 40
0.000000000
 40
0.000000000
 40
0.000000000
 40
1.000000000
 40
1.000000000
 40
1.000000000
 10
84.258928571
 20
7.872254464
 30
0.000000000
 10
84.037165179
 20
8.204508929
 30
0.000000000
 10
84.037165179
 20
8.835647321
 30
0.000000000
  0
SPLINE
  5
BC6
330
A02
100
AcDbEntity
  8
ShapeString
100
AcDbSpline
210
0
220
0
230
1
 70
8
 71
2
 72
6
 73
3
 74
0
 40
0.000000000
 40
0.000000000
 40
0.000000000
 40
1.000000000
 40
1.000000000
 40
1.000000000
 10
84.901004464
 20
7.540000000
 30
0.000000000
 10
84.480803571
 20
7.540000000
 30
0.000000000
 10
84.258928571
 20
7.872254464
 30
0.000000000
  0
SPLINE
  5
BC7
330
A02
100
AcDbEntity
  8
ShapeString
100
AcDbSpline
210
0
220
0
230
1
 70
8
 71
2
 72
6
 73
3
 74
0
 40
0.000000000
 40
0.000000000
 40
0.000000000
 40
1.000000000
 40
1.000000000
 40
1.000000000
 10
85.542968750
 20
7.872254464
 30
0.000000000
 10
85.321205357
 20
7.540000000
 30
0.000000000
 10
84.901004464
 20
7.540000000
 30
0.000000000
  0
SPLINE
  5
BC8
330
A02
100
AcDbEntity
  8
ShapeString
100
AcDbSpline
210
0
220
0
230
1
 70
8
 71
2
 72
6
 73
3
 74
0
 40
0.000000000
 40
0.000000000
 40
0.000000000
 40
1.000000000
 40
1.000000000
 40
1.000000000
 10
85.764843750
 20
8.835647321
 30
0.000000000
 10
85.764843750
 20
8.204508929
 30
0.000000000
 10
85.542968750
 20
7.872254464
 30
0.000000000
  0
SPLINE
  5
BC9
330
A02
100
AcDbEntity
  8
ShapeString
100
AcDbSpline
210
0
220
0
230
1
 70
8
 71
2
 72
6
 73
3
 74
0
 40
0.000000000
 40
0.000000000
 40
0.000000000
 40
1.000000000
 40
1.000000000
 40
1.000000000
 10
85.542968750
 20
9.800602679
 30
0.000000000
 10
85.764843750
 20
9.468348214
 30
0.000000000
 10
85.764843750
 20
8.835647321
 30
0.000000000
  0
SPLINE
  5
BCA
330
A02
100
AcDbEntity
  8
ShapeString
100
AcDbSpline
210
0
220
0
230
1
 70
8
 71
2
 72
6
 73
3
 74
0
 40
0.000000000
 40
0.000000000
 40
0.000000000
 40
1.000000000
 40
1.000000000
 40
1.000000000
 10
84.901004464
 20
9.861428571
 30
0.000000000
 10
84.639843750
 20
9.861428571
 30
0.000000000
 10
84.508370536
 20
9.605401786
 30
0.000000000
  0
SPLINE
  5
BCB
330
A02
100
AcDbEntity
  8
ShapeString
100
AcDbSpline
210
0
220
0
230
1
 70
8
 71
2
 72
6
 73
3
 74
0
 40
0.000000000
 40
0.000000000
 40
0.000000000
 40
1.000000000
 40
1.000000000
 40
1.000000000
 10
85.295200893
 20
9.605401786
 30
0.000000000
 10
85.163839286
 20
9.861428571
 30
0.000000000
 10
84.901004464
 20
9.861428571
 30
0.000000000
  0
SPLINE
  5
BCC
330
A02
100
AcDbEntity
  8
ShapeString
100
AcDbSpline
210
0
220
0
230
1
 70
8
 71
2
 72
6
 73
3
 74
0
 40
0.000000000
 40
0.000000000
 40
0.000000000
 40
1.000000000
 40
1.000000000
 40
1.000000000
 10
85.426674107
 20
8.835647321
 30
0.000000000
 10
85.426674107
 20
9.349375000
 30
0.000000000
 10
85.295200893
 20
9.605401786
 30
0.000000000
  0
SPLINE
  5
BCD
330
A02
100
AcDbEntity
  8
ShapeString
100
AcDbSpline
210
0
220
0
230
1
 70
8
 71
2
 72
6
 73
3
 74
0
 40
0.000000000
 40
0.000000000
 40
0.000000000
 40
1.000000000
 40
1.000000000
 40
1.000000000
 10
85.295200893
 20
8.067455357
 30
0.000000000
 10
85.426674107
 20
8.323482143
 30
0.000000000
 10
85.426674107
 20
8.835647321
 30
0.000000000
  0
SPLINE
  5
BCE
330
A02
100
AcDbEntity
  8
ShapeString
100
AcDbSpline
210
0
220
0
230
1
 70
8
 71
2
 72
6
 73
3
 74
0
 40
0.000000000
 40
0.000000000
 40
0.000000000
 40
1.000000000
 40
1.000000000
 40
1.000000000
 10
84.901004464
 20
7.811428571
 30
0.000000000
 10
85.163839286
 20
7.811428571
 30
0.000000000
 10
85.295200893
 20
8.067455357
 30
0.000000000
  0
SPLINE
  5
BCF
330
A02
100
AcDbEntity
  8
ShapeString
100
AcDbSpline
210
0
220
0
230
1
 70
8
 71
2
 72
6
 73
3
 74
0
 40
0.000000000
 40
0.000000000
 40
0.000000000
 40
1.000000000
 40
1.000000000
 40
1.000000000
 10
84.508370536
 20
8.067455357
 30
0.000000000
 10
84.639843750
 20
7.811428571
 30
0.000000000
 10
84.901004464
 20
7.811428571
 30
0.000000000
  0
SPLINE
  5
BD0
330
A02
100
AcDbEntity
  8
ShapeString
100
AcDbSpline
210
0
220
0
230
1
 70
8
 71
2
 72
6
 73
3
 74
0
 40
0.000000000
 40
0.000000000
 40
0.000000000
 40
1.000000000
 40
1.000000000
 40
1.000000000
 10
84.377008929
 20
8.835647321
 30
0.000000000
 10
84.377008929
 20
8.323482143
 30
0.000000000
 10
84.508370536
 20
8.067455357
 30
0.000000000
  0
SPLINE
  5
BD1
330
A02
100
AcDbEntity
  8
ShapeString
100
AcDbSpline
210
0
220
0
230
1
 70
8
 71
2
 72
6
 73
3
 74
0
 40
0.000000000
 40
0.000000000
 40
0.000000000
 40
1.000000000
 40
1.000000000
 40
1.000000000
 10
84.508370536
 20
9.605401786
 30
0.000000000
 10
84.377008929
 20
9.349375000
 30
0.000000000
 10
84.377008929
 20
8.835647321
 30
0.000000000
  0
LINE
  5
BD2
330
A02
100
AcDbEntity
  8
ShapeString
100
AcDbLine
 10
86.353013393
 20
8.461428571
 30
0.000000000
 11
88.499218750
 21
8.461428571
 31
0.000000000
  0
LINE
  5
BD3
330
A02
100
AcDbEntity
  8
ShapeString
100
AcDbLine
 10
86.353013393
 20
8.175714286
 30
0.000000000
 11
86.353013393
 21
8.461428571
 31
0.000000000
  0
LINE
  5
BD4
330
A02
100
AcDbEntity
  8
ShapeString
100
AcDbLine
 10
88.499218750
 20
8.175714286
 30
0.000000000
 11
86.353013393
 21
8.175714286
 31
0.000000000
  0
LINE
  5
BD5
330
A02
100
AcDbEntity
  8
ShapeString
100
AcDbLine
 10
88.499218750
 20
8.461428571
 30
0.000000000
 11
88.499218750
 21
8.175714286
 31
0.000000000
  0
LINE
  5
BD6
330
A02
100
AcDbEntity
  8
ShapeString
100
AcDbLine
 10
86.353013393
 20
9.140000000
 30
0.000000000
 11
88.499218750
 21
9.140000000
 31
0.000000000
  0
LINE
  5
BD7
330
A02
100
AcDbEntity
  8
ShapeString
100
AcDbLine
 10
86.353013393
 20
8.861428571
 30
0.000000000
 11
86.353013393
 21
9.140000000
 31
0.000000000
  0
LINE
  5
BD8
330
A02
100
AcDbEntity
  8
ShapeString
100
AcDbLine
 10
88.499218750
 20
8.861428571
 30
0.000000000
 11
86.353013393
 21
8.861428571
 31
0.000000000
  0
LINE
  5
BD9
330
A02
100
AcDbEntity
  8
ShapeString
100
AcDbLine
 10
88.499218750
 20
9.140000000
 30
0.000000000
 11
88.499218750
 21
8.861428571
 31
0.000000000
  0
LINE
  5
BDA
330
A02
100
AcDbEntity
  8
ShapeString
100
AcDbLine
 10
89.197656250
 20
10.090000000
 30
0.000000000
 11
89.535825893
 21
10.090000000
 31
0.000000000
  0
LINE
  5
BDB
330
A02
100
AcDbEntity
  8
ShapeString
100
AcDbLine
 10
89.197656250
 20
7.590000000
 30
0.000000000
 11
89.197656250
 21
10.090000000
 31
0.000000000
  0
LINE
  5
BDC
330
A02
100
AcDbEntity
  8
ShapeString
100
AcDbLine
 10
90.752901786
 20
7.590000000
 30
0.000000000
 11
89.197656250
 21
7.590000000
 31
0.000000000
  0
LINE
  5
BDD
330
A02
100
AcDbEntity
  8
ShapeString
100
AcDbLine
 10
90.752901786
 20
7.875714286
 30
0.000000000
 11
90.752901786
 21
7.590000000
 31
0.000000000
  0
LINE
  5
BDE
330
A02
100
AcDbEntity
  8
ShapeString
100
AcDbLine
 10
89.535825893
 20
7.875714286
 30
0.000000000
 11
90.752901786
 21
7.875714286
 31
0.000000000
  0
LINE
  5
BDF
330
A02
100
AcDbEntity
  8
ShapeString
100
AcDbLine
 10
89.535825893
 20
10.090000000
 30
0.000000000
 11
89.535825893
 21
7.875714286
 31
0.000000000
  0
LINE
  5
BE0
330
A02
100
AcDbEntity
  8
ShapeString
100
AcDbLine
 10
91.104799107
 20
10.090000000
 30
0.000000000
 11
92.685156250
 21
10.090000000
 31
0.000000000
  0
LINE
  5
BE1
330
A02
100
AcDbEntity
  8
ShapeString
100
AcDbLine
 10
91.104799107
 20
7.590000000
 30
0.000000000
 11
91.104799107
 21
10.090000000
 31
0.000000000
  0
LINE
  5
BE2
330
A02
100
AcDbEntity
  8
ShapeString
100
AcDbLine
 10
92.715290179
 20
7.590000000
 30
0.000000000
 11
91.104799107
 21
7.590000000
 31
0.000000000
  0
LINE
  5
BE3
330
A02
100
AcDbEntity
  8
ShapeString
100
AcDbLine
 10
92.715290179
 20
7.875714286
 30
0.000000000
 11
92.715290179
 21
7.590000000
 31
0.000000000
  0
LINE
  5
BE4
330
A02
100
AcDbEntity
  8
ShapeString
100
AcDbLine
 10
91.442968750
 20
7.875714286
 30
0.000000000
 11
92.715290179
 21
7.875714286
 31
0.000000000
  0
LINE
  5
BE5
330
A02
100
AcDbEntity
  8
ShapeString
100
AcDbLine
 10
91.442968750
 20
8.775714286
 30
0.000000000
 11
91.442968750
 21
7.875714286
 31
0.000000000
  0
LINE
  5
BE6
330
A02
100
AcDbEntity
  8
ShapeString
100
AcDbLine
 10
92.633258929
 20
8.775714286
 30
0.000000000
 11
91.442968750
 21
8.775714286
 31
0.000000000
  0
LINE
  5
BE7
330
A02
100
AcDbEntity
  8
ShapeString
100
AcDbLine
 10
92.633258929
 20
9.061428571
 30
0.000000000
 11
92.633258929
 21
8.775714286
 31
0.000000000
  0
LINE
  5
BE8
330
A02
100
AcDbEntity
  8
ShapeString
100
AcDbLine
 10
91.442968750
 20
9.061428571
 30
0.000000000
 11
92.633258929
 21
9.061428571
 31
0.000000000
  0
LINE
  5
BE9
330
A02
100
AcDbEntity
  8
ShapeString
100
AcDbLine
 10
91.442968750
 20
9.804285714
 30
0.000000000
 11
91.442968750
 21
9.061428571
 31
0.000000000
  0
LINE
  5
BEA
330
A02
100
AcDbEntity
  8
ShapeString
100
AcDbLine
 10
92.685156250
 20
9.804285714
 30
0.000000000
 11
91.442968750
 21
9.804285714
 31
0.000000000
  0
LINE
  5
BEB
330
A02
100
AcDbEntity
  8
ShapeString
100
AcDbLine
 10
92.685156250
 20
10.090000000
 30
0.000000000
 11
92.685156250
 21
9.804285714
 31
0.000000000
  0
LINE
  5
BEC
330
A02
100
AcDbEntity
  8
ShapeString
100
AcDbLine
 10
93.269084821
 20
10.090000000
 30
0.000000000
 11
94.705468750
 21
10.090000000
 31
0.000000000
  0
LINE
  5
BED
330
A02
100
AcDbEntity
  8
ShapeString
100
AcDbLine
 10
93.269084821
 20
7.590000000
 30
0.000000000
 11
93.269084821
 21
10.090000000
 31
0.000000000
  0
LINE
  5
BEE
330
A02
100
AcDbEntity
  8
ShapeString
100
AcDbLine
 10
93.607254464
 20
7.590000000
 30
0.000000000
 11
93.269084821
 21
7.590000000
 31
0.000000000
  0
LINE
  5
BEF
330
A02
100
AcDbEntity
  8
ShapeString
100
AcDbLine
 10
93.607254464
 20
8.782857143
 30
0.000000000
 11
93.607254464
 21
7.590000000
 31
0.000000000
  0
LINE
  5
BF0
330
A02
100
AcDbEntity
  8
ShapeString
100
AcDbLine
 10
94.598325893
 20
8.782857143
 30
0.000000000
 11
93.607254464
 21
8.782857143
 31
0.000000000
  0
LINE
  5
BF1
330
A02
100
AcDbEntity
  8
ShapeString
100
AcDbLine
 10
94.598325893
 20
9.068571429
 30
0.000000000
 11
94.598325893
 21
8.782857143
 31
0.000000000
  0
LINE
  5
BF2
330
A02
100
AcDbEntity
  8
ShapeString
100
AcDbLine
 10
93.607254464
 20
9.068571429
 30
0.000000000
 11
94.598325893
 21
9.068571429
 31
0.000000000
  0
LINE
  5
BF3
330
A02
100
AcDbEntity
  8
ShapeString
100
AcDbLine
 10
93.607254464
 20
9.804285714
 30
0.000000000
 11
93.607254464
 21
9.068571429
 31
0.000000000
  0
LINE
  5
BF4
330
A02
100
AcDbEntity
  8
ShapeString
100
AcDbLine
 10
94.705468750
 20
9.804285714
 30
0.000000000
 11
93.607254464
 21
9.804285714
 31
0.000000000
  0
LINE
  5
BF5
330
A02
100
AcDbEntity
  8
ShapeString
100
AcDbLine
 10
94.705468750
 20
10.090000000
 30
0.000000000
 11
94.705468750
 21
9.804285714
 31
0.000000000
  0
LINE
  5
BF6
330
A02
100
AcDbEntity
  8
ShapeString
100
AcDbLine
 10
94.836830357
 20
10.090000000
 30
0.000000000
 11
96.951227679
 21
10.090000000
 31
0.000000000
  0
LINE
  5
BF7
330
A02
100
AcDbEntity
  8
ShapeString
100
AcDbLine
 10
94.836830357
 20
9.804285714
 30
0.000000000
 11
94.836830357
 21
10.090000000
 31
0.000000000
  0
LINE
  5
BF8
330
A02
100
AcDbEntity
  8
ShapeString
100
AcDbLine
 10
95.724107143
 20
9.804285714
 30
0.000000000
 11
94.836830357
 21
9.804285714
 31
0.000000000
  0
LINE
  5
BF9
330
A02
100
AcDbEntity
  8
ShapeString
100
AcDbLine
 10
95.724107143
 20
7.590000000
 30
0.000000000
 11
95.724107143
 21
9.804285714
 31
0.000000000
  0
LINE
  5
BFA
330
A02
100
AcDbEntity
  8
ShapeString
100
AcDbLine
 10
96.063950893
 20
7.590000000
 30
0.000000000
 11
95.724107143
 21
7.590000000
 31
0.000000000
  0
LINE
  5
BFB
330
A02
100
AcDbEntity
  8
ShapeString
100
AcDbLine
 10
96.063950893
 20
9.804285714
 30
0.000000000
 11
96.063950893
 21
7.590000000
 31
0.000000000
  0
LINE
  5
BFC
330
A02
100
AcDbEntity
  8
ShapeString
100
AcDbLine
 10
96.951227679
 20
9.804285714
 30
0.000000000
 11
96.063950893
 21
9.804285714
 31
0.000000000
  0
LINE
  5
BFD
330
A02
100
AcDbEntity
  8
ShapeString
100
AcDbLine
 10
96.951227679
 20
10.090000000
 30
0.000000000
 11
96.951227679
 21
9.804285714
 31
0.000000000
  0
ENDSEC
  0
SECTION
  2
OBJECTS
  0
DICTIONARY
  5
F000
330
0
100
AcDbDictionary
  3
ACAD_GROUP
350
F001
  0
DICTIONARY
  5
F001
330
F000
100
AcDbDictionary
  0
ENDSEC
  0
EOF